<?xml version="1.0" encoding="UTF-8"?>
<svg id="Layer_1" data-name="Layer 1" xmlns="http://www.w3.org/2000/svg" version="1.1" xmlns:xlink="http://www.w3.org/1999/xlink" viewBox="0 0 184.37 19.58">
  <defs>
    <style>
      .cls-1 {
        clip-path: url(#clippath-2);
      }

      .cls-2 {
        clip-path: url(#clippath-6);
      }

      .cls-3 {
        fill: none;
      }

      .cls-3, .cls-4 {
        stroke-width: 0px;
      }

      .cls-5 {
        clip-path: url(#clippath-7);
      }

      .cls-6 {
        clip-path: url(#clippath-1);
      }

      .cls-7 {
        clip-path: url(#clippath-4);
      }

      .cls-4 {
        fill: #fed700;
      }

      .cls-8 {
        clip-path: url(#clippath);
      }

      .cls-9 {
        clip-path: url(#clippath-3);
      }

      .cls-10 {
        clip-path: url(#clippath-5);
      }
    </style>
    <clipPath id="clippath">
      <polygon class="cls-3" points="2.24 2.27 .08 .11 .08 2.27 2.24 2.27"/>
    </clipPath>
    <clipPath id="clippath-1">
      <polygon class="cls-3" points="2.24 2.27 .08 .11 2.24 .11 2.24 2.27"/>
    </clipPath>
    <clipPath id="clippath-2">
      <polygon class="cls-3" points="182.16 2.27 184.33 .11 182.16 .11 182.16 2.27"/>
    </clipPath>
    <clipPath id="clippath-3">
      <polygon class="cls-3" points="182.16 2.27 184.33 .11 184.33 2.27 182.16 2.27"/>
    </clipPath>
    <clipPath id="clippath-4">
      <polygon class="cls-3" points="182.16 17.36 184.33 19.53 184.33 17.36 182.16 17.36"/>
    </clipPath>
    <clipPath id="clippath-5">
      <polygon class="cls-3" points="182.16 17.36 184.33 19.53 182.16 19.53 182.16 17.36"/>
    </clipPath>
    <clipPath id="clippath-6">
      <polygon class="cls-3" points="2.24 17.36 .08 19.53 2.24 19.53 2.24 17.36"/>
    </clipPath>
    <clipPath id="clippath-7">
      <polygon class="cls-3" points="2.24 17.36 .08 19.53 .08 17.36 2.24 17.36"/>
    </clipPath>
  </defs>
  <g id="En_Tablet_-_top_bg_social_media_and_lang" data-name="En Tablet - top bg social media and lang">
    <rect class="cls-4" x="1.16" y="1.19" width="182.09" height="17.26"/>
    <g>
      <polygon class="cls-4" points="1.77 15.69 2.24 15.69 2.24 17.36 1.77 17.36 1.77 16.75 .55 16.75 .55 17.14 .08 17.14 .08 15.91 .55 15.91 .55 16.29 1.77 16.29 1.77 15.69"/>
      <polygon class="cls-4" points="1.77 14.01 2.24 14.01 2.24 15.69 1.77 15.69 1.77 15.08 .55 15.08 .55 15.46 .08 15.46 .08 14.23 .55 14.23 .55 14.62 1.77 14.62 1.77 14.01"/>
      <polygon class="cls-4" points="1.77 12.33 2.24 12.33 2.24 14.01 1.77 14.01 1.77 13.4 .55 13.4 .55 13.78 .08 13.78 .08 12.56 .55 12.56 .55 12.94 1.77 12.94 1.77 12.33"/>
      <polygon class="cls-4" points="1.77 10.66 2.24 10.66 2.24 12.33 1.77 12.33 1.77 11.72 .55 11.72 .55 12.11 .08 12.11 .08 10.88 .55 10.88 .55 11.26 1.77 11.26 1.77 10.66"/>
      <polygon class="cls-4" points="1.77 8.98 2.24 8.98 2.24 10.66 1.77 10.66 1.77 10.05 .55 10.05 .55 10.43 .08 10.43 .08 9.2 .55 9.2 .55 9.59 1.77 9.59 1.77 8.98"/>
      <polygon class="cls-4" points="1.77 7.3 2.24 7.3 2.24 8.98 1.77 8.98 1.77 8.37 .55 8.37 .55 8.75 .08 8.75 .08 7.53 .55 7.53 .55 7.91 1.77 7.91 1.77 7.3"/>
      <polygon class="cls-4" points="1.77 5.63 2.24 5.63 2.24 7.3 1.77 7.3 1.77 6.69 .55 6.69 .55 7.08 .08 7.08 .08 5.85 .55 5.85 .55 6.23 1.77 6.23 1.77 5.63"/>
      <polygon class="cls-4" points="1.77 3.95 2.24 3.95 2.24 5.63 1.77 5.63 1.77 5.02 .55 5.02 .55 5.4 .08 5.4 .08 4.17 .55 4.17 .55 4.56 1.77 4.56 1.77 3.95"/>
      <polygon class="cls-4" points="1.77 2.27 2.24 2.27 2.24 3.95 1.77 3.95 1.77 3.34 .55 3.34 .55 3.72 .08 3.72 .08 2.5 .55 2.5 .55 2.88 1.77 2.88 1.77 2.27"/>
      <polygon class="cls-4" points="3.97 1.8 3.97 2.27 2.24 2.27 2.24 1.8 2.87 1.8 2.87 .58 2.48 .58 2.48 .11 3.74 .11 3.74 .58 3.35 .58 3.35 1.8 3.97 1.8"/>
      <polygon class="cls-4" points="5.7 1.8 5.7 2.27 3.97 2.27 3.97 1.8 4.6 1.8 4.6 .58 4.21 .58 4.21 .11 5.47 .11 5.47 .58 5.08 .58 5.08 1.8 5.7 1.8"/>
      <polygon class="cls-4" points="7.43 1.8 7.43 2.27 5.7 2.27 5.7 1.8 6.33 1.8 6.33 .58 5.94 .58 5.94 .11 7.2 .11 7.2 .58 6.81 .58 6.81 1.8 7.43 1.8"/>
      <polygon class="cls-4" points="9.16 1.8 9.16 2.27 7.43 2.27 7.43 1.8 8.06 1.8 8.06 .58 7.67 .58 7.67 .11 8.93 .11 8.93 .58 8.54 .58 8.54 1.8 9.16 1.8"/>
      <polygon class="cls-4" points="10.89 1.8 10.89 2.27 9.16 2.27 9.16 1.8 9.79 1.8 9.79 .58 9.4 .58 9.4 .11 10.66 .11 10.66 .58 10.27 .58 10.27 1.8 10.89 1.8"/>
      <polygon class="cls-4" points="12.62 1.8 12.62 2.27 10.89 2.27 10.89 1.8 11.52 1.8 11.52 .58 11.13 .58 11.13 .11 12.39 .11 12.39 .58 12 .58 12 1.8 12.62 1.8"/>
      <polygon class="cls-4" points="14.35 1.8 14.35 2.27 12.62 2.27 12.62 1.8 13.25 1.8 13.25 .58 12.86 .58 12.86 .11 14.12 .11 14.12 .58 13.73 .58 13.73 1.8 14.35 1.8"/>
      <polygon class="cls-4" points="16.08 1.8 16.08 2.27 14.35 2.27 14.35 1.8 14.98 1.8 14.98 .58 14.59 .58 14.59 .11 15.85 .11 15.85 .58 15.46 .58 15.46 1.8 16.08 1.8"/>
      <polygon class="cls-4" points="17.81 1.8 17.81 2.27 16.08 2.27 16.08 1.8 16.71 1.8 16.71 .58 16.32 .58 16.32 .11 17.58 .11 17.58 .58 17.19 .58 17.19 1.8 17.81 1.8"/>
      <polygon class="cls-4" points="19.54 1.8 19.54 2.27 17.81 2.27 17.81 1.8 18.44 1.8 18.44 .58 18.05 .58 18.05 .11 19.31 .11 19.31 .58 18.92 .58 18.92 1.8 19.54 1.8"/>
      <polygon class="cls-4" points="21.27 1.8 21.27 2.27 19.54 2.27 19.54 1.8 20.17 1.8 20.17 .58 19.78 .58 19.78 .11 21.04 .11 21.04 .58 20.65 .58 20.65 1.8 21.27 1.8"/>
      <polygon class="cls-4" points="23 1.8 23 2.27 21.27 2.27 21.27 1.8 21.9 1.8 21.9 .58 21.51 .58 21.51 .11 22.77 .11 22.77 .58 22.38 .58 22.38 1.8 23 1.8"/>
      <polygon class="cls-4" points="24.73 1.8 24.73 2.27 23 2.27 23 1.8 23.63 1.8 23.63 .58 23.24 .58 23.24 .11 24.5 .11 24.5 .58 24.11 .58 24.11 1.8 24.73 1.8"/>
      <polygon class="cls-4" points="26.46 1.8 26.46 2.27 24.73 2.27 24.73 1.8 25.36 1.8 25.36 .58 24.97 .58 24.97 .11 26.23 .11 26.23 .58 25.84 .58 25.84 1.8 26.46 1.8"/>
      <polygon class="cls-4" points="28.19 1.8 28.19 2.27 26.46 2.27 26.46 1.8 27.09 1.8 27.09 .58 26.7 .58 26.7 .11 27.96 .11 27.96 .58 27.57 .58 27.57 1.8 28.19 1.8"/>
      <polygon class="cls-4" points="29.92 1.8 29.92 2.27 28.19 2.27 28.19 1.8 28.82 1.8 28.82 .58 28.43 .58 28.43 .11 29.69 .11 29.69 .58 29.3 .58 29.3 1.8 29.92 1.8"/>
      <polygon class="cls-4" points="31.65 1.8 31.65 2.27 29.92 2.27 29.92 1.8 30.55 1.8 30.55 .58 30.16 .58 30.16 .11 31.42 .11 31.42 .58 31.03 .58 31.03 1.8 31.65 1.8"/>
      <polygon class="cls-4" points="33.38 1.8 33.38 2.27 31.65 2.27 31.65 1.8 32.28 1.8 32.28 .58 31.89 .58 31.89 .11 33.15 .11 33.15 .58 32.76 .58 32.76 1.8 33.38 1.8"/>
      <polygon class="cls-4" points="35.11 1.8 35.11 2.27 33.38 2.27 33.38 1.8 34.01 1.8 34.01 .58 33.62 .58 33.62 .11 34.88 .11 34.88 .58 34.49 .58 34.49 1.8 35.11 1.8"/>
      <polygon class="cls-4" points="36.84 1.8 36.84 2.27 35.11 2.27 35.11 1.8 35.74 1.8 35.74 .58 35.35 .58 35.35 .11 36.61 .11 36.61 .58 36.22 .58 36.22 1.8 36.84 1.8"/>
      <polygon class="cls-4" points="38.57 1.8 38.57 2.27 36.84 2.27 36.84 1.8 37.47 1.8 37.47 .58 37.08 .58 37.08 .11 38.34 .11 38.34 .58 37.95 .58 37.95 1.8 38.57 1.8"/>
      <polygon class="cls-4" points="40.3 1.8 40.3 2.27 38.57 2.27 38.57 1.8 39.2 1.8 39.2 .58 38.81 .58 38.81 .11 40.07 .11 40.07 .58 39.68 .58 39.68 1.8 40.3 1.8"/>
      <polygon class="cls-4" points="42.03 1.8 42.03 2.27 40.3 2.27 40.3 1.8 40.93 1.8 40.93 .58 40.54 .58 40.54 .11 41.8 .11 41.8 .58 41.41 .58 41.41 1.8 42.03 1.8"/>
      <polygon class="cls-4" points="43.76 1.8 43.76 2.27 42.03 2.27 42.03 1.8 42.66 1.8 42.66 .58 42.27 .58 42.27 .11 43.53 .11 43.53 .58 43.14 .58 43.14 1.8 43.76 1.8"/>
      <polygon class="cls-4" points="45.49 1.8 45.49 2.27 43.76 2.27 43.76 1.8 44.39 1.8 44.39 .58 44 .58 44 .11 45.26 .11 45.26 .58 44.87 .58 44.87 1.8 45.49 1.8"/>
      <polygon class="cls-4" points="47.22 1.8 47.22 2.27 45.49 2.27 45.49 1.8 46.12 1.8 46.12 .58 45.73 .58 45.73 .11 46.99 .11 46.99 .58 46.6 .58 46.6 1.8 47.22 1.8"/>
      <polygon class="cls-4" points="48.95 1.8 48.95 2.27 47.22 2.27 47.22 1.8 47.85 1.8 47.85 .58 47.46 .58 47.46 .11 48.72 .11 48.72 .58 48.33 .58 48.33 1.8 48.95 1.8"/>
      <polygon class="cls-4" points="50.68 1.8 50.68 2.27 48.95 2.27 48.95 1.8 49.58 1.8 49.58 .58 49.19 .58 49.19 .11 50.45 .11 50.45 .58 50.06 .58 50.06 1.8 50.68 1.8"/>
      <polygon class="cls-4" points="52.41 1.8 52.41 2.27 50.68 2.27 50.68 1.8 51.31 1.8 51.31 .58 50.92 .58 50.92 .11 52.18 .11 52.18 .58 51.79 .58 51.79 1.8 52.41 1.8"/>
      <polygon class="cls-4" points="54.14 1.8 54.14 2.27 52.41 2.27 52.41 1.8 53.04 1.8 53.04 .58 52.65 .58 52.65 .11 53.91 .11 53.91 .58 53.52 .58 53.52 1.8 54.14 1.8"/>
      <polygon class="cls-4" points="55.87 1.8 55.87 2.27 54.14 2.27 54.14 1.8 54.77 1.8 54.77 .58 54.38 .58 54.38 .11 55.64 .11 55.64 .58 55.25 .58 55.25 1.8 55.87 1.8"/>
      <polygon class="cls-4" points="57.6 1.8 57.6 2.27 55.87 2.27 55.87 1.8 56.5 1.8 56.5 .58 56.11 .58 56.11 .11 57.37 .11 57.37 .58 56.98 .58 56.98 1.8 57.6 1.8"/>
      <polygon class="cls-4" points="59.33 1.8 59.33 2.27 57.6 2.27 57.6 1.8 58.23 1.8 58.23 .58 57.84 .58 57.84 .11 59.1 .11 59.1 .58 58.71 .58 58.71 1.8 59.33 1.8"/>
      <polygon class="cls-4" points="61.06 1.8 61.06 2.27 59.33 2.27 59.33 1.8 59.96 1.8 59.96 .58 59.57 .58 59.57 .11 60.83 .11 60.83 .58 60.44 .58 60.44 1.8 61.06 1.8"/>
      <polygon class="cls-4" points="62.79 1.8 62.79 2.27 61.06 2.27 61.06 1.8 61.69 1.8 61.69 .58 61.3 .58 61.3 .11 62.56 .11 62.56 .58 62.17 .58 62.17 1.8 62.79 1.8"/>
      <polygon class="cls-4" points="64.52 1.8 64.52 2.27 62.79 2.27 62.79 1.8 63.42 1.8 63.42 .58 63.03 .58 63.03 .11 64.29 .11 64.29 .58 63.9 .58 63.9 1.8 64.52 1.8"/>
      <polygon class="cls-4" points="66.25 1.8 66.25 2.27 64.52 2.27 64.52 1.8 65.15 1.8 65.15 .58 64.76 .58 64.76 .11 66.02 .11 66.02 .58 65.63 .58 65.63 1.8 66.25 1.8"/>
      <polygon class="cls-4" points="67.98 1.8 67.98 2.27 66.25 2.27 66.25 1.8 66.88 1.8 66.88 .58 66.49 .58 66.49 .11 67.75 .11 67.75 .58 67.36 .58 67.36 1.8 67.98 1.8"/>
      <polygon class="cls-4" points="69.71 1.8 69.71 2.27 67.98 2.27 67.98 1.8 68.61 1.8 68.61 .58 68.22 .58 68.22 .11 69.48 .11 69.48 .58 69.09 .58 69.09 1.8 69.71 1.8"/>
      <polygon class="cls-4" points="71.44 1.8 71.44 2.27 69.71 2.27 69.71 1.8 70.34 1.8 70.34 .58 69.95 .58 69.95 .11 71.21 .11 71.21 .58 70.82 .58 70.82 1.8 71.44 1.8"/>
      <polygon class="cls-4" points="73.17 1.8 73.17 2.27 71.44 2.27 71.44 1.8 72.07 1.8 72.07 .58 71.68 .58 71.68 .11 72.94 .11 72.94 .58 72.55 .58 72.55 1.8 73.17 1.8"/>
      <polygon class="cls-4" points="74.9 1.8 74.9 2.27 73.17 2.27 73.17 1.8 73.8 1.8 73.8 .58 73.41 .58 73.41 .11 74.67 .11 74.67 .58 74.28 .58 74.28 1.8 74.9 1.8"/>
      <polygon class="cls-4" points="76.63 1.8 76.63 2.27 74.9 2.27 74.9 1.8 75.53 1.8 75.53 .58 75.14 .58 75.14 .11 76.4 .11 76.4 .58 76.01 .58 76.01 1.8 76.63 1.8"/>
      <polygon class="cls-4" points="78.36 1.8 78.36 2.27 76.63 2.27 76.63 1.8 77.26 1.8 77.26 .58 76.87 .58 76.87 .11 78.13 .11 78.13 .58 77.74 .58 77.74 1.8 78.36 1.8"/>
      <polygon class="cls-4" points="80.09 1.8 80.09 2.27 78.36 2.27 78.36 1.8 78.99 1.8 78.99 .58 78.6 .58 78.6 .11 79.86 .11 79.86 .58 79.47 .58 79.47 1.8 80.09 1.8"/>
      <polygon class="cls-4" points="81.82 1.8 81.82 2.27 80.09 2.27 80.09 1.8 80.72 1.8 80.72 .58 80.33 .58 80.33 .11 81.59 .11 81.59 .58 81.2 .58 81.2 1.8 81.82 1.8"/>
      <polygon class="cls-4" points="83.55 1.8 83.55 2.27 81.82 2.27 81.82 1.8 82.45 1.8 82.45 .58 82.06 .58 82.06 .11 83.32 .11 83.32 .58 82.93 .58 82.93 1.8 83.55 1.8"/>
      <polygon class="cls-4" points="85.28 1.8 85.28 2.27 83.55 2.27 83.55 1.8 84.18 1.8 84.18 .58 83.79 .58 83.79 .11 85.05 .11 85.05 .58 84.66 .58 84.66 1.8 85.28 1.8"/>
      <polygon class="cls-4" points="87.01 1.8 87.01 2.27 85.28 2.27 85.28 1.8 85.91 1.8 85.91 .58 85.52 .58 85.52 .11 86.78 .11 86.78 .58 86.39 .58 86.39 1.8 87.01 1.8"/>
      <polygon class="cls-4" points="88.74 1.8 88.74 2.27 87.01 2.27 87.01 1.8 87.64 1.8 87.64 .58 87.25 .58 87.25 .11 88.51 .11 88.51 .58 88.12 .58 88.12 1.8 88.74 1.8"/>
      <polygon class="cls-4" points="90.47 1.8 90.47 2.27 88.74 2.27 88.74 1.8 89.37 1.8 89.37 .58 88.98 .58 88.98 .11 90.24 .11 90.24 .58 89.85 .58 89.85 1.8 90.47 1.8"/>
      <polygon class="cls-4" points="92.2 1.8 92.2 2.27 90.47 2.27 90.47 1.8 91.1 1.8 91.1 .58 90.71 .58 90.71 .11 91.97 .11 91.97 .58 91.58 .58 91.58 1.8 92.2 1.8"/>
      <polygon class="cls-4" points="93.93 1.8 93.93 2.27 92.2 2.27 92.2 1.8 92.83 1.8 92.83 .58 92.44 .58 92.44 .11 93.7 .11 93.7 .58 93.31 .58 93.31 1.8 93.93 1.8"/>
      <polygon class="cls-4" points="95.66 1.8 95.66 2.27 93.93 2.27 93.93 1.8 94.56 1.8 94.56 .58 94.17 .58 94.17 .11 95.43 .11 95.43 .58 95.04 .58 95.04 1.8 95.66 1.8"/>
      <polygon class="cls-4" points="97.39 1.8 97.39 2.27 95.66 2.27 95.66 1.8 96.29 1.8 96.29 .58 95.9 .58 95.9 .11 97.16 .11 97.16 .58 96.77 .58 96.77 1.8 97.39 1.8"/>
      <polygon class="cls-4" points="99.12 1.8 99.12 2.27 97.39 2.27 97.39 1.8 98.02 1.8 98.02 .58 97.63 .58 97.63 .11 98.89 .11 98.89 .58 98.5 .58 98.5 1.8 99.12 1.8"/>
      <polygon class="cls-4" points="100.85 1.8 100.85 2.27 99.12 2.27 99.12 1.8 99.75 1.8 99.75 .58 99.36 .58 99.36 .11 100.62 .11 100.62 .58 100.23 .58 100.23 1.8 100.85 1.8"/>
      <polygon class="cls-4" points="102.58 1.8 102.58 2.27 100.85 2.27 100.85 1.8 101.48 1.8 101.48 .58 101.09 .58 101.09 .11 102.35 .11 102.35 .58 101.96 .58 101.96 1.8 102.58 1.8"/>
      <polygon class="cls-4" points="104.31 1.8 104.31 2.27 102.58 2.27 102.58 1.8 103.21 1.8 103.21 .58 102.82 .58 102.82 .11 104.08 .11 104.08 .58 103.69 .58 103.69 1.8 104.31 1.8"/>
      <polygon class="cls-4" points="106.04 1.8 106.04 2.27 104.31 2.27 104.31 1.8 104.94 1.8 104.94 .58 104.55 .58 104.55 .11 105.81 .11 105.81 .58 105.42 .58 105.42 1.8 106.04 1.8"/>
      <polygon class="cls-4" points="107.77 1.8 107.77 2.27 106.04 2.27 106.04 1.8 106.67 1.8 106.67 .58 106.28 .58 106.28 .11 107.54 .11 107.54 .58 107.15 .58 107.15 1.8 107.77 1.8"/>
      <polygon class="cls-4" points="109.5 1.8 109.5 2.27 107.77 2.27 107.77 1.8 108.4 1.8 108.4 .58 108.01 .58 108.01 .11 109.27 .11 109.27 .58 108.88 .58 108.88 1.8 109.5 1.8"/>
      <polygon class="cls-4" points="111.23 1.8 111.23 2.27 109.5 2.27 109.5 1.8 110.13 1.8 110.13 .58 109.74 .58 109.74 .11 111 .11 111 .58 110.61 .58 110.61 1.8 111.23 1.8"/>
      <polygon class="cls-4" points="112.96 1.8 112.96 2.27 111.23 2.27 111.23 1.8 111.86 1.8 111.86 .58 111.47 .58 111.47 .11 112.73 .11 112.73 .58 112.34 .58 112.34 1.8 112.96 1.8"/>
      <polygon class="cls-4" points="114.69 1.8 114.69 2.27 112.96 2.27 112.96 1.8 113.59 1.8 113.59 .58 113.2 .58 113.2 .11 114.46 .11 114.46 .58 114.07 .58 114.07 1.8 114.69 1.8"/>
      <polygon class="cls-4" points="116.42 1.8 116.42 2.27 114.69 2.27 114.69 1.8 115.32 1.8 115.32 .58 114.93 .58 114.93 .11 116.19 .11 116.19 .58 115.8 .58 115.8 1.8 116.42 1.8"/>
      <polygon class="cls-4" points="118.15 1.8 118.15 2.27 116.42 2.27 116.42 1.8 117.05 1.8 117.05 .58 116.66 .58 116.66 .11 117.92 .11 117.92 .58 117.53 .58 117.53 1.8 118.15 1.8"/>
      <polygon class="cls-4" points="119.88 1.8 119.88 2.27 118.15 2.27 118.15 1.8 118.78 1.8 118.78 .58 118.39 .58 118.39 .11 119.65 .11 119.65 .58 119.26 .58 119.26 1.8 119.88 1.8"/>
      <polygon class="cls-4" points="121.61 1.8 121.61 2.27 119.88 2.27 119.88 1.8 120.51 1.8 120.51 .58 120.12 .58 120.12 .11 121.38 .11 121.38 .58 120.99 .58 120.99 1.8 121.61 1.8"/>
      <polygon class="cls-4" points="123.34 1.8 123.34 2.27 121.61 2.27 121.61 1.8 122.24 1.8 122.24 .58 121.85 .58 121.85 .11 123.11 .11 123.11 .58 122.72 .58 122.72 1.8 123.34 1.8"/>
      <polygon class="cls-4" points="125.07 1.8 125.07 2.27 123.34 2.27 123.34 1.8 123.97 1.8 123.97 .58 123.58 .58 123.58 .11 124.84 .11 124.84 .58 124.45 .58 124.45 1.8 125.07 1.8"/>
      <polygon class="cls-4" points="126.8 1.8 126.8 2.27 125.07 2.27 125.07 1.8 125.7 1.8 125.7 .58 125.31 .58 125.31 .11 126.57 .11 126.57 .58 126.18 .58 126.18 1.8 126.8 1.8"/>
      <polygon class="cls-4" points="128.53 1.8 128.53 2.27 126.8 2.27 126.8 1.8 127.43 1.8 127.43 .58 127.04 .58 127.04 .11 128.3 .11 128.3 .58 127.91 .58 127.91 1.8 128.53 1.8"/>
      <polygon class="cls-4" points="130.26 1.8 130.26 2.27 128.53 2.27 128.53 1.8 129.16 1.8 129.16 .58 128.77 .58 128.77 .11 130.03 .11 130.03 .58 129.64 .58 129.64 1.8 130.26 1.8"/>
      <polygon class="cls-4" points="131.99 1.8 131.99 2.27 130.26 2.27 130.26 1.8 130.89 1.8 130.89 .58 130.5 .58 130.5 .11 131.76 .11 131.76 .58 131.37 .58 131.37 1.8 131.99 1.8"/>
      <polygon class="cls-4" points="133.72 1.8 133.72 2.27 131.99 2.27 131.99 1.8 132.62 1.8 132.62 .58 132.23 .58 132.23 .11 133.49 .11 133.49 .58 133.1 .58 133.1 1.8 133.72 1.8"/>
      <polygon class="cls-4" points="135.45 1.8 135.45 2.27 133.72 2.27 133.72 1.8 134.35 1.8 134.35 .58 133.96 .58 133.96 .11 135.22 .11 135.22 .58 134.83 .58 134.83 1.8 135.45 1.8"/>
      <polygon class="cls-4" points="137.18 1.8 137.18 2.27 135.45 2.27 135.45 1.8 136.08 1.8 136.08 .58 135.69 .58 135.69 .11 136.95 .11 136.95 .58 136.56 .58 136.56 1.8 137.18 1.8"/>
      <polygon class="cls-4" points="138.91 1.8 138.91 2.27 137.18 2.27 137.18 1.8 137.81 1.8 137.81 .58 137.42 .58 137.42 .11 138.68 .11 138.68 .58 138.29 .58 138.29 1.8 138.91 1.8"/>
      <polygon class="cls-4" points="140.64 1.8 140.64 2.27 138.91 2.27 138.91 1.8 139.54 1.8 139.54 .58 139.15 .58 139.15 .11 140.41 .11 140.41 .58 140.02 .58 140.02 1.8 140.64 1.8"/>
      <polygon class="cls-4" points="142.37 1.8 142.37 2.27 140.64 2.27 140.64 1.8 141.27 1.8 141.27 .58 140.88 .58 140.88 .11 142.14 .11 142.14 .58 141.75 .58 141.75 1.8 142.37 1.8"/>
      <polygon class="cls-4" points="144.1 1.8 144.1 2.27 142.37 2.27 142.37 1.8 143 1.8 143 .58 142.61 .58 142.61 .11 143.87 .11 143.87 .58 143.48 .58 143.48 1.8 144.1 1.8"/>
      <polygon class="cls-4" points="145.83 1.8 145.83 2.27 144.1 2.27 144.1 1.8 144.73 1.8 144.73 .58 144.34 .58 144.34 .11 145.6 .11 145.6 .58 145.21 .58 145.21 1.8 145.83 1.8"/>
      <polygon class="cls-4" points="147.56 1.8 147.56 2.27 145.83 2.27 145.83 1.8 146.46 1.8 146.46 .58 146.07 .58 146.07 .11 147.33 .11 147.33 .58 146.94 .58 146.94 1.8 147.56 1.8"/>
      <polygon class="cls-4" points="149.29 1.8 149.29 2.27 147.56 2.27 147.56 1.8 148.19 1.8 148.19 .58 147.8 .58 147.8 .11 149.06 .11 149.06 .58 148.67 .58 148.67 1.8 149.29 1.8"/>
      <polygon class="cls-4" points="151.02 1.8 151.02 2.27 149.29 2.27 149.29 1.8 149.92 1.8 149.92 .58 149.53 .58 149.53 .11 150.79 .11 150.79 .58 150.4 .58 150.4 1.8 151.02 1.8"/>
      <polygon class="cls-4" points="152.75 1.8 152.75 2.27 151.02 2.27 151.02 1.8 151.65 1.8 151.65 .58 151.26 .58 151.26 .11 152.52 .11 152.52 .58 152.13 .58 152.13 1.8 152.75 1.8"/>
      <polygon class="cls-4" points="154.48 1.8 154.48 2.27 152.75 2.27 152.75 1.8 153.38 1.8 153.38 .58 152.99 .58 152.99 .11 154.25 .11 154.25 .58 153.86 .58 153.86 1.8 154.48 1.8"/>
      <polygon class="cls-4" points="156.21 1.8 156.21 2.27 154.48 2.27 154.48 1.8 155.11 1.8 155.11 .58 154.72 .58 154.72 .11 155.98 .11 155.98 .58 155.59 .58 155.59 1.8 156.21 1.8"/>
      <polygon class="cls-4" points="157.94 1.8 157.94 2.27 156.21 2.27 156.21 1.8 156.84 1.8 156.84 .58 156.45 .58 156.45 .11 157.71 .11 157.71 .58 157.32 .58 157.32 1.8 157.94 1.8"/>
      <polygon class="cls-4" points="159.67 1.8 159.67 2.27 157.94 2.27 157.94 1.8 158.57 1.8 158.57 .58 158.18 .58 158.18 .11 159.44 .11 159.44 .58 159.05 .58 159.05 1.8 159.67 1.8"/>
      <polygon class="cls-4" points="161.4 1.8 161.4 2.27 159.67 2.27 159.67 1.8 160.3 1.8 160.3 .58 159.91 .58 159.91 .11 161.17 .11 161.17 .58 160.78 .58 160.78 1.8 161.4 1.8"/>
      <polygon class="cls-4" points="163.13 1.8 163.13 2.27 161.4 2.27 161.4 1.8 162.03 1.8 162.03 .58 161.64 .58 161.64 .11 162.9 .11 162.9 .58 162.51 .58 162.51 1.8 163.13 1.8"/>
      <polygon class="cls-4" points="164.86 1.8 164.86 2.27 163.13 2.27 163.13 1.8 163.76 1.8 163.76 .58 163.37 .58 163.37 .11 164.63 .11 164.63 .58 164.24 .58 164.24 1.8 164.86 1.8"/>
      <polygon class="cls-4" points="166.59 1.8 166.59 2.27 164.86 2.27 164.86 1.8 165.49 1.8 165.49 .58 165.1 .58 165.1 .11 166.36 .11 166.36 .58 165.97 .58 165.97 1.8 166.59 1.8"/>
      <polygon class="cls-4" points="168.32 1.8 168.32 2.27 166.59 2.27 166.59 1.8 167.22 1.8 167.22 .58 166.83 .58 166.83 .11 168.09 .11 168.09 .58 167.7 .58 167.7 1.8 168.32 1.8"/>
      <polygon class="cls-4" points="170.05 1.8 170.05 2.27 168.32 2.27 168.32 1.8 168.95 1.8 168.95 .58 168.56 .58 168.56 .11 169.82 .11 169.82 .58 169.43 .58 169.43 1.8 170.05 1.8"/>
      <polygon class="cls-4" points="171.78 1.8 171.78 2.27 170.05 2.27 170.05 1.8 170.68 1.8 170.68 .58 170.29 .58 170.29 .11 171.55 .11 171.55 .58 171.16 .58 171.16 1.8 171.78 1.8"/>
      <polygon class="cls-4" points="173.51 1.8 173.51 2.27 171.78 2.27 171.78 1.8 172.41 1.8 172.41 .58 172.02 .58 172.02 .11 173.28 .11 173.28 .58 172.89 .58 172.89 1.8 173.51 1.8"/>
      <polygon class="cls-4" points="175.24 1.8 175.24 2.27 173.51 2.27 173.51 1.8 174.14 1.8 174.14 .58 173.75 .58 173.75 .11 175.01 .11 175.01 .58 174.62 .58 174.62 1.8 175.24 1.8"/>
      <polygon class="cls-4" points="176.97 1.8 176.97 2.27 175.24 2.27 175.24 1.8 175.87 1.8 175.87 .58 175.48 .58 175.48 .11 176.74 .11 176.74 .58 176.35 .58 176.35 1.8 176.97 1.8"/>
      <polygon class="cls-4" points="178.7 1.8 178.7 2.27 176.97 2.27 176.97 1.8 177.6 1.8 177.6 .58 177.21 .58 177.21 .11 178.47 .11 178.47 .58 178.08 .58 178.08 1.8 178.7 1.8"/>
      <polygon class="cls-4" points="180.43 1.8 180.43 2.27 178.7 2.27 178.7 1.8 179.33 1.8 179.33 .58 178.94 .58 178.94 .11 180.2 .11 180.2 .58 179.81 .58 179.81 1.8 180.43 1.8"/>
      <polygon class="cls-4" points="182.16 1.8 182.16 2.27 180.43 2.27 180.43 1.8 181.06 1.8 181.06 .58 180.67 .58 180.67 .11 181.93 .11 181.93 .58 181.54 .58 181.54 1.8 182.16 1.8"/>
      <polygon class="cls-4" points="182.63 3.95 182.16 3.95 182.16 2.27 182.63 2.27 182.63 2.89 183.85 2.89 183.85 2.5 184.33 2.5 184.33 3.73 183.85 3.73 183.85 3.34 182.63 3.34 182.63 3.95"/>
      <polygon class="cls-4" points="182.63 5.63 182.16 5.63 182.16 3.95 182.63 3.95 182.63 4.56 183.85 4.56 183.85 4.18 184.33 4.18 184.33 5.41 183.85 5.41 183.85 5.02 182.63 5.02 182.63 5.63"/>
      <polygon class="cls-4" points="182.63 7.3 182.16 7.3 182.16 5.63 182.63 5.63 182.63 6.24 183.85 6.24 183.85 5.86 184.33 5.86 184.33 7.08 183.85 7.08 183.85 6.7 182.63 6.7 182.63 7.3"/>
      <polygon class="cls-4" points="182.63 8.98 182.16 8.98 182.16 7.3 182.63 7.3 182.63 7.92 183.85 7.92 183.85 7.53 184.33 7.53 184.33 8.76 183.85 8.76 183.85 8.37 182.63 8.37 182.63 8.98"/>
      <polygon class="cls-4" points="182.63 10.66 182.16 10.66 182.16 8.98 182.63 8.98 182.63 9.59 183.85 9.59 183.85 9.21 184.33 9.21 184.33 10.43 183.85 10.43 183.85 10.05 182.63 10.05 182.63 10.66"/>
      <polygon class="cls-4" points="182.63 12.33 182.16 12.33 182.16 10.66 182.63 10.66 182.63 11.27 183.85 11.27 183.85 10.89 184.33 10.89 184.33 12.11 183.85 12.11 183.85 11.73 182.63 11.73 182.63 12.33"/>
      <polygon class="cls-4" points="182.63 14.01 182.16 14.01 182.16 12.33 182.63 12.33 182.63 12.95 183.85 12.95 183.85 12.56 184.33 12.56 184.33 13.79 183.85 13.79 183.85 13.4 182.63 13.4 182.63 14.01"/>
      <polygon class="cls-4" points="182.63 15.69 182.16 15.69 182.16 14.01 182.63 14.01 182.63 14.62 183.85 14.62 183.85 14.24 184.33 14.24 184.33 15.46 183.85 15.46 183.85 15.08 182.63 15.08 182.63 15.69"/>
      <polygon class="cls-4" points="182.63 17.36 182.16 17.36 182.16 15.69 182.63 15.69 182.63 16.3 183.85 16.3 183.85 15.91 184.33 15.91 184.33 17.14 183.85 17.14 183.85 16.76 182.63 16.76 182.63 17.36"/>
      <polygon class="cls-4" points="180.43 17.84 180.43 17.36 182.16 17.36 182.16 17.84 181.53 17.84 181.53 19.06 181.93 19.06 181.93 19.53 180.66 19.53 180.66 19.06 181.06 19.06 181.06 17.84 180.43 17.84"/>
      <polygon class="cls-4" points="178.7 17.84 178.7 17.36 180.43 17.36 180.43 17.84 179.8 17.84 179.8 19.06 180.2 19.06 180.2 19.53 178.93 19.53 178.93 19.06 179.33 19.06 179.33 17.84 178.7 17.84"/>
      <polygon class="cls-4" points="176.97 17.84 176.97 17.36 178.7 17.36 178.7 17.84 178.07 17.84 178.07 19.06 178.47 19.06 178.47 19.53 177.2 19.53 177.2 19.06 177.6 19.06 177.6 17.84 176.97 17.84"/>
      <polygon class="cls-4" points="175.24 17.84 175.24 17.36 176.97 17.36 176.97 17.84 176.34 17.84 176.34 19.06 176.74 19.06 176.74 19.53 175.47 19.53 175.47 19.06 175.87 19.06 175.87 17.84 175.24 17.84"/>
      <polygon class="cls-4" points="173.51 17.84 173.51 17.36 175.24 17.36 175.24 17.84 174.61 17.84 174.61 19.06 175.01 19.06 175.01 19.53 173.74 19.53 173.74 19.06 174.14 19.06 174.14 17.84 173.51 17.84"/>
      <polygon class="cls-4" points="171.78 17.84 171.78 17.36 173.51 17.36 173.51 17.84 172.88 17.84 172.88 19.06 173.28 19.06 173.28 19.53 172.01 19.53 172.01 19.06 172.41 19.06 172.41 17.84 171.78 17.84"/>
      <polygon class="cls-4" points="170.05 17.84 170.05 17.36 171.78 17.36 171.78 17.84 171.15 17.84 171.15 19.06 171.55 19.06 171.55 19.53 170.28 19.53 170.28 19.06 170.68 19.06 170.68 17.84 170.05 17.84"/>
      <polygon class="cls-4" points="168.32 17.84 168.32 17.36 170.05 17.36 170.05 17.84 169.42 17.84 169.42 19.06 169.82 19.06 169.82 19.53 168.55 19.53 168.55 19.06 168.95 19.06 168.95 17.84 168.32 17.84"/>
      <polygon class="cls-4" points="166.59 17.84 166.59 17.36 168.32 17.36 168.32 17.84 167.69 17.84 167.69 19.06 168.09 19.06 168.09 19.53 166.82 19.53 166.82 19.06 167.22 19.06 167.22 17.84 166.59 17.84"/>
      <polygon class="cls-4" points="164.86 17.84 164.86 17.36 166.59 17.36 166.59 17.84 165.96 17.84 165.96 19.06 166.36 19.06 166.36 19.53 165.09 19.53 165.09 19.06 165.49 19.06 165.49 17.84 164.86 17.84"/>
      <polygon class="cls-4" points="163.13 17.84 163.13 17.36 164.86 17.36 164.86 17.84 164.23 17.84 164.23 19.06 164.63 19.06 164.63 19.53 163.36 19.53 163.36 19.06 163.76 19.06 163.76 17.84 163.13 17.84"/>
      <polygon class="cls-4" points="161.4 17.84 161.4 17.36 163.13 17.36 163.13 17.84 162.5 17.84 162.5 19.06 162.9 19.06 162.9 19.53 161.63 19.53 161.63 19.06 162.03 19.06 162.03 17.84 161.4 17.84"/>
      <polygon class="cls-4" points="159.67 17.84 159.67 17.36 161.4 17.36 161.4 17.84 160.77 17.84 160.77 19.06 161.17 19.06 161.17 19.53 159.9 19.53 159.9 19.06 160.3 19.06 160.3 17.84 159.67 17.84"/>
      <polygon class="cls-4" points="157.94 17.84 157.94 17.36 159.67 17.36 159.67 17.84 159.04 17.84 159.04 19.06 159.44 19.06 159.44 19.53 158.17 19.53 158.17 19.06 158.57 19.06 158.57 17.84 157.94 17.84"/>
      <polygon class="cls-4" points="156.21 17.84 156.21 17.36 157.94 17.36 157.94 17.84 157.31 17.84 157.31 19.06 157.71 19.06 157.71 19.53 156.44 19.53 156.44 19.06 156.84 19.06 156.84 17.84 156.21 17.84"/>
      <polygon class="cls-4" points="154.48 17.84 154.48 17.36 156.21 17.36 156.21 17.84 155.58 17.84 155.58 19.06 155.98 19.06 155.98 19.53 154.71 19.53 154.71 19.06 155.11 19.06 155.11 17.84 154.48 17.84"/>
      <polygon class="cls-4" points="152.75 17.84 152.75 17.36 154.48 17.36 154.48 17.84 153.85 17.84 153.85 19.06 154.25 19.06 154.25 19.53 152.98 19.53 152.98 19.06 153.38 19.06 153.38 17.84 152.75 17.84"/>
      <polygon class="cls-4" points="151.02 17.84 151.02 17.36 152.75 17.36 152.75 17.84 152.12 17.84 152.12 19.06 152.52 19.06 152.52 19.53 151.25 19.53 151.25 19.06 151.65 19.06 151.65 17.84 151.02 17.84"/>
      <polygon class="cls-4" points="149.29 17.84 149.29 17.36 151.02 17.36 151.02 17.84 150.39 17.84 150.39 19.06 150.79 19.06 150.79 19.53 149.52 19.53 149.52 19.06 149.92 19.06 149.92 17.84 149.29 17.84"/>
      <polygon class="cls-4" points="147.56 17.84 147.56 17.36 149.29 17.36 149.29 17.84 148.66 17.84 148.66 19.06 149.06 19.06 149.06 19.53 147.79 19.53 147.79 19.06 148.19 19.06 148.19 17.84 147.56 17.84"/>
      <polygon class="cls-4" points="145.83 17.84 145.83 17.36 147.56 17.36 147.56 17.84 146.93 17.84 146.93 19.06 147.33 19.06 147.33 19.53 146.06 19.53 146.06 19.06 146.46 19.06 146.46 17.84 145.83 17.84"/>
      <polygon class="cls-4" points="144.1 17.84 144.1 17.36 145.83 17.36 145.83 17.84 145.2 17.84 145.2 19.06 145.6 19.06 145.6 19.53 144.33 19.53 144.33 19.06 144.73 19.06 144.73 17.84 144.1 17.84"/>
      <polygon class="cls-4" points="142.37 17.84 142.37 17.36 144.1 17.36 144.1 17.84 143.47 17.84 143.47 19.06 143.87 19.06 143.87 19.53 142.6 19.53 142.6 19.06 143 19.06 143 17.84 142.37 17.84"/>
      <polygon class="cls-4" points="140.64 17.84 140.64 17.36 142.37 17.36 142.37 17.84 141.74 17.84 141.74 19.06 142.14 19.06 142.14 19.53 140.87 19.53 140.87 19.06 141.27 19.06 141.27 17.84 140.64 17.84"/>
      <polygon class="cls-4" points="138.91 17.84 138.91 17.36 140.64 17.36 140.64 17.84 140.01 17.84 140.01 19.06 140.41 19.06 140.41 19.53 139.14 19.53 139.14 19.06 139.54 19.06 139.54 17.84 138.91 17.84"/>
      <polygon class="cls-4" points="137.18 17.84 137.18 17.36 138.91 17.36 138.91 17.84 138.28 17.84 138.28 19.06 138.68 19.06 138.68 19.53 137.41 19.53 137.41 19.06 137.81 19.06 137.81 17.84 137.18 17.84"/>
      <polygon class="cls-4" points="135.45 17.84 135.45 17.36 137.18 17.36 137.18 17.84 136.55 17.84 136.55 19.06 136.95 19.06 136.95 19.53 135.68 19.53 135.68 19.06 136.08 19.06 136.08 17.84 135.45 17.84"/>
      <polygon class="cls-4" points="133.72 17.84 133.72 17.36 135.45 17.36 135.45 17.84 134.82 17.84 134.82 19.06 135.22 19.06 135.22 19.53 133.95 19.53 133.95 19.06 134.35 19.06 134.35 17.84 133.72 17.84"/>
      <polygon class="cls-4" points="131.99 17.84 131.99 17.36 133.72 17.36 133.72 17.84 133.09 17.84 133.09 19.06 133.49 19.06 133.49 19.53 132.22 19.53 132.22 19.06 132.62 19.06 132.62 17.84 131.99 17.84"/>
      <polygon class="cls-4" points="130.26 17.84 130.26 17.36 131.99 17.36 131.99 17.84 131.36 17.84 131.36 19.06 131.76 19.06 131.76 19.53 130.49 19.53 130.49 19.06 130.89 19.06 130.89 17.84 130.26 17.84"/>
      <polygon class="cls-4" points="128.53 17.84 128.53 17.36 130.26 17.36 130.26 17.84 129.63 17.84 129.63 19.06 130.03 19.06 130.03 19.53 128.76 19.53 128.76 19.06 129.16 19.06 129.16 17.84 128.53 17.84"/>
      <polygon class="cls-4" points="126.8 17.84 126.8 17.36 128.53 17.36 128.53 17.84 127.9 17.84 127.9 19.06 128.3 19.06 128.3 19.53 127.03 19.53 127.03 19.06 127.43 19.06 127.43 17.84 126.8 17.84"/>
      <polygon class="cls-4" points="125.07 17.84 125.07 17.36 126.8 17.36 126.8 17.84 126.17 17.84 126.17 19.06 126.57 19.06 126.57 19.53 125.3 19.53 125.3 19.06 125.7 19.06 125.7 17.84 125.07 17.84"/>
      <polygon class="cls-4" points="123.34 17.84 123.34 17.36 125.07 17.36 125.07 17.84 124.44 17.84 124.44 19.06 124.84 19.06 124.84 19.53 123.57 19.53 123.57 19.06 123.97 19.06 123.97 17.84 123.34 17.84"/>
      <polygon class="cls-4" points="121.61 17.84 121.61 17.36 123.34 17.36 123.34 17.84 122.71 17.84 122.71 19.06 123.11 19.06 123.11 19.53 121.84 19.53 121.84 19.06 122.24 19.06 122.24 17.84 121.61 17.84"/>
      <polygon class="cls-4" points="119.88 17.84 119.88 17.36 121.61 17.36 121.61 17.84 120.98 17.84 120.98 19.06 121.38 19.06 121.38 19.53 120.11 19.53 120.11 19.06 120.51 19.06 120.51 17.84 119.88 17.84"/>
      <polygon class="cls-4" points="118.15 17.84 118.15 17.36 119.88 17.36 119.88 17.84 119.25 17.84 119.25 19.06 119.65 19.06 119.65 19.53 118.38 19.53 118.38 19.06 118.78 19.06 118.78 17.84 118.15 17.84"/>
      <polygon class="cls-4" points="116.42 17.84 116.42 17.36 118.15 17.36 118.15 17.84 117.52 17.84 117.52 19.06 117.92 19.06 117.92 19.53 116.65 19.53 116.65 19.06 117.05 19.06 117.05 17.84 116.42 17.84"/>
      <polygon class="cls-4" points="114.69 17.84 114.69 17.36 116.42 17.36 116.42 17.84 115.79 17.84 115.79 19.06 116.19 19.06 116.19 19.53 114.92 19.53 114.92 19.06 115.32 19.06 115.32 17.84 114.69 17.84"/>
      <polygon class="cls-4" points="112.96 17.84 112.96 17.36 114.69 17.36 114.69 17.84 114.06 17.84 114.06 19.06 114.46 19.06 114.46 19.53 113.19 19.53 113.19 19.06 113.59 19.06 113.59 17.84 112.96 17.84"/>
      <polygon class="cls-4" points="111.23 17.84 111.23 17.36 112.96 17.36 112.96 17.84 112.33 17.84 112.33 19.06 112.73 19.06 112.73 19.53 111.46 19.53 111.46 19.06 111.86 19.06 111.86 17.84 111.23 17.84"/>
      <polygon class="cls-4" points="109.5 17.84 109.5 17.36 111.23 17.36 111.23 17.84 110.6 17.84 110.6 19.06 111 19.06 111 19.53 109.73 19.53 109.73 19.06 110.13 19.06 110.13 17.84 109.5 17.84"/>
      <polygon class="cls-4" points="107.77 17.84 107.77 17.36 109.5 17.36 109.5 17.84 108.87 17.84 108.87 19.06 109.27 19.06 109.27 19.53 108 19.53 108 19.06 108.4 19.06 108.4 17.84 107.77 17.84"/>
      <polygon class="cls-4" points="106.04 17.84 106.04 17.36 107.77 17.36 107.77 17.84 107.14 17.84 107.14 19.06 107.54 19.06 107.54 19.53 106.27 19.53 106.27 19.06 106.67 19.06 106.67 17.84 106.04 17.84"/>
      <polygon class="cls-4" points="104.31 17.84 104.31 17.36 106.04 17.36 106.04 17.84 105.41 17.84 105.41 19.06 105.81 19.06 105.81 19.53 104.54 19.53 104.54 19.06 104.94 19.06 104.94 17.84 104.31 17.84"/>
      <polygon class="cls-4" points="102.58 17.84 102.58 17.36 104.31 17.36 104.31 17.84 103.68 17.84 103.68 19.06 104.08 19.06 104.08 19.53 102.81 19.53 102.81 19.06 103.21 19.06 103.21 17.84 102.58 17.84"/>
      <polygon class="cls-4" points="100.85 17.84 100.85 17.36 102.58 17.36 102.58 17.84 101.95 17.84 101.95 19.06 102.35 19.06 102.35 19.53 101.08 19.53 101.08 19.06 101.48 19.06 101.48 17.84 100.85 17.84"/>
      <polygon class="cls-4" points="99.12 17.84 99.12 17.36 100.85 17.36 100.85 17.84 100.22 17.84 100.22 19.06 100.62 19.06 100.62 19.53 99.35 19.53 99.35 19.06 99.75 19.06 99.75 17.84 99.12 17.84"/>
      <polygon class="cls-4" points="97.39 17.84 97.39 17.36 99.12 17.36 99.12 17.84 98.49 17.84 98.49 19.06 98.89 19.06 98.89 19.53 97.62 19.53 97.62 19.06 98.02 19.06 98.02 17.84 97.39 17.84"/>
      <polygon class="cls-4" points="95.66 17.84 95.66 17.36 97.39 17.36 97.39 17.84 96.76 17.84 96.76 19.06 97.16 19.06 97.16 19.53 95.89 19.53 95.89 19.06 96.29 19.06 96.29 17.84 95.66 17.84"/>
      <polygon class="cls-4" points="93.93 17.84 93.93 17.36 95.66 17.36 95.66 17.84 95.03 17.84 95.03 19.06 95.43 19.06 95.43 19.53 94.16 19.53 94.16 19.06 94.56 19.06 94.56 17.84 93.93 17.84"/>
      <polygon class="cls-4" points="92.2 17.84 92.2 17.36 93.93 17.36 93.93 17.84 93.3 17.84 93.3 19.06 93.7 19.06 93.7 19.53 92.43 19.53 92.43 19.06 92.83 19.06 92.83 17.84 92.2 17.84"/>
      <polygon class="cls-4" points="90.47 17.84 90.47 17.36 92.2 17.36 92.2 17.84 91.57 17.84 91.57 19.06 91.97 19.06 91.97 19.53 90.7 19.53 90.7 19.06 91.1 19.06 91.1 17.84 90.47 17.84"/>
      <polygon class="cls-4" points="88.74 17.84 88.74 17.36 90.47 17.36 90.47 17.84 89.84 17.84 89.84 19.06 90.24 19.06 90.24 19.53 88.97 19.53 88.97 19.06 89.37 19.06 89.37 17.84 88.74 17.84"/>
      <polygon class="cls-4" points="87.01 17.84 87.01 17.36 88.74 17.36 88.74 17.84 88.11 17.84 88.11 19.06 88.51 19.06 88.51 19.53 87.24 19.53 87.24 19.06 87.64 19.06 87.64 17.84 87.01 17.84"/>
      <polygon class="cls-4" points="85.28 17.84 85.28 17.36 87.01 17.36 87.01 17.84 86.38 17.84 86.38 19.06 86.78 19.06 86.78 19.53 85.51 19.53 85.51 19.06 85.91 19.06 85.91 17.84 85.28 17.84"/>
      <polygon class="cls-4" points="83.55 17.84 83.55 17.36 85.28 17.36 85.28 17.84 84.65 17.84 84.65 19.06 85.05 19.06 85.05 19.53 83.78 19.53 83.78 19.06 84.18 19.06 84.18 17.84 83.55 17.84"/>
      <polygon class="cls-4" points="81.82 17.84 81.82 17.36 83.55 17.36 83.55 17.84 82.92 17.84 82.92 19.06 83.32 19.06 83.32 19.53 82.05 19.53 82.05 19.06 82.45 19.06 82.45 17.84 81.82 17.84"/>
      <polygon class="cls-4" points="80.09 17.84 80.09 17.36 81.82 17.36 81.82 17.84 81.19 17.84 81.19 19.06 81.59 19.06 81.59 19.53 80.32 19.53 80.32 19.06 80.72 19.06 80.72 17.84 80.09 17.84"/>
      <polygon class="cls-4" points="78.36 17.84 78.36 17.36 80.09 17.36 80.09 17.84 79.46 17.84 79.46 19.06 79.86 19.06 79.86 19.53 78.59 19.53 78.59 19.06 78.99 19.06 78.99 17.84 78.36 17.84"/>
      <polygon class="cls-4" points="76.63 17.84 76.63 17.36 78.36 17.36 78.36 17.84 77.73 17.84 77.73 19.06 78.13 19.06 78.13 19.53 76.86 19.53 76.86 19.06 77.26 19.06 77.26 17.84 76.63 17.84"/>
      <polygon class="cls-4" points="74.9 17.84 74.9 17.36 76.63 17.36 76.63 17.84 76 17.84 76 19.06 76.4 19.06 76.4 19.53 75.13 19.53 75.13 19.06 75.53 19.06 75.53 17.84 74.9 17.84"/>
      <polygon class="cls-4" points="73.17 17.84 73.17 17.36 74.9 17.36 74.9 17.84 74.27 17.84 74.27 19.06 74.67 19.06 74.67 19.53 73.4 19.53 73.4 19.06 73.8 19.06 73.8 17.84 73.17 17.84"/>
      <polygon class="cls-4" points="71.44 17.84 71.44 17.36 73.17 17.36 73.17 17.84 72.54 17.84 72.54 19.06 72.94 19.06 72.94 19.53 71.67 19.53 71.67 19.06 72.07 19.06 72.07 17.84 71.44 17.84"/>
      <polygon class="cls-4" points="69.71 17.84 69.71 17.36 71.44 17.36 71.44 17.84 70.81 17.84 70.81 19.06 71.21 19.06 71.21 19.53 69.94 19.53 69.94 19.06 70.34 19.06 70.34 17.84 69.71 17.84"/>
      <polygon class="cls-4" points="67.98 17.84 67.98 17.36 69.71 17.36 69.71 17.84 69.08 17.84 69.08 19.06 69.48 19.06 69.48 19.53 68.21 19.53 68.21 19.06 68.61 19.06 68.61 17.84 67.98 17.84"/>
      <polygon class="cls-4" points="66.25 17.84 66.25 17.36 67.98 17.36 67.98 17.84 67.35 17.84 67.35 19.06 67.75 19.06 67.75 19.53 66.48 19.53 66.48 19.06 66.88 19.06 66.88 17.84 66.25 17.84"/>
      <polygon class="cls-4" points="64.52 17.84 64.52 17.36 66.25 17.36 66.25 17.84 65.62 17.84 65.62 19.06 66.02 19.06 66.02 19.53 64.75 19.53 64.75 19.06 65.15 19.06 65.15 17.84 64.52 17.84"/>
      <polygon class="cls-4" points="62.79 17.84 62.79 17.36 64.52 17.36 64.52 17.84 63.89 17.84 63.89 19.06 64.29 19.06 64.29 19.53 63.02 19.53 63.02 19.06 63.42 19.06 63.42 17.84 62.79 17.84"/>
      <polygon class="cls-4" points="61.06 17.84 61.06 17.36 62.79 17.36 62.79 17.84 62.16 17.84 62.16 19.06 62.56 19.06 62.56 19.53 61.29 19.53 61.29 19.06 61.69 19.06 61.69 17.84 61.06 17.84"/>
      <polygon class="cls-4" points="59.33 17.84 59.33 17.36 61.06 17.36 61.06 17.84 60.43 17.84 60.43 19.06 60.83 19.06 60.83 19.53 59.56 19.53 59.56 19.06 59.96 19.06 59.96 17.84 59.33 17.84"/>
      <polygon class="cls-4" points="57.6 17.84 57.6 17.36 59.33 17.36 59.33 17.84 58.7 17.84 58.7 19.06 59.1 19.06 59.1 19.53 57.83 19.53 57.83 19.06 58.23 19.06 58.23 17.84 57.6 17.84"/>
      <polygon class="cls-4" points="55.87 17.84 55.87 17.36 57.6 17.36 57.6 17.84 56.97 17.84 56.97 19.06 57.37 19.06 57.37 19.53 56.1 19.53 56.1 19.06 56.5 19.06 56.5 17.84 55.87 17.84"/>
      <polygon class="cls-4" points="54.14 17.84 54.14 17.36 55.87 17.36 55.87 17.84 55.24 17.84 55.24 19.06 55.64 19.06 55.64 19.53 54.37 19.53 54.37 19.06 54.77 19.06 54.77 17.84 54.14 17.84"/>
      <polygon class="cls-4" points="52.41 17.84 52.41 17.36 54.14 17.36 54.14 17.84 53.51 17.84 53.51 19.06 53.91 19.06 53.91 19.53 52.64 19.53 52.64 19.06 53.04 19.06 53.04 17.84 52.41 17.84"/>
      <polygon class="cls-4" points="50.68 17.84 50.68 17.36 52.41 17.36 52.41 17.84 51.78 17.84 51.78 19.06 52.18 19.06 52.18 19.53 50.91 19.53 50.91 19.06 51.31 19.06 51.31 17.84 50.68 17.84"/>
      <polygon class="cls-4" points="48.95 17.84 48.95 17.36 50.68 17.36 50.68 17.84 50.05 17.84 50.05 19.06 50.45 19.06 50.45 19.53 49.18 19.53 49.18 19.06 49.58 19.06 49.58 17.84 48.95 17.84"/>
      <polygon class="cls-4" points="47.22 17.84 47.22 17.36 48.95 17.36 48.95 17.84 48.32 17.84 48.32 19.06 48.72 19.06 48.72 19.53 47.45 19.53 47.45 19.06 47.85 19.06 47.85 17.84 47.22 17.84"/>
      <polygon class="cls-4" points="45.49 17.84 45.49 17.36 47.22 17.36 47.22 17.84 46.59 17.84 46.59 19.06 46.99 19.06 46.99 19.53 45.72 19.53 45.72 19.06 46.12 19.06 46.12 17.84 45.49 17.84"/>
      <polygon class="cls-4" points="43.76 17.84 43.76 17.36 45.49 17.36 45.49 17.84 44.86 17.84 44.86 19.06 45.26 19.06 45.26 19.53 43.99 19.53 43.99 19.06 44.39 19.06 44.39 17.84 43.76 17.84"/>
      <polygon class="cls-4" points="42.03 17.84 42.03 17.36 43.76 17.36 43.76 17.84 43.13 17.84 43.13 19.06 43.53 19.06 43.53 19.53 42.26 19.53 42.26 19.06 42.66 19.06 42.66 17.84 42.03 17.84"/>
      <polygon class="cls-4" points="40.3 17.84 40.3 17.36 42.03 17.36 42.03 17.84 41.4 17.84 41.4 19.06 41.8 19.06 41.8 19.53 40.53 19.53 40.53 19.06 40.93 19.06 40.93 17.84 40.3 17.84"/>
      <polygon class="cls-4" points="38.57 17.84 38.57 17.36 40.3 17.36 40.3 17.84 39.67 17.84 39.67 19.06 40.07 19.06 40.07 19.53 38.8 19.53 38.8 19.06 39.2 19.06 39.2 17.84 38.57 17.84"/>
      <polygon class="cls-4" points="36.84 17.84 36.84 17.36 38.57 17.36 38.57 17.84 37.94 17.84 37.94 19.06 38.34 19.06 38.34 19.53 37.07 19.53 37.07 19.06 37.47 19.06 37.47 17.84 36.84 17.84"/>
      <polygon class="cls-4" points="35.11 17.84 35.11 17.36 36.84 17.36 36.84 17.84 36.21 17.84 36.21 19.06 36.61 19.06 36.61 19.53 35.34 19.53 35.34 19.06 35.74 19.06 35.74 17.84 35.11 17.84"/>
      <polygon class="cls-4" points="33.38 17.84 33.38 17.36 35.11 17.36 35.11 17.84 34.48 17.84 34.48 19.06 34.88 19.06 34.88 19.53 33.61 19.53 33.61 19.06 34.01 19.06 34.01 17.84 33.38 17.84"/>
      <polygon class="cls-4" points="31.65 17.84 31.65 17.36 33.38 17.36 33.38 17.84 32.75 17.84 32.75 19.06 33.15 19.06 33.15 19.53 31.88 19.53 31.88 19.06 32.28 19.06 32.28 17.84 31.65 17.84"/>
      <polygon class="cls-4" points="29.92 17.84 29.92 17.36 31.65 17.36 31.65 17.84 31.02 17.84 31.02 19.06 31.42 19.06 31.42 19.53 30.15 19.53 30.15 19.06 30.55 19.06 30.55 17.84 29.92 17.84"/>
      <polygon class="cls-4" points="28.19 17.84 28.19 17.36 29.92 17.36 29.92 17.84 29.29 17.84 29.29 19.06 29.69 19.06 29.69 19.53 28.42 19.53 28.42 19.06 28.82 19.06 28.82 17.84 28.19 17.84"/>
      <polygon class="cls-4" points="26.46 17.84 26.46 17.36 28.19 17.36 28.19 17.84 27.56 17.84 27.56 19.06 27.96 19.06 27.96 19.53 26.69 19.53 26.69 19.06 27.09 19.06 27.09 17.84 26.46 17.84"/>
      <polygon class="cls-4" points="24.73 17.84 24.73 17.36 26.46 17.36 26.46 17.84 25.83 17.84 25.83 19.06 26.23 19.06 26.23 19.53 24.96 19.53 24.96 19.06 25.36 19.06 25.36 17.84 24.73 17.84"/>
      <polygon class="cls-4" points="23 17.84 23 17.36 24.73 17.36 24.73 17.84 24.1 17.84 24.1 19.06 24.5 19.06 24.5 19.53 23.23 19.53 23.23 19.06 23.63 19.06 23.63 17.84 23 17.84"/>
      <polygon class="cls-4" points="21.27 17.84 21.27 17.36 23 17.36 23 17.84 22.37 17.84 22.37 19.06 22.77 19.06 22.77 19.53 21.5 19.53 21.5 19.06 21.9 19.06 21.9 17.84 21.27 17.84"/>
      <polygon class="cls-4" points="19.54 17.84 19.54 17.36 21.27 17.36 21.27 17.84 20.64 17.84 20.64 19.06 21.04 19.06 21.04 19.53 19.77 19.53 19.77 19.06 20.17 19.06 20.17 17.84 19.54 17.84"/>
      <polygon class="cls-4" points="17.81 17.84 17.81 17.36 19.54 17.36 19.54 17.84 18.91 17.84 18.91 19.06 19.31 19.06 19.31 19.53 18.04 19.53 18.04 19.06 18.44 19.06 18.44 17.84 17.81 17.84"/>
      <polygon class="cls-4" points="16.08 17.84 16.08 17.36 17.81 17.36 17.81 17.84 17.18 17.84 17.18 19.06 17.58 19.06 17.58 19.53 16.31 19.53 16.31 19.06 16.71 19.06 16.71 17.84 16.08 17.84"/>
      <polygon class="cls-4" points="14.35 17.84 14.35 17.36 16.08 17.36 16.08 17.84 15.45 17.84 15.45 19.06 15.85 19.06 15.85 19.53 14.58 19.53 14.58 19.06 14.98 19.06 14.98 17.84 14.35 17.84"/>
      <polygon class="cls-4" points="12.62 17.84 12.62 17.36 14.35 17.36 14.35 17.84 13.72 17.84 13.72 19.06 14.12 19.06 14.12 19.53 12.85 19.53 12.85 19.06 13.25 19.06 13.25 17.84 12.62 17.84"/>
      <polygon class="cls-4" points="10.89 17.84 10.89 17.36 12.62 17.36 12.62 17.84 11.99 17.84 11.99 19.06 12.39 19.06 12.39 19.53 11.12 19.53 11.12 19.06 11.52 19.06 11.52 17.84 10.89 17.84"/>
      <polygon class="cls-4" points="9.16 17.84 9.16 17.36 10.89 17.36 10.89 17.84 10.26 17.84 10.26 19.06 10.66 19.06 10.66 19.53 9.39 19.53 9.39 19.06 9.79 19.06 9.79 17.84 9.16 17.84"/>
      <polygon class="cls-4" points="7.43 17.84 7.43 17.36 9.16 17.36 9.16 17.84 8.53 17.84 8.53 19.06 8.93 19.06 8.93 19.53 7.66 19.53 7.66 19.06 8.06 19.06 8.06 17.84 7.43 17.84"/>
      <polygon class="cls-4" points="5.7 17.84 5.7 17.36 7.43 17.36 7.43 17.84 6.8 17.84 6.8 19.06 7.2 19.06 7.2 19.53 5.93 19.53 5.93 19.06 6.33 19.06 6.33 17.84 5.7 17.84"/>
      <polygon class="cls-4" points="3.97 17.84 3.97 17.36 5.7 17.36 5.7 17.84 5.07 17.84 5.07 19.06 5.47 19.06 5.47 19.53 4.2 19.53 4.2 19.06 4.6 19.06 4.6 17.84 3.97 17.84"/>
      <polygon class="cls-4" points="2.24 17.84 2.24 17.36 3.97 17.36 3.97 17.84 3.34 17.84 3.34 19.06 3.74 19.06 3.74 19.53 2.47 19.53 2.47 19.06 2.87 19.06 2.87 17.84 2.24 17.84"/>
      <g class="cls-8">
        <polygon class="cls-4" points="1.77 .11 2.24 .11 2.24 2.27 1.77 2.27 1.77 1.48 .55 1.48 .55 1.98 .08 1.98 .08 .4 .55 .4 .55 .89 1.77 .89 1.77 .11"/>
      </g>
      <g class="cls-6">
        <polygon class="cls-4" points="2.24 1.8 2.24 2.27 .08 2.27 .08 1.8 .87 1.8 .87 .58 .37 .58 .37 .11 1.95 .11 1.95 .58 1.46 .58 1.46 1.8 2.24 1.8"/>
      </g>
      <g class="cls-1">
        <polygon class="cls-4" points="184.33 1.8 184.33 2.27 182.16 2.27 182.16 1.8 182.95 1.8 182.95 .58 182.46 .58 182.46 .11 184.04 .11 184.04 .58 183.54 .58 183.54 1.8 184.33 1.8"/>
      </g>
      <g class="cls-9">
        <polygon class="cls-4" points="182.63 2.27 182.16 2.27 182.16 .11 182.63 .11 182.63 .9 183.85 .9 183.85 .4 184.33 .4 184.33 1.99 183.85 1.99 183.85 1.49 182.63 1.49 182.63 2.27"/>
      </g>
      <g class="cls-7">
        <polygon class="cls-4" points="182.63 19.53 182.16 19.53 182.16 17.36 182.63 17.36 182.63 18.15 183.85 18.15 183.85 17.66 184.33 17.66 184.33 19.24 183.85 19.24 183.85 18.75 182.63 18.75 182.63 19.53"/>
      </g>
      <g class="cls-10">
        <polygon class="cls-4" points="182.16 17.84 182.16 17.36 184.33 17.36 184.33 17.84 183.54 17.84 183.54 19.06 184.03 19.06 184.03 19.53 182.45 19.53 182.45 19.06 182.94 19.06 182.94 17.84 182.16 17.84"/>
      </g>
      <g class="cls-2">
        <polygon class="cls-4" points=".08 17.84 .08 17.36 2.24 17.36 2.24 17.84 1.45 17.84 1.45 19.06 1.95 19.06 1.95 19.53 .36 19.53 .36 19.06 .86 19.06 .86 17.84 .08 17.84"/>
      </g>
      <g class="cls-5">
        <polygon class="cls-4" points="1.77 17.36 2.24 17.36 2.24 19.53 1.77 19.53 1.77 18.74 .55 18.74 .55 19.24 .08 19.24 .08 17.65 .55 17.65 .55 18.15 1.77 18.15 1.77 17.36"/>
      </g>
    </g>
  </g>
</svg>