<?xml version="1.0" encoding="UTF-8"?>
<svg id="En_laptop_first_divider" data-name="En_laptop first divider" xmlns="http://www.w3.org/2000/svg" version="1.1" xmlns:xlink="http://www.w3.org/1999/xlink" viewBox="0 0 463.03 72.24">
  <defs>
    <style>
      .cls-1 {
        clip-path: url(#clippath-2);
      }

      .cls-2 {
        clip-path: url(#clippath-6);
      }

      .cls-3 {
        fill: none;
      }

      .cls-3, .cls-4 {
        stroke-width: 0px;
      }

      .cls-5 {
        clip-path: url(#clippath-7);
      }

      .cls-6 {
        clip-path: url(#clippath-1);
      }

      .cls-7 {
        clip-path: url(#clippath-4);
      }

      .cls-4 {
        fill: #fed700;
      }

      .cls-8 {
        clip-path: url(#clippath);
      }

      .cls-9 {
        clip-path: url(#clippath-3);
      }

      .cls-10 {
        clip-path: url(#clippath-5);
      }
    </style>
    <clipPath id="clippath">
      <polygon class="cls-3" points="458.6 67.65 462.21 71.58 458.3 71.25 458.6 67.65"/>
    </clipPath>
    <clipPath id="clippath-1">
      <polygon class="cls-3" points="458.6 67.65 462.21 71.58 462.21 67.65 458.6 67.65"/>
    </clipPath>
    <clipPath id="clippath-2">
      <polygon class="cls-3" points="458.6 4.9 462.21 1.29 462.21 4.9 458.6 4.9"/>
    </clipPath>
    <clipPath id="clippath-3">
      <polygon class="cls-3" points="458.6 4.9 462.21 1.29 458.6 1.29 458.6 4.9"/>
    </clipPath>
    <clipPath id="clippath-4">
      <polygon class="cls-3" points="4.4 4.9 .79 1.29 4.4 1.29 4.4 4.9"/>
    </clipPath>
    <clipPath id="clippath-5">
      <polygon class="cls-3" points="4.4 4.9 .79 1.29 .79 4.9 4.4 4.9"/>
    </clipPath>
    <clipPath id="clippath-6">
      <polygon class="cls-3" points="4.4 28.8 .79 32.11 .79 28.8 4.4 28.8"/>
    </clipPath>
    <clipPath id="clippath-7">
      <polygon class="cls-3" points="4.4 28.8 .79 32.11 4.1 32.4 4.4 28.8"/>
    </clipPath>
  </defs>
  <polygon class="cls-4" points="2.6 3.1 2.6 30.46 460.41 69.62 460.41 3.1 2.6 3.1"/>
  <g>
    <polygon class="cls-4" points="7.21 29.83 7.28 29.05 4.4 28.8 4.34 29.59 5.39 29.68 5.21 31.7 4.55 31.64 4.49 32.43 6.59 32.61 6.66 31.82 6 31.77 6.17 29.74 7.21 29.83"/>
    <polygon class="cls-4" points="10.09 30.08 10.15 29.29 7.28 29.05 7.21 29.83 8.26 29.92 8.09 31.95 7.43 31.89 7.36 32.68 9.46 32.86 9.53 32.07 8.87 32.01 9.05 29.99 10.09 30.08"/>
    <polygon class="cls-4" points="12.96 30.32 13.03 29.54 10.15 29.29 10.09 30.08 11.14 30.17 10.96 32.19 10.3 32.14 10.24 32.92 12.34 33.1 12.41 32.32 11.75 32.26 11.92 30.23 12.96 30.32"/>
    <polygon class="cls-4" points="15.84 30.57 15.9 29.78 13.03 29.54 12.96 30.32 14.01 30.41 13.84 32.44 13.18 32.38 13.11 33.17 15.21 33.35 15.28 32.56 14.62 32.51 14.8 30.48 15.84 30.57"/>
    <polygon class="cls-4" points="18.71 30.82 18.78 30.03 15.9 29.78 15.84 30.57 16.88 30.66 16.71 32.68 16.05 32.63 15.99 33.41 18.09 33.59 18.16 32.81 17.5 32.75 17.67 30.73 18.71 30.82"/>
    <polygon class="cls-4" points="21.59 31.06 21.65 30.27 18.78 30.03 18.71 30.82 19.76 30.91 19.59 32.93 18.93 32.87 18.86 33.66 20.96 33.84 21.03 33.05 20.37 33 20.55 30.97 21.59 31.06"/>
    <polygon class="cls-4" points="24.46 31.31 24.53 30.52 21.65 30.27 21.59 31.06 22.63 31.15 22.46 33.18 21.8 33.12 21.74 33.91 23.84 34.09 23.9 33.3 23.25 33.24 23.42 31.22 24.46 31.31"/>
    <polygon class="cls-4" points="27.33 31.55 27.4 30.77 24.53 30.52 24.46 31.31 25.51 31.4 25.34 33.42 24.68 33.37 24.61 34.15 26.71 34.33 26.78 33.55 26.12 33.49 26.29 31.46 27.33 31.55"/>
    <polygon class="cls-4" points="30.21 31.8 30.28 31.01 27.4 30.77 27.33 31.55 28.38 31.64 28.21 33.67 27.55 33.61 27.48 34.4 29.59 34.58 29.65 33.79 29 33.73 29.17 31.71 30.21 31.8"/>
    <polygon class="cls-4" points="33.08 32.04 33.15 31.26 30.28 31.01 30.21 31.8 31.26 31.89 31.08 33.91 30.43 33.86 30.36 34.64 32.46 34.82 32.53 34.04 31.87 33.98 32.04 31.96 33.08 32.04"/>
    <polygon class="cls-4" points="35.96 32.29 36.03 31.5 33.15 31.26 33.08 32.04 34.13 32.13 33.96 34.16 33.3 34.1 33.23 34.89 35.34 35.07 35.4 34.28 34.75 34.23 34.92 32.2 35.96 32.29"/>
    <polygon class="cls-4" points="38.83 32.54 38.9 31.75 36.03 31.5 35.96 32.29 37.01 32.38 36.83 34.41 36.18 34.35 36.11 35.14 38.21 35.32 38.28 34.53 37.62 34.47 37.79 32.45 38.83 32.54"/>
    <polygon class="cls-4" points="41.71 32.78 41.78 32 38.9 31.75 38.83 32.54 39.88 32.63 39.71 34.65 39.05 34.59 38.98 35.38 41.09 35.56 41.15 34.77 40.5 34.72 40.67 32.69 41.71 32.78"/>
    <polygon class="cls-4" points="44.58 33.03 44.65 32.24 41.78 32 41.71 32.78 42.76 32.87 42.58 34.9 41.93 34.84 41.86 35.63 43.96 35.81 44.03 35.02 43.37 34.96 43.54 32.94 44.58 33.03"/>
    <polygon class="cls-4" points="47.46 33.27 47.52 32.49 44.65 32.24 44.58 33.03 45.63 33.12 45.46 35.14 44.8 35.09 44.73 35.87 46.83 36.05 46.9 35.27 46.24 35.21 46.42 33.19 47.46 33.27"/>
    <polygon class="cls-4" points="50.33 33.52 50.4 32.73 47.52 32.49 47.46 33.27 48.51 33.36 48.33 35.39 47.67 35.33 47.61 36.12 49.71 36.3 49.78 35.51 49.12 35.46 49.29 33.43 50.33 33.52"/>
    <polygon class="cls-4" points="53.21 33.77 53.27 32.98 50.4 32.73 50.33 33.52 51.38 33.61 51.21 35.63 50.55 35.58 50.48 36.36 52.58 36.54 52.65 35.76 51.99 35.7 52.17 33.68 53.21 33.77"/>
    <polygon class="cls-4" points="56.08 34.01 56.15 33.23 53.27 32.98 53.21 33.77 54.26 33.86 54.08 35.88 53.42 35.82 53.36 36.61 55.46 36.79 55.53 36 54.87 35.95 55.04 33.92 56.08 34.01"/>
    <polygon class="cls-4" points="58.96 34.26 59.02 33.47 56.15 33.23 56.08 34.01 57.13 34.1 56.96 36.13 56.3 36.07 56.23 36.86 58.33 37.04 58.4 36.25 57.74 36.19 57.92 34.17 58.96 34.26"/>
    <polygon class="cls-4" points="61.83 34.5 61.9 33.72 59.02 33.47 58.96 34.26 60 34.35 59.83 36.37 59.17 36.32 59.11 37.1 61.21 37.28 61.28 36.5 60.62 36.44 60.79 34.41 61.83 34.5"/>
    <polygon class="cls-4" points="64.71 34.75 64.77 33.96 61.9 33.72 61.83 34.5 62.88 34.59 62.71 36.62 62.05 36.56 61.98 37.35 64.08 37.53 64.15 36.74 63.49 36.69 63.67 34.66 64.71 34.75"/>
    <polygon class="cls-4" points="67.58 35 67.65 34.21 64.77 33.96 64.71 34.75 65.75 34.84 65.58 36.86 64.92 36.81 64.86 37.59 66.96 37.77 67.02 36.99 66.37 36.93 66.54 34.91 67.58 35"/>
    <polygon class="cls-4" points="70.45 35.24 70.52 34.45 67.65 34.21 67.58 35 68.63 35.09 68.46 37.11 67.8 37.05 67.73 37.84 69.83 38.02 69.9 37.23 69.24 37.18 69.41 35.15 70.45 35.24"/>
    <polygon class="cls-4" points="73.33 35.49 73.4 34.7 70.52 34.45 70.45 35.24 71.5 35.33 71.33 37.36 70.67 37.3 70.6 38.09 72.71 38.27 72.77 37.48 72.12 37.42 72.29 35.4 73.33 35.49"/>
    <polygon class="cls-4" points="76.2 35.73 76.27 34.95 73.4 34.7 73.33 35.49 74.38 35.58 74.2 37.6 73.55 37.55 73.48 38.33 75.58 38.51 75.65 37.73 74.99 37.67 75.16 35.64 76.2 35.73"/>
    <polygon class="cls-4" points="79.08 35.98 79.15 35.19 76.27 34.95 76.2 35.73 77.25 35.82 77.08 37.85 76.42 37.79 76.35 38.58 78.46 38.76 78.52 37.97 77.87 37.91 78.04 35.89 79.08 35.98"/>
    <polygon class="cls-4" points="81.95 36.23 82.02 35.44 79.15 35.19 79.08 35.98 80.13 36.07 79.95 38.09 79.3 38.04 79.23 38.82 81.33 39 81.4 38.22 80.74 38.16 80.91 36.14 81.95 36.23"/>
    <polygon class="cls-4" points="84.83 36.47 84.9 35.68 82.02 35.44 81.95 36.23 83 36.31 82.83 38.34 82.17 38.28 82.1 39.07 84.21 39.25 84.27 38.46 83.62 38.41 83.79 36.38 84.83 36.47"/>
    <polygon class="cls-4" points="87.7 36.72 87.77 35.93 84.9 35.68 84.83 36.47 85.88 36.56 85.7 38.59 85.05 38.53 84.98 39.32 87.08 39.5 87.15 38.71 86.49 38.65 86.66 36.63 87.7 36.72"/>
    <polygon class="cls-4" points="90.58 36.96 90.64 36.18 87.77 35.93 87.7 36.72 88.75 36.81 88.58 38.83 87.92 38.77 87.85 39.56 89.96 39.74 90.02 38.95 89.36 38.9 89.54 36.87 90.58 36.96"/>
    <polygon class="cls-4" points="93.45 37.21 93.52 36.42 90.64 36.18 90.58 36.96 91.63 37.05 91.45 39.08 90.79 39.02 90.73 39.81 92.83 39.99 92.9 39.2 92.24 39.14 92.41 37.12 93.45 37.21"/>
    <polygon class="cls-4" points="96.33 37.45 96.39 36.67 93.52 36.42 93.45 37.21 94.5 37.3 94.33 39.32 93.67 39.27 93.6 40.05 95.7 40.23 95.77 39.45 95.11 39.39 95.29 37.37 96.33 37.45"/>
    <polygon class="cls-4" points="99.2 37.7 99.27 36.91 96.39 36.67 96.33 37.45 97.38 37.54 97.2 39.57 96.54 39.51 96.48 40.3 98.58 40.48 98.65 39.69 97.99 39.64 98.16 37.61 99.2 37.7"/>
    <polygon class="cls-4" points="102.08 37.95 102.14 37.16 99.27 36.91 99.2 37.7 100.25 37.79 100.08 39.81 99.42 39.76 99.35 40.54 101.45 40.72 101.52 39.94 100.86 39.88 101.04 37.86 102.08 37.95"/>
    <polygon class="cls-4" points="104.95 38.19 105.02 37.41 102.14 37.16 102.08 37.95 103.12 38.04 102.95 40.06 102.29 40 102.23 40.79 104.33 40.97 104.4 40.18 103.74 40.13 103.91 38.1 104.95 38.19"/>
    <polygon class="cls-4" points="107.83 38.44 107.89 37.65 105.02 37.41 104.95 38.19 106 38.28 105.83 40.31 105.17 40.25 105.1 41.04 107.2 41.22 107.27 40.43 106.61 40.37 106.79 38.35 107.83 38.44"/>
    <polygon class="cls-4" points="110.7 38.68 110.77 37.9 107.89 37.65 107.83 38.44 108.87 38.53 108.7 40.55 108.04 40.5 107.98 41.28 110.08 41.46 110.15 40.68 109.49 40.62 109.66 38.59 110.7 38.68"/>
    <polygon class="cls-4" points="113.57 38.93 113.64 38.14 110.77 37.9 110.7 38.68 111.75 38.77 111.58 40.8 110.92 40.74 110.85 41.53 112.95 41.71 113.02 40.92 112.36 40.87 112.54 38.84 113.57 38.93"/>
    <polygon class="cls-4" points="116.45 39.18 116.52 38.39 113.64 38.14 113.57 38.93 114.62 39.02 114.45 41.04 113.79 40.99 113.72 41.77 115.83 41.95 115.89 41.17 115.24 41.11 115.41 39.09 116.45 39.18"/>
    <polygon class="cls-4" points="119.32 39.42 119.39 38.63 116.52 38.39 116.45 39.18 117.5 39.27 117.32 41.29 116.67 41.23 116.6 42.02 118.7 42.2 118.77 41.41 118.11 41.36 118.28 39.33 119.32 39.42"/>
    <polygon class="cls-4" points="122.2 39.67 122.27 38.88 119.39 38.63 119.32 39.42 120.37 39.51 120.2 41.54 119.54 41.48 119.47 42.27 121.58 42.45 121.64 41.66 120.99 41.6 121.16 39.58 122.2 39.67"/>
    <polygon class="cls-4" points="125.07 39.91 125.14 39.13 122.27 38.88 122.2 39.67 123.25 39.76 123.07 41.78 122.42 41.73 122.35 42.51 124.45 42.69 124.52 41.91 123.86 41.85 124.03 39.82 125.07 39.91"/>
    <polygon class="cls-4" points="127.95 40.16 128.02 39.37 125.14 39.13 125.07 39.91 126.12 40 125.95 42.03 125.29 41.97 125.22 42.76 127.33 42.94 127.39 42.15 126.74 42.09 126.91 40.07 127.95 40.16"/>
    <polygon class="cls-4" points="130.82 40.41 130.89 39.62 128.02 39.37 127.95 40.16 129 40.25 128.82 42.27 128.17 42.22 128.1 43 130.2 43.18 130.27 42.4 129.61 42.34 129.78 40.32 130.82 40.41"/>
    <polygon class="cls-4" points="133.7 40.65 133.76 39.86 130.89 39.62 130.82 40.41 131.87 40.49 131.7 42.52 131.04 42.46 130.97 43.25 133.08 43.43 133.14 42.64 132.48 42.59 132.66 40.56 133.7 40.65"/>
    <polygon class="cls-4" points="136.57 40.9 136.64 40.11 133.76 39.86 133.7 40.65 134.75 40.74 134.57 42.77 133.91 42.71 133.85 43.5 135.95 43.68 136.02 42.89 135.36 42.83 135.53 40.81 136.57 40.9"/>
    <polygon class="cls-4" points="139.45 41.14 139.51 40.36 136.64 40.11 136.57 40.9 137.62 40.99 137.45 43.01 136.79 42.95 136.72 43.74 138.82 43.92 138.89 43.13 138.23 43.08 138.41 41.05 139.45 41.14"/>
    <polygon class="cls-4" points="142.32 41.39 142.39 40.6 139.51 40.36 139.45 41.14 140.5 41.23 140.32 43.26 139.66 43.2 139.6 43.99 141.7 44.17 141.77 43.38 141.11 43.32 141.28 41.3 142.32 41.39"/>
    <polygon class="cls-4" points="145.2 41.63 145.26 40.85 142.39 40.6 142.32 41.39 143.37 41.48 143.2 43.5 142.54 43.45 142.47 44.23 144.57 44.41 144.64 43.63 143.98 43.57 144.16 41.55 145.2 41.63"/>
    <polygon class="cls-4" points="148.07 41.88 148.14 41.09 145.26 40.85 145.2 41.63 146.24 41.72 146.07 43.75 145.41 43.69 145.35 44.48 147.45 44.66 147.52 43.87 146.86 43.82 147.03 41.79 148.07 41.88"/>
    <polygon class="cls-4" points="150.95 42.13 151.01 41.34 148.14 41.09 148.07 41.88 149.12 41.97 148.95 43.99 148.29 43.94 148.22 44.73 150.32 44.9 150.39 44.12 149.73 44.06 149.91 42.04 150.95 42.13"/>
    <polygon class="cls-4" points="153.82 42.37 153.89 41.59 151.01 41.34 150.95 42.13 151.99 42.22 151.82 44.24 151.16 44.18 151.1 44.97 153.2 45.15 153.27 44.36 152.61 44.31 152.78 42.28 153.82 42.37"/>
    <polygon class="cls-4" points="156.7 42.62 156.76 41.83 153.89 41.59 153.82 42.37 154.87 42.46 154.7 44.49 154.04 44.43 153.97 45.22 156.07 45.4 156.14 44.61 155.48 44.55 155.66 42.53 156.7 42.62"/>
    <polygon class="cls-4" points="159.57 42.86 159.64 42.08 156.76 41.83 156.7 42.62 157.74 42.71 157.57 44.73 156.91 44.68 156.85 45.46 158.95 45.64 159.01 44.86 158.36 44.8 158.53 42.78 159.57 42.86"/>
    <polygon class="cls-4" points="162.44 43.11 162.51 42.32 159.64 42.08 159.57 42.86 160.62 42.95 160.44 44.98 159.79 44.92 159.72 45.71 161.82 45.89 161.89 45.1 161.23 45.05 161.4 43.02 162.44 43.11"/>
    <polygon class="cls-4" points="165.32 43.36 165.39 42.57 162.51 42.32 162.44 43.11 163.49 43.2 163.32 45.22 162.66 45.17 162.59 45.95 164.7 46.13 164.76 45.35 164.11 45.29 164.28 43.27 165.32 43.36"/>
    <polygon class="cls-4" points="168.19 43.6 168.26 42.82 165.39 42.57 165.32 43.36 166.37 43.45 166.19 45.47 165.54 45.41 165.47 46.2 167.57 46.38 167.64 45.59 166.98 45.54 167.15 43.51 168.19 43.6"/>
    <polygon class="cls-4" points="171.07 43.85 171.14 43.06 168.26 42.82 168.19 43.6 169.24 43.69 169.07 45.72 168.41 45.66 168.34 46.45 170.45 46.63 170.51 45.84 169.86 45.78 170.03 43.76 171.07 43.85"/>
    <polygon class="cls-4" points="173.94 44.09 174.01 43.31 171.14 43.06 171.07 43.85 172.12 43.94 171.94 45.96 171.29 45.91 171.22 46.69 173.32 46.87 173.39 46.09 172.73 46.03 172.9 44 173.94 44.09"/>
    <polygon class="cls-4" points="176.82 44.34 176.89 43.55 174.01 43.31 173.94 44.09 174.99 44.18 174.82 46.21 174.16 46.15 174.09 46.94 176.2 47.12 176.26 46.33 175.6 46.27 175.78 44.25 176.82 44.34"/>
    <polygon class="cls-4" points="179.69 44.59 179.76 43.8 176.89 43.55 176.82 44.34 177.87 44.43 177.69 46.45 177.04 46.4 176.97 47.18 179.07 47.36 179.14 46.58 178.48 46.52 178.65 44.5 179.69 44.59"/>
    <polygon class="cls-4" points="182.57 44.83 182.63 44.04 179.76 43.8 179.69 44.59 180.74 44.67 180.57 46.7 179.91 46.64 179.84 47.43 181.94 47.61 182.01 46.82 181.35 46.77 181.53 44.74 182.57 44.83"/>
    <polygon class="cls-4" points="185.44 45.08 185.51 44.29 182.63 44.04 182.57 44.83 183.62 44.92 183.44 46.95 182.78 46.89 182.72 47.68 184.82 47.86 184.89 47.07 184.23 47.01 184.4 44.99 185.44 45.08"/>
    <polygon class="cls-4" points="188.32 45.32 188.38 44.54 185.51 44.29 185.44 45.08 186.49 45.17 186.32 47.19 185.66 47.13 185.59 47.92 187.69 48.1 187.76 47.31 187.1 47.26 187.28 45.23 188.32 45.32"/>
    <polygon class="cls-4" points="191.19 45.57 191.26 44.78 188.38 44.54 188.32 45.32 189.36 45.41 189.19 47.44 188.53 47.38 188.47 48.17 190.57 48.35 190.64 47.56 189.98 47.5 190.15 45.48 191.19 45.57"/>
    <polygon class="cls-4" points="194.07 45.81 194.13 45.03 191.26 44.78 191.19 45.57 192.24 45.66 192.07 47.68 191.41 47.63 191.34 48.41 193.44 48.59 193.51 47.81 192.85 47.75 193.03 45.73 194.07 45.81"/>
    <polygon class="cls-4" points="196.94 46.06 197.01 45.27 194.13 45.03 194.07 45.81 195.11 45.9 194.94 47.93 194.28 47.87 194.22 48.66 196.32 48.84 196.39 48.05 195.73 48 195.9 45.97 196.94 46.06"/>
    <polygon class="cls-4" points="199.82 46.31 199.88 45.52 197.01 45.27 196.94 46.06 197.99 46.15 197.82 48.17 197.16 48.12 197.09 48.91 199.19 49.08 199.26 48.3 198.6 48.24 198.78 46.22 199.82 46.31"/>
    <polygon class="cls-4" points="202.69 46.55 202.76 45.77 199.88 45.52 199.82 46.31 200.86 46.4 200.69 48.42 200.03 48.36 199.97 49.15 202.07 49.33 202.13 48.54 201.48 48.49 201.65 46.46 202.69 46.55"/>
    <polygon class="cls-4" points="205.56 46.8 205.63 46.01 202.76 45.77 202.69 46.55 203.74 46.64 203.57 48.67 202.91 48.61 202.84 49.4 204.94 49.58 205.01 48.79 204.35 48.73 204.52 46.71 205.56 46.8"/>
    <polygon class="cls-4" points="208.44 47.04 208.51 46.26 205.63 46.01 205.56 46.8 206.61 46.89 206.44 48.91 205.78 48.86 205.71 49.64 207.82 49.82 207.88 49.04 207.23 48.98 207.4 46.96 208.44 47.04"/>
    <polygon class="cls-4" points="211.31 47.29 211.38 46.5 208.51 46.26 208.44 47.04 209.49 47.13 209.31 49.16 208.66 49.1 208.59 49.89 210.69 50.07 210.76 49.28 210.1 49.23 210.27 47.2 211.31 47.29"/>
    <polygon class="cls-4" points="214.19 47.54 214.26 46.75 211.38 46.5 211.31 47.29 212.36 47.38 212.19 49.4 211.53 49.35 211.46 50.13 213.57 50.31 213.63 49.53 212.98 49.47 213.15 47.45 214.19 47.54"/>
    <polygon class="cls-4" points="217.06 47.78 217.13 47 214.26 46.75 214.19 47.54 215.24 47.63 215.06 49.65 214.41 49.59 214.34 50.38 216.44 50.56 216.51 49.77 215.85 49.72 216.02 47.69 217.06 47.78"/>
    <polygon class="cls-4" points="219.94 48.03 220.01 47.24 217.13 47 217.06 47.78 218.11 47.87 217.94 49.9 217.28 49.84 217.21 50.63 219.32 50.81 219.38 50.02 218.72 49.96 218.9 47.94 219.94 48.03"/>
    <polygon class="cls-4" points="222.81 48.27 222.88 47.49 220.01 47.24 219.94 48.03 220.99 48.12 220.81 50.14 220.16 50.09 220.09 50.87 222.19 51.05 222.26 50.27 221.6 50.21 221.77 48.18 222.81 48.27"/>
    <polygon class="cls-4" points="225.69 48.52 225.75 47.73 222.88 47.49 222.81 48.27 223.86 48.36 223.69 50.39 223.03 50.33 222.96 51.12 225.06 51.3 225.13 50.51 224.47 50.46 224.65 48.43 225.69 48.52"/>
    <polygon class="cls-4" points="228.56 48.77 228.63 47.98 225.75 47.73 225.69 48.52 226.74 48.61 226.56 50.63 225.9 50.58 225.84 51.36 227.94 51.54 228.01 50.76 227.35 50.7 227.52 48.68 228.56 48.77"/>
    <polygon class="cls-4" points="231.44 49.01 231.5 48.22 228.63 47.98 228.56 48.77 229.61 48.85 229.44 50.88 228.78 50.82 228.71 51.61 230.81 51.79 230.88 51 230.22 50.95 230.4 48.92 231.44 49.01"/>
    <polygon class="cls-4" points="234.31 49.26 234.38 48.47 231.5 48.22 231.44 49.01 232.48 49.1 232.31 51.13 231.65 51.07 231.59 51.86 233.69 52.04 233.76 51.25 233.1 51.19 233.27 49.17 234.31 49.26"/>
    <polygon class="cls-4" points="237.19 49.5 237.25 48.72 234.38 48.47 234.31 49.26 235.36 49.35 235.19 51.37 234.53 51.32 234.46 52.1 236.56 52.28 236.63 51.49 235.97 51.44 236.15 49.41 237.19 49.5"/>
    <polygon class="cls-4" points="240.06 49.75 240.13 48.96 237.25 48.72 237.19 49.5 238.23 49.59 238.06 51.62 237.4 51.56 237.34 52.35 239.44 52.53 239.51 51.74 238.85 51.68 239.02 49.66 240.06 49.75"/>
    <polygon class="cls-4" points="242.94 49.99 243 49.21 240.13 48.96 240.06 49.75 241.11 49.84 240.94 51.86 240.28 51.81 240.21 52.59 242.31 52.77 242.38 51.99 241.72 51.93 241.9 49.91 242.94 49.99"/>
    <polygon class="cls-4" points="245.81 50.24 245.88 49.45 243 49.21 242.94 49.99 243.98 50.08 243.81 52.11 243.15 52.05 243.09 52.84 245.19 53.02 245.25 52.23 244.6 52.18 244.77 50.15 245.81 50.24"/>
    <polygon class="cls-4" points="248.68 50.49 248.75 49.7 245.88 49.45 245.81 50.24 246.86 50.33 246.69 52.35 246.03 52.3 245.96 53.09 248.06 53.27 248.13 52.48 247.47 52.42 247.64 50.4 248.68 50.49"/>
    <polygon class="cls-4" points="251.56 50.73 251.63 49.95 248.75 49.7 248.68 50.49 249.73 50.58 249.56 52.6 248.9 52.54 248.83 53.33 250.94 53.51 251 52.72 250.35 52.67 250.52 50.64 251.56 50.73"/>
    <polygon class="cls-4" points="254.43 50.98 254.5 50.19 251.63 49.95 251.56 50.73 252.61 50.82 252.43 52.85 251.78 52.79 251.71 53.58 253.81 53.76 253.88 52.97 253.22 52.91 253.39 50.89 254.43 50.98"/>
    <polygon class="cls-4" points="257.31 51.22 257.38 50.44 254.5 50.19 254.43 50.98 255.48 51.07 255.31 53.09 254.65 53.04 254.58 53.82 256.69 54 256.75 53.22 256.1 53.16 256.27 51.14 257.31 51.22"/>
    <polygon class="cls-4" points="260.18 51.47 260.25 50.68 257.38 50.44 257.31 51.22 258.36 51.31 258.18 53.34 257.53 53.28 257.46 54.07 259.56 54.25 259.63 53.46 258.97 53.41 259.14 51.38 260.18 51.47"/>
    <polygon class="cls-4" points="263.06 51.72 263.13 50.93 260.25 50.68 260.18 51.47 261.23 51.56 261.06 53.58 260.4 53.53 260.33 54.31 262.44 54.49 262.5 53.71 261.84 53.65 262.02 51.63 263.06 51.72"/>
    <polygon class="cls-4" points="265.93 51.96 266 51.18 263.13 50.93 263.06 51.72 264.11 51.81 263.93 53.83 263.28 53.77 263.21 54.56 265.31 54.74 265.38 53.95 264.72 53.9 264.89 51.87 265.93 51.96"/>
    <polygon class="cls-4" points="268.81 52.21 268.87 51.42 266 51.18 265.93 51.96 266.98 52.05 266.81 54.08 266.15 54.02 266.08 54.81 268.18 54.99 268.25 54.2 267.59 54.14 267.77 52.12 268.81 52.21"/>
    <polygon class="cls-4" points="271.68 52.45 271.75 51.67 268.87 51.42 268.81 52.21 269.86 52.3 269.68 54.32 269.02 54.27 268.96 55.05 271.06 55.23 271.13 54.45 270.47 54.39 270.64 52.36 271.68 52.45"/>
    <polygon class="cls-4" points="274.56 52.7 274.62 51.91 271.75 51.67 271.68 52.45 272.73 52.54 272.56 54.57 271.9 54.51 271.83 55.3 273.93 55.48 274 54.69 273.34 54.64 273.52 52.61 274.56 52.7"/>
    <polygon class="cls-4" points="277.43 52.95 277.5 52.16 274.62 51.91 274.56 52.7 275.61 52.79 275.43 54.81 274.77 54.76 274.71 55.54 276.81 55.72 276.88 54.94 276.22 54.88 276.39 52.86 277.43 52.95"/>
    <polygon class="cls-4" points="280.31 53.19 280.37 52.4 277.5 52.16 277.43 52.95 278.48 53.04 278.31 55.06 277.65 55 277.58 55.79 279.68 55.97 279.75 55.18 279.09 55.13 279.27 53.1 280.31 53.19"/>
    <polygon class="cls-4" points="283.18 53.44 283.25 52.65 280.37 52.4 280.31 53.19 281.35 53.28 281.18 55.31 280.52 55.25 280.46 56.04 282.56 56.22 282.63 55.43 281.97 55.37 282.14 53.35 283.18 53.44"/>
    <polygon class="cls-4" points="286.06 53.68 286.12 52.9 283.25 52.65 283.18 53.44 284.23 53.53 284.06 55.55 283.4 55.5 283.33 56.28 285.43 56.46 285.5 55.67 284.84 55.62 285.02 53.59 286.06 53.68"/>
    <polygon class="cls-4" points="288.93 53.93 289 53.14 286.12 52.9 286.06 53.68 287.1 53.77 286.93 55.8 286.27 55.74 286.21 56.53 288.31 56.71 288.37 55.92 287.72 55.86 287.89 53.84 288.93 53.93"/>
    <polygon class="cls-4" points="291.8 54.17 291.87 53.39 289 53.14 288.93 53.93 289.98 54.02 289.81 56.04 289.15 55.99 289.08 56.77 291.18 56.95 291.25 56.17 290.59 56.11 290.76 54.09 291.8 54.17"/>
    <polygon class="cls-4" points="294.68 54.42 294.75 53.63 291.87 53.39 291.8 54.17 292.85 54.26 292.68 56.29 292.02 56.23 291.95 57.02 294.06 57.2 294.12 56.41 293.47 56.36 293.64 54.33 294.68 54.42"/>
    <polygon class="cls-4" points="297.55 54.67 297.62 53.88 294.75 53.63 294.68 54.42 295.73 54.51 295.55 56.53 294.9 56.48 294.83 57.27 296.93 57.45 297 56.66 296.34 56.6 296.51 54.58 297.55 54.67"/>
    <polygon class="cls-4" points="300.43 54.91 300.5 54.13 297.62 53.88 297.55 54.67 298.6 54.76 298.43 56.78 297.77 56.72 297.7 57.51 299.81 57.69 299.87 56.9 299.22 56.85 299.39 54.82 300.43 54.91"/>
    <polygon class="cls-4" points="303.3 55.16 303.37 54.37 300.5 54.13 300.43 54.91 301.48 55 301.3 57.03 300.65 56.97 300.58 57.76 302.68 57.94 302.75 57.15 302.09 57.09 302.26 55.07 303.3 55.16"/>
    <polygon class="cls-4" points="306.18 55.4 306.25 54.62 303.37 54.37 303.3 55.16 304.35 55.25 304.18 57.27 303.52 57.22 303.45 58 305.56 58.18 305.62 57.4 304.97 57.34 305.14 55.32 306.18 55.4"/>
    <polygon class="cls-4" points="309.05 55.65 309.12 54.86 306.25 54.62 306.18 55.4 307.23 55.49 307.05 57.52 306.4 57.46 306.33 58.25 308.43 58.43 308.5 57.64 307.84 57.59 308.01 55.56 309.05 55.65"/>
    <polygon class="cls-4" points="311.93 55.9 311.99 55.11 309.12 54.86 309.05 55.65 310.1 55.74 309.93 57.76 309.27 57.71 309.2 58.49 311.3 58.67 311.37 57.89 310.71 57.83 310.89 55.81 311.93 55.9"/>
    <polygon class="cls-4" points="314.8 56.14 314.87 55.36 311.99 55.11 311.93 55.9 312.98 55.99 312.8 58.01 312.14 57.95 312.08 58.74 314.18 58.92 314.25 58.13 313.59 58.08 313.76 56.05 314.8 56.14"/>
    <polygon class="cls-4" points="317.68 56.39 317.74 55.6 314.87 55.36 314.8 56.14 315.85 56.23 315.68 58.26 315.02 58.2 314.95 58.99 317.05 59.17 317.12 58.38 316.46 58.32 316.64 56.3 317.68 56.39"/>
    <polygon class="cls-4" points="320.55 56.63 320.62 55.85 317.74 55.6 317.68 56.39 318.73 56.48 318.55 58.5 317.89 58.45 317.83 59.23 319.93 59.41 320 58.63 319.34 58.57 319.51 56.54 320.55 56.63"/>
    <polygon class="cls-4" points="323.43 56.88 323.49 56.09 320.62 55.85 320.55 56.63 321.6 56.72 321.43 58.75 320.77 58.69 320.7 59.48 322.8 59.66 322.87 58.87 322.21 58.82 322.39 56.79 323.43 56.88"/>
    <polygon class="cls-4" points="326.3 57.13 326.37 56.34 323.49 56.09 323.43 56.88 324.47 56.97 324.3 58.99 323.64 58.94 323.58 59.72 325.68 59.9 325.75 59.12 325.09 59.06 325.26 57.04 326.3 57.13"/>
    <polygon class="cls-4" points="329.18 57.37 329.24 56.58 326.37 56.34 326.3 57.13 327.35 57.22 327.18 59.24 326.52 59.18 326.45 59.97 328.55 60.15 328.62 59.36 327.96 59.31 328.14 57.28 329.18 57.37"/>
    <polygon class="cls-4" points="332.05 57.62 332.12 56.83 329.24 56.58 329.18 57.37 330.22 57.46 330.05 59.49 329.39 59.43 329.33 60.22 331.43 60.4 331.49 59.61 330.84 59.55 331.01 57.53 332.05 57.62"/>
    <polygon class="cls-4" points="334.92 57.86 334.99 57.08 332.12 56.83 332.05 57.62 333.1 57.71 332.93 59.73 332.27 59.68 332.2 60.46 334.3 60.64 334.37 59.86 333.71 59.8 333.88 57.77 334.92 57.86"/>
    <polygon class="cls-4" points="337.8 58.11 337.87 57.32 334.99 57.08 334.92 57.86 335.97 57.95 335.8 59.98 335.14 59.92 335.07 60.71 337.18 60.89 337.24 60.1 336.59 60.04 336.76 58.02 337.8 58.11"/>
    <polygon class="cls-4" points="340.67 58.35 340.74 57.57 337.87 57.32 337.8 58.11 338.85 58.2 338.67 60.22 338.02 60.17 337.95 60.95 340.05 61.13 340.12 60.35 339.46 60.29 339.63 58.27 340.67 58.35"/>
    <polygon class="cls-4" points="343.55 58.6 343.62 57.81 340.74 57.57 340.67 58.35 341.72 58.44 341.55 60.47 340.89 60.41 340.82 61.2 342.93 61.38 342.99 60.59 342.34 60.54 342.51 58.51 343.55 58.6"/>
    <polygon class="cls-4" points="346.42 58.85 346.49 58.06 343.62 57.81 343.55 58.6 344.6 58.69 344.42 60.72 343.77 60.66 343.7 61.45 345.8 61.63 345.87 60.84 345.21 60.78 345.38 58.76 346.42 58.85"/>
    <polygon class="cls-4" points="349.3 59.09 349.37 58.31 346.49 58.06 346.42 58.85 347.47 58.94 347.3 60.96 346.64 60.9 346.57 61.69 348.68 61.87 348.74 61.08 348.09 61.03 348.26 59 349.3 59.09"/>
    <polygon class="cls-4" points="352.17 59.34 352.24 58.55 349.37 58.31 349.3 59.09 350.35 59.18 350.17 61.21 349.52 61.15 349.45 61.94 351.55 62.12 351.62 61.33 350.96 61.27 351.13 59.25 352.17 59.34"/>
    <polygon class="cls-4" points="355.05 59.58 355.11 58.8 352.24 58.55 352.17 59.34 353.22 59.43 353.05 61.45 352.39 61.4 352.32 62.18 354.43 62.36 354.49 61.58 353.83 61.52 354.01 59.5 355.05 59.58"/>
    <polygon class="cls-4" points="357.92 59.83 357.99 59.04 355.11 58.8 355.05 59.58 356.1 59.67 355.92 61.7 355.26 61.64 355.2 62.43 357.3 62.61 357.37 61.82 356.71 61.77 356.88 59.74 357.92 59.83"/>
    <polygon class="cls-4" points="360.8 60.08 360.86 59.29 357.99 59.04 357.92 59.83 358.97 59.92 358.8 61.94 358.14 61.89 358.07 62.67 360.17 62.85 360.24 62.07 359.58 62.01 359.76 59.99 360.8 60.08"/>
    <polygon class="cls-4" points="363.67 60.32 363.74 59.54 360.86 59.29 360.8 60.08 361.85 60.17 361.67 62.19 361.01 62.13 360.95 62.92 363.05 63.1 363.12 62.31 362.46 62.26 362.63 60.23 363.67 60.32"/>
    <polygon class="cls-4" points="366.55 60.57 366.61 59.78 363.74 59.54 363.67 60.32 364.72 60.41 364.55 62.44 363.89 62.38 363.82 63.17 365.92 63.35 365.99 62.56 365.33 62.5 365.51 60.48 366.55 60.57"/>
    <polygon class="cls-4" points="369.42 60.81 369.49 60.03 366.61 59.78 366.55 60.57 367.59 60.66 367.42 62.68 366.76 62.63 366.7 63.41 368.8 63.59 368.87 62.81 368.21 62.75 368.38 60.72 369.42 60.81"/>
    <polygon class="cls-4" points="372.3 61.06 372.36 60.27 369.49 60.03 369.42 60.81 370.47 60.9 370.3 62.93 369.64 62.87 369.57 63.66 371.67 63.84 371.74 63.05 371.08 63 371.26 60.97 372.3 61.06"/>
    <polygon class="cls-4" points="375.17 61.31 375.24 60.52 372.36 60.27 372.3 61.06 373.34 61.15 373.17 63.17 372.51 63.12 372.45 63.9 374.55 64.08 374.62 63.3 373.96 63.24 374.13 61.22 375.17 61.31"/>
    <polygon class="cls-4" points="378.04 61.55 378.11 60.76 375.24 60.52 375.17 61.31 376.22 61.4 376.05 63.42 375.39 63.36 375.32 64.15 377.42 64.33 377.49 63.54 376.83 63.49 377.01 61.46 378.04 61.55"/>
    <polygon class="cls-4" points="380.92 61.8 380.99 61.01 378.11 60.76 378.04 61.55 379.09 61.64 378.92 63.67 378.26 63.61 378.19 64.4 380.3 64.58 380.36 63.79 379.71 63.73 379.88 61.71 380.92 61.8"/>
    <polygon class="cls-4" points="383.79 62.04 383.86 61.26 380.99 61.01 380.92 61.8 381.97 61.89 381.79 63.91 381.14 63.86 381.07 64.64 383.17 64.82 383.24 64.04 382.58 63.98 382.75 61.95 383.79 62.04"/>
    <polygon class="cls-4" points="386.67 62.29 386.74 61.5 383.86 61.26 383.79 62.04 384.84 62.13 384.67 64.16 384.01 64.1 383.94 64.89 386.05 65.07 386.11 64.28 385.46 64.22 385.63 62.2 386.67 62.29"/>
    <polygon class="cls-4" points="389.54 62.53 389.61 61.75 386.74 61.5 386.67 62.29 387.72 62.38 387.54 64.4 386.89 64.35 386.82 65.13 388.92 65.31 388.99 64.53 388.33 64.47 388.5 62.45 389.54 62.53"/>
    <polygon class="cls-4" points="392.42 62.78 392.49 61.99 389.61 61.75 389.54 62.53 390.59 62.62 390.42 64.65 389.76 64.59 389.69 65.38 391.8 65.56 391.86 64.77 391.21 64.72 391.38 62.69 392.42 62.78"/>
    <polygon class="cls-4" points="395.29 63.03 395.36 62.24 392.49 61.99 392.42 62.78 393.47 62.87 393.29 64.9 392.64 64.84 392.57 65.63 394.67 65.81 394.74 65.02 394.08 64.96 394.25 62.94 395.29 63.03"/>
    <polygon class="cls-4" points="398.17 63.27 398.23 62.49 395.36 62.24 395.29 63.03 396.34 63.12 396.17 65.14 395.51 65.08 395.44 65.87 397.55 66.05 397.61 65.26 396.95 65.21 397.13 63.18 398.17 63.27"/>
    <polygon class="cls-4" points="401.04 63.52 401.11 62.73 398.23 62.49 398.17 63.27 399.22 63.36 399.04 65.39 398.38 65.33 398.32 66.12 400.42 66.3 400.49 65.51 399.83 65.45 400 63.43 401.04 63.52"/>
    <polygon class="cls-4" points="403.92 63.76 403.98 62.98 401.11 62.73 401.04 63.52 402.09 63.61 401.92 65.63 401.26 65.58 401.19 66.36 403.29 66.54 403.36 65.76 402.7 65.7 402.88 63.68 403.92 63.76"/>
    <polygon class="cls-4" points="406.79 64.01 406.86 63.22 403.98 62.98 403.92 63.76 404.97 63.85 404.79 65.88 404.13 65.82 404.07 66.61 406.17 66.79 406.24 66 405.58 65.95 405.75 63.92 406.79 64.01"/>
    <polygon class="cls-4" points="409.67 64.26 409.73 63.47 406.86 63.22 406.79 64.01 407.84 64.1 407.67 66.12 407.01 66.07 406.94 66.85 409.04 67.03 409.11 66.25 408.45 66.19 408.63 64.17 409.67 64.26"/>
    <polygon class="cls-4" points="412.54 64.5 412.61 63.72 409.73 63.47 409.67 64.26 410.71 64.35 410.54 66.37 409.88 66.31 409.82 67.1 411.92 67.28 411.99 66.49 411.33 66.44 411.5 64.41 412.54 64.5"/>
    <polygon class="cls-4" points="415.42 64.75 415.48 63.96 412.61 63.72 412.54 64.5 413.59 64.59 413.42 66.62 412.76 66.56 412.69 67.35 414.79 67.53 414.86 66.74 414.2 66.68 414.38 64.66 415.42 64.75"/>
    <polygon class="cls-4" points="418.29 64.99 418.36 64.21 415.48 63.96 415.42 64.75 416.46 64.84 416.29 66.86 415.63 66.81 415.57 67.59 417.67 67.77 417.74 66.99 417.08 66.93 417.25 64.9 418.29 64.99"/>
    <polygon class="cls-4" points="421.17 65.24 421.23 64.45 418.36 64.21 418.29 64.99 419.34 65.08 419.17 67.11 418.51 67.05 418.44 67.84 420.54 68.02 420.61 67.23 419.95 67.18 420.13 65.15 421.17 65.24"/>
    <polygon class="cls-4" points="424.04 65.49 424.11 64.7 421.23 64.45 421.17 65.24 422.21 65.33 422.04 67.35 421.38 67.3 421.32 68.08 423.42 68.26 423.48 67.48 422.83 67.42 423 65.4 424.04 65.49"/>
    <polygon class="cls-4" points="426.91 65.73 426.98 64.94 424.11 64.7 424.04 65.49 425.09 65.58 424.91 67.6 424.26 67.54 424.19 68.33 426.29 68.51 426.36 67.72 425.7 67.67 425.87 65.64 426.91 65.73"/>
    <polygon class="cls-4" points="429.79 65.98 429.86 65.19 426.98 64.94 426.91 65.73 427.96 65.82 427.79 67.85 427.13 67.79 427.06 68.58 429.17 68.76 429.23 67.97 428.58 67.91 428.75 65.89 429.79 65.98"/>
    <polygon class="cls-4" points="432.66 66.22 432.73 65.44 429.86 65.19 429.79 65.98 430.84 66.07 430.66 68.09 430.01 68.04 429.94 68.82 432.04 69 432.11 68.22 431.45 68.16 431.62 66.13 432.66 66.22"/>
    <polygon class="cls-4" points="435.54 66.47 435.61 65.68 432.73 65.44 432.66 66.22 433.71 66.31 433.54 68.34 432.88 68.28 432.81 69.07 434.92 69.25 434.98 68.46 434.33 68.4 434.5 66.38 435.54 66.47"/>
    <polygon class="cls-4" points="438.41 66.72 438.48 65.93 435.61 65.68 435.54 66.47 436.59 66.56 436.41 68.58 435.76 68.53 435.69 69.31 437.79 69.49 437.86 68.71 437.2 68.65 437.37 66.63 438.41 66.72"/>
    <polygon class="cls-4" points="441.29 66.96 441.36 66.17 438.48 65.93 438.41 66.72 439.46 66.8 439.29 68.83 438.63 68.77 438.56 69.56 440.67 69.74 440.73 68.95 440.07 68.9 440.25 66.87 441.29 66.96"/>
    <polygon class="cls-4" points="444.16 67.21 444.23 66.42 441.36 66.17 441.29 66.96 442.34 67.05 442.16 69.08 441.51 69.02 441.44 69.81 443.54 69.99 443.61 69.2 442.95 69.14 443.12 67.12 444.16 67.21"/>
    <polygon class="cls-4" points="447.04 67.45 447.1 66.67 444.23 66.42 444.16 67.21 445.21 67.3 445.04 69.32 444.38 69.26 444.31 70.05 446.41 70.23 446.48 69.44 445.82 69.39 446 67.36 447.04 67.45"/>
    <polygon class="cls-4" points="449.91 67.7 449.98 66.91 447.1 66.67 447.04 67.45 448.09 67.54 447.91 69.57 447.25 69.51 447.19 70.3 449.29 70.48 449.36 69.69 448.7 69.63 448.87 67.61 449.91 67.7"/>
    <polygon class="cls-4" points="452.79 67.94 452.85 67.16 449.98 66.91 449.91 67.7 450.96 67.79 450.79 69.81 450.13 69.76 450.06 70.54 452.16 70.72 452.23 69.94 451.57 69.88 451.75 67.86 452.79 67.94"/>
    <polygon class="cls-4" points="455.66 68.19 455.73 67.4 452.85 67.16 452.79 67.94 453.83 68.03 453.66 70.06 453 70 452.94 70.79 455.04 70.97 455.11 70.18 454.45 70.13 454.62 68.1 455.66 68.19"/>
    <polygon class="cls-4" points="458.54 68.44 458.6 67.65 455.73 67.4 455.66 68.19 456.71 68.28 456.54 70.3 455.88 70.25 455.81 71.04 457.91 71.21 457.98 70.43 457.32 70.37 457.5 68.35 458.54 68.44"/>
    <polygon class="cls-4" points="459.39 64.8 458.6 64.8 458.6 67.65 459.39 67.65 459.39 66.61 461.42 66.61 461.42 67.26 462.21 67.26 462.21 65.18 461.42 65.18 461.42 65.83 459.39 65.83 459.39 64.8"/>
    <polygon class="cls-4" points="459.39 61.95 458.6 61.95 458.6 64.8 459.39 64.8 459.39 63.76 461.42 63.76 461.42 64.41 462.21 64.41 462.21 62.32 461.42 62.32 461.42 62.98 459.39 62.98 459.39 61.95"/>
    <polygon class="cls-4" points="459.39 59.09 458.6 59.09 458.6 61.95 459.39 61.95 459.39 60.91 461.42 60.91 461.42 61.56 462.21 61.56 462.21 59.47 461.42 59.47 461.42 60.13 459.39 60.13 459.39 59.09"/>
    <polygon class="cls-4" points="459.39 56.24 458.6 56.24 458.6 59.09 459.39 59.09 459.39 58.05 461.42 58.05 461.42 58.71 462.21 58.71 462.21 56.62 461.42 56.62 461.42 57.27 459.39 57.27 459.39 56.24"/>
    <polygon class="cls-4" points="459.39 53.39 458.6 53.39 458.6 56.24 459.39 56.24 459.39 55.2 461.42 55.2 461.42 55.85 462.21 55.85 462.21 53.77 461.42 53.77 461.42 54.42 459.39 54.42 459.39 53.39"/>
    <polygon class="cls-4" points="459.39 50.54 458.6 50.54 458.6 53.39 459.39 53.39 459.39 52.35 461.42 52.35 461.42 53 462.21 53 462.21 50.92 461.42 50.92 461.42 51.57 459.39 51.57 459.39 50.54"/>
    <polygon class="cls-4" points="459.39 47.69 458.6 47.69 458.6 50.54 459.39 50.54 459.39 49.5 461.42 49.5 461.42 50.15 462.21 50.15 462.21 48.06 461.42 48.06 461.42 48.72 459.39 48.72 459.39 47.69"/>
    <polygon class="cls-4" points="459.39 44.83 458.6 44.83 458.6 47.69 459.39 47.69 459.39 46.65 461.42 46.65 461.42 47.3 462.21 47.3 462.21 45.21 461.42 45.21 461.42 45.87 459.39 45.87 459.39 44.83"/>
    <polygon class="cls-4" points="459.39 41.98 458.6 41.98 458.6 44.83 459.39 44.83 459.39 43.79 461.42 43.79 461.42 44.45 462.21 44.45 462.21 42.36 461.42 42.36 461.42 43.01 459.39 43.01 459.39 41.98"/>
    <polygon class="cls-4" points="459.39 39.13 458.6 39.13 458.6 41.98 459.39 41.98 459.39 40.94 461.42 40.94 461.42 41.59 462.21 41.59 462.21 39.51 461.42 39.51 461.42 40.16 459.39 40.16 459.39 39.13"/>
    <polygon class="cls-4" points="459.39 36.28 458.6 36.28 458.6 39.13 459.39 39.13 459.39 38.09 461.42 38.09 461.42 38.74 462.21 38.74 462.21 36.66 461.42 36.66 461.42 37.31 459.39 37.31 459.39 36.28"/>
    <polygon class="cls-4" points="459.39 33.43 458.6 33.43 458.6 36.28 459.39 36.28 459.39 35.24 461.42 35.24 461.42 35.89 462.21 35.89 462.21 33.8 461.42 33.8 461.42 34.46 459.39 34.46 459.39 33.43"/>
    <polygon class="cls-4" points="459.39 30.57 458.6 30.57 458.6 33.43 459.39 33.43 459.39 32.39 461.42 32.39 461.42 33.04 462.21 33.04 462.21 30.95 461.42 30.95 461.42 31.6 459.39 31.6 459.39 30.57"/>
    <polygon class="cls-4" points="459.39 27.72 458.6 27.72 458.6 30.57 459.39 30.57 459.39 29.53 461.42 29.53 461.42 30.19 462.21 30.19 462.21 28.1 461.42 28.1 461.42 28.75 459.39 28.75 459.39 27.72"/>
    <polygon class="cls-4" points="459.39 24.87 458.6 24.87 458.6 27.72 459.39 27.72 459.39 26.68 461.42 26.68 461.42 27.33 462.21 27.33 462.21 25.25 461.42 25.25 461.42 25.9 459.39 25.9 459.39 24.87"/>
    <polygon class="cls-4" points="459.39 22.02 458.6 22.02 458.6 24.87 459.39 24.87 459.39 23.83 461.42 23.83 461.42 24.48 462.21 24.48 462.21 22.4 461.42 22.4 461.42 23.05 459.39 23.05 459.39 22.02"/>
    <polygon class="cls-4" points="459.39 19.16 458.6 19.16 458.6 22.02 459.39 22.02 459.39 20.98 461.42 20.98 461.42 21.63 462.21 21.63 462.21 19.54 461.42 19.54 461.42 20.2 459.39 20.2 459.39 19.16"/>
    <polygon class="cls-4" points="459.39 16.31 458.6 16.31 458.6 19.16 459.39 19.16 459.39 18.12 461.42 18.12 461.42 18.78 462.21 18.78 462.21 16.69 461.42 16.69 461.42 17.34 459.39 17.34 459.39 16.31"/>
    <polygon class="cls-4" points="459.39 13.46 458.6 13.46 458.6 16.31 459.39 16.31 459.39 15.27 461.42 15.27 461.42 15.93 462.21 15.93 462.21 13.84 461.42 13.84 461.42 14.49 459.39 14.49 459.39 13.46"/>
    <polygon class="cls-4" points="459.39 10.61 458.6 10.61 458.6 13.46 459.39 13.46 459.39 12.42 461.42 12.42 461.42 13.07 462.21 13.07 462.21 10.99 461.42 10.99 461.42 11.64 459.39 11.64 459.39 10.61"/>
    <polygon class="cls-4" points="459.39 7.76 458.6 7.76 458.6 10.61 459.39 10.61 459.39 9.57 461.42 9.57 461.42 10.22 462.21 10.22 462.21 8.14 461.42 8.14 461.42 8.79 459.39 8.79 459.39 7.76"/>
    <polygon class="cls-4" points="459.39 4.9 458.6 4.9 458.6 7.76 459.39 7.76 459.39 6.72 461.42 6.72 461.42 7.37 462.21 7.37 462.21 5.28 461.42 5.28 461.42 5.94 459.39 5.94 459.39 4.9"/>
    <polygon class="cls-4" points="455.71 4.12 455.71 4.9 458.6 4.9 458.6 4.12 457.55 4.12 457.55 2.08 458.21 2.08 458.21 1.29 456.09 1.29 456.09 2.08 456.76 2.08 456.76 4.12 455.71 4.12"/>
    <polygon class="cls-4" points="452.82 4.12 452.82 4.9 455.71 4.9 455.71 4.12 454.66 4.12 454.66 2.08 455.32 2.08 455.32 1.29 453.2 1.29 453.2 2.08 453.86 2.08 453.86 4.12 452.82 4.12"/>
    <polygon class="cls-4" points="449.92 4.12 449.92 4.9 452.82 4.9 452.82 4.12 451.76 4.12 451.76 2.08 452.42 2.08 452.42 1.29 450.31 1.29 450.31 2.08 450.97 2.08 450.97 4.12 449.92 4.12"/>
    <polygon class="cls-4" points="447.03 4.12 447.03 4.9 449.92 4.9 449.92 4.12 448.87 4.12 448.87 2.08 449.53 2.08 449.53 1.29 447.42 1.29 447.42 2.08 448.08 2.08 448.08 4.12 447.03 4.12"/>
    <polygon class="cls-4" points="444.14 4.12 444.14 4.9 447.03 4.9 447.03 4.12 445.98 4.12 445.98 2.08 446.64 2.08 446.64 1.29 444.52 1.29 444.52 2.08 445.18 2.08 445.18 4.12 444.14 4.12"/>
    <polygon class="cls-4" points="441.25 4.12 441.25 4.9 444.14 4.9 444.14 4.12 443.08 4.12 443.08 2.08 443.75 2.08 443.75 1.29 441.63 1.29 441.63 2.08 442.29 2.08 442.29 4.12 441.25 4.12"/>
    <polygon class="cls-4" points="438.35 4.12 438.35 4.9 441.25 4.9 441.25 4.12 440.19 4.12 440.19 2.08 440.85 2.08 440.85 1.29 438.74 1.29 438.74 2.08 439.4 2.08 439.4 4.12 438.35 4.12"/>
    <polygon class="cls-4" points="435.46 4.12 435.46 4.9 438.35 4.9 438.35 4.12 437.3 4.12 437.3 2.08 437.96 2.08 437.96 1.29 435.84 1.29 435.84 2.08 436.51 2.08 436.51 4.12 435.46 4.12"/>
    <polygon class="cls-4" points="432.57 4.12 432.57 4.9 435.46 4.9 435.46 4.12 434.4 4.12 434.4 2.08 435.07 2.08 435.07 1.29 432.95 1.29 432.95 2.08 433.61 2.08 433.61 4.12 432.57 4.12"/>
    <polygon class="cls-4" points="429.67 4.12 429.67 4.9 432.57 4.9 432.57 4.12 431.51 4.12 431.51 2.08 432.17 2.08 432.17 1.29 430.06 1.29 430.06 2.08 430.72 2.08 430.72 4.12 429.67 4.12"/>
    <polygon class="cls-4" points="426.78 4.12 426.78 4.9 429.67 4.9 429.67 4.12 428.62 4.12 428.62 2.08 429.28 2.08 429.28 1.29 427.16 1.29 427.16 2.08 427.83 2.08 427.83 4.12 426.78 4.12"/>
    <polygon class="cls-4" points="423.89 4.12 423.89 4.9 426.78 4.9 426.78 4.12 425.73 4.12 425.73 2.08 426.39 2.08 426.39 1.29 424.27 1.29 424.27 2.08 424.93 2.08 424.93 4.12 423.89 4.12"/>
    <polygon class="cls-4" points="420.99 4.12 420.99 4.9 423.89 4.9 423.89 4.12 422.83 4.12 422.83 2.08 423.49 2.08 423.49 1.29 421.38 1.29 421.38 2.08 422.04 2.08 422.04 4.12 420.99 4.12"/>
    <polygon class="cls-4" points="418.1 4.12 418.1 4.9 420.99 4.9 420.99 4.12 419.94 4.12 419.94 2.08 420.6 2.08 420.6 1.29 418.49 1.29 418.49 2.08 419.15 2.08 419.15 4.12 418.1 4.12"/>
    <polygon class="cls-4" points="415.21 4.12 415.21 4.9 418.1 4.9 418.1 4.12 417.05 4.12 417.05 2.08 417.71 2.08 417.71 1.29 415.59 1.29 415.59 2.08 416.25 2.08 416.25 4.12 415.21 4.12"/>
    <polygon class="cls-4" points="412.32 4.12 412.32 4.9 415.21 4.9 415.21 4.12 414.15 4.12 414.15 2.08 414.82 2.08 414.82 1.29 412.7 1.29 412.7 2.08 413.36 2.08 413.36 4.12 412.32 4.12"/>
    <polygon class="cls-4" points="409.42 4.12 409.42 4.9 412.32 4.9 412.32 4.12 411.26 4.12 411.26 2.08 411.92 2.08 411.92 1.29 409.81 1.29 409.81 2.08 410.47 2.08 410.47 4.12 409.42 4.12"/>
    <polygon class="cls-4" points="406.53 4.12 406.53 4.9 409.42 4.9 409.42 4.12 408.37 4.12 408.37 2.08 409.03 2.08 409.03 1.29 406.91 1.29 406.91 2.08 407.58 2.08 407.58 4.12 406.53 4.12"/>
    <polygon class="cls-4" points="403.64 4.12 403.64 4.9 406.53 4.9 406.53 4.12 405.47 4.12 405.47 2.08 406.14 2.08 406.14 1.29 404.02 1.29 404.02 2.08 404.68 2.08 404.68 4.12 403.64 4.12"/>
    <polygon class="cls-4" points="400.74 4.12 400.74 4.9 403.64 4.9 403.64 4.12 402.58 4.12 402.58 2.08 403.24 2.08 403.24 1.29 401.13 1.29 401.13 2.08 401.79 2.08 401.79 4.12 400.74 4.12"/>
    <polygon class="cls-4" points="397.85 4.12 397.85 4.9 400.74 4.9 400.74 4.12 399.69 4.12 399.69 2.08 400.35 2.08 400.35 1.29 398.23 1.29 398.23 2.08 398.9 2.08 398.9 4.12 397.85 4.12"/>
    <polygon class="cls-4" points="394.96 4.12 394.96 4.9 397.85 4.9 397.85 4.12 396.8 4.12 396.8 2.08 397.46 2.08 397.46 1.29 395.34 1.29 395.34 2.08 396 2.08 396 4.12 394.96 4.12"/>
    <polygon class="cls-4" points="392.06 4.12 392.06 4.9 394.96 4.9 394.96 4.12 393.9 4.12 393.9 2.08 394.56 2.08 394.56 1.29 392.45 1.29 392.45 2.08 393.11 2.08 393.11 4.12 392.06 4.12"/>
    <polygon class="cls-4" points="389.17 4.12 389.17 4.9 392.06 4.9 392.06 4.12 391.01 4.12 391.01 2.08 391.67 2.08 391.67 1.29 389.56 1.29 389.56 2.08 390.22 2.08 390.22 4.12 389.17 4.12"/>
    <polygon class="cls-4" points="386.28 4.12 386.28 4.9 389.17 4.9 389.17 4.12 388.12 4.12 388.12 2.08 388.78 2.08 388.78 1.29 386.66 1.29 386.66 2.08 387.33 2.08 387.33 4.12 386.28 4.12"/>
    <polygon class="cls-4" points="383.39 4.12 383.39 4.9 386.28 4.9 386.28 4.12 385.22 4.12 385.22 2.08 385.89 2.08 385.89 1.29 383.77 1.29 383.77 2.08 384.43 2.08 384.43 4.12 383.39 4.12"/>
    <polygon class="cls-4" points="380.49 4.12 380.49 4.9 383.39 4.9 383.39 4.12 382.33 4.12 382.33 2.08 382.99 2.08 382.99 1.29 380.88 1.29 380.88 2.08 381.54 2.08 381.54 4.12 380.49 4.12"/>
    <polygon class="cls-4" points="377.6 4.12 377.6 4.9 380.49 4.9 380.49 4.12 379.44 4.12 379.44 2.08 380.1 2.08 380.1 1.29 377.98 1.29 377.98 2.08 378.65 2.08 378.65 4.12 377.6 4.12"/>
    <polygon class="cls-4" points="374.71 4.12 374.71 4.9 377.6 4.9 377.6 4.12 376.54 4.12 376.54 2.08 377.21 2.08 377.21 1.29 375.09 1.29 375.09 2.08 375.75 2.08 375.75 4.12 374.71 4.12"/>
    <polygon class="cls-4" points="371.81 4.12 371.81 4.9 374.71 4.9 374.71 4.12 373.65 4.12 373.65 2.08 374.31 2.08 374.31 1.29 372.2 1.29 372.2 2.08 372.86 2.08 372.86 4.12 371.81 4.12"/>
    <polygon class="cls-4" points="368.92 4.12 368.92 4.9 371.81 4.9 371.81 4.12 370.76 4.12 370.76 2.08 371.42 2.08 371.42 1.29 369.31 1.29 369.31 2.08 369.97 2.08 369.97 4.12 368.92 4.12"/>
    <polygon class="cls-4" points="366.03 4.12 366.03 4.9 368.92 4.9 368.92 4.12 367.87 4.12 367.87 2.08 368.53 2.08 368.53 1.29 366.41 1.29 366.41 2.08 367.07 2.08 367.07 4.12 366.03 4.12"/>
    <polygon class="cls-4" points="363.13 4.12 363.13 4.9 366.03 4.9 366.03 4.12 364.97 4.12 364.97 2.08 365.63 2.08 365.63 1.29 363.52 1.29 363.52 2.08 364.18 2.08 364.18 4.12 363.13 4.12"/>
    <polygon class="cls-4" points="360.24 4.12 360.24 4.9 363.13 4.9 363.13 4.12 362.08 4.12 362.08 2.08 362.74 2.08 362.74 1.29 360.63 1.29 360.63 2.08 361.29 2.08 361.29 4.12 360.24 4.12"/>
    <polygon class="cls-4" points="357.35 4.12 357.35 4.9 360.24 4.9 360.24 4.12 359.19 4.12 359.19 2.08 359.85 2.08 359.85 1.29 357.73 1.29 357.73 2.08 358.4 2.08 358.4 4.12 357.35 4.12"/>
    <polygon class="cls-4" points="354.46 4.12 354.46 4.9 357.35 4.9 357.35 4.12 356.29 4.12 356.29 2.08 356.96 2.08 356.96 1.29 354.84 1.29 354.84 2.08 355.5 2.08 355.5 4.12 354.46 4.12"/>
    <polygon class="cls-4" points="351.56 4.12 351.56 4.9 354.46 4.9 354.46 4.12 353.4 4.12 353.4 2.08 354.06 2.08 354.06 1.29 351.95 1.29 351.95 2.08 352.61 2.08 352.61 4.12 351.56 4.12"/>
    <polygon class="cls-4" points="348.67 4.12 348.67 4.9 351.56 4.9 351.56 4.12 350.51 4.12 350.51 2.08 351.17 2.08 351.17 1.29 349.05 1.29 349.05 2.08 349.72 2.08 349.72 4.12 348.67 4.12"/>
    <polygon class="cls-4" points="345.78 4.12 345.78 4.9 348.67 4.9 348.67 4.12 347.61 4.12 347.61 2.08 348.28 2.08 348.28 1.29 346.16 1.29 346.16 2.08 346.82 2.08 346.82 4.12 345.78 4.12"/>
    <polygon class="cls-4" points="342.88 4.12 342.88 4.9 345.78 4.9 345.78 4.12 344.72 4.12 344.72 2.08 345.38 2.08 345.38 1.29 343.27 1.29 343.27 2.08 343.93 2.08 343.93 4.12 342.88 4.12"/>
    <polygon class="cls-4" points="339.99 4.12 339.99 4.9 342.88 4.9 342.88 4.12 341.83 4.12 341.83 2.08 342.49 2.08 342.49 1.29 340.38 1.29 340.38 2.08 341.04 2.08 341.04 4.12 339.99 4.12"/>
    <polygon class="cls-4" points="337.1 4.12 337.1 4.9 339.99 4.9 339.99 4.12 338.94 4.12 338.94 2.08 339.6 2.08 339.6 1.29 337.48 1.29 337.48 2.08 338.14 2.08 338.14 4.12 337.1 4.12"/>
    <polygon class="cls-4" points="334.2 4.12 334.2 4.9 337.1 4.9 337.1 4.12 336.04 4.12 336.04 2.08 336.7 2.08 336.7 1.29 334.59 1.29 334.59 2.08 335.25 2.08 335.25 4.12 334.2 4.12"/>
    <polygon class="cls-4" points="331.31 4.12 331.31 4.9 334.2 4.9 334.2 4.12 333.15 4.12 333.15 2.08 333.81 2.08 333.81 1.29 331.7 1.29 331.7 2.08 332.36 2.08 332.36 4.12 331.31 4.12"/>
    <polygon class="cls-4" points="328.42 4.12 328.42 4.9 331.31 4.9 331.31 4.12 330.26 4.12 330.26 2.08 330.92 2.08 330.92 1.29 328.8 1.29 328.8 2.08 329.47 2.08 329.47 4.12 328.42 4.12"/>
    <polygon class="cls-4" points="325.53 4.12 325.53 4.9 328.42 4.9 328.42 4.12 327.36 4.12 327.36 2.08 328.03 2.08 328.03 1.29 325.91 1.29 325.91 2.08 326.57 2.08 326.57 4.12 325.53 4.12"/>
    <polygon class="cls-4" points="322.63 4.12 322.63 4.9 325.53 4.9 325.53 4.12 324.47 4.12 324.47 2.08 325.13 2.08 325.13 1.29 323.02 1.29 323.02 2.08 323.68 2.08 323.68 4.12 322.63 4.12"/>
    <polygon class="cls-4" points="319.74 4.12 319.74 4.9 322.63 4.9 322.63 4.12 321.58 4.12 321.58 2.08 322.24 2.08 322.24 1.29 320.12 1.29 320.12 2.08 320.79 2.08 320.79 4.12 319.74 4.12"/>
    <polygon class="cls-4" points="316.85 4.12 316.85 4.9 319.74 4.9 319.74 4.12 318.68 4.12 318.68 2.08 319.35 2.08 319.35 1.29 317.23 1.29 317.23 2.08 317.89 2.08 317.89 4.12 316.85 4.12"/>
    <polygon class="cls-4" points="313.95 4.12 313.95 4.9 316.85 4.9 316.85 4.12 315.79 4.12 315.79 2.08 316.45 2.08 316.45 1.29 314.34 1.29 314.34 2.08 315 2.08 315 4.12 313.95 4.12"/>
    <polygon class="cls-4" points="311.06 4.12 311.06 4.9 313.95 4.9 313.95 4.12 312.9 4.12 312.9 2.08 313.56 2.08 313.56 1.29 311.45 1.29 311.45 2.08 312.11 2.08 312.11 4.12 311.06 4.12"/>
    <polygon class="cls-4" points="308.17 4.12 308.17 4.9 311.06 4.9 311.06 4.12 310.01 4.12 310.01 2.08 310.67 2.08 310.67 1.29 308.55 1.29 308.55 2.08 309.21 2.08 309.21 4.12 308.17 4.12"/>
    <polygon class="cls-4" points="305.27 4.12 305.27 4.9 308.17 4.9 308.17 4.12 307.11 4.12 307.11 2.08 307.77 2.08 307.77 1.29 305.66 1.29 305.66 2.08 306.32 2.08 306.32 4.12 305.27 4.12"/>
    <polygon class="cls-4" points="302.38 4.12 302.38 4.9 305.27 4.9 305.27 4.12 304.22 4.12 304.22 2.08 304.88 2.08 304.88 1.29 302.77 1.29 302.77 2.08 303.43 2.08 303.43 4.12 302.38 4.12"/>
    <polygon class="cls-4" points="299.49 4.12 299.49 4.9 302.38 4.9 302.38 4.12 301.33 4.12 301.33 2.08 301.99 2.08 301.99 1.29 299.87 1.29 299.87 2.08 300.54 2.08 300.54 4.12 299.49 4.12"/>
    <polygon class="cls-4" points="296.6 4.12 296.6 4.9 299.49 4.9 299.49 4.12 298.43 4.12 298.43 2.08 299.1 2.08 299.1 1.29 296.98 1.29 296.98 2.08 297.64 2.08 297.64 4.12 296.6 4.12"/>
    <polygon class="cls-4" points="293.7 4.12 293.7 4.9 296.6 4.9 296.6 4.12 295.54 4.12 295.54 2.08 296.2 2.08 296.2 1.29 294.09 1.29 294.09 2.08 294.75 2.08 294.75 4.12 293.7 4.12"/>
    <polygon class="cls-4" points="290.81 4.12 290.81 4.9 293.7 4.9 293.7 4.12 292.65 4.12 292.65 2.08 293.31 2.08 293.31 1.29 291.19 1.29 291.19 2.08 291.86 2.08 291.86 4.12 290.81 4.12"/>
    <polygon class="cls-4" points="287.92 4.12 287.92 4.9 290.81 4.9 290.81 4.12 289.75 4.12 289.75 2.08 290.42 2.08 290.42 1.29 288.3 1.29 288.3 2.08 288.96 2.08 288.96 4.12 287.92 4.12"/>
    <polygon class="cls-4" points="285.02 4.12 285.02 4.9 287.92 4.9 287.92 4.12 286.86 4.12 286.86 2.08 287.52 2.08 287.52 1.29 285.41 1.29 285.41 2.08 286.07 2.08 286.07 4.12 285.02 4.12"/>
    <polygon class="cls-4" points="282.13 4.12 282.13 4.9 285.02 4.9 285.02 4.12 283.97 4.12 283.97 2.08 284.63 2.08 284.63 1.29 282.52 1.29 282.52 2.08 283.18 2.08 283.18 4.12 282.13 4.12"/>
    <polygon class="cls-4" points="279.24 4.12 279.24 4.9 282.13 4.9 282.13 4.12 281.08 4.12 281.08 2.08 281.74 2.08 281.74 1.29 279.62 1.29 279.62 2.08 280.28 2.08 280.28 4.12 279.24 4.12"/>
    <polygon class="cls-4" points="276.35 4.12 276.35 4.9 279.24 4.9 279.24 4.12 278.18 4.12 278.18 2.08 278.85 2.08 278.85 1.29 276.73 1.29 276.73 2.08 277.39 2.08 277.39 4.12 276.35 4.12"/>
    <polygon class="cls-4" points="273.45 4.12 273.45 4.9 276.35 4.9 276.35 4.12 275.29 4.12 275.29 2.08 275.95 2.08 275.95 1.29 273.84 1.29 273.84 2.08 274.5 2.08 274.5 4.12 273.45 4.12"/>
    <polygon class="cls-4" points="270.56 4.12 270.56 4.9 273.45 4.9 273.45 4.12 272.4 4.12 272.4 2.08 273.06 2.08 273.06 1.29 270.94 1.29 270.94 2.08 271.61 2.08 271.61 4.12 270.56 4.12"/>
    <polygon class="cls-4" points="267.67 4.12 267.67 4.9 270.56 4.9 270.56 4.12 269.5 4.12 269.5 2.08 270.17 2.08 270.17 1.29 268.05 1.29 268.05 2.08 268.71 2.08 268.71 4.12 267.67 4.12"/>
    <polygon class="cls-4" points="264.77 4.12 264.77 4.9 267.67 4.9 267.67 4.12 266.61 4.12 266.61 2.08 267.27 2.08 267.27 1.29 265.16 1.29 265.16 2.08 265.82 2.08 265.82 4.12 264.77 4.12"/>
    <polygon class="cls-4" points="261.88 4.12 261.88 4.9 264.77 4.9 264.77 4.12 263.72 4.12 263.72 2.08 264.38 2.08 264.38 1.29 262.26 1.29 262.26 2.08 262.93 2.08 262.93 4.12 261.88 4.12"/>
    <polygon class="cls-4" points="258.99 4.12 258.99 4.9 261.88 4.9 261.88 4.12 260.83 4.12 260.83 2.08 261.49 2.08 261.49 1.29 259.37 1.29 259.37 2.08 260.03 2.08 260.03 4.12 258.99 4.12"/>
    <polygon class="cls-4" points="256.09 4.12 256.09 4.9 258.99 4.9 258.99 4.12 257.93 4.12 257.93 2.08 258.59 2.08 258.59 1.29 256.48 1.29 256.48 2.08 257.14 2.08 257.14 4.12 256.09 4.12"/>
    <polygon class="cls-4" points="253.2 4.12 253.2 4.9 256.09 4.9 256.09 4.12 255.04 4.12 255.04 2.08 255.7 2.08 255.7 1.29 253.59 1.29 253.59 2.08 254.25 2.08 254.25 4.12 253.2 4.12"/>
    <polygon class="cls-4" points="250.31 4.12 250.31 4.9 253.2 4.9 253.2 4.12 252.15 4.12 252.15 2.08 252.81 2.08 252.81 1.29 250.69 1.29 250.69 2.08 251.35 2.08 251.35 4.12 250.31 4.12"/>
    <polygon class="cls-4" points="247.42 4.12 247.42 4.9 250.31 4.9 250.31 4.12 249.25 4.12 249.25 2.08 249.92 2.08 249.92 1.29 247.8 1.29 247.8 2.08 248.46 2.08 248.46 4.12 247.42 4.12"/>
    <polygon class="cls-4" points="244.52 4.12 244.52 4.9 247.42 4.9 247.42 4.12 246.36 4.12 246.36 2.08 247.02 2.08 247.02 1.29 244.91 1.29 244.91 2.08 245.57 2.08 245.57 4.12 244.52 4.12"/>
    <polygon class="cls-4" points="241.63 4.12 241.63 4.9 244.52 4.9 244.52 4.12 243.47 4.12 243.47 2.08 244.13 2.08 244.13 1.29 242.01 1.29 242.01 2.08 242.68 2.08 242.68 4.12 241.63 4.12"/>
    <polygon class="cls-4" points="238.74 4.12 238.74 4.9 241.63 4.9 241.63 4.12 240.57 4.12 240.57 2.08 241.24 2.08 241.24 1.29 239.12 1.29 239.12 2.08 239.78 2.08 239.78 4.12 238.74 4.12"/>
    <polygon class="cls-4" points="235.84 4.12 235.84 4.9 238.74 4.9 238.74 4.12 237.68 4.12 237.68 2.08 238.34 2.08 238.34 1.29 236.23 1.29 236.23 2.08 236.89 2.08 236.89 4.12 235.84 4.12"/>
    <polygon class="cls-4" points="232.95 4.12 232.95 4.9 235.84 4.9 235.84 4.12 234.79 4.12 234.79 2.08 235.45 2.08 235.45 1.29 233.33 1.29 233.33 2.08 234 2.08 234 4.12 232.95 4.12"/>
    <polygon class="cls-4" points="230.06 4.12 230.06 4.9 232.95 4.9 232.95 4.12 231.9 4.12 231.9 2.08 232.56 2.08 232.56 1.29 230.44 1.29 230.44 2.08 231.1 2.08 231.1 4.12 230.06 4.12"/>
    <polygon class="cls-4" points="227.16 4.12 227.16 4.9 230.06 4.9 230.06 4.12 229 4.12 229 2.08 229.66 2.08 229.66 1.29 227.55 1.29 227.55 2.08 228.21 2.08 228.21 4.12 227.16 4.12"/>
    <polygon class="cls-4" points="224.27 4.12 224.27 4.9 227.16 4.9 227.16 4.12 226.11 4.12 226.11 2.08 226.77 2.08 226.77 1.29 224.66 1.29 224.66 2.08 225.32 2.08 225.32 4.12 224.27 4.12"/>
    <polygon class="cls-4" points="221.38 4.12 221.38 4.9 224.27 4.9 224.27 4.12 223.22 4.12 223.22 2.08 223.88 2.08 223.88 1.29 221.76 1.29 221.76 2.08 222.42 2.08 222.42 4.12 221.38 4.12"/>
    <polygon class="cls-4" points="218.49 4.12 218.49 4.9 221.38 4.9 221.38 4.12 220.32 4.12 220.32 2.08 220.99 2.08 220.99 1.29 218.87 1.29 218.87 2.08 219.53 2.08 219.53 4.12 218.49 4.12"/>
    <polygon class="cls-4" points="215.59 4.12 215.59 4.9 218.49 4.9 218.49 4.12 217.43 4.12 217.43 2.08 218.09 2.08 218.09 1.29 215.98 1.29 215.98 2.08 216.64 2.08 216.64 4.12 215.59 4.12"/>
    <polygon class="cls-4" points="212.7 4.12 212.7 4.9 215.59 4.9 215.59 4.12 214.54 4.12 214.54 2.08 215.2 2.08 215.2 1.29 213.08 1.29 213.08 2.08 213.75 2.08 213.75 4.12 212.7 4.12"/>
    <polygon class="cls-4" points="209.81 4.12 209.81 4.9 212.7 4.9 212.7 4.12 211.64 4.12 211.64 2.08 212.31 2.08 212.31 1.29 210.19 1.29 210.19 2.08 210.85 2.08 210.85 4.12 209.81 4.12"/>
    <polygon class="cls-4" points="206.91 4.12 206.91 4.9 209.81 4.9 209.81 4.12 208.75 4.12 208.75 2.08 209.41 2.08 209.41 1.29 207.3 1.29 207.3 2.08 207.96 2.08 207.96 4.12 206.91 4.12"/>
    <polygon class="cls-4" points="204.02 4.12 204.02 4.9 206.91 4.9 206.91 4.12 205.86 4.12 205.86 2.08 206.52 2.08 206.52 1.29 204.4 1.29 204.4 2.08 205.07 2.08 205.07 4.12 204.02 4.12"/>
    <polygon class="cls-4" points="201.13 4.12 201.13 4.9 204.02 4.9 204.02 4.12 202.97 4.12 202.97 2.08 203.63 2.08 203.63 1.29 201.51 1.29 201.51 2.08 202.17 2.08 202.17 4.12 201.13 4.12"/>
    <polygon class="cls-4" points="198.23 4.12 198.23 4.9 201.13 4.9 201.13 4.12 200.07 4.12 200.07 2.08 200.73 2.08 200.73 1.29 198.62 1.29 198.62 2.08 199.28 2.08 199.28 4.12 198.23 4.12"/>
    <polygon class="cls-4" points="195.34 4.12 195.34 4.9 198.23 4.9 198.23 4.12 197.18 4.12 197.18 2.08 197.84 2.08 197.84 1.29 195.73 1.29 195.73 2.08 196.39 2.08 196.39 4.12 195.34 4.12"/>
    <polygon class="cls-4" points="192.45 4.12 192.45 4.9 195.34 4.9 195.34 4.12 194.29 4.12 194.29 2.08 194.95 2.08 194.95 1.29 192.83 1.29 192.83 2.08 193.5 2.08 193.5 4.12 192.45 4.12"/>
    <polygon class="cls-4" points="189.56 4.12 189.56 4.9 192.45 4.9 192.45 4.12 191.39 4.12 191.39 2.08 192.06 2.08 192.06 1.29 189.94 1.29 189.94 2.08 190.6 2.08 190.6 4.12 189.56 4.12"/>
    <polygon class="cls-4" points="186.66 4.12 186.66 4.9 189.56 4.9 189.56 4.12 188.5 4.12 188.5 2.08 189.16 2.08 189.16 1.29 187.05 1.29 187.05 2.08 187.71 2.08 187.71 4.12 186.66 4.12"/>
    <polygon class="cls-4" points="183.77 4.12 183.77 4.9 186.66 4.9 186.66 4.12 185.61 4.12 185.61 2.08 186.27 2.08 186.27 1.29 184.15 1.29 184.15 2.08 184.82 2.08 184.82 4.12 183.77 4.12"/>
    <polygon class="cls-4" points="180.88 4.12 180.88 4.9 183.77 4.9 183.77 4.12 182.71 4.12 182.71 2.08 183.38 2.08 183.38 1.29 181.26 1.29 181.26 2.08 181.92 2.08 181.92 4.12 180.88 4.12"/>
    <polygon class="cls-4" points="177.98 4.12 177.98 4.9 180.88 4.9 180.88 4.12 179.82 4.12 179.82 2.08 180.48 2.08 180.48 1.29 178.37 1.29 178.37 2.08 179.03 2.08 179.03 4.12 177.98 4.12"/>
    <polygon class="cls-4" points="175.09 4.12 175.09 4.9 177.98 4.9 177.98 4.12 176.93 4.12 176.93 2.08 177.59 2.08 177.59 1.29 175.48 1.29 175.48 2.08 176.14 2.08 176.14 4.12 175.09 4.12"/>
    <polygon class="cls-4" points="172.2 4.12 172.2 4.9 175.09 4.9 175.09 4.12 174.04 4.12 174.04 2.08 174.7 2.08 174.7 1.29 172.58 1.29 172.58 2.08 173.24 2.08 173.24 4.12 172.2 4.12"/>
    <polygon class="cls-4" points="169.3 4.12 169.3 4.9 172.2 4.9 172.2 4.12 171.14 4.12 171.14 2.08 171.8 2.08 171.8 1.29 169.69 1.29 169.69 2.08 170.35 2.08 170.35 4.12 169.3 4.12"/>
    <polygon class="cls-4" points="166.41 4.12 166.41 4.9 169.3 4.9 169.3 4.12 168.25 4.12 168.25 2.08 168.91 2.08 168.91 1.29 166.8 1.29 166.8 2.08 167.46 2.08 167.46 4.12 166.41 4.12"/>
    <polygon class="cls-4" points="163.52 4.12 163.52 4.9 166.41 4.9 166.41 4.12 165.36 4.12 165.36 2.08 166.02 2.08 166.02 1.29 163.9 1.29 163.9 2.08 164.57 2.08 164.57 4.12 163.52 4.12"/>
    <polygon class="cls-4" points="160.63 4.12 160.63 4.9 163.52 4.9 163.52 4.12 162.46 4.12 162.46 2.08 163.13 2.08 163.13 1.29 161.01 1.29 161.01 2.08 161.67 2.08 161.67 4.12 160.63 4.12"/>
    <polygon class="cls-4" points="157.73 4.12 157.73 4.9 160.63 4.9 160.63 4.12 159.57 4.12 159.57 2.08 160.23 2.08 160.23 1.29 158.12 1.29 158.12 2.08 158.78 2.08 158.78 4.12 157.73 4.12"/>
    <polygon class="cls-4" points="154.84 4.12 154.84 4.9 157.73 4.9 157.73 4.12 156.68 4.12 156.68 2.08 157.34 2.08 157.34 1.29 155.22 1.29 155.22 2.08 155.89 2.08 155.89 4.12 154.84 4.12"/>
    <polygon class="cls-4" points="151.95 4.12 151.95 4.9 154.84 4.9 154.84 4.12 153.78 4.12 153.78 2.08 154.45 2.08 154.45 1.29 152.33 1.29 152.33 2.08 152.99 2.08 152.99 4.12 151.95 4.12"/>
    <polygon class="cls-4" points="149.05 4.12 149.05 4.9 151.95 4.9 151.95 4.12 150.89 4.12 150.89 2.08 151.55 2.08 151.55 1.29 149.44 1.29 149.44 2.08 150.1 2.08 150.1 4.12 149.05 4.12"/>
    <polygon class="cls-4" points="146.16 4.12 146.16 4.9 149.05 4.9 149.05 4.12 148 4.12 148 2.08 148.66 2.08 148.66 1.29 146.55 1.29 146.55 2.08 147.21 2.08 147.21 4.12 146.16 4.12"/>
    <polygon class="cls-4" points="143.27 4.12 143.27 4.9 146.16 4.9 146.16 4.12 145.11 4.12 145.11 2.08 145.77 2.08 145.77 1.29 143.65 1.29 143.65 2.08 144.31 2.08 144.31 4.12 143.27 4.12"/>
    <polygon class="cls-4" points="140.37 4.12 140.37 4.9 143.27 4.9 143.27 4.12 142.21 4.12 142.21 2.08 142.87 2.08 142.87 1.29 140.76 1.29 140.76 2.08 141.42 2.08 141.42 4.12 140.37 4.12"/>
    <polygon class="cls-4" points="137.48 4.12 137.48 4.9 140.37 4.9 140.37 4.12 139.32 4.12 139.32 2.08 139.98 2.08 139.98 1.29 137.87 1.29 137.87 2.08 138.53 2.08 138.53 4.12 137.48 4.12"/>
    <polygon class="cls-4" points="134.59 4.12 134.59 4.9 137.48 4.9 137.48 4.12 136.43 4.12 136.43 2.08 137.09 2.08 137.09 1.29 134.97 1.29 134.97 2.08 135.64 2.08 135.64 4.12 134.59 4.12"/>
    <polygon class="cls-4" points="131.7 4.12 131.7 4.9 134.59 4.9 134.59 4.12 133.53 4.12 133.53 2.08 134.2 2.08 134.2 1.29 132.08 1.29 132.08 2.08 132.74 2.08 132.74 4.12 131.7 4.12"/>
    <polygon class="cls-4" points="128.8 4.12 128.8 4.9 131.7 4.9 131.7 4.12 130.64 4.12 130.64 2.08 131.3 2.08 131.3 1.29 129.19 1.29 129.19 2.08 129.85 2.08 129.85 4.12 128.8 4.12"/>
    <polygon class="cls-4" points="125.91 4.12 125.91 4.9 128.8 4.9 128.8 4.12 127.75 4.12 127.75 2.08 128.41 2.08 128.41 1.29 126.29 1.29 126.29 2.08 126.96 2.08 126.96 4.12 125.91 4.12"/>
    <polygon class="cls-4" points="123.02 4.12 123.02 4.9 125.91 4.9 125.91 4.12 124.85 4.12 124.85 2.08 125.52 2.08 125.52 1.29 123.4 1.29 123.4 2.08 124.06 2.08 124.06 4.12 123.02 4.12"/>
    <polygon class="cls-4" points="120.12 4.12 120.12 4.9 123.02 4.9 123.02 4.12 121.96 4.12 121.96 2.08 122.62 2.08 122.62 1.29 120.51 1.29 120.51 2.08 121.17 2.08 121.17 4.12 120.12 4.12"/>
    <polygon class="cls-4" points="117.23 4.12 117.23 4.9 120.12 4.9 120.12 4.12 119.07 4.12 119.07 2.08 119.73 2.08 119.73 1.29 117.62 1.29 117.62 2.08 118.28 2.08 118.28 4.12 117.23 4.12"/>
    <polygon class="cls-4" points="114.34 4.12 114.34 4.9 117.23 4.9 117.23 4.12 116.18 4.12 116.18 2.08 116.84 2.08 116.84 1.29 114.72 1.29 114.72 2.08 115.38 2.08 115.38 4.12 114.34 4.12"/>
    <polygon class="cls-4" points="111.45 4.12 111.45 4.9 114.34 4.9 114.34 4.12 113.28 4.12 113.28 2.08 113.95 2.08 113.95 1.29 111.83 1.29 111.83 2.08 112.49 2.08 112.49 4.12 111.45 4.12"/>
    <polygon class="cls-4" points="108.55 4.12 108.55 4.9 111.45 4.9 111.45 4.12 110.39 4.12 110.39 2.08 111.05 2.08 111.05 1.29 108.94 1.29 108.94 2.08 109.6 2.08 109.6 4.12 108.55 4.12"/>
    <polygon class="cls-4" points="105.66 4.12 105.66 4.9 108.55 4.9 108.55 4.12 107.5 4.12 107.5 2.08 108.16 2.08 108.16 1.29 106.04 1.29 106.04 2.08 106.71 2.08 106.71 4.12 105.66 4.12"/>
    <polygon class="cls-4" points="102.77 4.12 102.77 4.9 105.66 4.9 105.66 4.12 104.6 4.12 104.6 2.08 105.27 2.08 105.27 1.29 103.15 1.29 103.15 2.08 103.81 2.08 103.81 4.12 102.77 4.12"/>
    <polygon class="cls-4" points="99.87 4.12 99.87 4.9 102.77 4.9 102.77 4.12 101.71 4.12 101.71 2.08 102.37 2.08 102.37 1.29 100.26 1.29 100.26 2.08 100.92 2.08 100.92 4.12 99.87 4.12"/>
    <polygon class="cls-4" points="96.98 4.12 96.98 4.9 99.87 4.9 99.87 4.12 98.82 4.12 98.82 2.08 99.48 2.08 99.48 1.29 97.36 1.29 97.36 2.08 98.03 2.08 98.03 4.12 96.98 4.12"/>
    <polygon class="cls-4" points="94.09 4.12 94.09 4.9 96.98 4.9 96.98 4.12 95.93 4.12 95.93 2.08 96.59 2.08 96.59 1.29 94.47 1.29 94.47 2.08 95.13 2.08 95.13 4.12 94.09 4.12"/>
    <polygon class="cls-4" points="91.19 4.12 91.19 4.9 94.09 4.9 94.09 4.12 93.03 4.12 93.03 2.08 93.69 2.08 93.69 1.29 91.58 1.29 91.58 2.08 92.24 2.08 92.24 4.12 91.19 4.12"/>
    <polygon class="cls-4" points="88.3 4.12 88.3 4.9 91.19 4.9 91.19 4.12 90.14 4.12 90.14 2.08 90.8 2.08 90.8 1.29 88.69 1.29 88.69 2.08 89.35 2.08 89.35 4.12 88.3 4.12"/>
    <polygon class="cls-4" points="85.41 4.12 85.41 4.9 88.3 4.9 88.3 4.12 87.25 4.12 87.25 2.08 87.91 2.08 87.91 1.29 85.79 1.29 85.79 2.08 86.45 2.08 86.45 4.12 85.41 4.12"/>
    <polygon class="cls-4" points="82.52 4.12 82.52 4.9 85.41 4.9 85.41 4.12 84.35 4.12 84.35 2.08 85.02 2.08 85.02 1.29 82.9 1.29 82.9 2.08 83.56 2.08 83.56 4.12 82.52 4.12"/>
    <polygon class="cls-4" points="79.62 4.12 79.62 4.9 82.52 4.9 82.52 4.12 81.46 4.12 81.46 2.08 82.12 2.08 82.12 1.29 80.01 1.29 80.01 2.08 80.67 2.08 80.67 4.12 79.62 4.12"/>
    <polygon class="cls-4" points="76.73 4.12 76.73 4.9 79.62 4.9 79.62 4.12 78.57 4.12 78.57 2.08 79.23 2.08 79.23 1.29 77.11 1.29 77.11 2.08 77.78 2.08 77.78 4.12 76.73 4.12"/>
    <polygon class="cls-4" points="73.84 4.12 73.84 4.9 76.73 4.9 76.73 4.12 75.67 4.12 75.67 2.08 76.34 2.08 76.34 1.29 74.22 1.29 74.22 2.08 74.88 2.08 74.88 4.12 73.84 4.12"/>
    <polygon class="cls-4" points="70.94 4.12 70.94 4.9 73.84 4.9 73.84 4.12 72.78 4.12 72.78 2.08 73.44 2.08 73.44 1.29 71.33 1.29 71.33 2.08 71.99 2.08 71.99 4.12 70.94 4.12"/>
    <polygon class="cls-4" points="68.05 4.12 68.05 4.9 70.94 4.9 70.94 4.12 69.89 4.12 69.89 2.08 70.55 2.08 70.55 1.29 68.43 1.29 68.43 2.08 69.1 2.08 69.1 4.12 68.05 4.12"/>
    <polygon class="cls-4" points="65.16 4.12 65.16 4.9 68.05 4.9 68.05 4.12 67 4.12 67 2.08 67.66 2.08 67.66 1.29 65.54 1.29 65.54 2.08 66.2 2.08 66.2 4.12 65.16 4.12"/>
    <polygon class="cls-4" points="62.26 4.12 62.26 4.9 65.16 4.9 65.16 4.12 64.1 4.12 64.1 2.08 64.76 2.08 64.76 1.29 62.65 1.29 62.65 2.08 63.31 2.08 63.31 4.12 62.26 4.12"/>
    <polygon class="cls-4" points="59.37 4.12 59.37 4.9 62.26 4.9 62.26 4.12 61.21 4.12 61.21 2.08 61.87 2.08 61.87 1.29 59.76 1.29 59.76 2.08 60.42 2.08 60.42 4.12 59.37 4.12"/>
    <polygon class="cls-4" points="56.48 4.12 56.48 4.9 59.37 4.9 59.37 4.12 58.32 4.12 58.32 2.08 58.98 2.08 58.98 1.29 56.86 1.29 56.86 2.08 57.52 2.08 57.52 4.12 56.48 4.12"/>
    <polygon class="cls-4" points="53.59 4.12 53.59 4.9 56.48 4.9 56.48 4.12 55.42 4.12 55.42 2.08 56.09 2.08 56.09 1.29 53.97 1.29 53.97 2.08 54.63 2.08 54.63 4.12 53.59 4.12"/>
    <polygon class="cls-4" points="50.69 4.12 50.69 4.9 53.59 4.9 53.59 4.12 52.53 4.12 52.53 2.08 53.19 2.08 53.19 1.29 51.08 1.29 51.08 2.08 51.74 2.08 51.74 4.12 50.69 4.12"/>
    <polygon class="cls-4" points="47.8 4.12 47.8 4.9 50.69 4.9 50.69 4.12 49.64 4.12 49.64 2.08 50.3 2.08 50.3 1.29 48.18 1.29 48.18 2.08 48.85 2.08 48.85 4.12 47.8 4.12"/>
    <polygon class="cls-4" points="44.91 4.12 44.91 4.9 47.8 4.9 47.8 4.12 46.74 4.12 46.74 2.08 47.41 2.08 47.41 1.29 45.29 1.29 45.29 2.08 45.95 2.08 45.95 4.12 44.91 4.12"/>
    <polygon class="cls-4" points="42.01 4.12 42.01 4.9 44.91 4.9 44.91 4.12 43.85 4.12 43.85 2.08 44.51 2.08 44.51 1.29 42.4 1.29 42.4 2.08 43.06 2.08 43.06 4.12 42.01 4.12"/>
    <polygon class="cls-4" points="39.12 4.12 39.12 4.9 42.01 4.9 42.01 4.12 40.96 4.12 40.96 2.08 41.62 2.08 41.62 1.29 39.5 1.29 39.5 2.08 40.17 2.08 40.17 4.12 39.12 4.12"/>
    <polygon class="cls-4" points="36.23 4.12 36.23 4.9 39.12 4.9 39.12 4.12 38.07 4.12 38.07 2.08 38.73 2.08 38.73 1.29 36.61 1.29 36.61 2.08 37.27 2.08 37.27 4.12 36.23 4.12"/>
    <polygon class="cls-4" points="33.33 4.12 33.33 4.9 36.23 4.9 36.23 4.12 35.17 4.12 35.17 2.08 35.83 2.08 35.83 1.29 33.72 1.29 33.72 2.08 34.38 2.08 34.38 4.12 33.33 4.12"/>
    <polygon class="cls-4" points="30.44 4.12 30.44 4.9 33.33 4.9 33.33 4.12 32.28 4.12 32.28 2.08 32.94 2.08 32.94 1.29 30.83 1.29 30.83 2.08 31.49 2.08 31.49 4.12 30.44 4.12"/>
    <polygon class="cls-4" points="27.55 4.12 27.55 4.9 30.44 4.9 30.44 4.12 29.39 4.12 29.39 2.08 30.05 2.08 30.05 1.29 27.93 1.29 27.93 2.08 28.6 2.08 28.6 4.12 27.55 4.12"/>
    <polygon class="cls-4" points="24.66 4.12 24.66 4.9 27.55 4.9 27.55 4.12 26.49 4.12 26.49 2.08 27.16 2.08 27.16 1.29 25.04 1.29 25.04 2.08 25.7 2.08 25.7 4.12 24.66 4.12"/>
    <polygon class="cls-4" points="21.76 4.12 21.76 4.9 24.66 4.9 24.66 4.12 23.6 4.12 23.6 2.08 24.26 2.08 24.26 1.29 22.15 1.29 22.15 2.08 22.81 2.08 22.81 4.12 21.76 4.12"/>
    <polygon class="cls-4" points="18.87 4.12 18.87 4.9 21.76 4.9 21.76 4.12 20.71 4.12 20.71 2.08 21.37 2.08 21.37 1.29 19.25 1.29 19.25 2.08 19.92 2.08 19.92 4.12 18.87 4.12"/>
    <polygon class="cls-4" points="15.98 4.12 15.98 4.9 18.87 4.9 18.87 4.12 17.81 4.12 17.81 2.08 18.48 2.08 18.48 1.29 16.36 1.29 16.36 2.08 17.02 2.08 17.02 4.12 15.98 4.12"/>
    <polygon class="cls-4" points="13.08 4.12 13.08 4.9 15.98 4.9 15.98 4.12 14.92 4.12 14.92 2.08 15.58 2.08 15.58 1.29 13.47 1.29 13.47 2.08 14.13 2.08 14.13 4.12 13.08 4.12"/>
    <polygon class="cls-4" points="10.19 4.12 10.19 4.9 13.08 4.9 13.08 4.12 12.03 4.12 12.03 2.08 12.69 2.08 12.69 1.29 10.58 1.29 10.58 2.08 11.24 2.08 11.24 4.12 10.19 4.12"/>
    <polygon class="cls-4" points="7.3 4.12 7.3 4.9 10.19 4.9 10.19 4.12 9.14 4.12 9.14 2.08 9.8 2.08 9.8 1.29 7.68 1.29 7.68 2.08 8.34 2.08 8.34 4.12 7.3 4.12"/>
    <polygon class="cls-4" points="4.4 4.12 4.4 4.9 7.3 4.9 7.3 4.12 6.24 4.12 6.24 2.08 6.9 2.08 6.9 1.29 4.79 1.29 4.79 2.08 5.45 2.08 5.45 4.12 4.4 4.12"/>
    <polygon class="cls-4" points="3.62 7.89 4.4 7.89 4.4 4.9 3.62 4.9 3.62 5.99 1.58 5.99 1.58 5.31 .79 5.31 .79 7.49 1.58 7.49 1.58 6.81 3.62 6.81 3.62 7.89"/>
    <polygon class="cls-4" points="3.62 10.88 4.4 10.88 4.4 7.89 3.62 7.89 3.62 8.98 1.58 8.98 1.58 8.3 .79 8.3 .79 10.48 1.58 10.48 1.58 9.8 3.62 9.8 3.62 10.88"/>
    <polygon class="cls-4" points="3.62 13.87 4.4 13.87 4.4 10.88 3.62 10.88 3.62 11.97 1.58 11.97 1.58 11.28 .79 11.28 .79 13.47 1.58 13.47 1.58 12.78 3.62 12.78 3.62 13.87"/>
    <polygon class="cls-4" points="3.62 16.85 4.4 16.85 4.4 13.87 3.62 13.87 3.62 14.95 1.58 14.95 1.58 14.27 .79 14.27 .79 16.46 1.58 16.46 1.58 15.77 3.62 15.77 3.62 16.85"/>
    <polygon class="cls-4" points="3.62 19.84 4.4 19.84 4.4 16.85 3.62 16.85 3.62 17.94 1.58 17.94 1.58 17.26 .79 17.26 .79 19.44 1.58 19.44 1.58 18.76 3.62 18.76 3.62 19.84"/>
    <polygon class="cls-4" points="3.62 22.83 4.4 22.83 4.4 19.84 3.62 19.84 3.62 20.93 1.58 20.93 1.58 20.24 .79 20.24 .79 22.43 1.58 22.43 1.58 21.75 3.62 21.75 3.62 22.83"/>
    <polygon class="cls-4" points="3.62 25.81 4.4 25.81 4.4 22.83 3.62 22.83 3.62 23.92 1.58 23.92 1.58 23.23 .79 23.23 .79 25.42 1.58 25.42 1.58 24.73 3.62 24.73 3.62 25.81"/>
    <polygon class="cls-4" points="3.62 28.8 4.4 28.8 4.4 25.81 3.62 25.81 3.62 26.9 1.58 26.9 1.58 26.22 .79 26.22 .79 28.4 1.58 28.4 1.58 27.72 3.62 27.72 3.62 28.8"/>
    <g class="cls-8">
      <polygon class="cls-4" points="462.45 68.77 462.52 67.98 458.6 67.65 458.54 68.44 459.96 68.56 459.79 70.58 458.89 70.51 458.83 71.29 461.69 71.54 461.76 70.75 460.86 70.67 461.04 68.65 462.45 68.77"/>
    </g>
    <g class="cls-6">
      <polygon class="cls-4" points="459.39 67.65 458.6 67.65 458.6 71.58 459.39 71.58 459.39 70.15 461.42 70.15 461.42 71.05 462.21 71.05 462.21 68.17 461.42 68.17 461.42 69.07 459.39 69.07 459.39 67.65"/>
    </g>
    <g class="cls-1">
      <polygon class="cls-4" points="459.39 1.29 458.6 1.29 458.6 4.9 459.39 4.9 459.39 3.59 461.42 3.59 461.42 4.41 462.21 4.41 462.21 1.77 461.42 1.77 461.42 2.6 459.39 2.6 459.39 1.29"/>
    </g>
    <g class="cls-9">
      <polygon class="cls-4" points="458.6 4.12 458.6 4.9 462.21 4.9 462.21 4.12 460.9 4.12 460.9 2.08 461.72 2.08 461.72 1.29 459.08 1.29 459.08 2.08 459.91 2.08 459.91 4.12 458.6 4.12"/>
    </g>
    <g class="cls-7">
      <polygon class="cls-4" points=".79 4.12 .79 4.9 4.4 4.9 4.4 4.12 3.09 4.12 3.09 2.08 3.91 2.08 3.91 1.29 1.27 1.29 1.27 2.08 2.1 2.08 2.1 4.12 .79 4.12"/>
    </g>
    <g class="cls-10">
      <polygon class="cls-4" points="3.62 4.9 4.4 4.9 4.4 1.29 3.62 1.29 3.62 2.61 1.58 2.61 1.58 1.78 .79 1.78 .79 4.42 1.58 4.42 1.58 3.6 3.62 3.6 3.62 4.9"/>
    </g>
    <g class="cls-2">
      <polygon class="cls-4" points="3.62 32.11 4.4 32.11 4.4 28.8 3.62 28.8 3.62 30.01 1.58 30.01 1.58 29.25 .79 29.25 .79 31.67 1.58 31.67 1.58 30.92 3.62 30.92 3.62 32.11"/>
    </g>
    <g class="cls-5">
      <polygon class="cls-4" points="4.34 29.59 4.4 28.8 1.1 28.52 1.03 29.3 2.24 29.41 2.07 31.43 1.31 31.37 1.24 32.15 3.66 32.36 3.73 31.57 2.97 31.51 3.14 29.48 4.34 29.59"/>
    </g>
  </g>
</svg>