<?xml version="1.0" encoding="UTF-8"?>
<svg id="Layer_1" data-name="Layer 1" xmlns="http://www.w3.org/2000/svg" version="1.1" xmlns:xlink="http://www.w3.org/1999/xlink" viewBox="0 0 592.19 290.74">
  <defs>
    <style>
      .cls-1 {
        clip-path: url(#clippath-2);
      }

      .cls-2 {
        clip-path: url(#clippath-6);
      }

      .cls-3 {
        fill: none;
      }

      .cls-3, .cls-4 {
        stroke-width: 0px;
      }

      .cls-5 {
        clip-path: url(#clippath-7);
      }

      .cls-6 {
        clip-path: url(#clippath-1);
      }

      .cls-7 {
        clip-path: url(#clippath-4);
      }

      .cls-4 {
        fill: #fed700;
      }

      .cls-8 {
        clip-path: url(#clippath);
      }

      .cls-9 {
        clip-path: url(#clippath-3);
      }

      .cls-10 {
        clip-path: url(#clippath-5);
      }
    </style>
    <clipPath id="clippath">
      <polygon class="cls-3" points="8.71 8.56 .76 .62 .76 8.56 8.71 8.56"/>
    </clipPath>
    <clipPath id="clippath-1">
      <polygon class="cls-3" points="8.71 8.56 .76 .62 8.71 .62 8.71 8.56"/>
    </clipPath>
    <clipPath id="clippath-2">
      <polygon class="cls-3" points="583.83 8.56 591.77 .62 583.83 .62 583.83 8.56"/>
    </clipPath>
    <clipPath id="clippath-3">
      <polygon class="cls-3" points="583.83 8.56 591.77 .62 591.77 8.56 583.83 8.56"/>
    </clipPath>
    <clipPath id="clippath-4">
      <polygon class="cls-3" points="583.83 282.49 591.77 290.43 591.77 282.49 583.83 282.49"/>
    </clipPath>
    <clipPath id="clippath-5">
      <polygon class="cls-3" points="583.83 282.49 591.77 290.43 583.83 290.43 583.83 282.49"/>
    </clipPath>
    <clipPath id="clippath-6">
      <polygon class="cls-3" points="8.71 282.49 .76 290.43 8.71 290.43 8.71 282.49"/>
    </clipPath>
    <clipPath id="clippath-7">
      <polygon class="cls-3" points="8.71 282.49 .76 290.43 .76 282.49 8.71 282.49"/>
    </clipPath>
  </defs>
  <g id="En_Tablet_-_bg_logo_menu_and_title" data-name="En Tablet - bg logo, menu and title">
    <rect class="cls-4" x="4.74" y="4.59" width="583.06" height="281.87"/>
    <g>
      <polygon class="cls-4" points="6.97 276.12 8.71 276.12 8.71 282.49 6.97 282.49 6.97 280.16 2.5 280.16 2.5 281.62 .76 281.62 .76 276.96 2.5 276.96 2.5 278.42 6.97 278.42 6.97 276.12"/>
      <polygon class="cls-4" points="6.97 269.75 8.71 269.75 8.71 276.12 6.97 276.12 6.97 273.79 2.5 273.79 2.5 275.25 .76 275.25 .76 270.59 2.5 270.59 2.5 272.05 6.97 272.05 6.97 269.75"/>
      <polygon class="cls-4" points="6.97 263.38 8.71 263.38 8.71 269.75 6.97 269.75 6.97 267.42 2.5 267.42 2.5 268.88 .76 268.88 .76 264.22 2.5 264.22 2.5 265.68 6.97 265.68 6.97 263.38"/>
      <polygon class="cls-4" points="6.97 257.01 8.71 257.01 8.71 263.38 6.97 263.38 6.97 261.05 2.5 261.05 2.5 262.51 .76 262.51 .76 257.85 2.5 257.85 2.5 259.31 6.97 259.31 6.97 257.01"/>
      <polygon class="cls-4" points="6.97 250.64 8.71 250.64 8.71 257.01 6.97 257.01 6.97 254.68 2.5 254.68 2.5 256.14 .76 256.14 .76 251.48 2.5 251.48 2.5 252.94 6.97 252.94 6.97 250.64"/>
      <polygon class="cls-4" points="6.97 244.27 8.71 244.27 8.71 250.64 6.97 250.64 6.97 248.31 2.5 248.31 2.5 249.77 .76 249.77 .76 245.11 2.5 245.11 2.5 246.57 6.97 246.57 6.97 244.27"/>
      <polygon class="cls-4" points="6.97 237.89 8.71 237.89 8.71 244.27 6.97 244.27 6.97 241.94 2.5 241.94 2.5 243.4 .76 243.4 .76 238.74 2.5 238.74 2.5 240.2 6.97 240.2 6.97 237.89"/>
      <polygon class="cls-4" points="6.97 231.52 8.71 231.52 8.71 237.89 6.97 237.89 6.97 235.57 2.5 235.57 2.5 237.03 .76 237.03 .76 232.37 2.5 232.37 2.5 233.83 6.97 233.83 6.97 231.52"/>
      <polygon class="cls-4" points="6.97 225.15 8.71 225.15 8.71 231.52 6.97 231.52 6.97 229.2 2.5 229.2 2.5 230.66 .76 230.66 .76 226 2.5 226 2.5 227.46 6.97 227.46 6.97 225.15"/>
      <polygon class="cls-4" points="6.97 218.78 8.71 218.78 8.71 225.15 6.97 225.15 6.97 222.83 2.5 222.83 2.5 224.29 .76 224.29 .76 219.63 2.5 219.63 2.5 221.09 6.97 221.09 6.97 218.78"/>
      <polygon class="cls-4" points="6.97 212.41 8.71 212.41 8.71 218.78 6.97 218.78 6.97 216.46 2.5 216.46 2.5 217.92 .76 217.92 .76 213.26 2.5 213.26 2.5 214.72 6.97 214.72 6.97 212.41"/>
      <polygon class="cls-4" points="6.97 206.04 8.71 206.04 8.71 212.41 6.97 212.41 6.97 210.09 2.5 210.09 2.5 211.55 .76 211.55 .76 206.89 2.5 206.89 2.5 208.35 6.97 208.35 6.97 206.04"/>
      <polygon class="cls-4" points="6.97 199.67 8.71 199.67 8.71 206.04 6.97 206.04 6.97 203.72 2.5 203.72 2.5 205.18 .76 205.18 .76 200.52 2.5 200.52 2.5 201.98 6.97 201.98 6.97 199.67"/>
      <polygon class="cls-4" points="6.97 193.3 8.71 193.3 8.71 199.67 6.97 199.67 6.97 197.35 2.5 197.35 2.5 198.81 .76 198.81 .76 194.15 2.5 194.15 2.5 195.61 6.97 195.61 6.97 193.3"/>
      <polygon class="cls-4" points="6.97 186.93 8.71 186.93 8.71 193.3 6.97 193.3 6.97 190.98 2.5 190.98 2.5 192.44 .76 192.44 .76 187.78 2.5 187.78 2.5 189.24 6.97 189.24 6.97 186.93"/>
      <polygon class="cls-4" points="6.97 180.56 8.71 180.56 8.71 186.93 6.97 186.93 6.97 184.61 2.5 184.61 2.5 186.07 .76 186.07 .76 181.41 2.5 181.41 2.5 182.87 6.97 182.87 6.97 180.56"/>
      <polygon class="cls-4" points="6.97 174.19 8.71 174.19 8.71 180.56 6.97 180.56 6.97 178.24 2.5 178.24 2.5 179.7 .76 179.7 .76 175.04 2.5 175.04 2.5 176.49 6.97 176.49 6.97 174.19"/>
      <polygon class="cls-4" points="6.97 167.82 8.71 167.82 8.71 174.19 6.97 174.19 6.97 171.87 2.5 171.87 2.5 173.33 .76 173.33 .76 168.67 2.5 168.67 2.5 170.12 6.97 170.12 6.97 167.82"/>
      <polygon class="cls-4" points="6.97 161.45 8.71 161.45 8.71 167.82 6.97 167.82 6.97 165.5 2.5 165.5 2.5 166.95 .76 166.95 .76 162.3 2.5 162.3 2.5 163.75 6.97 163.75 6.97 161.45"/>
      <polygon class="cls-4" points="6.97 155.08 8.71 155.08 8.71 161.45 6.97 161.45 6.97 159.13 2.5 159.13 2.5 160.58 .76 160.58 .76 155.93 2.5 155.93 2.5 157.38 6.97 157.38 6.97 155.08"/>
      <polygon class="cls-4" points="6.97 148.71 8.71 148.71 8.71 155.08 6.97 155.08 6.97 152.76 2.5 152.76 2.5 154.21 .76 154.21 .76 149.56 2.5 149.56 2.5 151.01 6.97 151.01 6.97 148.71"/>
      <polygon class="cls-4" points="6.97 142.34 8.71 142.34 8.71 148.71 6.97 148.71 6.97 146.39 2.5 146.39 2.5 147.84 .76 147.84 .76 143.18 2.5 143.18 2.5 144.64 6.97 144.64 6.97 142.34"/>
      <polygon class="cls-4" points="6.97 135.97 8.71 135.97 8.71 142.34 6.97 142.34 6.97 140.02 2.5 140.02 2.5 141.47 .76 141.47 .76 136.81 2.5 136.81 2.5 138.27 6.97 138.27 6.97 135.97"/>
      <polygon class="cls-4" points="6.97 129.6 8.71 129.6 8.71 135.97 6.97 135.97 6.97 133.64 2.5 133.64 2.5 135.1 .76 135.1 .76 130.44 2.5 130.44 2.5 131.9 6.97 131.9 6.97 129.6"/>
      <polygon class="cls-4" points="6.97 123.23 8.71 123.23 8.71 129.6 6.97 129.6 6.97 127.27 2.5 127.27 2.5 128.73 .76 128.73 .76 124.07 2.5 124.07 2.5 125.53 6.97 125.53 6.97 123.23"/>
      <polygon class="cls-4" points="6.97 116.86 8.71 116.86 8.71 123.23 6.97 123.23 6.97 120.9 2.5 120.9 2.5 122.36 .76 122.36 .76 117.7 2.5 117.7 2.5 119.16 6.97 119.16 6.97 116.86"/>
      <polygon class="cls-4" points="6.97 110.49 8.71 110.49 8.71 116.86 6.97 116.86 6.97 114.53 2.5 114.53 2.5 115.99 .76 115.99 .76 111.33 2.5 111.33 2.5 112.79 6.97 112.79 6.97 110.49"/>
      <polygon class="cls-4" points="6.97 104.12 8.71 104.12 8.71 110.49 6.97 110.49 6.97 108.16 2.5 108.16 2.5 109.62 .76 109.62 .76 104.96 2.5 104.96 2.5 106.42 6.97 106.42 6.97 104.12"/>
      <polygon class="cls-4" points="6.97 97.75 8.71 97.75 8.71 104.12 6.97 104.12 6.97 101.79 2.5 101.79 2.5 103.25 .76 103.25 .76 98.59 2.5 98.59 2.5 100.05 6.97 100.05 6.97 97.75"/>
      <polygon class="cls-4" points="6.97 91.37 8.71 91.37 8.71 97.75 6.97 97.75 6.97 95.42 2.5 95.42 2.5 96.88 .76 96.88 .76 92.22 2.5 92.22 2.5 93.68 6.97 93.68 6.97 91.37"/>
      <polygon class="cls-4" points="6.97 85 8.71 85 8.71 91.37 6.97 91.37 6.97 89.05 2.5 89.05 2.5 90.51 .76 90.51 .76 85.85 2.5 85.85 2.5 87.31 6.97 87.31 6.97 85"/>
      <polygon class="cls-4" points="6.97 78.63 8.71 78.63 8.71 85 6.97 85 6.97 82.68 2.5 82.68 2.5 84.14 .76 84.14 .76 79.48 2.5 79.48 2.5 80.94 6.97 80.94 6.97 78.63"/>
      <polygon class="cls-4" points="6.97 72.26 8.71 72.26 8.71 78.63 6.97 78.63 6.97 76.31 2.5 76.31 2.5 77.77 .76 77.77 .76 73.11 2.5 73.11 2.5 74.57 6.97 74.57 6.97 72.26"/>
      <polygon class="cls-4" points="6.97 65.89 8.71 65.89 8.71 72.26 6.97 72.26 6.97 69.94 2.5 69.94 2.5 71.4 .76 71.4 .76 66.74 2.5 66.74 2.5 68.2 6.97 68.2 6.97 65.89"/>
      <polygon class="cls-4" points="6.97 59.52 8.71 59.52 8.71 65.89 6.97 65.89 6.97 63.57 2.5 63.57 2.5 65.03 .76 65.03 .76 60.37 2.5 60.37 2.5 61.83 6.97 61.83 6.97 59.52"/>
      <polygon class="cls-4" points="6.97 53.15 8.71 53.15 8.71 59.52 6.97 59.52 6.97 57.2 2.5 57.2 2.5 58.66 .76 58.66 .76 54 2.5 54 2.5 55.46 6.97 55.46 6.97 53.15"/>
      <polygon class="cls-4" points="6.97 46.78 8.71 46.78 8.71 53.15 6.97 53.15 6.97 50.83 2.5 50.83 2.5 52.29 .76 52.29 .76 47.63 2.5 47.63 2.5 49.09 6.97 49.09 6.97 46.78"/>
      <polygon class="cls-4" points="6.97 40.41 8.71 40.41 8.71 46.78 6.97 46.78 6.97 44.46 2.5 44.46 2.5 45.92 .76 45.92 .76 41.26 2.5 41.26 2.5 42.72 6.97 42.72 6.97 40.41"/>
      <polygon class="cls-4" points="6.97 34.04 8.71 34.04 8.71 40.41 6.97 40.41 6.97 38.09 2.5 38.09 2.5 39.55 .76 39.55 .76 34.89 2.5 34.89 2.5 36.35 6.97 36.35 6.97 34.04"/>
      <polygon class="cls-4" points="6.97 27.67 8.71 27.67 8.71 34.04 6.97 34.04 6.97 31.72 2.5 31.72 2.5 33.18 .76 33.18 .76 28.52 2.5 28.52 2.5 29.98 6.97 29.98 6.97 27.67"/>
      <polygon class="cls-4" points="6.97 21.3 8.71 21.3 8.71 27.67 6.97 27.67 6.97 25.35 2.5 25.35 2.5 26.81 .76 26.81 .76 22.15 2.5 22.15 2.5 23.6 6.97 23.6 6.97 21.3"/>
      <polygon class="cls-4" points="6.97 14.93 8.71 14.93 8.71 21.3 6.97 21.3 6.97 18.98 2.5 18.98 2.5 20.44 .76 20.44 .76 15.78 2.5 15.78 2.5 17.23 6.97 17.23 6.97 14.93"/>
      <polygon class="cls-4" points="6.97 8.56 8.71 8.56 8.71 14.93 6.97 14.93 6.97 12.61 2.5 12.61 2.5 14.06 .76 14.06 .76 9.41 2.5 9.41 2.5 10.86 6.97 10.86 6.97 8.56"/>
      <polygon class="cls-4" points="15.03 6.82 15.03 8.56 8.71 8.56 8.71 6.82 11.01 6.82 11.01 2.35 9.57 2.35 9.57 .62 14.19 .62 14.19 2.35 12.74 2.35 12.74 6.82 15.03 6.82"/>
      <polygon class="cls-4" points="21.35 6.82 21.35 8.56 15.03 8.56 15.03 6.82 17.33 6.82 17.33 2.35 15.89 2.35 15.89 .62 20.51 .62 20.51 2.35 19.06 2.35 19.06 6.82 21.35 6.82"/>
      <polygon class="cls-4" points="27.67 6.82 27.67 8.56 21.35 8.56 21.35 6.82 23.65 6.82 23.65 2.35 22.21 2.35 22.21 .62 26.83 .62 26.83 2.35 25.38 2.35 25.38 6.82 27.67 6.82"/>
      <polygon class="cls-4" points="33.99 6.82 33.99 8.56 27.67 8.56 27.67 6.82 29.97 6.82 29.97 2.35 28.53 2.35 28.53 .62 33.15 .62 33.15 2.35 31.7 2.35 31.7 6.82 33.99 6.82"/>
      <polygon class="cls-4" points="40.31 6.82 40.31 8.56 33.99 8.56 33.99 6.82 36.29 6.82 36.29 2.35 34.85 2.35 34.85 .62 39.47 .62 39.47 2.35 38.02 2.35 38.02 6.82 40.31 6.82"/>
      <polygon class="cls-4" points="46.63 6.82 46.63 8.56 40.31 8.56 40.31 6.82 42.61 6.82 42.61 2.35 41.17 2.35 41.17 .62 45.79 .62 45.79 2.35 44.34 2.35 44.34 6.82 46.63 6.82"/>
      <polygon class="cls-4" points="52.95 6.82 52.95 8.56 46.63 8.56 46.63 6.82 48.93 6.82 48.93 2.35 47.49 2.35 47.49 .62 52.11 .62 52.11 2.35 50.66 2.35 50.66 6.82 52.95 6.82"/>
      <polygon class="cls-4" points="59.27 6.82 59.27 8.56 52.95 8.56 52.95 6.82 55.25 6.82 55.25 2.35 53.81 2.35 53.81 .62 58.43 .62 58.43 2.35 56.98 2.35 56.98 6.82 59.27 6.82"/>
      <polygon class="cls-4" points="65.59 6.82 65.59 8.56 59.27 8.56 59.27 6.82 61.57 6.82 61.57 2.35 60.13 2.35 60.13 .62 64.75 .62 64.75 2.35 63.3 2.35 63.3 6.82 65.59 6.82"/>
      <polygon class="cls-4" points="71.91 6.82 71.91 8.56 65.59 8.56 65.59 6.82 67.89 6.82 67.89 2.35 66.45 2.35 66.45 .62 71.07 .62 71.07 2.35 69.62 2.35 69.62 6.82 71.91 6.82"/>
      <polygon class="cls-4" points="78.23 6.82 78.23 8.56 71.91 8.56 71.91 6.82 74.21 6.82 74.21 2.35 72.77 2.35 72.77 .62 77.39 .62 77.39 2.35 75.94 2.35 75.94 6.82 78.23 6.82"/>
      <polygon class="cls-4" points="84.55 6.82 84.55 8.56 78.23 8.56 78.23 6.82 80.53 6.82 80.53 2.35 79.09 2.35 79.09 .62 83.71 .62 83.71 2.35 82.26 2.35 82.26 6.82 84.55 6.82"/>
      <polygon class="cls-4" points="90.87 6.82 90.87 8.56 84.55 8.56 84.55 6.82 86.85 6.82 86.85 2.35 85.41 2.35 85.41 .62 90.03 .62 90.03 2.35 88.58 2.35 88.58 6.82 90.87 6.82"/>
      <polygon class="cls-4" points="97.19 6.82 97.19 8.56 90.87 8.56 90.87 6.82 93.17 6.82 93.17 2.35 91.73 2.35 91.73 .62 96.35 .62 96.35 2.35 94.9 2.35 94.9 6.82 97.19 6.82"/>
      <polygon class="cls-4" points="103.51 6.82 103.51 8.56 97.19 8.56 97.19 6.82 99.49 6.82 99.49 2.35 98.05 2.35 98.05 .62 102.67 .62 102.67 2.35 101.22 2.35 101.22 6.82 103.51 6.82"/>
      <polygon class="cls-4" points="109.83 6.82 109.83 8.56 103.51 8.56 103.51 6.82 105.81 6.82 105.81 2.35 104.37 2.35 104.37 .62 108.99 .62 108.99 2.35 107.54 2.35 107.54 6.82 109.83 6.82"/>
      <polygon class="cls-4" points="116.15 6.82 116.15 8.56 109.83 8.56 109.83 6.82 112.13 6.82 112.13 2.35 110.69 2.35 110.69 .62 115.31 .62 115.31 2.35 113.86 2.35 113.86 6.82 116.15 6.82"/>
      <polygon class="cls-4" points="122.47 6.82 122.47 8.56 116.15 8.56 116.15 6.82 118.45 6.82 118.45 2.35 117.01 2.35 117.01 .62 121.63 .62 121.63 2.35 120.18 2.35 120.18 6.82 122.47 6.82"/>
      <polygon class="cls-4" points="128.79 6.82 128.79 8.56 122.47 8.56 122.47 6.82 124.77 6.82 124.77 2.35 123.33 2.35 123.33 .62 127.95 .62 127.95 2.35 126.5 2.35 126.5 6.82 128.79 6.82"/>
      <polygon class="cls-4" points="135.11 6.82 135.11 8.56 128.79 8.56 128.79 6.82 131.09 6.82 131.09 2.35 129.65 2.35 129.65 .62 134.27 .62 134.27 2.35 132.82 2.35 132.82 6.82 135.11 6.82"/>
      <polygon class="cls-4" points="141.43 6.82 141.43 8.56 135.11 8.56 135.11 6.82 137.41 6.82 137.41 2.35 135.97 2.35 135.97 .62 140.59 .62 140.59 2.35 139.14 2.35 139.14 6.82 141.43 6.82"/>
      <polygon class="cls-4" points="147.75 6.82 147.75 8.56 141.43 8.56 141.43 6.82 143.73 6.82 143.73 2.35 142.29 2.35 142.29 .62 146.91 .62 146.91 2.35 145.46 2.35 145.46 6.82 147.75 6.82"/>
      <polygon class="cls-4" points="154.07 6.82 154.07 8.56 147.75 8.56 147.75 6.82 150.05 6.82 150.05 2.35 148.61 2.35 148.61 .62 153.23 .62 153.23 2.35 151.78 2.35 151.78 6.82 154.07 6.82"/>
      <polygon class="cls-4" points="160.39 6.82 160.39 8.56 154.07 8.56 154.07 6.82 156.37 6.82 156.37 2.35 154.93 2.35 154.93 .62 159.55 .62 159.55 2.35 158.1 2.35 158.1 6.82 160.39 6.82"/>
      <polygon class="cls-4" points="166.71 6.82 166.71 8.56 160.39 8.56 160.39 6.82 162.69 6.82 162.69 2.35 161.25 2.35 161.25 .62 165.87 .62 165.87 2.35 164.42 2.35 164.42 6.82 166.71 6.82"/>
      <polygon class="cls-4" points="173.03 6.82 173.03 8.56 166.71 8.56 166.71 6.82 169.01 6.82 169.01 2.35 167.57 2.35 167.57 .62 172.19 .62 172.19 2.35 170.74 2.35 170.74 6.82 173.03 6.82"/>
      <polygon class="cls-4" points="179.35 6.82 179.35 8.56 173.03 8.56 173.03 6.82 175.33 6.82 175.33 2.35 173.89 2.35 173.89 .62 178.51 .62 178.51 2.35 177.06 2.35 177.06 6.82 179.35 6.82"/>
      <polygon class="cls-4" points="185.67 6.82 185.67 8.56 179.35 8.56 179.35 6.82 181.65 6.82 181.65 2.35 180.21 2.35 180.21 .62 184.83 .62 184.83 2.35 183.38 2.35 183.38 6.82 185.67 6.82"/>
      <polygon class="cls-4" points="191.99 6.82 191.99 8.56 185.67 8.56 185.67 6.82 187.97 6.82 187.97 2.35 186.53 2.35 186.53 .62 191.15 .62 191.15 2.35 189.7 2.35 189.7 6.82 191.99 6.82"/>
      <polygon class="cls-4" points="198.31 6.82 198.31 8.56 191.99 8.56 191.99 6.82 194.29 6.82 194.29 2.35 192.85 2.35 192.85 .62 197.47 .62 197.47 2.35 196.02 2.35 196.02 6.82 198.31 6.82"/>
      <polygon class="cls-4" points="204.63 6.82 204.63 8.56 198.31 8.56 198.31 6.82 200.61 6.82 200.61 2.35 199.17 2.35 199.17 .62 203.79 .62 203.79 2.35 202.34 2.35 202.34 6.82 204.63 6.82"/>
      <polygon class="cls-4" points="210.95 6.82 210.95 8.56 204.63 8.56 204.63 6.82 206.93 6.82 206.93 2.35 205.49 2.35 205.49 .62 210.11 .62 210.11 2.35 208.66 2.35 208.66 6.82 210.95 6.82"/>
      <polygon class="cls-4" points="217.27 6.82 217.27 8.56 210.95 8.56 210.95 6.82 213.25 6.82 213.25 2.35 211.81 2.35 211.81 .62 216.43 .62 216.43 2.35 214.98 2.35 214.98 6.82 217.27 6.82"/>
      <polygon class="cls-4" points="223.59 6.82 223.59 8.56 217.27 8.56 217.27 6.82 219.57 6.82 219.57 2.35 218.13 2.35 218.13 .62 222.75 .62 222.75 2.35 221.3 2.35 221.3 6.82 223.59 6.82"/>
      <polygon class="cls-4" points="229.91 6.82 229.91 8.56 223.59 8.56 223.59 6.82 225.89 6.82 225.89 2.35 224.45 2.35 224.45 .62 229.07 .62 229.07 2.35 227.62 2.35 227.62 6.82 229.91 6.82"/>
      <polygon class="cls-4" points="236.23 6.82 236.23 8.56 229.91 8.56 229.91 6.82 232.21 6.82 232.21 2.35 230.77 2.35 230.77 .62 235.39 .62 235.39 2.35 233.94 2.35 233.94 6.82 236.23 6.82"/>
      <polygon class="cls-4" points="242.55 6.82 242.55 8.56 236.23 8.56 236.23 6.82 238.53 6.82 238.53 2.35 237.09 2.35 237.09 .62 241.71 .62 241.71 2.35 240.26 2.35 240.26 6.82 242.55 6.82"/>
      <polygon class="cls-4" points="248.87 6.82 248.87 8.56 242.55 8.56 242.55 6.82 244.85 6.82 244.85 2.35 243.41 2.35 243.41 .62 248.03 .62 248.03 2.35 246.58 2.35 246.58 6.82 248.87 6.82"/>
      <polygon class="cls-4" points="255.19 6.82 255.19 8.56 248.87 8.56 248.87 6.82 251.17 6.82 251.17 2.35 249.73 2.35 249.73 .62 254.35 .62 254.35 2.35 252.9 2.35 252.9 6.82 255.19 6.82"/>
      <polygon class="cls-4" points="261.51 6.82 261.51 8.56 255.19 8.56 255.19 6.82 257.49 6.82 257.49 2.35 256.05 2.35 256.05 .62 260.67 .62 260.67 2.35 259.22 2.35 259.22 6.82 261.51 6.82"/>
      <polygon class="cls-4" points="267.83 6.82 267.83 8.56 261.51 8.56 261.51 6.82 263.81 6.82 263.81 2.35 262.37 2.35 262.37 .62 266.99 .62 266.99 2.35 265.54 2.35 265.54 6.82 267.83 6.82"/>
      <polygon class="cls-4" points="274.15 6.82 274.15 8.56 267.83 8.56 267.83 6.82 270.13 6.82 270.13 2.35 268.69 2.35 268.69 .62 273.31 .62 273.31 2.35 271.86 2.35 271.86 6.82 274.15 6.82"/>
      <polygon class="cls-4" points="280.47 6.82 280.47 8.56 274.15 8.56 274.15 6.82 276.45 6.82 276.45 2.35 275.01 2.35 275.01 .62 279.63 .62 279.63 2.35 278.18 2.35 278.18 6.82 280.47 6.82"/>
      <polygon class="cls-4" points="286.79 6.82 286.79 8.56 280.47 8.56 280.47 6.82 282.77 6.82 282.77 2.35 281.33 2.35 281.33 .62 285.95 .62 285.95 2.35 284.5 2.35 284.5 6.82 286.79 6.82"/>
      <polygon class="cls-4" points="293.11 6.82 293.11 8.56 286.79 8.56 286.79 6.82 289.09 6.82 289.09 2.35 287.65 2.35 287.65 .62 292.27 .62 292.27 2.35 290.82 2.35 290.82 6.82 293.11 6.82"/>
      <polygon class="cls-4" points="299.43 6.82 299.43 8.56 293.11 8.56 293.11 6.82 295.41 6.82 295.41 2.35 293.97 2.35 293.97 .62 298.59 .62 298.59 2.35 297.14 2.35 297.14 6.82 299.43 6.82"/>
      <polygon class="cls-4" points="305.75 6.82 305.75 8.56 299.43 8.56 299.43 6.82 301.73 6.82 301.73 2.35 300.29 2.35 300.29 .62 304.91 .62 304.91 2.35 303.46 2.35 303.46 6.82 305.75 6.82"/>
      <polygon class="cls-4" points="312.07 6.82 312.07 8.56 305.75 8.56 305.75 6.82 308.05 6.82 308.05 2.35 306.61 2.35 306.61 .62 311.23 .62 311.23 2.35 309.78 2.35 309.78 6.82 312.07 6.82"/>
      <polygon class="cls-4" points="318.39 6.82 318.39 8.56 312.07 8.56 312.07 6.82 314.37 6.82 314.37 2.35 312.93 2.35 312.93 .62 317.55 .62 317.55 2.35 316.1 2.35 316.1 6.82 318.39 6.82"/>
      <polygon class="cls-4" points="324.71 6.82 324.71 8.56 318.39 8.56 318.39 6.82 320.69 6.82 320.69 2.35 319.25 2.35 319.25 .62 323.87 .62 323.87 2.35 322.42 2.35 322.42 6.82 324.71 6.82"/>
      <polygon class="cls-4" points="331.03 6.82 331.03 8.56 324.71 8.56 324.71 6.82 327.01 6.82 327.01 2.35 325.57 2.35 325.57 .62 330.19 .62 330.19 2.35 328.74 2.35 328.74 6.82 331.03 6.82"/>
      <polygon class="cls-4" points="337.35 6.82 337.35 8.56 331.03 8.56 331.03 6.82 333.33 6.82 333.33 2.35 331.89 2.35 331.89 .62 336.51 .62 336.51 2.35 335.06 2.35 335.06 6.82 337.35 6.82"/>
      <polygon class="cls-4" points="343.67 6.82 343.67 8.56 337.35 8.56 337.35 6.82 339.65 6.82 339.65 2.35 338.21 2.35 338.21 .62 342.83 .62 342.83 2.35 341.38 2.35 341.38 6.82 343.67 6.82"/>
      <polygon class="cls-4" points="349.99 6.82 349.99 8.56 343.67 8.56 343.67 6.82 345.97 6.82 345.97 2.35 344.53 2.35 344.53 .62 349.15 .62 349.15 2.35 347.7 2.35 347.7 6.82 349.99 6.82"/>
      <polygon class="cls-4" points="356.31 6.82 356.31 8.56 349.99 8.56 349.99 6.82 352.29 6.82 352.29 2.35 350.85 2.35 350.85 .62 355.47 .62 355.47 2.35 354.02 2.35 354.02 6.82 356.31 6.82"/>
      <polygon class="cls-4" points="362.63 6.82 362.63 8.56 356.31 8.56 356.31 6.82 358.61 6.82 358.61 2.35 357.17 2.35 357.17 .62 361.79 .62 361.79 2.35 360.34 2.35 360.34 6.82 362.63 6.82"/>
      <polygon class="cls-4" points="368.95 6.82 368.95 8.56 362.63 8.56 362.63 6.82 364.93 6.82 364.93 2.35 363.49 2.35 363.49 .62 368.11 .62 368.11 2.35 366.66 2.35 366.66 6.82 368.95 6.82"/>
      <polygon class="cls-4" points="375.27 6.82 375.27 8.56 368.95 8.56 368.95 6.82 371.25 6.82 371.25 2.35 369.81 2.35 369.81 .62 374.43 .62 374.43 2.35 372.98 2.35 372.98 6.82 375.27 6.82"/>
      <polygon class="cls-4" points="381.59 6.82 381.59 8.56 375.27 8.56 375.27 6.82 377.57 6.82 377.57 2.35 376.13 2.35 376.13 .62 380.75 .62 380.75 2.35 379.3 2.35 379.3 6.82 381.59 6.82"/>
      <polygon class="cls-4" points="387.91 6.82 387.91 8.56 381.59 8.56 381.59 6.82 383.89 6.82 383.89 2.35 382.45 2.35 382.45 .62 387.07 .62 387.07 2.35 385.62 2.35 385.62 6.82 387.91 6.82"/>
      <polygon class="cls-4" points="394.23 6.82 394.23 8.56 387.91 8.56 387.91 6.82 390.21 6.82 390.21 2.35 388.77 2.35 388.77 .62 393.39 .62 393.39 2.35 391.94 2.35 391.94 6.82 394.23 6.82"/>
      <polygon class="cls-4" points="400.55 6.82 400.55 8.56 394.23 8.56 394.23 6.82 396.53 6.82 396.53 2.35 395.09 2.35 395.09 .62 399.71 .62 399.71 2.35 398.26 2.35 398.26 6.82 400.55 6.82"/>
      <polygon class="cls-4" points="406.87 6.82 406.87 8.56 400.55 8.56 400.55 6.82 402.85 6.82 402.85 2.35 401.41 2.35 401.41 .62 406.03 .62 406.03 2.35 404.58 2.35 404.58 6.82 406.87 6.82"/>
      <polygon class="cls-4" points="413.19 6.82 413.19 8.56 406.87 8.56 406.87 6.82 409.17 6.82 409.17 2.35 407.73 2.35 407.73 .62 412.35 .62 412.35 2.35 410.9 2.35 410.9 6.82 413.19 6.82"/>
      <polygon class="cls-4" points="419.51 6.82 419.51 8.56 413.19 8.56 413.19 6.82 415.49 6.82 415.49 2.35 414.05 2.35 414.05 .62 418.67 .62 418.67 2.35 417.22 2.35 417.22 6.82 419.51 6.82"/>
      <polygon class="cls-4" points="425.83 6.82 425.83 8.56 419.51 8.56 419.51 6.82 421.81 6.82 421.81 2.35 420.37 2.35 420.37 .62 424.99 .62 424.99 2.35 423.54 2.35 423.54 6.82 425.83 6.82"/>
      <polygon class="cls-4" points="432.15 6.82 432.15 8.56 425.83 8.56 425.83 6.82 428.13 6.82 428.13 2.35 426.69 2.35 426.69 .62 431.31 .62 431.31 2.35 429.86 2.35 429.86 6.82 432.15 6.82"/>
      <polygon class="cls-4" points="438.47 6.82 438.47 8.56 432.15 8.56 432.15 6.82 434.45 6.82 434.45 2.35 433.01 2.35 433.01 .62 437.63 .62 437.63 2.35 436.18 2.35 436.18 6.82 438.47 6.82"/>
      <polygon class="cls-4" points="444.79 6.82 444.79 8.56 438.47 8.56 438.47 6.82 440.77 6.82 440.77 2.35 439.33 2.35 439.33 .62 443.95 .62 443.95 2.35 442.5 2.35 442.5 6.82 444.79 6.82"/>
      <polygon class="cls-4" points="451.11 6.82 451.11 8.56 444.79 8.56 444.79 6.82 447.09 6.82 447.09 2.35 445.65 2.35 445.65 .62 450.27 .62 450.27 2.35 448.82 2.35 448.82 6.82 451.11 6.82"/>
      <polygon class="cls-4" points="457.43 6.82 457.43 8.56 451.11 8.56 451.11 6.82 453.41 6.82 453.41 2.35 451.97 2.35 451.97 .62 456.59 .62 456.59 2.35 455.14 2.35 455.14 6.82 457.43 6.82"/>
      <polygon class="cls-4" points="463.75 6.82 463.75 8.56 457.43 8.56 457.43 6.82 459.73 6.82 459.73 2.35 458.29 2.35 458.29 .62 462.91 .62 462.91 2.35 461.46 2.35 461.46 6.82 463.75 6.82"/>
      <polygon class="cls-4" points="470.07 6.82 470.07 8.56 463.75 8.56 463.75 6.82 466.05 6.82 466.05 2.35 464.61 2.35 464.61 .62 469.23 .62 469.23 2.35 467.78 2.35 467.78 6.82 470.07 6.82"/>
      <polygon class="cls-4" points="476.39 6.82 476.39 8.56 470.07 8.56 470.07 6.82 472.37 6.82 472.37 2.35 470.93 2.35 470.93 .62 475.55 .62 475.55 2.35 474.1 2.35 474.1 6.82 476.39 6.82"/>
      <polygon class="cls-4" points="482.71 6.82 482.71 8.56 476.39 8.56 476.39 6.82 478.69 6.82 478.69 2.35 477.25 2.35 477.25 .62 481.87 .62 481.87 2.35 480.42 2.35 480.42 6.82 482.71 6.82"/>
      <polygon class="cls-4" points="489.03 6.82 489.03 8.56 482.71 8.56 482.71 6.82 485.01 6.82 485.01 2.35 483.57 2.35 483.57 .62 488.19 .62 488.19 2.35 486.74 2.35 486.74 6.82 489.03 6.82"/>
      <polygon class="cls-4" points="495.35 6.82 495.35 8.56 489.03 8.56 489.03 6.82 491.33 6.82 491.33 2.35 489.89 2.35 489.89 .62 494.51 .62 494.51 2.35 493.06 2.35 493.06 6.82 495.35 6.82"/>
      <polygon class="cls-4" points="501.67 6.82 501.67 8.56 495.35 8.56 495.35 6.82 497.65 6.82 497.65 2.35 496.21 2.35 496.21 .62 500.83 .62 500.83 2.35 499.38 2.35 499.38 6.82 501.67 6.82"/>
      <polygon class="cls-4" points="507.99 6.82 507.99 8.56 501.67 8.56 501.67 6.82 503.97 6.82 503.97 2.35 502.53 2.35 502.53 .62 507.15 .62 507.15 2.35 505.7 2.35 505.7 6.82 507.99 6.82"/>
      <polygon class="cls-4" points="514.31 6.82 514.31 8.56 507.99 8.56 507.99 6.82 510.29 6.82 510.29 2.35 508.85 2.35 508.85 .62 513.47 .62 513.47 2.35 512.02 2.35 512.02 6.82 514.31 6.82"/>
      <polygon class="cls-4" points="520.63 6.82 520.63 8.56 514.31 8.56 514.31 6.82 516.61 6.82 516.61 2.35 515.17 2.35 515.17 .62 519.79 .62 519.79 2.35 518.34 2.35 518.34 6.82 520.63 6.82"/>
      <polygon class="cls-4" points="526.95 6.82 526.95 8.56 520.63 8.56 520.63 6.82 522.93 6.82 522.93 2.35 521.49 2.35 521.49 .62 526.11 .62 526.11 2.35 524.66 2.35 524.66 6.82 526.95 6.82"/>
      <polygon class="cls-4" points="533.27 6.82 533.27 8.56 526.95 8.56 526.95 6.82 529.25 6.82 529.25 2.35 527.81 2.35 527.81 .62 532.43 .62 532.43 2.35 530.98 2.35 530.98 6.82 533.27 6.82"/>
      <polygon class="cls-4" points="539.59 6.82 539.59 8.56 533.27 8.56 533.27 6.82 535.57 6.82 535.57 2.35 534.13 2.35 534.13 .62 538.75 .62 538.75 2.35 537.3 2.35 537.3 6.82 539.59 6.82"/>
      <polygon class="cls-4" points="545.91 6.82 545.91 8.56 539.59 8.56 539.59 6.82 541.89 6.82 541.89 2.35 540.45 2.35 540.45 .62 545.07 .62 545.07 2.35 543.62 2.35 543.62 6.82 545.91 6.82"/>
      <polygon class="cls-4" points="552.23 6.82 552.23 8.56 545.91 8.56 545.91 6.82 548.21 6.82 548.21 2.35 546.77 2.35 546.77 .62 551.39 .62 551.39 2.35 549.94 2.35 549.94 6.82 552.23 6.82"/>
      <polygon class="cls-4" points="558.55 6.82 558.55 8.56 552.23 8.56 552.23 6.82 554.53 6.82 554.53 2.35 553.09 2.35 553.09 .62 557.71 .62 557.71 2.35 556.26 2.35 556.26 6.82 558.55 6.82"/>
      <polygon class="cls-4" points="564.87 6.82 564.87 8.56 558.55 8.56 558.55 6.82 560.85 6.82 560.85 2.35 559.41 2.35 559.41 .62 564.03 .62 564.03 2.35 562.58 2.35 562.58 6.82 564.87 6.82"/>
      <polygon class="cls-4" points="571.19 6.82 571.19 8.56 564.87 8.56 564.87 6.82 567.17 6.82 567.17 2.35 565.73 2.35 565.73 .62 570.35 .62 570.35 2.35 568.9 2.35 568.9 6.82 571.19 6.82"/>
      <polygon class="cls-4" points="577.51 6.82 577.51 8.56 571.19 8.56 571.19 6.82 573.49 6.82 573.49 2.35 572.05 2.35 572.05 .62 576.67 .62 576.67 2.35 575.22 2.35 575.22 6.82 577.51 6.82"/>
      <polygon class="cls-4" points="583.83 6.82 583.83 8.56 577.51 8.56 577.51 6.82 579.81 6.82 579.81 2.35 578.37 2.35 578.37 .62 582.99 .62 582.99 2.35 581.54 2.35 581.54 6.82 583.83 6.82"/>
      <polygon class="cls-4" points="585.56 14.93 583.83 14.93 583.83 8.56 585.56 8.56 585.56 10.88 590.04 10.88 590.04 9.42 591.77 9.42 591.77 14.08 590.04 14.08 590.04 12.63 585.56 12.63 585.56 14.93"/>
      <polygon class="cls-4" points="585.56 21.3 583.83 21.3 583.83 14.93 585.56 14.93 585.56 17.25 590.04 17.25 590.04 15.8 591.77 15.8 591.77 20.45 590.04 20.45 590.04 19 585.56 19 585.56 21.3"/>
      <polygon class="cls-4" points="585.56 27.67 583.83 27.67 583.83 21.3 585.56 21.3 585.56 23.62 590.04 23.62 590.04 22.17 591.77 22.17 591.77 26.82 590.04 26.82 590.04 25.37 585.56 25.37 585.56 27.67"/>
      <polygon class="cls-4" points="585.56 34.04 583.83 34.04 583.83 27.67 585.56 27.67 585.56 29.99 590.04 29.99 590.04 28.54 591.77 28.54 591.77 33.19 590.04 33.19 590.04 31.74 585.56 31.74 585.56 34.04"/>
      <polygon class="cls-4" points="585.56 40.41 583.83 40.41 583.83 34.04 585.56 34.04 585.56 36.36 590.04 36.36 590.04 34.91 591.77 34.91 591.77 39.57 590.04 39.57 590.04 38.11 585.56 38.11 585.56 40.41"/>
      <polygon class="cls-4" points="585.56 46.78 583.83 46.78 583.83 40.41 585.56 40.41 585.56 42.73 590.04 42.73 590.04 41.28 591.77 41.28 591.77 45.94 590.04 45.94 590.04 44.48 585.56 44.48 585.56 46.78"/>
      <polygon class="cls-4" points="585.56 53.15 583.83 53.15 583.83 46.78 585.56 46.78 585.56 49.11 590.04 49.11 590.04 47.65 591.77 47.65 591.77 52.31 590.04 52.31 590.04 50.85 585.56 50.85 585.56 53.15"/>
      <polygon class="cls-4" points="585.56 59.52 583.83 59.52 583.83 53.15 585.56 53.15 585.56 55.48 590.04 55.48 590.04 54.02 591.77 54.02 591.77 58.68 590.04 58.68 590.04 57.22 585.56 57.22 585.56 59.52"/>
      <polygon class="cls-4" points="585.56 65.89 583.83 65.89 583.83 59.52 585.56 59.52 585.56 61.85 590.04 61.85 590.04 60.39 591.77 60.39 591.77 65.05 590.04 65.05 590.04 63.59 585.56 63.59 585.56 65.89"/>
      <polygon class="cls-4" points="585.56 72.26 583.83 72.26 583.83 65.89 585.56 65.89 585.56 68.22 590.04 68.22 590.04 66.76 591.77 66.76 591.77 71.42 590.04 71.42 590.04 69.96 585.56 69.96 585.56 72.26"/>
      <polygon class="cls-4" points="585.56 78.63 583.83 78.63 583.83 72.26 585.56 72.26 585.56 74.59 590.04 74.59 590.04 73.13 591.77 73.13 591.77 77.79 590.04 77.79 590.04 76.33 585.56 76.33 585.56 78.63"/>
      <polygon class="cls-4" points="585.56 85 583.83 85 583.83 78.63 585.56 78.63 585.56 80.96 590.04 80.96 590.04 79.5 591.77 79.5 591.77 84.16 590.04 84.16 590.04 82.7 585.56 82.7 585.56 85"/>
      <polygon class="cls-4" points="585.56 91.37 583.83 91.37 583.83 85 585.56 85 585.56 87.33 590.04 87.33 590.04 85.87 591.77 85.87 591.77 90.53 590.04 90.53 590.04 89.07 585.56 89.07 585.56 91.37"/>
      <polygon class="cls-4" points="585.56 97.75 583.83 97.75 583.83 91.37 585.56 91.37 585.56 93.7 590.04 93.7 590.04 92.24 591.77 92.24 591.77 96.9 590.04 96.9 590.04 95.44 585.56 95.44 585.56 97.75"/>
      <polygon class="cls-4" points="585.56 104.12 583.83 104.12 583.83 97.75 585.56 97.75 585.56 100.07 590.04 100.07 590.04 98.61 591.77 98.61 591.77 103.27 590.04 103.27 590.04 101.81 585.56 101.81 585.56 104.12"/>
      <polygon class="cls-4" points="585.56 110.49 583.83 110.49 583.83 104.12 585.56 104.12 585.56 106.44 590.04 106.44 590.04 104.98 591.77 104.98 591.77 109.64 590.04 109.64 590.04 108.18 585.56 108.18 585.56 110.49"/>
      <polygon class="cls-4" points="585.56 116.86 583.83 116.86 583.83 110.49 585.56 110.49 585.56 112.81 590.04 112.81 590.04 111.35 591.77 111.35 591.77 116.01 590.04 116.01 590.04 114.55 585.56 114.55 585.56 116.86"/>
      <polygon class="cls-4" points="585.56 123.23 583.83 123.23 583.83 116.86 585.56 116.86 585.56 119.18 590.04 119.18 590.04 117.72 591.77 117.72 591.77 122.38 590.04 122.38 590.04 120.92 585.56 120.92 585.56 123.23"/>
      <polygon class="cls-4" points="585.56 129.6 583.83 129.6 583.83 123.23 585.56 123.23 585.56 125.55 590.04 125.55 590.04 124.09 591.77 124.09 591.77 128.75 590.04 128.75 590.04 127.29 585.56 127.29 585.56 129.6"/>
      <polygon class="cls-4" points="585.56 135.97 583.83 135.97 583.83 129.6 585.56 129.6 585.56 131.92 590.04 131.92 590.04 130.46 591.77 130.46 591.77 135.12 590.04 135.12 590.04 133.66 585.56 133.66 585.56 135.97"/>
      <polygon class="cls-4" points="585.56 142.34 583.83 142.34 583.83 135.97 585.56 135.97 585.56 138.29 590.04 138.29 590.04 136.83 591.77 136.83 591.77 141.49 590.04 141.49 590.04 140.03 585.56 140.03 585.56 142.34"/>
      <polygon class="cls-4" points="585.56 148.71 583.83 148.71 583.83 142.34 585.56 142.34 585.56 144.66 590.04 144.66 590.04 143.2 591.77 143.2 591.77 147.86 590.04 147.86 590.04 146.4 585.56 146.4 585.56 148.71"/>
      <polygon class="cls-4" points="585.56 155.08 583.83 155.08 583.83 148.71 585.56 148.71 585.56 151.03 590.04 151.03 590.04 149.57 591.77 149.57 591.77 154.23 590.04 154.23 590.04 152.77 585.56 152.77 585.56 155.08"/>
      <polygon class="cls-4" points="585.56 161.45 583.83 161.45 583.83 155.08 585.56 155.08 585.56 157.4 590.04 157.4 590.04 155.94 591.77 155.94 591.77 160.6 590.04 160.6 590.04 159.15 585.56 159.15 585.56 161.45"/>
      <polygon class="cls-4" points="585.56 167.82 583.83 167.82 583.83 161.45 585.56 161.45 585.56 163.77 590.04 163.77 590.04 162.31 591.77 162.31 591.77 166.97 590.04 166.97 590.04 165.52 585.56 165.52 585.56 167.82"/>
      <polygon class="cls-4" points="585.56 174.19 583.83 174.19 583.83 167.82 585.56 167.82 585.56 170.14 590.04 170.14 590.04 168.69 591.77 168.69 591.77 173.34 590.04 173.34 590.04 171.89 585.56 171.89 585.56 174.19"/>
      <polygon class="cls-4" points="585.56 180.56 583.83 180.56 583.83 174.19 585.56 174.19 585.56 176.51 590.04 176.51 590.04 175.06 591.77 175.06 591.77 179.71 590.04 179.71 590.04 178.26 585.56 178.26 585.56 180.56"/>
      <polygon class="cls-4" points="585.56 186.93 583.83 186.93 583.83 180.56 585.56 180.56 585.56 182.88 590.04 182.88 590.04 181.43 591.77 181.43 591.77 186.08 590.04 186.08 590.04 184.63 585.56 184.63 585.56 186.93"/>
      <polygon class="cls-4" points="585.56 193.3 583.83 193.3 583.83 186.93 585.56 186.93 585.56 189.25 590.04 189.25 590.04 187.8 591.77 187.8 591.77 192.46 590.04 192.46 590.04 191 585.56 191 585.56 193.3"/>
      <polygon class="cls-4" points="585.56 199.67 583.83 199.67 583.83 193.3 585.56 193.3 585.56 195.62 590.04 195.62 590.04 194.17 591.77 194.17 591.77 198.83 590.04 198.83 590.04 197.37 585.56 197.37 585.56 199.67"/>
      <polygon class="cls-4" points="585.56 206.04 583.83 206.04 583.83 199.67 585.56 199.67 585.56 202 590.04 202 590.04 200.54 591.77 200.54 591.77 205.2 590.04 205.2 590.04 203.74 585.56 203.74 585.56 206.04"/>
      <polygon class="cls-4" points="585.56 212.41 583.83 212.41 583.83 206.04 585.56 206.04 585.56 208.37 590.04 208.37 590.04 206.91 591.77 206.91 591.77 211.57 590.04 211.57 590.04 210.11 585.56 210.11 585.56 212.41"/>
      <polygon class="cls-4" points="585.56 218.78 583.83 218.78 583.83 212.41 585.56 212.41 585.56 214.74 590.04 214.74 590.04 213.28 591.77 213.28 591.77 217.94 590.04 217.94 590.04 216.48 585.56 216.48 585.56 218.78"/>
      <polygon class="cls-4" points="585.56 225.15 583.83 225.15 583.83 218.78 585.56 218.78 585.56 221.11 590.04 221.11 590.04 219.65 591.77 219.65 591.77 224.31 590.04 224.31 590.04 222.85 585.56 222.85 585.56 225.15"/>
      <polygon class="cls-4" points="585.56 231.52 583.83 231.52 583.83 225.15 585.56 225.15 585.56 227.48 590.04 227.48 590.04 226.02 591.77 226.02 591.77 230.68 590.04 230.68 590.04 229.22 585.56 229.22 585.56 231.52"/>
      <polygon class="cls-4" points="585.56 237.89 583.83 237.89 583.83 231.52 585.56 231.52 585.56 233.85 590.04 233.85 590.04 232.39 591.77 232.39 591.77 237.05 590.04 237.05 590.04 235.59 585.56 235.59 585.56 237.89"/>
      <polygon class="cls-4" points="585.56 244.27 583.83 244.27 583.83 237.89 585.56 237.89 585.56 240.22 590.04 240.22 590.04 238.76 591.77 238.76 591.77 243.42 590.04 243.42 590.04 241.96 585.56 241.96 585.56 244.27"/>
      <polygon class="cls-4" points="585.56 250.64 583.83 250.64 583.83 244.27 585.56 244.27 585.56 246.59 590.04 246.59 590.04 245.13 591.77 245.13 591.77 249.79 590.04 249.79 590.04 248.33 585.56 248.33 585.56 250.64"/>
      <polygon class="cls-4" points="585.56 257.01 583.83 257.01 583.83 250.64 585.56 250.64 585.56 252.96 590.04 252.96 590.04 251.5 591.77 251.5 591.77 256.16 590.04 256.16 590.04 254.7 585.56 254.7 585.56 257.01"/>
      <polygon class="cls-4" points="585.56 263.38 583.83 263.38 583.83 257.01 585.56 257.01 585.56 259.33 590.04 259.33 590.04 257.87 591.77 257.87 591.77 262.53 590.04 262.53 590.04 261.07 585.56 261.07 585.56 263.38"/>
      <polygon class="cls-4" points="585.56 269.75 583.83 269.75 583.83 263.38 585.56 263.38 585.56 265.7 590.04 265.7 590.04 264.24 591.77 264.24 591.77 268.9 590.04 268.9 590.04 267.44 585.56 267.44 585.56 269.75"/>
      <polygon class="cls-4" points="585.56 276.12 583.83 276.12 583.83 269.75 585.56 269.75 585.56 272.07 590.04 272.07 590.04 270.61 591.77 270.61 591.77 275.27 590.04 275.27 590.04 273.81 585.56 273.81 585.56 276.12"/>
      <polygon class="cls-4" points="585.56 282.49 583.83 282.49 583.83 276.12 585.56 276.12 585.56 278.44 590.04 278.44 590.04 276.98 591.77 276.98 591.77 281.64 590.04 281.64 590.04 280.18 585.56 280.18 585.56 282.49"/>
      <polygon class="cls-4" points="577.51 284.22 577.51 282.49 583.83 282.49 583.83 284.22 581.52 284.22 581.52 288.69 582.97 288.69 582.97 290.43 578.35 290.43 578.35 288.69 579.79 288.69 579.79 284.22 577.51 284.22"/>
      <polygon class="cls-4" points="571.19 284.22 571.19 282.49 577.51 282.49 577.51 284.22 575.2 284.22 575.2 288.69 576.65 288.69 576.65 290.43 572.03 290.43 572.03 288.69 573.47 288.69 573.47 284.22 571.19 284.22"/>
      <polygon class="cls-4" points="564.87 284.22 564.87 282.49 571.19 282.49 571.19 284.22 568.88 284.22 568.88 288.69 570.33 288.69 570.33 290.43 565.71 290.43 565.71 288.69 567.15 288.69 567.15 284.22 564.87 284.22"/>
      <polygon class="cls-4" points="558.55 284.22 558.55 282.49 564.87 282.49 564.87 284.22 562.56 284.22 562.56 288.69 564.01 288.69 564.01 290.43 559.39 290.43 559.39 288.69 560.83 288.69 560.83 284.22 558.55 284.22"/>
      <polygon class="cls-4" points="552.23 284.22 552.23 282.49 558.55 282.49 558.55 284.22 556.24 284.22 556.24 288.69 557.69 288.69 557.69 290.43 553.07 290.43 553.07 288.69 554.51 288.69 554.51 284.22 552.23 284.22"/>
      <polygon class="cls-4" points="545.91 284.22 545.91 282.49 552.23 282.49 552.23 284.22 549.92 284.22 549.92 288.69 551.37 288.69 551.37 290.43 546.75 290.43 546.75 288.69 548.19 288.69 548.19 284.22 545.91 284.22"/>
      <polygon class="cls-4" points="539.59 284.22 539.59 282.49 545.91 282.49 545.91 284.22 543.6 284.22 543.6 288.69 545.05 288.69 545.05 290.43 540.43 290.43 540.43 288.69 541.87 288.69 541.87 284.22 539.59 284.22"/>
      <polygon class="cls-4" points="533.27 284.22 533.27 282.49 539.59 282.49 539.59 284.22 537.28 284.22 537.28 288.69 538.73 288.69 538.73 290.43 534.11 290.43 534.11 288.69 535.55 288.69 535.55 284.22 533.27 284.22"/>
      <polygon class="cls-4" points="526.95 284.22 526.95 282.49 533.27 282.49 533.27 284.22 530.96 284.22 530.96 288.69 532.41 288.69 532.41 290.43 527.79 290.43 527.79 288.69 529.23 288.69 529.23 284.22 526.95 284.22"/>
      <polygon class="cls-4" points="520.63 284.22 520.63 282.49 526.95 282.49 526.95 284.22 524.64 284.22 524.64 288.69 526.09 288.69 526.09 290.43 521.47 290.43 521.47 288.69 522.91 288.69 522.91 284.22 520.63 284.22"/>
      <polygon class="cls-4" points="514.31 284.22 514.31 282.49 520.63 282.49 520.63 284.22 518.32 284.22 518.32 288.69 519.77 288.69 519.77 290.43 515.15 290.43 515.15 288.69 516.59 288.69 516.59 284.22 514.31 284.22"/>
      <polygon class="cls-4" points="507.99 284.22 507.99 282.49 514.31 282.49 514.31 284.22 512 284.22 512 288.69 513.45 288.69 513.45 290.43 508.83 290.43 508.83 288.69 510.27 288.69 510.27 284.22 507.99 284.22"/>
      <polygon class="cls-4" points="501.67 284.22 501.67 282.49 507.99 282.49 507.99 284.22 505.68 284.22 505.68 288.69 507.13 288.69 507.13 290.43 502.51 290.43 502.51 288.69 503.95 288.69 503.95 284.22 501.67 284.22"/>
      <polygon class="cls-4" points="495.35 284.22 495.35 282.49 501.67 282.49 501.67 284.22 499.36 284.22 499.36 288.69 500.81 288.69 500.81 290.43 496.19 290.43 496.19 288.69 497.63 288.69 497.63 284.22 495.35 284.22"/>
      <polygon class="cls-4" points="489.03 284.22 489.03 282.49 495.35 282.49 495.35 284.22 493.04 284.22 493.04 288.69 494.49 288.69 494.49 290.43 489.87 290.43 489.87 288.69 491.31 288.69 491.31 284.22 489.03 284.22"/>
      <polygon class="cls-4" points="482.71 284.22 482.71 282.49 489.03 282.49 489.03 284.22 486.72 284.22 486.72 288.69 488.17 288.69 488.17 290.43 483.55 290.43 483.55 288.69 484.99 288.69 484.99 284.22 482.71 284.22"/>
      <polygon class="cls-4" points="476.39 284.22 476.39 282.49 482.71 282.49 482.71 284.22 480.4 284.22 480.4 288.69 481.85 288.69 481.85 290.43 477.23 290.43 477.23 288.69 478.67 288.69 478.67 284.22 476.39 284.22"/>
      <polygon class="cls-4" points="470.07 284.22 470.07 282.49 476.39 282.49 476.39 284.22 474.08 284.22 474.08 288.69 475.53 288.69 475.53 290.43 470.91 290.43 470.91 288.69 472.35 288.69 472.35 284.22 470.07 284.22"/>
      <polygon class="cls-4" points="463.75 284.22 463.75 282.49 470.07 282.49 470.07 284.22 467.76 284.22 467.76 288.69 469.21 288.69 469.21 290.43 464.59 290.43 464.59 288.69 466.03 288.69 466.03 284.22 463.75 284.22"/>
      <polygon class="cls-4" points="457.43 284.22 457.43 282.49 463.75 282.49 463.75 284.22 461.44 284.22 461.44 288.69 462.89 288.69 462.89 290.43 458.27 290.43 458.27 288.69 459.71 288.69 459.71 284.22 457.43 284.22"/>
      <polygon class="cls-4" points="451.11 284.22 451.11 282.49 457.43 282.49 457.43 284.22 455.12 284.22 455.12 288.69 456.57 288.69 456.57 290.43 451.95 290.43 451.95 288.69 453.39 288.69 453.39 284.22 451.11 284.22"/>
      <polygon class="cls-4" points="444.79 284.22 444.79 282.49 451.11 282.49 451.11 284.22 448.8 284.22 448.8 288.69 450.25 288.69 450.25 290.43 445.63 290.43 445.63 288.69 447.07 288.69 447.07 284.22 444.79 284.22"/>
      <polygon class="cls-4" points="438.47 284.22 438.47 282.49 444.79 282.49 444.79 284.22 442.48 284.22 442.48 288.69 443.93 288.69 443.93 290.43 439.31 290.43 439.31 288.69 440.75 288.69 440.75 284.22 438.47 284.22"/>
      <polygon class="cls-4" points="432.15 284.22 432.15 282.49 438.47 282.49 438.47 284.22 436.16 284.22 436.16 288.69 437.61 288.69 437.61 290.43 432.99 290.43 432.99 288.69 434.43 288.69 434.43 284.22 432.15 284.22"/>
      <polygon class="cls-4" points="425.83 284.22 425.83 282.49 432.15 282.49 432.15 284.22 429.84 284.22 429.84 288.69 431.29 288.69 431.29 290.43 426.67 290.43 426.67 288.69 428.11 288.69 428.11 284.22 425.83 284.22"/>
      <polygon class="cls-4" points="419.51 284.22 419.51 282.49 425.83 282.49 425.83 284.22 423.52 284.22 423.52 288.69 424.97 288.69 424.97 290.43 420.35 290.43 420.35 288.69 421.79 288.69 421.79 284.22 419.51 284.22"/>
      <polygon class="cls-4" points="413.19 284.22 413.19 282.49 419.51 282.49 419.51 284.22 417.2 284.22 417.2 288.69 418.65 288.69 418.65 290.43 414.03 290.43 414.03 288.69 415.47 288.69 415.47 284.22 413.19 284.22"/>
      <polygon class="cls-4" points="406.87 284.22 406.87 282.49 413.19 282.49 413.19 284.22 410.88 284.22 410.88 288.69 412.33 288.69 412.33 290.43 407.71 290.43 407.71 288.69 409.15 288.69 409.15 284.22 406.87 284.22"/>
      <polygon class="cls-4" points="400.55 284.22 400.55 282.49 406.87 282.49 406.87 284.22 404.56 284.22 404.56 288.69 406.01 288.69 406.01 290.43 401.39 290.43 401.39 288.69 402.83 288.69 402.83 284.22 400.55 284.22"/>
      <polygon class="cls-4" points="394.23 284.22 394.23 282.49 400.55 282.49 400.55 284.22 398.24 284.22 398.24 288.69 399.69 288.69 399.69 290.43 395.07 290.43 395.07 288.69 396.51 288.69 396.51 284.22 394.23 284.22"/>
      <polygon class="cls-4" points="387.91 284.22 387.91 282.49 394.23 282.49 394.23 284.22 391.92 284.22 391.92 288.69 393.37 288.69 393.37 290.43 388.75 290.43 388.75 288.69 390.19 288.69 390.19 284.22 387.91 284.22"/>
      <polygon class="cls-4" points="381.59 284.22 381.59 282.49 387.91 282.49 387.91 284.22 385.6 284.22 385.6 288.69 387.05 288.69 387.05 290.43 382.43 290.43 382.43 288.69 383.87 288.69 383.87 284.22 381.59 284.22"/>
      <polygon class="cls-4" points="375.27 284.22 375.27 282.49 381.59 282.49 381.59 284.22 379.28 284.22 379.28 288.69 380.73 288.69 380.73 290.43 376.11 290.43 376.11 288.69 377.55 288.69 377.55 284.22 375.27 284.22"/>
      <polygon class="cls-4" points="368.95 284.22 368.95 282.49 375.27 282.49 375.27 284.22 372.96 284.22 372.96 288.69 374.41 288.69 374.41 290.43 369.79 290.43 369.79 288.69 371.23 288.69 371.23 284.22 368.95 284.22"/>
      <polygon class="cls-4" points="362.63 284.22 362.63 282.49 368.95 282.49 368.95 284.22 366.64 284.22 366.64 288.69 368.09 288.69 368.09 290.43 363.47 290.43 363.47 288.69 364.91 288.69 364.91 284.22 362.63 284.22"/>
      <polygon class="cls-4" points="356.31 284.22 356.31 282.49 362.63 282.49 362.63 284.22 360.32 284.22 360.32 288.69 361.77 288.69 361.77 290.43 357.15 290.43 357.15 288.69 358.59 288.69 358.59 284.22 356.31 284.22"/>
      <polygon class="cls-4" points="349.99 284.22 349.99 282.49 356.31 282.49 356.31 284.22 354 284.22 354 288.69 355.45 288.69 355.45 290.43 350.83 290.43 350.83 288.69 352.27 288.69 352.27 284.22 349.99 284.22"/>
      <polygon class="cls-4" points="343.67 284.22 343.67 282.49 349.99 282.49 349.99 284.22 347.68 284.22 347.68 288.69 349.13 288.69 349.13 290.43 344.51 290.43 344.51 288.69 345.95 288.69 345.95 284.22 343.67 284.22"/>
      <polygon class="cls-4" points="337.35 284.22 337.35 282.49 343.67 282.49 343.67 284.22 341.36 284.22 341.36 288.69 342.81 288.69 342.81 290.43 338.19 290.43 338.19 288.69 339.63 288.69 339.63 284.22 337.35 284.22"/>
      <polygon class="cls-4" points="331.03 284.22 331.03 282.49 337.35 282.49 337.35 284.22 335.04 284.22 335.04 288.69 336.49 288.69 336.49 290.43 331.87 290.43 331.87 288.69 333.31 288.69 333.31 284.22 331.03 284.22"/>
      <polygon class="cls-4" points="324.71 284.22 324.71 282.49 331.03 282.49 331.03 284.22 328.72 284.22 328.72 288.69 330.17 288.69 330.17 290.43 325.55 290.43 325.55 288.69 326.99 288.69 326.99 284.22 324.71 284.22"/>
      <polygon class="cls-4" points="318.39 284.22 318.39 282.49 324.71 282.49 324.71 284.22 322.4 284.22 322.4 288.69 323.85 288.69 323.85 290.43 319.23 290.43 319.23 288.69 320.67 288.69 320.67 284.22 318.39 284.22"/>
      <polygon class="cls-4" points="312.07 284.22 312.07 282.49 318.39 282.49 318.39 284.22 316.08 284.22 316.08 288.69 317.53 288.69 317.53 290.43 312.91 290.43 312.91 288.69 314.35 288.69 314.35 284.22 312.07 284.22"/>
      <polygon class="cls-4" points="305.75 284.22 305.75 282.49 312.07 282.49 312.07 284.22 309.76 284.22 309.76 288.69 311.21 288.69 311.21 290.43 306.59 290.43 306.59 288.69 308.03 288.69 308.03 284.22 305.75 284.22"/>
      <polygon class="cls-4" points="299.43 284.22 299.43 282.49 305.75 282.49 305.75 284.22 303.44 284.22 303.44 288.69 304.89 288.69 304.89 290.43 300.27 290.43 300.27 288.69 301.71 288.69 301.71 284.22 299.43 284.22"/>
      <polygon class="cls-4" points="293.11 284.22 293.11 282.49 299.43 282.49 299.43 284.22 297.12 284.22 297.12 288.69 298.57 288.69 298.57 290.43 293.95 290.43 293.95 288.69 295.39 288.69 295.39 284.22 293.11 284.22"/>
      <polygon class="cls-4" points="286.79 284.22 286.79 282.49 293.11 282.49 293.11 284.22 290.8 284.22 290.8 288.69 292.25 288.69 292.25 290.43 287.63 290.43 287.63 288.69 289.07 288.69 289.07 284.22 286.79 284.22"/>
      <polygon class="cls-4" points="280.47 284.22 280.47 282.49 286.79 282.49 286.79 284.22 284.48 284.22 284.48 288.69 285.93 288.69 285.93 290.43 281.31 290.43 281.31 288.69 282.75 288.69 282.75 284.22 280.47 284.22"/>
      <polygon class="cls-4" points="274.15 284.22 274.15 282.49 280.47 282.49 280.47 284.22 278.16 284.22 278.16 288.69 279.61 288.69 279.61 290.43 274.99 290.43 274.99 288.69 276.43 288.69 276.43 284.22 274.15 284.22"/>
      <polygon class="cls-4" points="267.83 284.22 267.83 282.49 274.15 282.49 274.15 284.22 271.84 284.22 271.84 288.69 273.29 288.69 273.29 290.43 268.67 290.43 268.67 288.69 270.11 288.69 270.11 284.22 267.83 284.22"/>
      <polygon class="cls-4" points="261.51 284.22 261.51 282.49 267.83 282.49 267.83 284.22 265.52 284.22 265.52 288.69 266.97 288.69 266.97 290.43 262.35 290.43 262.35 288.69 263.79 288.69 263.79 284.22 261.51 284.22"/>
      <polygon class="cls-4" points="255.19 284.22 255.19 282.49 261.51 282.49 261.51 284.22 259.2 284.22 259.2 288.69 260.65 288.69 260.65 290.43 256.03 290.43 256.03 288.69 257.47 288.69 257.47 284.22 255.19 284.22"/>
      <polygon class="cls-4" points="248.87 284.22 248.87 282.49 255.19 282.49 255.19 284.22 252.88 284.22 252.88 288.69 254.33 288.69 254.33 290.43 249.71 290.43 249.71 288.69 251.15 288.69 251.15 284.22 248.87 284.22"/>
      <polygon class="cls-4" points="242.55 284.22 242.55 282.49 248.87 282.49 248.87 284.22 246.56 284.22 246.56 288.69 248.01 288.69 248.01 290.43 243.39 290.43 243.39 288.69 244.83 288.69 244.83 284.22 242.55 284.22"/>
      <polygon class="cls-4" points="236.23 284.22 236.23 282.49 242.55 282.49 242.55 284.22 240.24 284.22 240.24 288.69 241.69 288.69 241.69 290.43 237.07 290.43 237.07 288.69 238.51 288.69 238.51 284.22 236.23 284.22"/>
      <polygon class="cls-4" points="229.91 284.22 229.91 282.49 236.23 282.49 236.23 284.22 233.92 284.22 233.92 288.69 235.37 288.69 235.37 290.43 230.75 290.43 230.75 288.69 232.19 288.69 232.19 284.22 229.91 284.22"/>
      <polygon class="cls-4" points="223.59 284.22 223.59 282.49 229.91 282.49 229.91 284.22 227.6 284.22 227.6 288.69 229.05 288.69 229.05 290.43 224.43 290.43 224.43 288.69 225.87 288.69 225.87 284.22 223.59 284.22"/>
      <polygon class="cls-4" points="217.27 284.22 217.27 282.49 223.59 282.49 223.59 284.22 221.28 284.22 221.28 288.69 222.73 288.69 222.73 290.43 218.11 290.43 218.11 288.69 219.55 288.69 219.55 284.22 217.27 284.22"/>
      <polygon class="cls-4" points="210.95 284.22 210.95 282.49 217.27 282.49 217.27 284.22 214.96 284.22 214.96 288.69 216.41 288.69 216.41 290.43 211.79 290.43 211.79 288.69 213.23 288.69 213.23 284.22 210.95 284.22"/>
      <polygon class="cls-4" points="204.63 284.22 204.63 282.49 210.95 282.49 210.95 284.22 208.64 284.22 208.64 288.69 210.09 288.69 210.09 290.43 205.47 290.43 205.47 288.69 206.91 288.69 206.91 284.22 204.63 284.22"/>
      <polygon class="cls-4" points="198.31 284.22 198.31 282.49 204.63 282.49 204.63 284.22 202.32 284.22 202.32 288.69 203.77 288.69 203.77 290.43 199.15 290.43 199.15 288.69 200.59 288.69 200.59 284.22 198.31 284.22"/>
      <polygon class="cls-4" points="191.99 284.22 191.99 282.49 198.31 282.49 198.31 284.22 196 284.22 196 288.69 197.45 288.69 197.45 290.43 192.83 290.43 192.83 288.69 194.27 288.69 194.27 284.22 191.99 284.22"/>
      <polygon class="cls-4" points="185.67 284.22 185.67 282.49 191.99 282.49 191.99 284.22 189.68 284.22 189.68 288.69 191.13 288.69 191.13 290.43 186.51 290.43 186.51 288.69 187.95 288.69 187.95 284.22 185.67 284.22"/>
      <polygon class="cls-4" points="179.35 284.22 179.35 282.49 185.67 282.49 185.67 284.22 183.36 284.22 183.36 288.69 184.81 288.69 184.81 290.43 180.19 290.43 180.19 288.69 181.63 288.69 181.63 284.22 179.35 284.22"/>
      <polygon class="cls-4" points="173.03 284.22 173.03 282.49 179.35 282.49 179.35 284.22 177.04 284.22 177.04 288.69 178.49 288.69 178.49 290.43 173.87 290.43 173.87 288.69 175.31 288.69 175.31 284.22 173.03 284.22"/>
      <polygon class="cls-4" points="166.71 284.22 166.71 282.49 173.03 282.49 173.03 284.22 170.72 284.22 170.72 288.69 172.17 288.69 172.17 290.43 167.55 290.43 167.55 288.69 168.99 288.69 168.99 284.22 166.71 284.22"/>
      <polygon class="cls-4" points="160.39 284.22 160.39 282.49 166.71 282.49 166.71 284.22 164.4 284.22 164.4 288.69 165.85 288.69 165.85 290.43 161.23 290.43 161.23 288.69 162.67 288.69 162.67 284.22 160.39 284.22"/>
      <polygon class="cls-4" points="154.07 284.22 154.07 282.49 160.39 282.49 160.39 284.22 158.08 284.22 158.08 288.69 159.53 288.69 159.53 290.43 154.91 290.43 154.91 288.69 156.35 288.69 156.35 284.22 154.07 284.22"/>
      <polygon class="cls-4" points="147.75 284.22 147.75 282.49 154.07 282.49 154.07 284.22 151.76 284.22 151.76 288.69 153.21 288.69 153.21 290.43 148.59 290.43 148.59 288.69 150.03 288.69 150.03 284.22 147.75 284.22"/>
      <polygon class="cls-4" points="141.43 284.22 141.43 282.49 147.75 282.49 147.75 284.22 145.44 284.22 145.44 288.69 146.89 288.69 146.89 290.43 142.27 290.43 142.27 288.69 143.71 288.69 143.71 284.22 141.43 284.22"/>
      <polygon class="cls-4" points="135.11 284.22 135.11 282.49 141.43 282.49 141.43 284.22 139.12 284.22 139.12 288.69 140.57 288.69 140.57 290.43 135.95 290.43 135.95 288.69 137.39 288.69 137.39 284.22 135.11 284.22"/>
      <polygon class="cls-4" points="128.79 284.22 128.79 282.49 135.11 282.49 135.11 284.22 132.8 284.22 132.8 288.69 134.25 288.69 134.25 290.43 129.63 290.43 129.63 288.69 131.07 288.69 131.07 284.22 128.79 284.22"/>
      <polygon class="cls-4" points="122.47 284.22 122.47 282.49 128.79 282.49 128.79 284.22 126.48 284.22 126.48 288.69 127.93 288.69 127.93 290.43 123.31 290.43 123.31 288.69 124.75 288.69 124.75 284.22 122.47 284.22"/>
      <polygon class="cls-4" points="116.15 284.22 116.15 282.49 122.47 282.49 122.47 284.22 120.16 284.22 120.16 288.69 121.61 288.69 121.61 290.43 116.99 290.43 116.99 288.69 118.43 288.69 118.43 284.22 116.15 284.22"/>
      <polygon class="cls-4" points="109.83 284.22 109.83 282.49 116.15 282.49 116.15 284.22 113.84 284.22 113.84 288.69 115.29 288.69 115.29 290.43 110.67 290.43 110.67 288.69 112.11 288.69 112.11 284.22 109.83 284.22"/>
      <polygon class="cls-4" points="103.51 284.22 103.51 282.49 109.83 282.49 109.83 284.22 107.52 284.22 107.52 288.69 108.97 288.69 108.97 290.43 104.35 290.43 104.35 288.69 105.79 288.69 105.79 284.22 103.51 284.22"/>
      <polygon class="cls-4" points="97.19 284.22 97.19 282.49 103.51 282.49 103.51 284.22 101.2 284.22 101.2 288.69 102.65 288.69 102.65 290.43 98.03 290.43 98.03 288.69 99.47 288.69 99.47 284.22 97.19 284.22"/>
      <polygon class="cls-4" points="90.87 284.22 90.87 282.49 97.19 282.49 97.19 284.22 94.88 284.22 94.88 288.69 96.33 288.69 96.33 290.43 91.71 290.43 91.71 288.69 93.15 288.69 93.15 284.22 90.87 284.22"/>
      <polygon class="cls-4" points="84.55 284.22 84.55 282.49 90.87 282.49 90.87 284.22 88.56 284.22 88.56 288.69 90.01 288.69 90.01 290.43 85.39 290.43 85.39 288.69 86.83 288.69 86.83 284.22 84.55 284.22"/>
      <polygon class="cls-4" points="78.23 284.22 78.23 282.49 84.55 282.49 84.55 284.22 82.24 284.22 82.24 288.69 83.69 288.69 83.69 290.43 79.07 290.43 79.07 288.69 80.51 288.69 80.51 284.22 78.23 284.22"/>
      <polygon class="cls-4" points="71.91 284.22 71.91 282.49 78.23 282.49 78.23 284.22 75.92 284.22 75.92 288.69 77.37 288.69 77.37 290.43 72.75 290.43 72.75 288.69 74.2 288.69 74.2 284.22 71.91 284.22"/>
      <polygon class="cls-4" points="65.59 284.22 65.59 282.49 71.91 282.49 71.91 284.22 69.6 284.22 69.6 288.69 71.05 288.69 71.05 290.43 66.43 290.43 66.43 288.69 67.88 288.69 67.88 284.22 65.59 284.22"/>
      <polygon class="cls-4" points="59.27 284.22 59.27 282.49 65.59 282.49 65.59 284.22 63.28 284.22 63.28 288.69 64.73 288.69 64.73 290.43 60.11 290.43 60.11 288.69 61.56 288.69 61.56 284.22 59.27 284.22"/>
      <polygon class="cls-4" points="52.95 284.22 52.95 282.49 59.27 282.49 59.27 284.22 56.96 284.22 56.96 288.69 58.41 288.69 58.41 290.43 53.79 290.43 53.79 288.69 55.24 288.69 55.24 284.22 52.95 284.22"/>
      <polygon class="cls-4" points="46.63 284.22 46.63 282.49 52.95 282.49 52.95 284.22 50.64 284.22 50.64 288.69 52.09 288.69 52.09 290.43 47.47 290.43 47.47 288.69 48.92 288.69 48.92 284.22 46.63 284.22"/>
      <polygon class="cls-4" points="40.31 284.22 40.31 282.49 46.63 282.49 46.63 284.22 44.32 284.22 44.32 288.69 45.77 288.69 45.77 290.43 41.15 290.43 41.15 288.69 42.6 288.69 42.6 284.22 40.31 284.22"/>
      <polygon class="cls-4" points="33.99 284.22 33.99 282.49 40.31 282.49 40.31 284.22 38 284.22 38 288.69 39.45 288.69 39.45 290.43 34.83 290.43 34.83 288.69 36.28 288.69 36.28 284.22 33.99 284.22"/>
      <polygon class="cls-4" points="27.67 284.22 27.67 282.49 33.99 282.49 33.99 284.22 31.68 284.22 31.68 288.69 33.13 288.69 33.13 290.43 28.51 290.43 28.51 288.69 29.96 288.69 29.96 284.22 27.67 284.22"/>
      <polygon class="cls-4" points="21.35 284.22 21.35 282.49 27.67 282.49 27.67 284.22 25.36 284.22 25.36 288.69 26.81 288.69 26.81 290.43 22.19 290.43 22.19 288.69 23.64 288.69 23.64 284.22 21.35 284.22"/>
      <polygon class="cls-4" points="15.03 284.22 15.03 282.49 21.35 282.49 21.35 284.22 19.04 284.22 19.04 288.69 20.49 288.69 20.49 290.43 15.87 290.43 15.87 288.69 17.32 288.69 17.32 284.22 15.03 284.22"/>
      <polygon class="cls-4" points="8.71 284.22 8.71 282.49 15.03 282.49 15.03 284.22 12.72 284.22 12.72 288.69 14.17 288.69 14.17 290.43 9.55 290.43 9.55 288.69 11 288.69 11 284.22 8.71 284.22"/>
      <g class="cls-8">
        <polygon class="cls-4" points="6.97 .62 8.71 .62 8.71 8.56 6.97 8.56 6.97 5.66 2.5 5.66 2.5 7.48 .76 7.48 .76 1.67 2.5 1.67 2.5 3.49 6.97 3.49 6.97 .62"/>
      </g>
      <g class="cls-6">
        <polygon class="cls-4" points="8.71 6.82 8.71 8.56 .76 8.56 .76 6.82 3.66 6.82 3.66 2.35 1.84 2.35 1.84 .62 7.65 .62 7.65 2.35 5.84 2.35 5.84 6.82 8.71 6.82"/>
      </g>
      <g class="cls-1">
        <polygon class="cls-4" points="591.77 6.82 591.77 8.56 583.83 8.56 583.83 6.82 586.73 6.82 586.73 2.35 584.91 2.35 584.91 .62 590.72 .62 590.72 2.35 588.9 2.35 588.9 6.82 591.77 6.82"/>
      </g>
      <g class="cls-9">
        <polygon class="cls-4" points="585.56 8.56 583.83 8.56 583.83 .62 585.56 .62 585.56 3.51 590.04 3.51 590.04 1.69 591.77 1.69 591.77 7.5 590.04 7.5 590.04 5.69 585.56 5.69 585.56 8.56"/>
      </g>
      <g class="cls-7">
        <polygon class="cls-4" points="585.56 290.43 583.83 290.43 583.83 282.49 585.56 282.49 585.56 285.38 590.04 285.38 590.04 283.57 591.77 283.57 591.77 289.38 590.04 289.38 590.04 287.56 585.56 287.56 585.56 290.43"/>
      </g>
      <g class="cls-10">
        <polygon class="cls-4" points="583.83 284.22 583.83 282.49 591.77 282.49 591.77 284.22 588.87 284.22 588.87 288.69 590.69 288.69 590.69 290.43 584.88 290.43 584.88 288.69 586.7 288.69 586.7 284.22 583.83 284.22"/>
      </g>
      <g class="cls-2">
        <polygon class="cls-4" points=".76 284.22 .76 282.49 8.71 282.49 8.71 284.22 5.81 284.22 5.81 288.69 7.63 288.69 7.63 290.43 1.82 290.43 1.82 288.69 3.64 288.69 3.64 284.22 .76 284.22"/>
      </g>
      <g class="cls-5">
        <polygon class="cls-4" points="6.97 282.49 8.71 282.49 8.71 290.43 6.97 290.43 6.97 287.53 2.5 287.53 2.5 289.35 .76 289.35 .76 283.54 2.5 283.54 2.5 285.36 6.97 285.36 6.97 282.49"/>
      </g>
    </g>
  </g>
</svg>