<?xml version="1.0" encoding="UTF-8"?>
<svg id="Layer_1" data-name="Layer 1" xmlns="http://www.w3.org/2000/svg" version="1.1" xmlns:xlink="http://www.w3.org/1999/xlink" viewBox="0 0 225.41 321.07">
  <defs>
    <style>
      .cls-1 {
        clip-path: url(#clippath-2);
      }

      .cls-2 {
        clip-path: url(#clippath-6);
      }

      .cls-3 {
        fill: #4e4545;
      }

      .cls-3, .cls-4 {
        stroke-width: 0px;
      }

      .cls-4 {
        fill: none;
      }

      .cls-5 {
        clip-path: url(#clippath-7);
      }

      .cls-6 {
        clip-path: url(#clippath-1);
      }

      .cls-7 {
        clip-path: url(#clippath-4);
      }

      .cls-8 {
        clip-path: url(#clippath);
      }

      .cls-9 {
        clip-path: url(#clippath-3);
      }

      .cls-10 {
        clip-path: url(#clippath-5);
      }
    </style>
    <clipPath id="clippath">
      <polygon class="cls-4" points="5.17 5.13 .11 .08 .11 5.13 5.17 5.13"/>
    </clipPath>
    <clipPath id="clippath-1">
      <polygon class="cls-4" points="5.17 5.13 .11 .08 5.17 .08 5.17 5.13"/>
    </clipPath>
    <clipPath id="clippath-2">
      <polygon class="cls-4" points="220.29 5.13 225.34 .08 220.29 .08 220.29 5.13"/>
    </clipPath>
    <clipPath id="clippath-3">
      <polygon class="cls-4" points="220.29 5.13 225.34 .08 225.34 5.13 220.29 5.13"/>
    </clipPath>
    <clipPath id="clippath-4">
      <polygon class="cls-4" points="220.29 315.99 225.34 321.05 225.34 315.99 220.29 315.99"/>
    </clipPath>
    <clipPath id="clippath-5">
      <polygon class="cls-4" points="220.29 315.99 225.34 321.05 220.29 321.05 220.29 315.99"/>
    </clipPath>
    <clipPath id="clippath-6">
      <polygon class="cls-4" points="5.17 315.99 .11 321.05 5.17 321.05 5.17 315.99"/>
    </clipPath>
    <clipPath id="clippath-7">
      <polygon class="cls-4" points="5.17 315.99 .11 321.05 .11 315.99 5.17 315.99"/>
    </clipPath>
  </defs>
  <rect class="cls-3" x="2.64" y="2.6" width="220.17" height="315.91"/>
  <g>
    <polygon class="cls-3" points="4.22 312.54 5.17 312.54 5.17 315.99 4.22 315.99 4.22 314.73 1.06 314.73 1.06 315.52 .11 315.52 .11 313 1.06 313 1.06 313.79 4.22 313.79 4.22 312.54"/>
    <polygon class="cls-3" points="4.22 309.08 5.17 309.08 5.17 312.54 4.22 312.54 4.22 311.28 1.06 311.28 1.06 312.07 .11 312.07 .11 309.54 1.06 309.54 1.06 310.33 4.22 310.33 4.22 309.08"/>
    <polygon class="cls-3" points="4.22 305.63 5.17 305.63 5.17 309.08 4.22 309.08 4.22 307.82 1.06 307.82 1.06 308.61 .11 308.61 .11 306.09 1.06 306.09 1.06 306.88 4.22 306.88 4.22 305.63"/>
    <polygon class="cls-3" points="4.22 302.18 5.17 302.18 5.17 305.63 4.22 305.63 4.22 304.37 1.06 304.37 1.06 305.16 .11 305.16 .11 302.63 1.06 302.63 1.06 303.42 4.22 303.42 4.22 302.18"/>
    <polygon class="cls-3" points="4.22 298.72 5.17 298.72 5.17 302.18 4.22 302.18 4.22 300.92 1.06 300.92 1.06 301.71 .11 301.71 .11 299.18 1.06 299.18 1.06 299.97 4.22 299.97 4.22 298.72"/>
    <polygon class="cls-3" points="4.22 295.27 5.17 295.27 5.17 298.72 4.22 298.72 4.22 297.46 1.06 297.46 1.06 298.25 .11 298.25 .11 295.73 1.06 295.73 1.06 296.52 4.22 296.52 4.22 295.27"/>
    <polygon class="cls-3" points="4.22 291.81 5.17 291.81 5.17 295.27 4.22 295.27 4.22 294.01 1.06 294.01 1.06 294.8 .11 294.8 .11 292.27 1.06 292.27 1.06 293.06 4.22 293.06 4.22 291.81"/>
    <polygon class="cls-3" points="4.22 288.36 5.17 288.36 5.17 291.81 4.22 291.81 4.22 290.55 1.06 290.55 1.06 291.34 .11 291.34 .11 288.82 1.06 288.82 1.06 289.61 4.22 289.61 4.22 288.36"/>
    <polygon class="cls-3" points="4.22 284.91 5.17 284.91 5.17 288.36 4.22 288.36 4.22 287.1 1.06 287.1 1.06 287.89 .11 287.89 .11 285.36 1.06 285.36 1.06 286.15 4.22 286.15 4.22 284.91"/>
    <polygon class="cls-3" points="4.22 281.45 5.17 281.45 5.17 284.91 4.22 284.91 4.22 283.65 1.06 283.65 1.06 284.44 .11 284.44 .11 281.91 1.06 281.91 1.06 282.7 4.22 282.7 4.22 281.45"/>
    <polygon class="cls-3" points="4.22 278 5.17 278 5.17 281.45 4.22 281.45 4.22 280.19 1.06 280.19 1.06 280.98 .11 280.98 .11 278.46 1.06 278.46 1.06 279.25 4.22 279.25 4.22 278"/>
    <polygon class="cls-3" points="4.22 274.54 5.17 274.54 5.17 278 4.22 278 4.22 276.74 1.06 276.74 1.06 277.53 .11 277.53 .11 275 1.06 275 1.06 275.79 4.22 275.79 4.22 274.54"/>
    <polygon class="cls-3" points="4.22 271.09 5.17 271.09 5.17 274.54 4.22 274.54 4.22 273.28 1.06 273.28 1.06 274.07 .11 274.07 .11 271.55 1.06 271.55 1.06 272.34 4.22 272.34 4.22 271.09"/>
    <polygon class="cls-3" points="4.22 267.64 5.17 267.64 5.17 271.09 4.22 271.09 4.22 269.83 1.06 269.83 1.06 270.62 .11 270.62 .11 268.09 1.06 268.09 1.06 268.88 4.22 268.88 4.22 267.64"/>
    <polygon class="cls-3" points="4.22 264.18 5.17 264.18 5.17 267.64 4.22 267.64 4.22 266.38 1.06 266.38 1.06 267.17 .11 267.17 .11 264.64 1.06 264.64 1.06 265.43 4.22 265.43 4.22 264.18"/>
    <polygon class="cls-3" points="4.22 260.73 5.17 260.73 5.17 264.18 4.22 264.18 4.22 262.92 1.06 262.92 1.06 263.71 .11 263.71 .11 261.19 1.06 261.19 1.06 261.98 4.22 261.98 4.22 260.73"/>
    <polygon class="cls-3" points="4.22 257.27 5.17 257.27 5.17 260.73 4.22 260.73 4.22 259.47 1.06 259.47 1.06 260.26 .11 260.26 .11 257.73 1.06 257.73 1.06 258.52 4.22 258.52 4.22 257.27"/>
    <polygon class="cls-3" points="4.22 253.82 5.17 253.82 5.17 257.27 4.22 257.27 4.22 256.01 1.06 256.01 1.06 256.8 .11 256.8 .11 254.28 1.06 254.28 1.06 255.07 4.22 255.07 4.22 253.82"/>
    <polygon class="cls-3" points="4.22 250.37 5.17 250.37 5.17 253.82 4.22 253.82 4.22 252.56 1.06 252.56 1.06 253.35 .11 253.35 .11 250.82 1.06 250.82 1.06 251.61 4.22 251.61 4.22 250.37"/>
    <polygon class="cls-3" points="4.22 246.91 5.17 246.91 5.17 250.37 4.22 250.37 4.22 249.11 1.06 249.11 1.06 249.9 .11 249.9 .11 247.37 1.06 247.37 1.06 248.16 4.22 248.16 4.22 246.91"/>
    <polygon class="cls-3" points="4.22 243.46 5.17 243.46 5.17 246.91 4.22 246.91 4.22 245.65 1.06 245.65 1.06 246.44 .11 246.44 .11 243.92 1.06 243.92 1.06 244.71 4.22 244.71 4.22 243.46"/>
    <polygon class="cls-3" points="4.22 240 5.17 240 5.17 243.46 4.22 243.46 4.22 242.2 1.06 242.2 1.06 242.99 .11 242.99 .11 240.46 1.06 240.46 1.06 241.25 4.22 241.25 4.22 240"/>
    <polygon class="cls-3" points="4.22 236.55 5.17 236.55 5.17 240 4.22 240 4.22 238.74 1.06 238.74 1.06 239.53 .11 239.53 .11 237.01 1.06 237.01 1.06 237.8 4.22 237.8 4.22 236.55"/>
    <polygon class="cls-3" points="4.22 233.1 5.17 233.1 5.17 236.55 4.22 236.55 4.22 235.29 1.06 235.29 1.06 236.08 .11 236.08 .11 233.55 1.06 233.55 1.06 234.34 4.22 234.34 4.22 233.1"/>
    <polygon class="cls-3" points="4.22 229.64 5.17 229.64 5.17 233.1 4.22 233.1 4.22 231.84 1.06 231.84 1.06 232.63 .11 232.63 .11 230.1 1.06 230.1 1.06 230.89 4.22 230.89 4.22 229.64"/>
    <polygon class="cls-3" points="4.22 226.19 5.17 226.19 5.17 229.64 4.22 229.64 4.22 228.38 1.06 228.38 1.06 229.17 .11 229.17 .11 226.65 1.06 226.65 1.06 227.44 4.22 227.44 4.22 226.19"/>
    <polygon class="cls-3" points="4.22 222.73 5.17 222.73 5.17 226.19 4.22 226.19 4.22 224.93 1.06 224.93 1.06 225.72 .11 225.72 .11 223.19 1.06 223.19 1.06 223.98 4.22 223.98 4.22 222.73"/>
    <polygon class="cls-3" points="4.22 219.28 5.17 219.28 5.17 222.73 4.22 222.73 4.22 221.47 1.06 221.47 1.06 222.26 .11 222.26 .11 219.74 1.06 219.74 1.06 220.53 4.22 220.53 4.22 219.28"/>
    <polygon class="cls-3" points="4.22 215.83 5.17 215.83 5.17 219.28 4.22 219.28 4.22 218.02 1.06 218.02 1.06 218.81 .11 218.81 .11 216.28 1.06 216.28 1.06 217.07 4.22 217.07 4.22 215.83"/>
    <polygon class="cls-3" points="4.22 212.37 5.17 212.37 5.17 215.83 4.22 215.83 4.22 214.57 1.06 214.57 1.06 215.36 .11 215.36 .11 212.83 1.06 212.83 1.06 213.62 4.22 213.62 4.22 212.37"/>
    <polygon class="cls-3" points="4.22 208.92 5.17 208.92 5.17 212.37 4.22 212.37 4.22 211.11 1.06 211.11 1.06 211.9 .11 211.9 .11 209.38 1.06 209.38 1.06 210.17 4.22 210.17 4.22 208.92"/>
    <polygon class="cls-3" points="4.22 205.46 5.17 205.46 5.17 208.92 4.22 208.92 4.22 207.66 1.06 207.66 1.06 208.45 .11 208.45 .11 205.92 1.06 205.92 1.06 206.71 4.22 206.71 4.22 205.46"/>
    <polygon class="cls-3" points="4.22 202.01 5.17 202.01 5.17 205.46 4.22 205.46 4.22 204.2 1.06 204.2 1.06 204.99 .11 204.99 .11 202.47 1.06 202.47 1.06 203.26 4.22 203.26 4.22 202.01"/>
    <polygon class="cls-3" points="4.22 198.56 5.17 198.56 5.17 202.01 4.22 202.01 4.22 200.75 1.06 200.75 1.06 201.54 .11 201.54 .11 199.01 1.06 199.01 1.06 199.8 4.22 199.8 4.22 198.56"/>
    <polygon class="cls-3" points="4.22 195.1 5.17 195.1 5.17 198.56 4.22 198.56 4.22 197.3 1.06 197.3 1.06 198.09 .11 198.09 .11 195.56 1.06 195.56 1.06 196.35 4.22 196.35 4.22 195.1"/>
    <polygon class="cls-3" points="4.22 191.65 5.17 191.65 5.17 195.1 4.22 195.1 4.22 193.84 1.06 193.84 1.06 194.63 .11 194.63 .11 192.11 1.06 192.11 1.06 192.9 4.22 192.9 4.22 191.65"/>
    <polygon class="cls-3" points="4.22 188.19 5.17 188.19 5.17 191.65 4.22 191.65 4.22 190.39 1.06 190.39 1.06 191.18 .11 191.18 .11 188.65 1.06 188.65 1.06 189.44 4.22 189.44 4.22 188.19"/>
    <polygon class="cls-3" points="4.22 184.74 5.17 184.74 5.17 188.19 4.22 188.19 4.22 186.93 1.06 186.93 1.06 187.72 .11 187.72 .11 185.2 1.06 185.2 1.06 185.99 4.22 185.99 4.22 184.74"/>
    <polygon class="cls-3" points="4.22 181.29 5.17 181.29 5.17 184.74 4.22 184.74 4.22 183.48 1.06 183.48 1.06 184.27 .11 184.27 .11 181.74 1.06 181.74 1.06 182.53 4.22 182.53 4.22 181.29"/>
    <polygon class="cls-3" points="4.22 177.83 5.17 177.83 5.17 181.29 4.22 181.29 4.22 180.03 1.06 180.03 1.06 180.82 .11 180.82 .11 178.29 1.06 178.29 1.06 179.08 4.22 179.08 4.22 177.83"/>
    <polygon class="cls-3" points="4.22 174.38 5.17 174.38 5.17 177.83 4.22 177.83 4.22 176.57 1.06 176.57 1.06 177.36 .11 177.36 .11 174.84 1.06 174.84 1.06 175.63 4.22 175.63 4.22 174.38"/>
    <polygon class="cls-3" points="4.22 170.92 5.17 170.92 5.17 174.38 4.22 174.38 4.22 173.12 1.06 173.12 1.06 173.91 .11 173.91 .11 171.38 1.06 171.38 1.06 172.17 4.22 172.17 4.22 170.92"/>
    <polygon class="cls-3" points="4.22 167.47 5.17 167.47 5.17 170.92 4.22 170.92 4.22 169.66 1.06 169.66 1.06 170.45 .11 170.45 .11 167.93 1.06 167.93 1.06 168.72 4.22 168.72 4.22 167.47"/>
    <polygon class="cls-3" points="4.22 164.02 5.17 164.02 5.17 167.47 4.22 167.47 4.22 166.21 1.06 166.21 1.06 167 .11 167 .11 164.47 1.06 164.47 1.06 165.26 4.22 165.26 4.22 164.02"/>
    <polygon class="cls-3" points="4.22 160.56 5.17 160.56 5.17 164.02 4.22 164.02 4.22 162.76 1.06 162.76 1.06 163.55 .11 163.55 .11 161.02 1.06 161.02 1.06 161.81 4.22 161.81 4.22 160.56"/>
    <polygon class="cls-3" points="4.22 157.11 5.17 157.11 5.17 160.56 4.22 160.56 4.22 159.3 1.06 159.3 1.06 160.09 .11 160.09 .11 157.57 1.06 157.57 1.06 158.36 4.22 158.36 4.22 157.11"/>
    <polygon class="cls-3" points="4.22 153.65 5.17 153.65 5.17 157.11 4.22 157.11 4.22 155.85 1.06 155.85 1.06 156.64 .11 156.64 .11 154.11 1.06 154.11 1.06 154.9 4.22 154.9 4.22 153.65"/>
    <polygon class="cls-3" points="4.22 150.2 5.17 150.2 5.17 153.65 4.22 153.65 4.22 152.39 1.06 152.39 1.06 153.18 .11 153.18 .11 150.66 1.06 150.66 1.06 151.45 4.22 151.45 4.22 150.2"/>
    <polygon class="cls-3" points="4.22 146.74 5.17 146.74 5.17 150.2 4.22 150.2 4.22 148.94 1.06 148.94 1.06 149.73 .11 149.73 .11 147.2 1.06 147.2 1.06 147.99 4.22 147.99 4.22 146.74"/>
    <polygon class="cls-3" points="4.22 143.29 5.17 143.29 5.17 146.74 4.22 146.74 4.22 145.49 1.06 145.49 1.06 146.28 .11 146.28 .11 143.75 1.06 143.75 1.06 144.54 4.22 144.54 4.22 143.29"/>
    <polygon class="cls-3" points="4.22 139.84 5.17 139.84 5.17 143.29 4.22 143.29 4.22 142.03 1.06 142.03 1.06 142.82 .11 142.82 .11 140.3 1.06 140.3 1.06 141.09 4.22 141.09 4.22 139.84"/>
    <polygon class="cls-3" points="4.22 136.38 5.17 136.38 5.17 139.84 4.22 139.84 4.22 138.58 1.06 138.58 1.06 139.37 .11 139.37 .11 136.84 1.06 136.84 1.06 137.63 4.22 137.63 4.22 136.38"/>
    <polygon class="cls-3" points="4.22 132.93 5.17 132.93 5.17 136.38 4.22 136.38 4.22 135.12 1.06 135.12 1.06 135.91 .11 135.91 .11 133.39 1.06 133.39 1.06 134.18 4.22 134.18 4.22 132.93"/>
    <polygon class="cls-3" points="4.22 129.47 5.17 129.47 5.17 132.93 4.22 132.93 4.22 131.67 1.06 131.67 1.06 132.46 .11 132.46 .11 129.93 1.06 129.93 1.06 130.72 4.22 130.72 4.22 129.47"/>
    <polygon class="cls-3" points="4.22 126.02 5.17 126.02 5.17 129.47 4.22 129.47 4.22 128.22 1.06 128.22 1.06 129.01 .11 129.01 .11 126.48 1.06 126.48 1.06 127.27 4.22 127.27 4.22 126.02"/>
    <polygon class="cls-3" points="4.22 122.57 5.17 122.57 5.17 126.02 4.22 126.02 4.22 124.76 1.06 124.76 1.06 125.55 .11 125.55 .11 123.03 1.06 123.03 1.06 123.82 4.22 123.82 4.22 122.57"/>
    <polygon class="cls-3" points="4.22 119.11 5.17 119.11 5.17 122.57 4.22 122.57 4.22 121.31 1.06 121.31 1.06 122.1 .11 122.1 .11 119.57 1.06 119.57 1.06 120.36 4.22 120.36 4.22 119.11"/>
    <polygon class="cls-3" points="4.22 115.66 5.17 115.66 5.17 119.11 4.22 119.11 4.22 117.85 1.06 117.85 1.06 118.64 .11 118.64 .11 116.12 1.06 116.12 1.06 116.91 4.22 116.91 4.22 115.66"/>
    <polygon class="cls-3" points="4.22 112.2 5.17 112.2 5.17 115.66 4.22 115.66 4.22 114.4 1.06 114.4 1.06 115.19 .11 115.19 .11 112.66 1.06 112.66 1.06 113.45 4.22 113.45 4.22 112.2"/>
    <polygon class="cls-3" points="4.22 108.75 5.17 108.75 5.17 112.2 4.22 112.2 4.22 110.95 1.06 110.95 1.06 111.74 .11 111.74 .11 109.21 1.06 109.21 1.06 110 4.22 110 4.22 108.75"/>
    <polygon class="cls-3" points="4.22 105.3 5.17 105.3 5.17 108.75 4.22 108.75 4.22 107.49 1.06 107.49 1.06 108.28 .11 108.28 .11 105.76 1.06 105.76 1.06 106.55 4.22 106.55 4.22 105.3"/>
    <polygon class="cls-3" points="4.22 101.84 5.17 101.84 5.17 105.3 4.22 105.3 4.22 104.04 1.06 104.04 1.06 104.83 .11 104.83 .11 102.3 1.06 102.3 1.06 103.09 4.22 103.09 4.22 101.84"/>
    <polygon class="cls-3" points="4.22 98.39 5.17 98.39 5.17 101.84 4.22 101.84 4.22 100.58 1.06 100.58 1.06 101.37 .11 101.37 .11 98.85 1.06 98.85 1.06 99.64 4.22 99.64 4.22 98.39"/>
    <polygon class="cls-3" points="4.22 94.93 5.17 94.93 5.17 98.39 4.22 98.39 4.22 97.13 1.06 97.13 1.06 97.92 .11 97.92 .11 95.39 1.06 95.39 1.06 96.18 4.22 96.18 4.22 94.93"/>
    <polygon class="cls-3" points="4.22 91.48 5.17 91.48 5.17 94.93 4.22 94.93 4.22 93.68 1.06 93.68 1.06 94.47 .11 94.47 .11 91.94 1.06 91.94 1.06 92.73 4.22 92.73 4.22 91.48"/>
    <polygon class="cls-3" points="4.22 88.03 5.17 88.03 5.17 91.48 4.22 91.48 4.22 90.22 1.06 90.22 1.06 91.01 .11 91.01 .11 88.49 1.06 88.49 1.06 89.28 4.22 89.28 4.22 88.03"/>
    <polygon class="cls-3" points="4.22 84.57 5.17 84.57 5.17 88.03 4.22 88.03 4.22 86.77 1.06 86.77 1.06 87.56 .11 87.56 .11 85.03 1.06 85.03 1.06 85.82 4.22 85.82 4.22 84.57"/>
    <polygon class="cls-3" points="4.22 81.12 5.17 81.12 5.17 84.57 4.22 84.57 4.22 83.31 1.06 83.31 1.06 84.1 .11 84.1 .11 81.58 1.06 81.58 1.06 82.37 4.22 82.37 4.22 81.12"/>
    <polygon class="cls-3" points="4.22 77.66 5.17 77.66 5.17 81.12 4.22 81.12 4.22 79.86 1.06 79.86 1.06 80.65 .11 80.65 .11 78.12 1.06 78.12 1.06 78.91 4.22 78.91 4.22 77.66"/>
    <polygon class="cls-3" points="4.22 74.21 5.17 74.21 5.17 77.66 4.22 77.66 4.22 76.4 1.06 76.4 1.06 77.2 .11 77.2 .11 74.67 1.06 74.67 1.06 75.46 4.22 75.46 4.22 74.21"/>
    <polygon class="cls-3" points="4.22 70.76 5.17 70.76 5.17 74.21 4.22 74.21 4.22 72.95 1.06 72.95 1.06 73.74 .11 73.74 .11 71.22 1.06 71.22 1.06 72.01 4.22 72.01 4.22 70.76"/>
    <polygon class="cls-3" points="4.22 67.3 5.17 67.3 5.17 70.76 4.22 70.76 4.22 69.5 1.06 69.5 1.06 70.29 .11 70.29 .11 67.76 1.06 67.76 1.06 68.55 4.22 68.55 4.22 67.3"/>
    <polygon class="cls-3" points="4.22 63.85 5.17 63.85 5.17 67.3 4.22 67.3 4.22 66.04 1.06 66.04 1.06 66.83 .11 66.83 .11 64.31 1.06 64.31 1.06 65.1 4.22 65.1 4.22 63.85"/>
    <polygon class="cls-3" points="4.22 60.39 5.17 60.39 5.17 63.85 4.22 63.85 4.22 62.59 1.06 62.59 1.06 63.38 .11 63.38 .11 60.85 1.06 60.85 1.06 61.64 4.22 61.64 4.22 60.39"/>
    <polygon class="cls-3" points="4.22 56.94 5.17 56.94 5.17 60.39 4.22 60.39 4.22 59.13 1.06 59.13 1.06 59.93 .11 59.93 .11 57.4 1.06 57.4 1.06 58.19 4.22 58.19 4.22 56.94"/>
    <polygon class="cls-3" points="4.22 53.49 5.17 53.49 5.17 56.94 4.22 56.94 4.22 55.68 1.06 55.68 1.06 56.47 .11 56.47 .11 53.95 1.06 53.95 1.06 54.74 4.22 54.74 4.22 53.49"/>
    <polygon class="cls-3" points="4.22 50.03 5.17 50.03 5.17 53.49 4.22 53.49 4.22 52.23 1.06 52.23 1.06 53.02 .11 53.02 .11 50.49 1.06 50.49 1.06 51.28 4.22 51.28 4.22 50.03"/>
    <polygon class="cls-3" points="4.22 46.58 5.17 46.58 5.17 50.03 4.22 50.03 4.22 48.77 1.06 48.77 1.06 49.56 .11 49.56 .11 47.04 1.06 47.04 1.06 47.83 4.22 47.83 4.22 46.58"/>
    <polygon class="cls-3" points="4.22 43.12 5.17 43.12 5.17 46.58 4.22 46.58 4.22 45.32 1.06 45.32 1.06 46.11 .11 46.11 .11 43.58 1.06 43.58 1.06 44.37 4.22 44.37 4.22 43.12"/>
    <polygon class="cls-3" points="4.22 39.67 5.17 39.67 5.17 43.12 4.22 43.12 4.22 41.86 1.06 41.86 1.06 42.66 .11 42.66 .11 40.13 1.06 40.13 1.06 40.92 4.22 40.92 4.22 39.67"/>
    <polygon class="cls-3" points="4.22 36.22 5.17 36.22 5.17 39.67 4.22 39.67 4.22 38.41 1.06 38.41 1.06 39.2 .11 39.2 .11 36.68 1.06 36.68 1.06 37.47 4.22 37.47 4.22 36.22"/>
    <polygon class="cls-3" points="4.22 32.76 5.17 32.76 5.17 36.22 4.22 36.22 4.22 34.96 1.06 34.96 1.06 35.75 .11 35.75 .11 33.22 1.06 33.22 1.06 34.01 4.22 34.01 4.22 32.76"/>
    <polygon class="cls-3" points="4.22 29.31 5.17 29.31 5.17 32.76 4.22 32.76 4.22 31.5 1.06 31.5 1.06 32.29 .11 32.29 .11 29.77 1.06 29.77 1.06 30.56 4.22 30.56 4.22 29.31"/>
    <polygon class="cls-3" points="4.22 25.85 5.17 25.85 5.17 29.31 4.22 29.31 4.22 28.05 1.06 28.05 1.06 28.84 .11 28.84 .11 26.31 1.06 26.31 1.06 27.1 4.22 27.1 4.22 25.85"/>
    <polygon class="cls-3" points="4.22 22.4 5.17 22.4 5.17 25.85 4.22 25.85 4.22 24.59 1.06 24.59 1.06 25.39 .11 25.39 .11 22.86 1.06 22.86 1.06 23.65 4.22 23.65 4.22 22.4"/>
    <polygon class="cls-3" points="4.22 18.95 5.17 18.95 5.17 22.4 4.22 22.4 4.22 21.14 1.06 21.14 1.06 21.93 .11 21.93 .11 19.41 1.06 19.41 1.06 20.2 4.22 20.2 4.22 18.95"/>
    <polygon class="cls-3" points="4.22 15.49 5.17 15.49 5.17 18.95 4.22 18.95 4.22 17.69 1.06 17.69 1.06 18.48 .11 18.48 .11 15.95 1.06 15.95 1.06 16.74 4.22 16.74 4.22 15.49"/>
    <polygon class="cls-3" points="4.22 12.04 5.17 12.04 5.17 15.49 4.22 15.49 4.22 14.23 1.06 14.23 1.06 15.02 .11 15.02 .11 12.5 1.06 12.5 1.06 13.29 4.22 13.29 4.22 12.04"/>
    <polygon class="cls-3" points="4.22 8.58 5.17 8.58 5.17 12.04 4.22 12.04 4.22 10.78 1.06 10.78 1.06 11.57 .11 11.57 .11 9.04 1.06 9.04 1.06 9.83 4.22 9.83 4.22 8.58"/>
    <polygon class="cls-3" points="4.22 5.13 5.17 5.13 5.17 8.58 4.22 8.58 4.22 7.32 1.06 7.32 1.06 8.12 .11 8.12 .11 5.59 1.06 5.59 1.06 6.38 4.22 6.38 4.22 5.13"/>
    <polygon class="cls-3" points="8.64 4.18 8.64 5.13 5.17 5.13 5.17 4.18 6.43 4.18 6.43 1.02 5.64 1.02 5.64 .08 8.18 .08 8.18 1.02 7.38 1.02 7.38 4.18 8.64 4.18"/>
    <polygon class="cls-3" points="12.11 4.18 12.11 5.13 8.64 5.13 8.64 4.18 9.9 4.18 9.9 1.02 9.11 1.02 9.11 .08 11.65 .08 11.65 1.02 10.85 1.02 10.85 4.18 12.11 4.18"/>
    <polygon class="cls-3" points="15.58 4.18 15.58 5.13 12.11 5.13 12.11 4.18 13.37 4.18 13.37 1.02 12.58 1.02 12.58 .08 15.12 .08 15.12 1.02 14.32 1.02 14.32 4.18 15.58 4.18"/>
    <polygon class="cls-3" points="19.05 4.18 19.05 5.13 15.58 5.13 15.58 4.18 16.84 4.18 16.84 1.02 16.05 1.02 16.05 .08 18.58 .08 18.58 1.02 17.79 1.02 17.79 4.18 19.05 4.18"/>
    <polygon class="cls-3" points="22.52 4.18 22.52 5.13 19.05 5.13 19.05 4.18 20.31 4.18 20.31 1.02 19.52 1.02 19.52 .08 22.05 .08 22.05 1.02 21.26 1.02 21.26 4.18 22.52 4.18"/>
    <polygon class="cls-3" points="25.99 4.18 25.99 5.13 22.52 5.13 22.52 4.18 23.78 4.18 23.78 1.02 22.99 1.02 22.99 .08 25.52 .08 25.52 1.02 24.73 1.02 24.73 4.18 25.99 4.18"/>
    <polygon class="cls-3" points="29.45 4.18 29.45 5.13 25.99 5.13 25.99 4.18 27.25 4.18 27.25 1.02 26.46 1.02 26.46 .08 28.99 .08 28.99 1.02 28.2 1.02 28.2 4.18 29.45 4.18"/>
    <polygon class="cls-3" points="32.92 4.18 32.92 5.13 29.45 5.13 29.45 4.18 30.72 4.18 30.72 1.02 29.93 1.02 29.93 .08 32.46 .08 32.46 1.02 31.67 1.02 31.67 4.18 32.92 4.18"/>
    <polygon class="cls-3" points="36.39 4.18 36.39 5.13 32.92 5.13 32.92 4.18 34.19 4.18 34.19 1.02 33.4 1.02 33.4 .08 35.93 .08 35.93 1.02 35.14 1.02 35.14 4.18 36.39 4.18"/>
    <polygon class="cls-3" points="39.86 4.18 39.86 5.13 36.39 5.13 36.39 4.18 37.66 4.18 37.66 1.02 36.87 1.02 36.87 .08 39.4 .08 39.4 1.02 38.61 1.02 38.61 4.18 39.86 4.18"/>
    <polygon class="cls-3" points="43.33 4.18 43.33 5.13 39.86 5.13 39.86 4.18 41.13 4.18 41.13 1.02 40.34 1.02 40.34 .08 42.87 .08 42.87 1.02 42.08 1.02 42.08 4.18 43.33 4.18"/>
    <polygon class="cls-3" points="46.8 4.18 46.8 5.13 43.33 5.13 43.33 4.18 44.6 4.18 44.6 1.02 43.8 1.02 43.8 .08 46.34 .08 46.34 1.02 45.55 1.02 45.55 4.18 46.8 4.18"/>
    <polygon class="cls-3" points="50.27 4.18 50.27 5.13 46.8 5.13 46.8 4.18 48.07 4.18 48.07 1.02 47.27 1.02 47.27 .08 49.81 .08 49.81 1.02 49.02 1.02 49.02 4.18 50.27 4.18"/>
    <polygon class="cls-3" points="53.74 4.18 53.74 5.13 50.27 5.13 50.27 4.18 51.54 4.18 51.54 1.02 50.74 1.02 50.74 .08 53.28 .08 53.28 1.02 52.49 1.02 52.49 4.18 53.74 4.18"/>
    <polygon class="cls-3" points="57.21 4.18 57.21 5.13 53.74 5.13 53.74 4.18 55.01 4.18 55.01 1.02 54.21 1.02 54.21 .08 56.75 .08 56.75 1.02 55.96 1.02 55.96 4.18 57.21 4.18"/>
    <polygon class="cls-3" points="60.68 4.18 60.68 5.13 57.21 5.13 57.21 4.18 58.48 4.18 58.48 1.02 57.68 1.02 57.68 .08 60.22 .08 60.22 1.02 59.43 1.02 59.43 4.18 60.68 4.18"/>
    <polygon class="cls-3" points="64.15 4.18 64.15 5.13 60.68 5.13 60.68 4.18 61.95 4.18 61.95 1.02 61.15 1.02 61.15 .08 63.69 .08 63.69 1.02 62.9 1.02 62.9 4.18 64.15 4.18"/>
    <polygon class="cls-3" points="67.62 4.18 67.62 5.13 64.15 5.13 64.15 4.18 65.42 4.18 65.42 1.02 64.62 1.02 64.62 .08 67.16 .08 67.16 1.02 66.37 1.02 66.37 4.18 67.62 4.18"/>
    <polygon class="cls-3" points="71.09 4.18 71.09 5.13 67.62 5.13 67.62 4.18 68.89 4.18 68.89 1.02 68.09 1.02 68.09 .08 70.63 .08 70.63 1.02 69.84 1.02 69.84 4.18 71.09 4.18"/>
    <polygon class="cls-3" points="74.56 4.18 74.56 5.13 71.09 5.13 71.09 4.18 72.36 4.18 72.36 1.02 71.56 1.02 71.56 .08 74.1 .08 74.1 1.02 73.31 1.02 73.31 4.18 74.56 4.18"/>
    <polygon class="cls-3" points="78.03 4.18 78.03 5.13 74.56 5.13 74.56 4.18 75.83 4.18 75.83 1.02 75.03 1.02 75.03 .08 77.57 .08 77.57 1.02 76.78 1.02 76.78 4.18 78.03 4.18"/>
    <polygon class="cls-3" points="81.5 4.18 81.5 5.13 78.03 5.13 78.03 4.18 79.3 4.18 79.3 1.02 78.5 1.02 78.5 .08 81.04 .08 81.04 1.02 80.25 1.02 80.25 4.18 81.5 4.18"/>
    <polygon class="cls-3" points="84.97 4.18 84.97 5.13 81.5 5.13 81.5 4.18 82.77 4.18 82.77 1.02 81.97 1.02 81.97 .08 84.51 .08 84.51 1.02 83.71 1.02 83.71 4.18 84.97 4.18"/>
    <polygon class="cls-3" points="88.44 4.18 88.44 5.13 84.97 5.13 84.97 4.18 86.23 4.18 86.23 1.02 85.44 1.02 85.44 .08 87.98 .08 87.98 1.02 87.18 1.02 87.18 4.18 88.44 4.18"/>
    <polygon class="cls-3" points="91.91 4.18 91.91 5.13 88.44 5.13 88.44 4.18 89.7 4.18 89.7 1.02 88.91 1.02 88.91 .08 91.45 .08 91.45 1.02 90.65 1.02 90.65 4.18 91.91 4.18"/>
    <polygon class="cls-3" points="95.38 4.18 95.38 5.13 91.91 5.13 91.91 4.18 93.17 4.18 93.17 1.02 92.38 1.02 92.38 .08 94.92 .08 94.92 1.02 94.12 1.02 94.12 4.18 95.38 4.18"/>
    <polygon class="cls-3" points="98.85 4.18 98.85 5.13 95.38 5.13 95.38 4.18 96.64 4.18 96.64 1.02 95.85 1.02 95.85 .08 98.39 .08 98.39 1.02 97.59 1.02 97.59 4.18 98.85 4.18"/>
    <polygon class="cls-3" points="102.32 4.18 102.32 5.13 98.85 5.13 98.85 4.18 100.11 4.18 100.11 1.02 99.32 1.02 99.32 .08 101.86 .08 101.86 1.02 101.06 1.02 101.06 4.18 102.32 4.18"/>
    <polygon class="cls-3" points="105.79 4.18 105.79 5.13 102.32 5.13 102.32 4.18 103.58 4.18 103.58 1.02 102.79 1.02 102.79 .08 105.33 .08 105.33 1.02 104.53 1.02 104.53 4.18 105.79 4.18"/>
    <polygon class="cls-3" points="109.26 4.18 109.26 5.13 105.79 5.13 105.79 4.18 107.05 4.18 107.05 1.02 106.26 1.02 106.26 .08 108.8 .08 108.8 1.02 108 1.02 108 4.18 109.26 4.18"/>
    <polygon class="cls-3" points="112.73 4.18 112.73 5.13 109.26 5.13 109.26 4.18 110.52 4.18 110.52 1.02 109.73 1.02 109.73 .08 112.27 .08 112.27 1.02 111.47 1.02 111.47 4.18 112.73 4.18"/>
    <polygon class="cls-3" points="116.2 4.18 116.2 5.13 112.73 5.13 112.73 4.18 113.99 4.18 113.99 1.02 113.2 1.02 113.2 .08 115.74 .08 115.74 1.02 114.94 1.02 114.94 4.18 116.2 4.18"/>
    <polygon class="cls-3" points="119.67 4.18 119.67 5.13 116.2 5.13 116.2 4.18 117.46 4.18 117.46 1.02 116.67 1.02 116.67 .08 119.2 .08 119.2 1.02 118.41 1.02 118.41 4.18 119.67 4.18"/>
    <polygon class="cls-3" points="123.14 4.18 123.14 5.13 119.67 5.13 119.67 4.18 120.93 4.18 120.93 1.02 120.14 1.02 120.14 .08 122.67 .08 122.67 1.02 121.88 1.02 121.88 4.18 123.14 4.18"/>
    <polygon class="cls-3" points="126.61 4.18 126.61 5.13 123.14 5.13 123.14 4.18 124.4 4.18 124.4 1.02 123.61 1.02 123.61 .08 126.14 .08 126.14 1.02 125.35 1.02 125.35 4.18 126.61 4.18"/>
    <polygon class="cls-3" points="130.07 4.18 130.07 5.13 126.61 5.13 126.61 4.18 127.87 4.18 127.87 1.02 127.08 1.02 127.08 .08 129.61 .08 129.61 1.02 128.82 1.02 128.82 4.18 130.07 4.18"/>
    <polygon class="cls-3" points="133.54 4.18 133.54 5.13 130.07 5.13 130.07 4.18 131.34 4.18 131.34 1.02 130.55 1.02 130.55 .08 133.08 .08 133.08 1.02 132.29 1.02 132.29 4.18 133.54 4.18"/>
    <polygon class="cls-3" points="137.01 4.18 137.01 5.13 133.54 5.13 133.54 4.18 134.81 4.18 134.81 1.02 134.02 1.02 134.02 .08 136.55 .08 136.55 1.02 135.76 1.02 135.76 4.18 137.01 4.18"/>
    <polygon class="cls-3" points="140.48 4.18 140.48 5.13 137.01 5.13 137.01 4.18 138.28 4.18 138.28 1.02 137.49 1.02 137.49 .08 140.02 .08 140.02 1.02 139.23 1.02 139.23 4.18 140.48 4.18"/>
    <polygon class="cls-3" points="143.95 4.18 143.95 5.13 140.48 5.13 140.48 4.18 141.75 4.18 141.75 1.02 140.96 1.02 140.96 .08 143.49 .08 143.49 1.02 142.7 1.02 142.7 4.18 143.95 4.18"/>
    <polygon class="cls-3" points="147.42 4.18 147.42 5.13 143.95 5.13 143.95 4.18 145.22 4.18 145.22 1.02 144.42 1.02 144.42 .08 146.96 .08 146.96 1.02 146.17 1.02 146.17 4.18 147.42 4.18"/>
    <polygon class="cls-3" points="150.89 4.18 150.89 5.13 147.42 5.13 147.42 4.18 148.69 4.18 148.69 1.02 147.89 1.02 147.89 .08 150.43 .08 150.43 1.02 149.64 1.02 149.64 4.18 150.89 4.18"/>
    <polygon class="cls-3" points="154.36 4.18 154.36 5.13 150.89 5.13 150.89 4.18 152.16 4.18 152.16 1.02 151.36 1.02 151.36 .08 153.9 .08 153.9 1.02 153.11 1.02 153.11 4.18 154.36 4.18"/>
    <polygon class="cls-3" points="157.83 4.18 157.83 5.13 154.36 5.13 154.36 4.18 155.63 4.18 155.63 1.02 154.83 1.02 154.83 .08 157.37 .08 157.37 1.02 156.58 1.02 156.58 4.18 157.83 4.18"/>
    <polygon class="cls-3" points="161.3 4.18 161.3 5.13 157.83 5.13 157.83 4.18 159.1 4.18 159.1 1.02 158.3 1.02 158.3 .08 160.84 .08 160.84 1.02 160.05 1.02 160.05 4.18 161.3 4.18"/>
    <polygon class="cls-3" points="164.77 4.18 164.77 5.13 161.3 5.13 161.3 4.18 162.57 4.18 162.57 1.02 161.77 1.02 161.77 .08 164.31 .08 164.31 1.02 163.52 1.02 163.52 4.18 164.77 4.18"/>
    <polygon class="cls-3" points="168.24 4.18 168.24 5.13 164.77 5.13 164.77 4.18 166.04 4.18 166.04 1.02 165.24 1.02 165.24 .08 167.78 .08 167.78 1.02 166.99 1.02 166.99 4.18 168.24 4.18"/>
    <polygon class="cls-3" points="171.71 4.18 171.71 5.13 168.24 5.13 168.24 4.18 169.51 4.18 169.51 1.02 168.71 1.02 168.71 .08 171.25 .08 171.25 1.02 170.46 1.02 170.46 4.18 171.71 4.18"/>
    <polygon class="cls-3" points="175.18 4.18 175.18 5.13 171.71 5.13 171.71 4.18 172.98 4.18 172.98 1.02 172.18 1.02 172.18 .08 174.72 .08 174.72 1.02 173.93 1.02 173.93 4.18 175.18 4.18"/>
    <polygon class="cls-3" points="178.65 4.18 178.65 5.13 175.18 5.13 175.18 4.18 176.45 4.18 176.45 1.02 175.65 1.02 175.65 .08 178.19 .08 178.19 1.02 177.4 1.02 177.4 4.18 178.65 4.18"/>
    <polygon class="cls-3" points="182.12 4.18 182.12 5.13 178.65 5.13 178.65 4.18 179.92 4.18 179.92 1.02 179.12 1.02 179.12 .08 181.66 .08 181.66 1.02 180.87 1.02 180.87 4.18 182.12 4.18"/>
    <polygon class="cls-3" points="185.59 4.18 185.59 5.13 182.12 5.13 182.12 4.18 183.39 4.18 183.39 1.02 182.59 1.02 182.59 .08 185.13 .08 185.13 1.02 184.34 1.02 184.34 4.18 185.59 4.18"/>
    <polygon class="cls-3" points="189.06 4.18 189.06 5.13 185.59 5.13 185.59 4.18 186.85 4.18 186.85 1.02 186.06 1.02 186.06 .08 188.6 .08 188.6 1.02 187.8 1.02 187.8 4.18 189.06 4.18"/>
    <polygon class="cls-3" points="192.53 4.18 192.53 5.13 189.06 5.13 189.06 4.18 190.32 4.18 190.32 1.02 189.53 1.02 189.53 .08 192.07 .08 192.07 1.02 191.27 1.02 191.27 4.18 192.53 4.18"/>
    <polygon class="cls-3" points="196 4.18 196 5.13 192.53 5.13 192.53 4.18 193.79 4.18 193.79 1.02 193 1.02 193 .08 195.54 .08 195.54 1.02 194.74 1.02 194.74 4.18 196 4.18"/>
    <polygon class="cls-3" points="199.47 4.18 199.47 5.13 196 5.13 196 4.18 197.26 4.18 197.26 1.02 196.47 1.02 196.47 .08 199.01 .08 199.01 1.02 198.21 1.02 198.21 4.18 199.47 4.18"/>
    <polygon class="cls-3" points="202.94 4.18 202.94 5.13 199.47 5.13 199.47 4.18 200.73 4.18 200.73 1.02 199.94 1.02 199.94 .08 202.48 .08 202.48 1.02 201.68 1.02 201.68 4.18 202.94 4.18"/>
    <polygon class="cls-3" points="206.41 4.18 206.41 5.13 202.94 5.13 202.94 4.18 204.2 4.18 204.2 1.02 203.41 1.02 203.41 .08 205.95 .08 205.95 1.02 205.15 1.02 205.15 4.18 206.41 4.18"/>
    <polygon class="cls-3" points="209.88 4.18 209.88 5.13 206.41 5.13 206.41 4.18 207.67 4.18 207.67 1.02 206.88 1.02 206.88 .08 209.42 .08 209.42 1.02 208.62 1.02 208.62 4.18 209.88 4.18"/>
    <polygon class="cls-3" points="213.35 4.18 213.35 5.13 209.88 5.13 209.88 4.18 211.14 4.18 211.14 1.02 210.35 1.02 210.35 .08 212.89 .08 212.89 1.02 212.09 1.02 212.09 4.18 213.35 4.18"/>
    <polygon class="cls-3" points="216.82 4.18 216.82 5.13 213.35 5.13 213.35 4.18 214.61 4.18 214.61 1.02 213.82 1.02 213.82 .08 216.36 .08 216.36 1.02 215.56 1.02 215.56 4.18 216.82 4.18"/>
    <polygon class="cls-3" points="220.29 4.18 220.29 5.13 216.82 5.13 216.82 4.18 218.08 4.18 218.08 1.02 217.29 1.02 217.29 .08 219.83 .08 219.83 1.02 219.03 1.02 219.03 4.18 220.29 4.18"/>
    <polygon class="cls-3" points="221.23 8.58 220.29 8.58 220.29 5.13 221.23 5.13 221.23 6.39 224.39 6.39 224.39 5.6 225.34 5.6 225.34 8.13 224.39 8.13 224.39 7.34 221.23 7.34 221.23 8.58"/>
    <polygon class="cls-3" points="221.23 12.04 220.29 12.04 220.29 8.58 221.23 8.58 221.23 9.84 224.39 9.84 224.39 9.05 225.34 9.05 225.34 11.58 224.39 11.58 224.39 10.79 221.23 10.79 221.23 12.04"/>
    <polygon class="cls-3" points="221.23 15.49 220.29 15.49 220.29 12.04 221.23 12.04 221.23 13.3 224.39 13.3 224.39 12.51 225.34 12.51 225.34 15.03 224.39 15.03 224.39 14.24 221.23 14.24 221.23 15.49"/>
    <polygon class="cls-3" points="221.23 18.95 220.29 18.95 220.29 15.49 221.23 15.49 221.23 16.75 224.39 16.75 224.39 15.96 225.34 15.96 225.34 18.49 224.39 18.49 224.39 17.7 221.23 17.7 221.23 18.95"/>
    <polygon class="cls-3" points="221.23 22.4 220.29 22.4 220.29 18.95 221.23 18.95 221.23 20.21 224.39 20.21 224.39 19.42 225.34 19.42 225.34 21.94 224.39 21.94 224.39 21.15 221.23 21.15 221.23 22.4"/>
    <polygon class="cls-3" points="221.23 25.85 220.29 25.85 220.29 22.4 221.23 22.4 221.23 23.66 224.39 23.66 224.39 22.87 225.34 22.87 225.34 25.4 224.39 25.4 224.39 24.61 221.23 24.61 221.23 25.85"/>
    <polygon class="cls-3" points="221.23 29.31 220.29 29.31 220.29 25.85 221.23 25.85 221.23 27.11 224.39 27.11 224.39 26.32 225.34 26.32 225.34 28.85 224.39 28.85 224.39 28.06 221.23 28.06 221.23 29.31"/>
    <polygon class="cls-3" points="221.23 32.76 220.29 32.76 220.29 29.31 221.23 29.31 221.23 30.57 224.39 30.57 224.39 29.78 225.34 29.78 225.34 32.3 224.39 32.3 224.39 31.51 221.23 31.51 221.23 32.76"/>
    <polygon class="cls-3" points="221.23 36.22 220.29 36.22 220.29 32.76 221.23 32.76 221.23 34.02 224.39 34.02 224.39 33.23 225.34 33.23 225.34 35.76 224.39 35.76 224.39 34.97 221.23 34.97 221.23 36.22"/>
    <polygon class="cls-3" points="221.23 39.67 220.29 39.67 220.29 36.22 221.23 36.22 221.23 37.48 224.39 37.48 224.39 36.69 225.34 36.69 225.34 39.21 224.39 39.21 224.39 38.42 221.23 38.42 221.23 39.67"/>
    <polygon class="cls-3" points="221.23 43.12 220.29 43.12 220.29 39.67 221.23 39.67 221.23 40.93 224.39 40.93 224.39 40.14 225.34 40.14 225.34 42.67 224.39 42.67 224.39 41.88 221.23 41.88 221.23 43.12"/>
    <polygon class="cls-3" points="221.23 46.58 220.29 46.58 220.29 43.12 221.23 43.12 221.23 44.38 224.39 44.38 224.39 43.59 225.34 43.59 225.34 46.12 224.39 46.12 224.39 45.33 221.23 45.33 221.23 46.58"/>
    <polygon class="cls-3" points="221.23 50.03 220.29 50.03 220.29 46.58 221.23 46.58 221.23 47.84 224.39 47.84 224.39 47.05 225.34 47.05 225.34 49.57 224.39 49.57 224.39 48.78 221.23 48.78 221.23 50.03"/>
    <polygon class="cls-3" points="221.23 53.49 220.29 53.49 220.29 50.03 221.23 50.03 221.23 51.29 224.39 51.29 224.39 50.5 225.34 50.5 225.34 53.03 224.39 53.03 224.39 52.24 221.23 52.24 221.23 53.49"/>
    <polygon class="cls-3" points="221.23 56.94 220.29 56.94 220.29 53.49 221.23 53.49 221.23 54.75 224.39 54.75 224.39 53.96 225.34 53.96 225.34 56.48 224.39 56.48 224.39 55.69 221.23 55.69 221.23 56.94"/>
    <polygon class="cls-3" points="221.23 60.39 220.29 60.39 220.29 56.94 221.23 56.94 221.23 58.2 224.39 58.2 224.39 57.41 225.34 57.41 225.34 59.94 224.39 59.94 224.39 59.15 221.23 59.15 221.23 60.39"/>
    <polygon class="cls-3" points="221.23 63.85 220.29 63.85 220.29 60.39 221.23 60.39 221.23 61.65 224.39 61.65 224.39 60.86 225.34 60.86 225.34 63.39 224.39 63.39 224.39 62.6 221.23 62.6 221.23 63.85"/>
    <polygon class="cls-3" points="221.23 67.3 220.29 67.3 220.29 63.85 221.23 63.85 221.23 65.11 224.39 65.11 224.39 64.32 225.34 64.32 225.34 66.84 224.39 66.84 224.39 66.05 221.23 66.05 221.23 67.3"/>
    <polygon class="cls-3" points="221.23 70.76 220.29 70.76 220.29 67.3 221.23 67.3 221.23 68.56 224.39 68.56 224.39 67.77 225.34 67.77 225.34 70.3 224.39 70.3 224.39 69.51 221.23 69.51 221.23 70.76"/>
    <polygon class="cls-3" points="221.23 74.21 220.29 74.21 220.29 70.76 221.23 70.76 221.23 72.02 224.39 72.02 224.39 71.23 225.34 71.23 225.34 73.75 224.39 73.75 224.39 72.96 221.23 72.96 221.23 74.21"/>
    <polygon class="cls-3" points="221.23 77.66 220.29 77.66 220.29 74.21 221.23 74.21 221.23 75.47 224.39 75.47 224.39 74.68 225.34 74.68 225.34 77.21 224.39 77.21 224.39 76.42 221.23 76.42 221.23 77.66"/>
    <polygon class="cls-3" points="221.23 81.12 220.29 81.12 220.29 77.66 221.23 77.66 221.23 78.92 224.39 78.92 224.39 78.13 225.34 78.13 225.34 80.66 224.39 80.66 224.39 79.87 221.23 79.87 221.23 81.12"/>
    <polygon class="cls-3" points="221.23 84.57 220.29 84.57 220.29 81.12 221.23 81.12 221.23 82.38 224.39 82.38 224.39 81.59 225.34 81.59 225.34 84.11 224.39 84.11 224.39 83.32 221.23 83.32 221.23 84.57"/>
    <polygon class="cls-3" points="221.23 88.03 220.29 88.03 220.29 84.57 221.23 84.57 221.23 85.83 224.39 85.83 224.39 85.04 225.34 85.04 225.34 87.57 224.39 87.57 224.39 86.78 221.23 86.78 221.23 88.03"/>
    <polygon class="cls-3" points="221.23 91.48 220.29 91.48 220.29 88.03 221.23 88.03 221.23 89.29 224.39 89.29 224.39 88.5 225.34 88.5 225.34 91.02 224.39 91.02 224.39 90.23 221.23 90.23 221.23 91.48"/>
    <polygon class="cls-3" points="221.23 94.93 220.29 94.93 220.29 91.48 221.23 91.48 221.23 92.74 224.39 92.74 224.39 91.95 225.34 91.95 225.34 94.48 224.39 94.48 224.39 93.69 221.23 93.69 221.23 94.93"/>
    <polygon class="cls-3" points="221.23 98.39 220.29 98.39 220.29 94.93 221.23 94.93 221.23 96.19 224.39 96.19 224.39 95.4 225.34 95.4 225.34 97.93 224.39 97.93 224.39 97.14 221.23 97.14 221.23 98.39"/>
    <polygon class="cls-3" points="221.23 101.84 220.29 101.84 220.29 98.39 221.23 98.39 221.23 99.65 224.39 99.65 224.39 98.86 225.34 98.86 225.34 101.38 224.39 101.38 224.39 100.59 221.23 100.59 221.23 101.84"/>
    <polygon class="cls-3" points="221.23 105.3 220.29 105.3 220.29 101.84 221.23 101.84 221.23 103.1 224.39 103.1 224.39 102.31 225.34 102.31 225.34 104.84 224.39 104.84 224.39 104.05 221.23 104.05 221.23 105.3"/>
    <polygon class="cls-3" points="221.23 108.75 220.29 108.75 220.29 105.3 221.23 105.3 221.23 106.56 224.39 106.56 224.39 105.77 225.34 105.77 225.34 108.29 224.39 108.29 224.39 107.5 221.23 107.5 221.23 108.75"/>
    <polygon class="cls-3" points="221.23 112.2 220.29 112.2 220.29 108.75 221.23 108.75 221.23 110.01 224.39 110.01 224.39 109.22 225.34 109.22 225.34 111.75 224.39 111.75 224.39 110.96 221.23 110.96 221.23 112.2"/>
    <polygon class="cls-3" points="221.23 115.66 220.29 115.66 220.29 112.2 221.23 112.2 221.23 113.46 224.39 113.46 224.39 112.67 225.34 112.67 225.34 115.2 224.39 115.2 224.39 114.41 221.23 114.41 221.23 115.66"/>
    <polygon class="cls-3" points="221.23 119.11 220.29 119.11 220.29 115.66 221.23 115.66 221.23 116.92 224.39 116.92 224.39 116.13 225.34 116.13 225.34 118.65 224.39 118.65 224.39 117.86 221.23 117.86 221.23 119.11"/>
    <polygon class="cls-3" points="221.23 122.57 220.29 122.57 220.29 119.11 221.23 119.11 221.23 120.37 224.39 120.37 224.39 119.58 225.34 119.58 225.34 122.11 224.39 122.11 224.39 121.32 221.23 121.32 221.23 122.57"/>
    <polygon class="cls-3" points="221.23 126.02 220.29 126.02 220.29 122.57 221.23 122.57 221.23 123.83 224.39 123.83 224.39 123.04 225.34 123.04 225.34 125.56 224.39 125.56 224.39 124.77 221.23 124.77 221.23 126.02"/>
    <polygon class="cls-3" points="221.23 129.47 220.29 129.47 220.29 126.02 221.23 126.02 221.23 127.28 224.39 127.28 224.39 126.49 225.34 126.49 225.34 129.02 224.39 129.02 224.39 128.23 221.23 128.23 221.23 129.47"/>
    <polygon class="cls-3" points="221.23 132.93 220.29 132.93 220.29 129.47 221.23 129.47 221.23 130.73 224.39 130.73 224.39 129.94 225.34 129.94 225.34 132.47 224.39 132.47 224.39 131.68 221.23 131.68 221.23 132.93"/>
    <polygon class="cls-3" points="221.23 136.38 220.29 136.38 220.29 132.93 221.23 132.93 221.23 134.19 224.39 134.19 224.39 133.4 225.34 133.4 225.34 135.92 224.39 135.92 224.39 135.13 221.23 135.13 221.23 136.38"/>
    <polygon class="cls-3" points="221.23 139.84 220.29 139.84 220.29 136.38 221.23 136.38 221.23 137.64 224.39 137.64 224.39 136.85 225.34 136.85 225.34 139.38 224.39 139.38 224.39 138.59 221.23 138.59 221.23 139.84"/>
    <polygon class="cls-3" points="221.23 143.29 220.29 143.29 220.29 139.84 221.23 139.84 221.23 141.1 224.39 141.1 224.39 140.31 225.34 140.31 225.34 142.83 224.39 142.83 224.39 142.04 221.23 142.04 221.23 143.29"/>
    <polygon class="cls-3" points="221.23 146.74 220.29 146.74 220.29 143.29 221.23 143.29 221.23 144.55 224.39 144.55 224.39 143.76 225.34 143.76 225.34 146.29 224.39 146.29 224.39 145.5 221.23 145.5 221.23 146.74"/>
    <polygon class="cls-3" points="221.23 150.2 220.29 150.2 220.29 146.74 221.23 146.74 221.23 148 224.39 148 224.39 147.21 225.34 147.21 225.34 149.74 224.39 149.74 224.39 148.95 221.23 148.95 221.23 150.2"/>
    <polygon class="cls-3" points="221.23 153.65 220.29 153.65 220.29 150.2 221.23 150.2 221.23 151.46 224.39 151.46 224.39 150.67 225.34 150.67 225.34 153.19 224.39 153.19 224.39 152.4 221.23 152.4 221.23 153.65"/>
    <polygon class="cls-3" points="221.23 157.11 220.29 157.11 220.29 153.65 221.23 153.65 221.23 154.91 224.39 154.91 224.39 154.12 225.34 154.12 225.34 156.65 224.39 156.65 224.39 155.86 221.23 155.86 221.23 157.11"/>
    <polygon class="cls-3" points="221.23 160.56 220.29 160.56 220.29 157.11 221.23 157.11 221.23 158.37 224.39 158.37 224.39 157.58 225.34 157.58 225.34 160.1 224.39 160.1 224.39 159.31 221.23 159.31 221.23 160.56"/>
    <polygon class="cls-3" points="221.23 164.02 220.29 164.02 220.29 160.56 221.23 160.56 221.23 161.82 224.39 161.82 224.39 161.03 225.34 161.03 225.34 163.56 224.39 163.56 224.39 162.77 221.23 162.77 221.23 164.02"/>
    <polygon class="cls-3" points="221.23 167.47 220.29 167.47 220.29 164.02 221.23 164.02 221.23 165.27 224.39 165.27 224.39 164.48 225.34 164.48 225.34 167.01 224.39 167.01 224.39 166.22 221.23 166.22 221.23 167.47"/>
    <polygon class="cls-3" points="221.23 170.92 220.29 170.92 220.29 167.47 221.23 167.47 221.23 168.73 224.39 168.73 224.39 167.94 225.34 167.94 225.34 170.46 224.39 170.46 224.39 169.67 221.23 169.67 221.23 170.92"/>
    <polygon class="cls-3" points="221.23 174.38 220.29 174.38 220.29 170.92 221.23 170.92 221.23 172.18 224.39 172.18 224.39 171.39 225.34 171.39 225.34 173.92 224.39 173.92 224.39 173.13 221.23 173.13 221.23 174.38"/>
    <polygon class="cls-3" points="221.23 177.83 220.29 177.83 220.29 174.38 221.23 174.38 221.23 175.64 224.39 175.64 224.39 174.85 225.34 174.85 225.34 177.37 224.39 177.37 224.39 176.58 221.23 176.58 221.23 177.83"/>
    <polygon class="cls-3" points="221.23 181.29 220.29 181.29 220.29 177.83 221.23 177.83 221.23 179.09 224.39 179.09 224.39 178.3 225.34 178.3 225.34 180.83 224.39 180.83 224.39 180.04 221.23 180.04 221.23 181.29"/>
    <polygon class="cls-3" points="221.23 184.74 220.29 184.74 220.29 181.29 221.23 181.29 221.23 182.54 224.39 182.54 224.39 181.75 225.34 181.75 225.34 184.28 224.39 184.28 224.39 183.49 221.23 183.49 221.23 184.74"/>
    <polygon class="cls-3" points="221.23 188.19 220.29 188.19 220.29 184.74 221.23 184.74 221.23 186 224.39 186 224.39 185.21 225.34 185.21 225.34 187.73 224.39 187.73 224.39 186.94 221.23 186.94 221.23 188.19"/>
    <polygon class="cls-3" points="221.23 191.65 220.29 191.65 220.29 188.19 221.23 188.19 221.23 189.45 224.39 189.45 224.39 188.66 225.34 188.66 225.34 191.19 224.39 191.19 224.39 190.4 221.23 190.4 221.23 191.65"/>
    <polygon class="cls-3" points="221.23 195.1 220.29 195.1 220.29 191.65 221.23 191.65 221.23 192.91 224.39 192.91 224.39 192.12 225.34 192.12 225.34 194.64 224.39 194.64 224.39 193.85 221.23 193.85 221.23 195.1"/>
    <polygon class="cls-3" points="221.23 198.56 220.29 198.56 220.29 195.1 221.23 195.1 221.23 196.36 224.39 196.36 224.39 195.57 225.34 195.57 225.34 198.1 224.39 198.1 224.39 197.31 221.23 197.31 221.23 198.56"/>
    <polygon class="cls-3" points="221.23 202.01 220.29 202.01 220.29 198.56 221.23 198.56 221.23 199.81 224.39 199.81 224.39 199.02 225.34 199.02 225.34 201.55 224.39 201.55 224.39 200.76 221.23 200.76 221.23 202.01"/>
    <polygon class="cls-3" points="221.23 205.46 220.29 205.46 220.29 202.01 221.23 202.01 221.23 203.27 224.39 203.27 224.39 202.48 225.34 202.48 225.34 205 224.39 205 224.39 204.21 221.23 204.21 221.23 205.46"/>
    <polygon class="cls-3" points="221.23 208.92 220.29 208.92 220.29 205.46 221.23 205.46 221.23 206.72 224.39 206.72 224.39 205.93 225.34 205.93 225.34 208.46 224.39 208.46 224.39 207.67 221.23 207.67 221.23 208.92"/>
    <polygon class="cls-3" points="221.23 212.37 220.29 212.37 220.29 208.92 221.23 208.92 221.23 210.18 224.39 210.18 224.39 209.39 225.34 209.39 225.34 211.91 224.39 211.91 224.39 211.12 221.23 211.12 221.23 212.37"/>
    <polygon class="cls-3" points="221.23 215.83 220.29 215.83 220.29 212.37 221.23 212.37 221.23 213.63 224.39 213.63 224.39 212.84 225.34 212.84 225.34 215.37 224.39 215.37 224.39 214.58 221.23 214.58 221.23 215.83"/>
    <polygon class="cls-3" points="221.23 219.28 220.29 219.28 220.29 215.83 221.23 215.83 221.23 217.08 224.39 217.08 224.39 216.29 225.34 216.29 225.34 218.82 224.39 218.82 224.39 218.03 221.23 218.03 221.23 219.28"/>
    <polygon class="cls-3" points="221.23 222.73 220.29 222.73 220.29 219.28 221.23 219.28 221.23 220.54 224.39 220.54 224.39 219.75 225.34 219.75 225.34 222.27 224.39 222.27 224.39 221.48 221.23 221.48 221.23 222.73"/>
    <polygon class="cls-3" points="221.23 226.19 220.29 226.19 220.29 222.73 221.23 222.73 221.23 223.99 224.39 223.99 224.39 223.2 225.34 223.2 225.34 225.73 224.39 225.73 224.39 224.94 221.23 224.94 221.23 226.19"/>
    <polygon class="cls-3" points="221.23 229.64 220.29 229.64 220.29 226.19 221.23 226.19 221.23 227.45 224.39 227.45 224.39 226.66 225.34 226.66 225.34 229.18 224.39 229.18 224.39 228.39 221.23 228.39 221.23 229.64"/>
    <polygon class="cls-3" points="221.23 233.1 220.29 233.1 220.29 229.64 221.23 229.64 221.23 230.9 224.39 230.9 224.39 230.11 225.34 230.11 225.34 232.64 224.39 232.64 224.39 231.85 221.23 231.85 221.23 233.1"/>
    <polygon class="cls-3" points="221.23 236.55 220.29 236.55 220.29 233.1 221.23 233.1 221.23 234.36 224.39 234.36 224.39 233.56 225.34 233.56 225.34 236.09 224.39 236.09 224.39 235.3 221.23 235.3 221.23 236.55"/>
    <polygon class="cls-3" points="221.23 240 220.29 240 220.29 236.55 221.23 236.55 221.23 237.81 224.39 237.81 224.39 237.02 225.34 237.02 225.34 239.54 224.39 239.54 224.39 238.75 221.23 238.75 221.23 240"/>
    <polygon class="cls-3" points="221.23 243.46 220.29 243.46 220.29 240 221.23 240 221.23 241.26 224.39 241.26 224.39 240.47 225.34 240.47 225.34 243 224.39 243 224.39 242.21 221.23 242.21 221.23 243.46"/>
    <polygon class="cls-3" points="221.23 246.91 220.29 246.91 220.29 243.46 221.23 243.46 221.23 244.72 224.39 244.72 224.39 243.93 225.34 243.93 225.34 246.45 224.39 246.45 224.39 245.66 221.23 245.66 221.23 246.91"/>
    <polygon class="cls-3" points="221.23 250.37 220.29 250.37 220.29 246.91 221.23 246.91 221.23 248.17 224.39 248.17 224.39 247.38 225.34 247.38 225.34 249.91 224.39 249.91 224.39 249.12 221.23 249.12 221.23 250.37"/>
    <polygon class="cls-3" points="221.23 253.82 220.29 253.82 220.29 250.37 221.23 250.37 221.23 251.63 224.39 251.63 224.39 250.83 225.34 250.83 225.34 253.36 224.39 253.36 224.39 252.57 221.23 252.57 221.23 253.82"/>
    <polygon class="cls-3" points="221.23 257.27 220.29 257.27 220.29 253.82 221.23 253.82 221.23 255.08 224.39 255.08 224.39 254.29 225.34 254.29 225.34 256.81 224.39 256.81 224.39 256.02 221.23 256.02 221.23 257.27"/>
    <polygon class="cls-3" points="221.23 260.73 220.29 260.73 220.29 257.27 221.23 257.27 221.23 258.53 224.39 258.53 224.39 257.74 225.34 257.74 225.34 260.27 224.39 260.27 224.39 259.48 221.23 259.48 221.23 260.73"/>
    <polygon class="cls-3" points="221.23 264.18 220.29 264.18 220.29 260.73 221.23 260.73 221.23 261.99 224.39 261.99 224.39 261.2 225.34 261.2 225.34 263.72 224.39 263.72 224.39 262.93 221.23 262.93 221.23 264.18"/>
    <polygon class="cls-3" points="221.23 267.64 220.29 267.64 220.29 264.18 221.23 264.18 221.23 265.44 224.39 265.44 224.39 264.65 225.34 264.65 225.34 267.18 224.39 267.18 224.39 266.39 221.23 266.39 221.23 267.64"/>
    <polygon class="cls-3" points="221.23 271.09 220.29 271.09 220.29 267.64 221.23 267.64 221.23 268.9 224.39 268.9 224.39 268.1 225.34 268.1 225.34 270.63 224.39 270.63 224.39 269.84 221.23 269.84 221.23 271.09"/>
    <polygon class="cls-3" points="221.23 274.54 220.29 274.54 220.29 271.09 221.23 271.09 221.23 272.35 224.39 272.35 224.39 271.56 225.34 271.56 225.34 274.08 224.39 274.08 224.39 273.29 221.23 273.29 221.23 274.54"/>
    <polygon class="cls-3" points="221.23 278 220.29 278 220.29 274.54 221.23 274.54 221.23 275.8 224.39 275.8 224.39 275.01 225.34 275.01 225.34 277.54 224.39 277.54 224.39 276.75 221.23 276.75 221.23 278"/>
    <polygon class="cls-3" points="221.23 281.45 220.29 281.45 220.29 278 221.23 278 221.23 279.26 224.39 279.26 224.39 278.47 225.34 278.47 225.34 280.99 224.39 280.99 224.39 280.2 221.23 280.2 221.23 281.45"/>
    <polygon class="cls-3" points="221.23 284.91 220.29 284.91 220.29 281.45 221.23 281.45 221.23 282.71 224.39 282.71 224.39 281.92 225.34 281.92 225.34 284.45 224.39 284.45 224.39 283.66 221.23 283.66 221.23 284.91"/>
    <polygon class="cls-3" points="221.23 288.36 220.29 288.36 220.29 284.91 221.23 284.91 221.23 286.17 224.39 286.17 224.39 285.37 225.34 285.37 225.34 287.9 224.39 287.9 224.39 287.11 221.23 287.11 221.23 288.36"/>
    <polygon class="cls-3" points="221.23 291.81 220.29 291.81 220.29 288.36 221.23 288.36 221.23 289.62 224.39 289.62 224.39 288.83 225.34 288.83 225.34 291.35 224.39 291.35 224.39 290.56 221.23 290.56 221.23 291.81"/>
    <polygon class="cls-3" points="221.23 295.27 220.29 295.27 220.29 291.81 221.23 291.81 221.23 293.07 224.39 293.07 224.39 292.28 225.34 292.28 225.34 294.81 224.39 294.81 224.39 294.02 221.23 294.02 221.23 295.27"/>
    <polygon class="cls-3" points="221.23 298.72 220.29 298.72 220.29 295.27 221.23 295.27 221.23 296.53 224.39 296.53 224.39 295.74 225.34 295.74 225.34 298.26 224.39 298.26 224.39 297.47 221.23 297.47 221.23 298.72"/>
    <polygon class="cls-3" points="221.23 302.18 220.29 302.18 220.29 298.72 221.23 298.72 221.23 299.98 224.39 299.98 224.39 299.19 225.34 299.19 225.34 301.72 224.39 301.72 224.39 300.93 221.23 300.93 221.23 302.18"/>
    <polygon class="cls-3" points="221.23 305.63 220.29 305.63 220.29 302.18 221.23 302.18 221.23 303.44 224.39 303.44 224.39 302.64 225.34 302.64 225.34 305.17 224.39 305.17 224.39 304.38 221.23 304.38 221.23 305.63"/>
    <polygon class="cls-3" points="221.23 309.08 220.29 309.08 220.29 305.63 221.23 305.63 221.23 306.89 224.39 306.89 224.39 306.1 225.34 306.1 225.34 308.62 224.39 308.62 224.39 307.83 221.23 307.83 221.23 309.08"/>
    <polygon class="cls-3" points="221.23 312.54 220.29 312.54 220.29 309.08 221.23 309.08 221.23 310.34 224.39 310.34 224.39 309.55 225.34 309.55 225.34 312.08 224.39 312.08 224.39 311.29 221.23 311.29 221.23 312.54"/>
    <polygon class="cls-3" points="221.23 315.99 220.29 315.99 220.29 312.54 221.23 312.54 221.23 313.8 224.39 313.8 224.39 313.01 225.34 313.01 225.34 315.53 224.39 315.53 224.39 314.74 221.23 314.74 221.23 315.99"/>
    <polygon class="cls-3" points="216.82 316.94 216.82 315.99 220.29 315.99 220.29 316.94 219.02 316.94 219.02 320.1 219.81 320.1 219.81 321.05 217.28 321.05 217.28 320.1 218.07 320.1 218.07 316.94 216.82 316.94"/>
    <polygon class="cls-3" points="213.35 316.94 213.35 315.99 216.82 315.99 216.82 316.94 215.55 316.94 215.55 320.1 216.35 320.1 216.35 321.05 213.81 321.05 213.81 320.1 214.6 320.1 214.6 316.94 213.35 316.94"/>
    <polygon class="cls-3" points="209.88 316.94 209.88 315.99 213.35 315.99 213.35 316.94 212.08 316.94 212.08 320.1 212.88 320.1 212.88 321.05 210.34 321.05 210.34 320.1 211.13 320.1 211.13 316.94 209.88 316.94"/>
    <polygon class="cls-3" points="206.41 316.94 206.41 315.99 209.88 315.99 209.88 316.94 208.61 316.94 208.61 320.1 209.41 320.1 209.41 321.05 206.87 321.05 206.87 320.1 207.66 320.1 207.66 316.94 206.41 316.94"/>
    <polygon class="cls-3" points="202.94 316.94 202.94 315.99 206.41 315.99 206.41 316.94 205.14 316.94 205.14 320.1 205.94 320.1 205.94 321.05 203.4 321.05 203.4 320.1 204.19 320.1 204.19 316.94 202.94 316.94"/>
    <polygon class="cls-3" points="199.47 316.94 199.47 315.99 202.94 315.99 202.94 316.94 201.67 316.94 201.67 320.1 202.47 320.1 202.47 321.05 199.93 321.05 199.93 320.1 200.72 320.1 200.72 316.94 199.47 316.94"/>
    <polygon class="cls-3" points="196 316.94 196 315.99 199.47 315.99 199.47 316.94 198.2 316.94 198.2 320.1 199 320.1 199 321.05 196.46 321.05 196.46 320.1 197.25 320.1 197.25 316.94 196 316.94"/>
    <polygon class="cls-3" points="192.53 316.94 192.53 315.99 196 315.99 196 316.94 194.73 316.94 194.73 320.1 195.53 320.1 195.53 321.05 192.99 321.05 192.99 320.1 193.78 320.1 193.78 316.94 192.53 316.94"/>
    <polygon class="cls-3" points="189.06 316.94 189.06 315.99 192.53 315.99 192.53 316.94 191.26 316.94 191.26 320.1 192.06 320.1 192.06 321.05 189.52 321.05 189.52 320.1 190.31 320.1 190.31 316.94 189.06 316.94"/>
    <polygon class="cls-3" points="185.59 316.94 185.59 315.99 189.06 315.99 189.06 316.94 187.79 316.94 187.79 320.1 188.59 320.1 188.59 321.05 186.05 321.05 186.05 320.1 186.84 320.1 186.84 316.94 185.59 316.94"/>
    <polygon class="cls-3" points="182.12 316.94 182.12 315.99 185.59 315.99 185.59 316.94 184.32 316.94 184.32 320.1 185.12 320.1 185.12 321.05 182.58 321.05 182.58 320.1 183.37 320.1 183.37 316.94 182.12 316.94"/>
    <polygon class="cls-3" points="178.65 316.94 178.65 315.99 182.12 315.99 182.12 316.94 180.85 316.94 180.85 320.1 181.65 320.1 181.65 321.05 179.11 321.05 179.11 320.1 179.9 320.1 179.9 316.94 178.65 316.94"/>
    <polygon class="cls-3" points="175.18 316.94 175.18 315.99 178.65 315.99 178.65 316.94 177.38 316.94 177.38 320.1 178.18 320.1 178.18 321.05 175.64 321.05 175.64 320.1 176.44 320.1 176.44 316.94 175.18 316.94"/>
    <polygon class="cls-3" points="171.71 316.94 171.71 315.99 175.18 315.99 175.18 316.94 173.92 316.94 173.92 320.1 174.71 320.1 174.71 321.05 172.17 321.05 172.17 320.1 172.97 320.1 172.97 316.94 171.71 316.94"/>
    <polygon class="cls-3" points="168.24 316.94 168.24 315.99 171.71 315.99 171.71 316.94 170.45 316.94 170.45 320.1 171.24 320.1 171.24 321.05 168.7 321.05 168.7 320.1 169.5 320.1 169.5 316.94 168.24 316.94"/>
    <polygon class="cls-3" points="164.77 316.94 164.77 315.99 168.24 315.99 168.24 316.94 166.98 316.94 166.98 320.1 167.77 320.1 167.77 321.05 165.23 321.05 165.23 320.1 166.03 320.1 166.03 316.94 164.77 316.94"/>
    <polygon class="cls-3" points="161.3 316.94 161.3 315.99 164.77 315.99 164.77 316.94 163.51 316.94 163.51 320.1 164.3 320.1 164.3 321.05 161.76 321.05 161.76 320.1 162.56 320.1 162.56 316.94 161.3 316.94"/>
    <polygon class="cls-3" points="157.83 316.94 157.83 315.99 161.3 315.99 161.3 316.94 160.04 316.94 160.04 320.1 160.83 320.1 160.83 321.05 158.29 321.05 158.29 320.1 159.09 320.1 159.09 316.94 157.83 316.94"/>
    <polygon class="cls-3" points="154.36 316.94 154.36 315.99 157.83 315.99 157.83 316.94 156.57 316.94 156.57 320.1 157.36 320.1 157.36 321.05 154.82 321.05 154.82 320.1 155.62 320.1 155.62 316.94 154.36 316.94"/>
    <polygon class="cls-3" points="150.89 316.94 150.89 315.99 154.36 315.99 154.36 316.94 153.1 316.94 153.1 320.1 153.89 320.1 153.89 321.05 151.35 321.05 151.35 320.1 152.15 320.1 152.15 316.94 150.89 316.94"/>
    <polygon class="cls-3" points="147.42 316.94 147.42 315.99 150.89 315.99 150.89 316.94 149.63 316.94 149.63 320.1 150.42 320.1 150.42 321.05 147.88 321.05 147.88 320.1 148.68 320.1 148.68 316.94 147.42 316.94"/>
    <polygon class="cls-3" points="143.95 316.94 143.95 315.99 147.42 315.99 147.42 316.94 146.16 316.94 146.16 320.1 146.95 320.1 146.95 321.05 144.41 321.05 144.41 320.1 145.21 320.1 145.21 316.94 143.95 316.94"/>
    <polygon class="cls-3" points="140.48 316.94 140.48 315.99 143.95 315.99 143.95 316.94 142.69 316.94 142.69 320.1 143.48 320.1 143.48 321.05 140.95 321.05 140.95 320.1 141.74 320.1 141.74 316.94 140.48 316.94"/>
    <polygon class="cls-3" points="137.01 316.94 137.01 315.99 140.48 315.99 140.48 316.94 139.22 316.94 139.22 320.1 140.01 320.1 140.01 321.05 137.48 321.05 137.48 320.1 138.27 320.1 138.27 316.94 137.01 316.94"/>
    <polygon class="cls-3" points="133.54 316.94 133.54 315.99 137.01 315.99 137.01 316.94 135.75 316.94 135.75 320.1 136.54 320.1 136.54 321.05 134.01 321.05 134.01 320.1 134.8 320.1 134.8 316.94 133.54 316.94"/>
    <polygon class="cls-3" points="130.07 316.94 130.07 315.99 133.54 315.99 133.54 316.94 132.28 316.94 132.28 320.1 133.07 320.1 133.07 321.05 130.54 321.05 130.54 320.1 131.33 320.1 131.33 316.94 130.07 316.94"/>
    <polygon class="cls-3" points="126.61 316.94 126.61 315.99 130.07 315.99 130.07 316.94 128.81 316.94 128.81 320.1 129.6 320.1 129.6 321.05 127.07 321.05 127.07 320.1 127.86 320.1 127.86 316.94 126.61 316.94"/>
    <polygon class="cls-3" points="123.14 316.94 123.14 315.99 126.61 315.99 126.61 316.94 125.34 316.94 125.34 320.1 126.13 320.1 126.13 321.05 123.6 321.05 123.6 320.1 124.39 320.1 124.39 316.94 123.14 316.94"/>
    <polygon class="cls-3" points="119.67 316.94 119.67 315.99 123.14 315.99 123.14 316.94 121.87 316.94 121.87 320.1 122.66 320.1 122.66 321.05 120.13 321.05 120.13 320.1 120.92 320.1 120.92 316.94 119.67 316.94"/>
    <polygon class="cls-3" points="116.2 316.94 116.2 315.99 119.67 315.99 119.67 316.94 118.4 316.94 118.4 320.1 119.19 320.1 119.19 321.05 116.66 321.05 116.66 320.1 117.45 320.1 117.45 316.94 116.2 316.94"/>
    <polygon class="cls-3" points="112.73 316.94 112.73 315.99 116.2 315.99 116.2 316.94 114.93 316.94 114.93 320.1 115.73 320.1 115.73 321.05 113.19 321.05 113.19 320.1 113.98 320.1 113.98 316.94 112.73 316.94"/>
    <polygon class="cls-3" points="109.26 316.94 109.26 315.99 112.73 315.99 112.73 316.94 111.46 316.94 111.46 320.1 112.26 320.1 112.26 321.05 109.72 321.05 109.72 320.1 110.51 320.1 110.51 316.94 109.26 316.94"/>
    <polygon class="cls-3" points="105.79 316.94 105.79 315.99 109.26 315.99 109.26 316.94 107.99 316.94 107.99 320.1 108.79 320.1 108.79 321.05 106.25 321.05 106.25 320.1 107.04 320.1 107.04 316.94 105.79 316.94"/>
    <polygon class="cls-3" points="102.32 316.94 102.32 315.99 105.79 315.99 105.79 316.94 104.52 316.94 104.52 320.1 105.32 320.1 105.32 321.05 102.78 321.05 102.78 320.1 103.57 320.1 103.57 316.94 102.32 316.94"/>
    <polygon class="cls-3" points="98.85 316.94 98.85 315.99 102.32 315.99 102.32 316.94 101.05 316.94 101.05 320.1 101.85 320.1 101.85 321.05 99.31 321.05 99.31 320.1 100.1 320.1 100.1 316.94 98.85 316.94"/>
    <polygon class="cls-3" points="95.38 316.94 95.38 315.99 98.85 315.99 98.85 316.94 97.58 316.94 97.58 320.1 98.38 320.1 98.38 321.05 95.84 321.05 95.84 320.1 96.63 320.1 96.63 316.94 95.38 316.94"/>
    <polygon class="cls-3" points="91.91 316.94 91.91 315.99 95.38 315.99 95.38 316.94 94.11 316.94 94.11 320.1 94.91 320.1 94.91 321.05 92.37 321.05 92.37 320.1 93.16 320.1 93.16 316.94 91.91 316.94"/>
    <polygon class="cls-3" points="88.44 316.94 88.44 315.99 91.91 315.99 91.91 316.94 90.64 316.94 90.64 320.1 91.44 320.1 91.44 321.05 88.9 321.05 88.9 320.1 89.69 320.1 89.69 316.94 88.44 316.94"/>
    <polygon class="cls-3" points="84.97 316.94 84.97 315.99 88.44 315.99 88.44 316.94 87.17 316.94 87.17 320.1 87.97 320.1 87.97 321.05 85.43 321.05 85.43 320.1 86.22 320.1 86.22 316.94 84.97 316.94"/>
    <polygon class="cls-3" points="81.5 316.94 81.5 315.99 84.97 315.99 84.97 316.94 83.7 316.94 83.7 320.1 84.5 320.1 84.5 321.05 81.96 321.05 81.96 320.1 82.75 320.1 82.75 316.94 81.5 316.94"/>
    <polygon class="cls-3" points="78.03 316.94 78.03 315.99 81.5 315.99 81.5 316.94 80.23 316.94 80.23 320.1 81.03 320.1 81.03 321.05 78.49 321.05 78.49 320.1 79.28 320.1 79.28 316.94 78.03 316.94"/>
    <polygon class="cls-3" points="74.56 316.94 74.56 315.99 78.03 315.99 78.03 316.94 76.76 316.94 76.76 320.1 77.56 320.1 77.56 321.05 75.02 321.05 75.02 320.1 75.81 320.1 75.81 316.94 74.56 316.94"/>
    <polygon class="cls-3" points="71.09 316.94 71.09 315.99 74.56 315.99 74.56 316.94 73.3 316.94 73.3 320.1 74.09 320.1 74.09 321.05 71.55 321.05 71.55 320.1 72.35 320.1 72.35 316.94 71.09 316.94"/>
    <polygon class="cls-3" points="67.62 316.94 67.62 315.99 71.09 315.99 71.09 316.94 69.83 316.94 69.83 320.1 70.62 320.1 70.62 321.05 68.08 321.05 68.08 320.1 68.88 320.1 68.88 316.94 67.62 316.94"/>
    <polygon class="cls-3" points="64.15 316.94 64.15 315.99 67.62 315.99 67.62 316.94 66.36 316.94 66.36 320.1 67.15 320.1 67.15 321.05 64.61 321.05 64.61 320.1 65.41 320.1 65.41 316.94 64.15 316.94"/>
    <polygon class="cls-3" points="60.68 316.94 60.68 315.99 64.15 315.99 64.15 316.94 62.89 316.94 62.89 320.1 63.68 320.1 63.68 321.05 61.14 321.05 61.14 320.1 61.94 320.1 61.94 316.94 60.68 316.94"/>
    <polygon class="cls-3" points="57.21 316.94 57.21 315.99 60.68 315.99 60.68 316.94 59.42 316.94 59.42 320.1 60.21 320.1 60.21 321.05 57.67 321.05 57.67 320.1 58.47 320.1 58.47 316.94 57.21 316.94"/>
    <polygon class="cls-3" points="53.74 316.94 53.74 315.99 57.21 315.99 57.21 316.94 55.95 316.94 55.95 320.1 56.74 320.1 56.74 321.05 54.2 321.05 54.2 320.1 55 320.1 55 316.94 53.74 316.94"/>
    <polygon class="cls-3" points="50.27 316.94 50.27 315.99 53.74 315.99 53.74 316.94 52.48 316.94 52.48 320.1 53.27 320.1 53.27 321.05 50.73 321.05 50.73 320.1 51.53 320.1 51.53 316.94 50.27 316.94"/>
    <polygon class="cls-3" points="46.8 316.94 46.8 315.99 50.27 315.99 50.27 316.94 49.01 316.94 49.01 320.1 49.8 320.1 49.8 321.05 47.26 321.05 47.26 320.1 48.06 320.1 48.06 316.94 46.8 316.94"/>
    <polygon class="cls-3" points="43.33 316.94 43.33 315.99 46.8 315.99 46.8 316.94 45.54 316.94 45.54 320.1 46.33 320.1 46.33 321.05 43.79 321.05 43.79 320.1 44.59 320.1 44.59 316.94 43.33 316.94"/>
    <polygon class="cls-3" points="39.86 316.94 39.86 315.99 43.33 315.99 43.33 316.94 42.07 316.94 42.07 320.1 42.86 320.1 42.86 321.05 40.32 321.05 40.32 320.1 41.12 320.1 41.12 316.94 39.86 316.94"/>
    <polygon class="cls-3" points="36.39 316.94 36.39 315.99 39.86 315.99 39.86 316.94 38.6 316.94 38.6 320.1 39.39 320.1 39.39 321.05 36.86 321.05 36.86 320.1 37.65 320.1 37.65 316.94 36.39 316.94"/>
    <polygon class="cls-3" points="32.92 316.94 32.92 315.99 36.39 315.99 36.39 316.94 35.13 316.94 35.13 320.1 35.92 320.1 35.92 321.05 33.39 321.05 33.39 320.1 34.18 320.1 34.18 316.94 32.92 316.94"/>
    <polygon class="cls-3" points="29.45 316.94 29.45 315.99 32.92 315.99 32.92 316.94 31.66 316.94 31.66 320.1 32.45 320.1 32.45 321.05 29.92 321.05 29.92 320.1 30.71 320.1 30.71 316.94 29.45 316.94"/>
    <polygon class="cls-3" points="25.99 316.94 25.99 315.99 29.45 315.99 29.45 316.94 28.19 316.94 28.19 320.1 28.98 320.1 28.98 321.05 26.45 321.05 26.45 320.1 27.24 320.1 27.24 316.94 25.99 316.94"/>
    <polygon class="cls-3" points="22.52 316.94 22.52 315.99 25.99 315.99 25.99 316.94 24.72 316.94 24.72 320.1 25.51 320.1 25.51 321.05 22.98 321.05 22.98 320.1 23.77 320.1 23.77 316.94 22.52 316.94"/>
    <polygon class="cls-3" points="19.05 316.94 19.05 315.99 22.52 315.99 22.52 316.94 21.25 316.94 21.25 320.1 22.04 320.1 22.04 321.05 19.51 321.05 19.51 320.1 20.3 320.1 20.3 316.94 19.05 316.94"/>
    <polygon class="cls-3" points="15.58 316.94 15.58 315.99 19.05 315.99 19.05 316.94 17.78 316.94 17.78 320.1 18.57 320.1 18.57 321.05 16.04 321.05 16.04 320.1 16.83 320.1 16.83 316.94 15.58 316.94"/>
    <polygon class="cls-3" points="12.11 316.94 12.11 315.99 15.58 315.99 15.58 316.94 14.31 316.94 14.31 320.1 15.1 320.1 15.1 321.05 12.57 321.05 12.57 320.1 13.36 320.1 13.36 316.94 12.11 316.94"/>
    <polygon class="cls-3" points="8.64 316.94 8.64 315.99 12.11 315.99 12.11 316.94 10.84 316.94 10.84 320.1 11.64 320.1 11.64 321.05 9.1 321.05 9.1 320.1 9.89 320.1 9.89 316.94 8.64 316.94"/>
    <polygon class="cls-3" points="5.17 316.94 5.17 315.99 8.64 315.99 8.64 316.94 7.37 316.94 7.37 320.1 8.17 320.1 8.17 321.05 5.63 321.05 5.63 320.1 6.42 320.1 6.42 316.94 5.17 316.94"/>
    <g class="cls-8">
      <polygon class="cls-3" points="4.22 .08 5.17 .08 5.17 5.13 4.22 5.13 4.22 3.29 1.06 3.29 1.06 4.44 .11 4.44 .11 .75 1.06 .75 1.06 1.9 4.22 1.9 4.22 .08"/>
    </g>
    <g class="cls-6">
      <polygon class="cls-3" points="5.17 4.18 5.17 5.13 .11 5.13 .11 4.18 1.96 4.18 1.96 1.02 .8 1.02 .8 .08 4.5 .08 4.5 1.02 3.34 1.02 3.34 4.18 5.17 4.18"/>
    </g>
    <g class="cls-1">
      <polygon class="cls-3" points="225.34 4.18 225.34 5.13 220.29 5.13 220.29 4.18 222.13 4.18 222.13 1.02 220.97 1.02 220.97 .08 224.67 .08 224.67 1.02 223.51 1.02 223.51 4.18 225.34 4.18"/>
    </g>
    <g class="cls-9">
      <polygon class="cls-3" points="221.23 5.13 220.29 5.13 220.29 .08 221.23 .08 221.23 1.92 224.39 1.92 224.39 .76 225.34 .76 225.34 4.46 224.39 4.46 224.39 3.3 221.23 3.3 221.23 5.13"/>
    </g>
    <g class="cls-7">
      <polygon class="cls-3" points="221.23 321.05 220.29 321.05 220.29 315.99 221.23 315.99 221.23 317.83 224.39 317.83 224.39 316.68 225.34 316.68 225.34 320.37 224.39 320.37 224.39 319.22 221.23 319.22 221.23 321.05"/>
    </g>
    <g class="cls-10">
      <polygon class="cls-3" points="220.29 316.94 220.29 315.99 225.34 315.99 225.34 316.94 223.5 316.94 223.5 320.1 224.65 320.1 224.65 321.05 220.96 321.05 220.96 320.1 222.11 320.1 222.11 316.94 220.29 316.94"/>
    </g>
    <g class="cls-2">
      <polygon class="cls-3" points=".11 316.94 .11 315.99 5.17 315.99 5.17 316.94 3.32 316.94 3.32 320.1 4.48 320.1 4.48 321.05 .79 321.05 .79 320.1 1.94 320.1 1.94 316.94 .11 316.94"/>
    </g>
    <g class="cls-5">
      <polygon class="cls-3" points="4.22 315.99 5.17 315.99 5.17 321.05 4.22 321.05 4.22 319.2 1.06 319.2 1.06 320.36 .11 320.36 .11 316.66 1.06 316.66 1.06 317.82 4.22 317.82 4.22 315.99"/>
    </g>
  </g>
</svg>