<?xml version="1.0" encoding="UTF-8"?>
<svg id="Layer_1" data-name="Layer 1" xmlns="http://www.w3.org/2000/svg" version="1.1" xmlns:xlink="http://www.w3.org/1999/xlink" viewBox="0 0 126.32 319.67">
  <defs>
    <style>
      .cls-1 {
        clip-path: url(#clippath-2);
      }

      .cls-2 {
        clip-path: url(#clippath-6);
      }

      .cls-3 {
        fill: #4e4545;
      }

      .cls-3, .cls-4 {
        stroke-width: 0px;
      }

      .cls-4 {
        fill: none;
      }

      .cls-5 {
        clip-path: url(#clippath-7);
      }

      .cls-6 {
        clip-path: url(#clippath-1);
      }

      .cls-7 {
        clip-path: url(#clippath-4);
      }

      .cls-8 {
        clip-path: url(#clippath);
      }

      .cls-9 {
        clip-path: url(#clippath-3);
      }

      .cls-10 {
        clip-path: url(#clippath-5);
      }
    </style>
    <clipPath id="clippath">
      <polygon class="cls-4" points="3.55 3.6 .18 .23 .18 3.6 3.55 3.6"/>
    </clipPath>
    <clipPath id="clippath-1">
      <polygon class="cls-4" points="3.55 3.6 .18 .23 3.55 .23 3.55 3.6"/>
    </clipPath>
    <clipPath id="clippath-2">
      <polygon class="cls-4" points="122.76 3.6 126.13 .23 122.76 .23 122.76 3.6"/>
    </clipPath>
    <clipPath id="clippath-3">
      <polygon class="cls-4" points="122.76 3.6 126.13 .23 126.13 3.6 122.76 3.6"/>
    </clipPath>
    <clipPath id="clippath-4">
      <polygon class="cls-4" points="122.76 316.15 126.13 319.52 126.13 316.15 122.76 316.15"/>
    </clipPath>
    <clipPath id="clippath-5">
      <polygon class="cls-4" points="122.76 316.15 126.13 319.52 122.76 319.52 122.76 316.15"/>
    </clipPath>
    <clipPath id="clippath-6">
      <polygon class="cls-4" points="3.55 316.15 .18 319.52 3.55 319.52 3.55 316.15"/>
    </clipPath>
    <clipPath id="clippath-7">
      <polygon class="cls-4" points="3.55 316.15 .18 319.52 .18 316.15 3.55 316.15"/>
    </clipPath>
  </defs>
  <rect class="cls-3" x="1.86" y="1.92" width="122.59" height="315.91"/>
  <g>
    <polygon class="cls-3" points="2.92 313.83 3.55 313.83 3.55 316.15 2.92 316.15 2.92 315.3 .81 315.3 .81 315.83 .18 315.83 .18 314.14 .81 314.14 .81 314.67 2.92 314.67 2.92 313.83"/>
    <polygon class="cls-3" points="2.92 311.52 3.55 311.52 3.55 313.83 2.92 313.83 2.92 312.99 .81 312.99 .81 313.52 .18 313.52 .18 311.82 .81 311.82 .81 312.35 2.92 312.35 2.92 311.52"/>
    <polygon class="cls-3" points="2.92 309.2 3.55 309.2 3.55 311.52 2.92 311.52 2.92 310.67 .81 310.67 .81 311.2 .18 311.2 .18 309.51 .81 309.51 .81 310.04 2.92 310.04 2.92 309.2"/>
    <polygon class="cls-3" points="2.92 306.89 3.55 306.89 3.55 309.2 2.92 309.2 2.92 308.36 .81 308.36 .81 308.89 .18 308.89 .18 307.19 .81 307.19 .81 307.72 2.92 307.72 2.92 306.89"/>
    <polygon class="cls-3" points="2.92 304.57 3.55 304.57 3.55 306.89 2.92 306.89 2.92 306.04 .81 306.04 .81 306.57 .18 306.57 .18 304.88 .81 304.88 .81 305.41 2.92 305.41 2.92 304.57"/>
    <polygon class="cls-3" points="2.92 302.26 3.55 302.26 3.55 304.57 2.92 304.57 2.92 303.73 .81 303.73 .81 304.26 .18 304.26 .18 302.56 .81 302.56 .81 303.09 2.92 303.09 2.92 302.26"/>
    <polygon class="cls-3" points="2.92 299.94 3.55 299.94 3.55 302.26 2.92 302.26 2.92 301.41 .81 301.41 .81 301.94 .18 301.94 .18 300.25 .81 300.25 .81 300.78 2.92 300.78 2.92 299.94"/>
    <polygon class="cls-3" points="2.92 297.63 3.55 297.63 3.55 299.94 2.92 299.94 2.92 299.1 .81 299.1 .81 299.63 .18 299.63 .18 297.93 .81 297.93 .81 298.46 2.92 298.46 2.92 297.63"/>
    <polygon class="cls-3" points="2.92 295.31 3.55 295.31 3.55 297.63 2.92 297.63 2.92 296.78 .81 296.78 .81 297.31 .18 297.31 .18 295.62 .81 295.62 .81 296.15 2.92 296.15 2.92 295.31"/>
    <polygon class="cls-3" points="2.92 292.99 3.55 292.99 3.55 295.31 2.92 295.31 2.92 294.47 .81 294.47 .81 295 .18 295 .18 293.3 .81 293.3 .81 293.83 2.92 293.83 2.92 292.99"/>
    <polygon class="cls-3" points="2.92 290.68 3.55 290.68 3.55 292.99 2.92 292.99 2.92 292.15 .81 292.15 .81 292.68 .18 292.68 .18 290.99 .81 290.99 .81 291.52 2.92 291.52 2.92 290.68"/>
    <polygon class="cls-3" points="2.92 288.36 3.55 288.36 3.55 290.68 2.92 290.68 2.92 289.84 .81 289.84 .81 290.37 .18 290.37 .18 288.67 .81 288.67 .81 289.2 2.92 289.2 2.92 288.36"/>
    <polygon class="cls-3" points="2.92 286.05 3.55 286.05 3.55 288.36 2.92 288.36 2.92 287.52 .81 287.52 .81 288.05 .18 288.05 .18 286.36 .81 286.36 .81 286.89 2.92 286.89 2.92 286.05"/>
    <polygon class="cls-3" points="2.92 283.73 3.55 283.73 3.55 286.05 2.92 286.05 2.92 285.21 .81 285.21 .81 285.74 .18 285.74 .18 284.04 .81 284.04 .81 284.57 2.92 284.57 2.92 283.73"/>
    <polygon class="cls-3" points="2.92 281.42 3.55 281.42 3.55 283.73 2.92 283.73 2.92 282.89 .81 282.89 .81 283.42 .18 283.42 .18 281.73 .81 281.73 .81 282.26 2.92 282.26 2.92 281.42"/>
    <polygon class="cls-3" points="2.92 279.1 3.55 279.1 3.55 281.42 2.92 281.42 2.92 280.57 .81 280.57 .81 281.1 .18 281.1 .18 279.41 .81 279.41 .81 279.94 2.92 279.94 2.92 279.1"/>
    <polygon class="cls-3" points="2.92 276.79 3.55 276.79 3.55 279.1 2.92 279.1 2.92 278.26 .81 278.26 .81 278.79 .18 278.79 .18 277.1 .81 277.1 .81 277.63 2.92 277.63 2.92 276.79"/>
    <polygon class="cls-3" points="2.92 274.47 3.55 274.47 3.55 276.79 2.92 276.79 2.92 275.94 .81 275.94 .81 276.47 .18 276.47 .18 274.78 .81 274.78 .81 275.31 2.92 275.31 2.92 274.47"/>
    <polygon class="cls-3" points="2.92 272.16 3.55 272.16 3.55 274.47 2.92 274.47 2.92 273.63 .81 273.63 .81 274.16 .18 274.16 .18 272.47 .81 272.47 .81 273 2.92 273 2.92 272.16"/>
    <polygon class="cls-3" points="2.92 269.84 3.55 269.84 3.55 272.16 2.92 272.16 2.92 271.31 .81 271.31 .81 271.84 .18 271.84 .18 270.15 .81 270.15 .81 270.68 2.92 270.68 2.92 269.84"/>
    <polygon class="cls-3" points="2.92 267.53 3.55 267.53 3.55 269.84 2.92 269.84 2.92 269 .81 269 .81 269.53 .18 269.53 .18 267.84 .81 267.84 .81 268.37 2.92 268.37 2.92 267.53"/>
    <polygon class="cls-3" points="2.92 265.21 3.55 265.21 3.55 267.53 2.92 267.53 2.92 266.68 .81 266.68 .81 267.21 .18 267.21 .18 265.52 .81 265.52 .81 266.05 2.92 266.05 2.92 265.21"/>
    <polygon class="cls-3" points="2.92 262.9 3.55 262.9 3.55 265.21 2.92 265.21 2.92 264.37 .81 264.37 .81 264.9 .18 264.9 .18 263.21 .81 263.21 .81 263.74 2.92 263.74 2.92 262.9"/>
    <polygon class="cls-3" points="2.92 260.58 3.55 260.58 3.55 262.9 2.92 262.9 2.92 262.05 .81 262.05 .81 262.58 .18 262.58 .18 260.89 .81 260.89 .81 261.42 2.92 261.42 2.92 260.58"/>
    <polygon class="cls-3" points="2.92 258.27 3.55 258.27 3.55 260.58 2.92 260.58 2.92 259.74 .81 259.74 .81 260.27 .18 260.27 .18 258.58 .81 258.58 .81 259.1 2.92 259.1 2.92 258.27"/>
    <polygon class="cls-3" points="2.92 255.95 3.55 255.95 3.55 258.27 2.92 258.27 2.92 257.42 .81 257.42 .81 257.95 .18 257.95 .18 256.26 .81 256.26 .81 256.79 2.92 256.79 2.92 255.95"/>
    <polygon class="cls-3" points="2.92 253.64 3.55 253.64 3.55 255.95 2.92 255.95 2.92 255.11 .81 255.11 .81 255.64 .18 255.64 .18 253.94 .81 253.94 .81 254.47 2.92 254.47 2.92 253.64"/>
    <polygon class="cls-3" points="2.92 251.32 3.55 251.32 3.55 253.64 2.92 253.64 2.92 252.79 .81 252.79 .81 253.32 .18 253.32 .18 251.63 .81 251.63 .81 252.16 2.92 252.16 2.92 251.32"/>
    <polygon class="cls-3" points="2.92 249.01 3.55 249.01 3.55 251.32 2.92 251.32 2.92 250.48 .81 250.48 .81 251.01 .18 251.01 .18 249.31 .81 249.31 .81 249.84 2.92 249.84 2.92 249.01"/>
    <polygon class="cls-3" points="2.92 246.69 3.55 246.69 3.55 249.01 2.92 249.01 2.92 248.16 .81 248.16 .81 248.69 .18 248.69 .18 247 .81 247 .81 247.53 2.92 247.53 2.92 246.69"/>
    <polygon class="cls-3" points="2.92 244.38 3.55 244.38 3.55 246.69 2.92 246.69 2.92 245.85 .81 245.85 .81 246.38 .18 246.38 .18 244.68 .81 244.68 .81 245.21 2.92 245.21 2.92 244.38"/>
    <polygon class="cls-3" points="2.92 242.06 3.55 242.06 3.55 244.38 2.92 244.38 2.92 243.53 .81 243.53 .81 244.06 .18 244.06 .18 242.37 .81 242.37 .81 242.9 2.92 242.9 2.92 242.06"/>
    <polygon class="cls-3" points="2.92 239.75 3.55 239.75 3.55 242.06 2.92 242.06 2.92 241.22 .81 241.22 .81 241.75 .18 241.75 .18 240.05 .81 240.05 .81 240.58 2.92 240.58 2.92 239.75"/>
    <polygon class="cls-3" points="2.92 237.43 3.55 237.43 3.55 239.75 2.92 239.75 2.92 238.9 .81 238.9 .81 239.43 .18 239.43 .18 237.74 .81 237.74 .81 238.27 2.92 238.27 2.92 237.43"/>
    <polygon class="cls-3" points="2.92 235.12 3.55 235.12 3.55 237.43 2.92 237.43 2.92 236.59 .81 236.59 .81 237.12 .18 237.12 .18 235.42 .81 235.42 .81 235.95 2.92 235.95 2.92 235.12"/>
    <polygon class="cls-3" points="2.92 232.8 3.55 232.8 3.55 235.12 2.92 235.12 2.92 234.27 .81 234.27 .81 234.8 .18 234.8 .18 233.11 .81 233.11 .81 233.64 2.92 233.64 2.92 232.8"/>
    <polygon class="cls-3" points="2.92 230.49 3.55 230.49 3.55 232.8 2.92 232.8 2.92 231.96 .81 231.96 .81 232.49 .18 232.49 .18 230.79 .81 230.79 .81 231.32 2.92 231.32 2.92 230.49"/>
    <polygon class="cls-3" points="2.92 228.17 3.55 228.17 3.55 230.49 2.92 230.49 2.92 229.64 .81 229.64 .81 230.17 .18 230.17 .18 228.48 .81 228.48 .81 229.01 2.92 229.01 2.92 228.17"/>
    <polygon class="cls-3" points="2.92 225.86 3.55 225.86 3.55 228.17 2.92 228.17 2.92 227.33 .81 227.33 .81 227.86 .18 227.86 .18 226.16 .81 226.16 .81 226.69 2.92 226.69 2.92 225.86"/>
    <polygon class="cls-3" points="2.92 223.54 3.55 223.54 3.55 225.86 2.92 225.86 2.92 225.01 .81 225.01 .81 225.54 .18 225.54 .18 223.85 .81 223.85 .81 224.38 2.92 224.38 2.92 223.54"/>
    <polygon class="cls-3" points="2.92 221.23 3.55 221.23 3.55 223.54 2.92 223.54 2.92 222.7 .81 222.7 .81 223.23 .18 223.23 .18 221.53 .81 221.53 .81 222.06 2.92 222.06 2.92 221.23"/>
    <polygon class="cls-3" points="2.92 218.91 3.55 218.91 3.55 221.23 2.92 221.23 2.92 220.38 .81 220.38 .81 220.91 .18 220.91 .18 219.22 .81 219.22 .81 219.75 2.92 219.75 2.92 218.91"/>
    <polygon class="cls-3" points="2.92 216.59 3.55 216.59 3.55 218.91 2.92 218.91 2.92 218.07 .81 218.07 .81 218.6 .18 218.6 .18 216.9 .81 216.9 .81 217.43 2.92 217.43 2.92 216.59"/>
    <polygon class="cls-3" points="2.92 214.28 3.55 214.28 3.55 216.59 2.92 216.59 2.92 215.75 .81 215.75 .81 216.28 .18 216.28 .18 214.59 .81 214.59 .81 215.12 2.92 215.12 2.92 214.28"/>
    <polygon class="cls-3" points="2.92 211.96 3.55 211.96 3.55 214.28 2.92 214.28 2.92 213.44 .81 213.44 .81 213.97 .18 213.97 .18 212.27 .81 212.27 .81 212.8 2.92 212.8 2.92 211.96"/>
    <polygon class="cls-3" points="2.92 209.65 3.55 209.65 3.55 211.96 2.92 211.96 2.92 211.12 .81 211.12 .81 211.65 .18 211.65 .18 209.96 .81 209.96 .81 210.49 2.92 210.49 2.92 209.65"/>
    <polygon class="cls-3" points="2.92 207.33 3.55 207.33 3.55 209.65 2.92 209.65 2.92 208.8 .81 208.8 .81 209.33 .18 209.33 .18 207.64 .81 207.64 .81 208.17 2.92 208.17 2.92 207.33"/>
    <polygon class="cls-3" points="2.92 205.02 3.55 205.02 3.55 207.33 2.92 207.33 2.92 206.49 .81 206.49 .81 207.02 .18 207.02 .18 205.33 .81 205.33 .81 205.86 2.92 205.86 2.92 205.02"/>
    <polygon class="cls-3" points="2.92 202.7 3.55 202.7 3.55 205.02 2.92 205.02 2.92 204.17 .81 204.17 .81 204.7 .18 204.7 .18 203.01 .81 203.01 .81 203.54 2.92 203.54 2.92 202.7"/>
    <polygon class="cls-3" points="2.92 200.39 3.55 200.39 3.55 202.7 2.92 202.7 2.92 201.86 .81 201.86 .81 202.39 .18 202.39 .18 200.7 .81 200.7 .81 201.23 2.92 201.23 2.92 200.39"/>
    <polygon class="cls-3" points="2.92 198.07 3.55 198.07 3.55 200.39 2.92 200.39 2.92 199.54 .81 199.54 .81 200.07 .18 200.07 .18 198.38 .81 198.38 .81 198.91 2.92 198.91 2.92 198.07"/>
    <polygon class="cls-3" points="2.92 195.76 3.55 195.76 3.55 198.07 2.92 198.07 2.92 197.23 .81 197.23 .81 197.76 .18 197.76 .18 196.07 .81 196.07 .81 196.6 2.92 196.6 2.92 195.76"/>
    <polygon class="cls-3" points="2.92 193.44 3.55 193.44 3.55 195.76 2.92 195.76 2.92 194.91 .81 194.91 .81 195.44 .18 195.44 .18 193.75 .81 193.75 .81 194.28 2.92 194.28 2.92 193.44"/>
    <polygon class="cls-3" points="2.92 191.13 3.55 191.13 3.55 193.44 2.92 193.44 2.92 192.6 .81 192.6 .81 193.13 .18 193.13 .18 191.44 .81 191.44 .81 191.97 2.92 191.97 2.92 191.13"/>
    <polygon class="cls-3" points="2.92 188.81 3.55 188.81 3.55 191.13 2.92 191.13 2.92 190.28 .81 190.28 .81 190.81 .18 190.81 .18 189.12 .81 189.12 .81 189.65 2.92 189.65 2.92 188.81"/>
    <polygon class="cls-3" points="2.92 186.5 3.55 186.5 3.55 188.81 2.92 188.81 2.92 187.97 .81 187.97 .81 188.5 .18 188.5 .18 186.81 .81 186.81 .81 187.33 2.92 187.33 2.92 186.5"/>
    <polygon class="cls-3" points="2.92 184.18 3.55 184.18 3.55 186.5 2.92 186.5 2.92 185.65 .81 185.65 .81 186.18 .18 186.18 .18 184.49 .81 184.49 .81 185.02 2.92 185.02 2.92 184.18"/>
    <polygon class="cls-3" points="2.92 181.87 3.55 181.87 3.55 184.18 2.92 184.18 2.92 183.34 .81 183.34 .81 183.87 .18 183.87 .18 182.18 .81 182.18 .81 182.7 2.92 182.7 2.92 181.87"/>
    <polygon class="cls-3" points="2.92 179.55 3.55 179.55 3.55 181.87 2.92 181.87 2.92 181.02 .81 181.02 .81 181.55 .18 181.55 .18 179.86 .81 179.86 .81 180.39 2.92 180.39 2.92 179.55"/>
    <polygon class="cls-3" points="2.92 177.24 3.55 177.24 3.55 179.55 2.92 179.55 2.92 178.71 .81 178.71 .81 179.24 .18 179.24 .18 177.54 .81 177.54 .81 178.07 2.92 178.07 2.92 177.24"/>
    <polygon class="cls-3" points="2.92 174.92 3.55 174.92 3.55 177.24 2.92 177.24 2.92 176.39 .81 176.39 .81 176.92 .18 176.92 .18 175.23 .81 175.23 .81 175.76 2.92 175.76 2.92 174.92"/>
    <polygon class="cls-3" points="2.92 172.61 3.55 172.61 3.55 174.92 2.92 174.92 2.92 174.08 .81 174.08 .81 174.61 .18 174.61 .18 172.91 .81 172.91 .81 173.44 2.92 173.44 2.92 172.61"/>
    <polygon class="cls-3" points="2.92 170.29 3.55 170.29 3.55 172.61 2.92 172.61 2.92 171.76 .81 171.76 .81 172.29 .18 172.29 .18 170.6 .81 170.6 .81 171.13 2.92 171.13 2.92 170.29"/>
    <polygon class="cls-3" points="2.92 167.98 3.55 167.98 3.55 170.29 2.92 170.29 2.92 169.45 .81 169.45 .81 169.98 .18 169.98 .18 168.28 .81 168.28 .81 168.81 2.92 168.81 2.92 167.98"/>
    <polygon class="cls-3" points="2.92 165.66 3.55 165.66 3.55 167.98 2.92 167.98 2.92 167.13 .81 167.13 .81 167.66 .18 167.66 .18 165.97 .81 165.97 .81 166.5 2.92 166.5 2.92 165.66"/>
    <polygon class="cls-3" points="2.92 163.35 3.55 163.35 3.55 165.66 2.92 165.66 2.92 164.82 .81 164.82 .81 165.35 .18 165.35 .18 163.65 .81 163.65 .81 164.18 2.92 164.18 2.92 163.35"/>
    <polygon class="cls-3" points="2.92 161.03 3.55 161.03 3.55 163.35 2.92 163.35 2.92 162.5 .81 162.5 .81 163.03 .18 163.03 .18 161.34 .81 161.34 .81 161.87 2.92 161.87 2.92 161.03"/>
    <polygon class="cls-3" points="2.92 158.72 3.55 158.72 3.55 161.03 2.92 161.03 2.92 160.19 .81 160.19 .81 160.72 .18 160.72 .18 159.02 .81 159.02 .81 159.55 2.92 159.55 2.92 158.72"/>
    <polygon class="cls-3" points="2.92 156.4 3.55 156.4 3.55 158.72 2.92 158.72 2.92 157.87 .81 157.87 .81 158.4 .18 158.4 .18 156.71 .81 156.71 .81 157.24 2.92 157.24 2.92 156.4"/>
    <polygon class="cls-3" points="2.92 154.09 3.55 154.09 3.55 156.4 2.92 156.4 2.92 155.56 .81 155.56 .81 156.09 .18 156.09 .18 154.39 .81 154.39 .81 154.92 2.92 154.92 2.92 154.09"/>
    <polygon class="cls-3" points="2.92 151.77 3.55 151.77 3.55 154.09 2.92 154.09 2.92 153.24 .81 153.24 .81 153.77 .18 153.77 .18 152.08 .81 152.08 .81 152.61 2.92 152.61 2.92 151.77"/>
    <polygon class="cls-3" points="2.92 149.46 3.55 149.46 3.55 151.77 2.92 151.77 2.92 150.93 .81 150.93 .81 151.46 .18 151.46 .18 149.76 .81 149.76 .81 150.29 2.92 150.29 2.92 149.46"/>
    <polygon class="cls-3" points="2.92 147.14 3.55 147.14 3.55 149.46 2.92 149.46 2.92 148.61 .81 148.61 .81 149.14 .18 149.14 .18 147.45 .81 147.45 .81 147.98 2.92 147.98 2.92 147.14"/>
    <polygon class="cls-3" points="2.92 144.82 3.55 144.82 3.55 147.14 2.92 147.14 2.92 146.3 .81 146.3 .81 146.83 .18 146.83 .18 145.13 .81 145.13 .81 145.66 2.92 145.66 2.92 144.82"/>
    <polygon class="cls-3" points="2.92 142.51 3.55 142.51 3.55 144.82 2.92 144.82 2.92 143.98 .81 143.98 .81 144.51 .18 144.51 .18 142.82 .81 142.82 .81 143.35 2.92 143.35 2.92 142.51"/>
    <polygon class="cls-3" points="2.92 140.19 3.55 140.19 3.55 142.51 2.92 142.51 2.92 141.67 .81 141.67 .81 142.2 .18 142.2 .18 140.5 .81 140.5 .81 141.03 2.92 141.03 2.92 140.19"/>
    <polygon class="cls-3" points="2.92 137.88 3.55 137.88 3.55 140.19 2.92 140.19 2.92 139.35 .81 139.35 .81 139.88 .18 139.88 .18 138.19 .81 138.19 .81 138.72 2.92 138.72 2.92 137.88"/>
    <polygon class="cls-3" points="2.92 135.56 3.55 135.56 3.55 137.88 2.92 137.88 2.92 137.04 .81 137.04 .81 137.57 .18 137.57 .18 135.87 .81 135.87 .81 136.4 2.92 136.4 2.92 135.56"/>
    <polygon class="cls-3" points="2.92 133.25 3.55 133.25 3.55 135.56 2.92 135.56 2.92 134.72 .81 134.72 .81 135.25 .18 135.25 .18 133.56 .81 133.56 .81 134.09 2.92 134.09 2.92 133.25"/>
    <polygon class="cls-3" points="2.92 130.93 3.55 130.93 3.55 133.25 2.92 133.25 2.92 132.4 .81 132.4 .81 132.93 .18 132.93 .18 131.24 .81 131.24 .81 131.77 2.92 131.77 2.92 130.93"/>
    <polygon class="cls-3" points="2.92 128.62 3.55 128.62 3.55 130.93 2.92 130.93 2.92 130.09 .81 130.09 .81 130.62 .18 130.62 .18 128.93 .81 128.93 .81 129.46 2.92 129.46 2.92 128.62"/>
    <polygon class="cls-3" points="2.92 126.3 3.55 126.3 3.55 128.62 2.92 128.62 2.92 127.77 .81 127.77 .81 128.3 .18 128.3 .18 126.61 .81 126.61 .81 127.14 2.92 127.14 2.92 126.3"/>
    <polygon class="cls-3" points="2.92 123.99 3.55 123.99 3.55 126.3 2.92 126.3 2.92 125.46 .81 125.46 .81 125.99 .18 125.99 .18 124.3 .81 124.3 .81 124.83 2.92 124.83 2.92 123.99"/>
    <polygon class="cls-3" points="2.92 121.67 3.55 121.67 3.55 123.99 2.92 123.99 2.92 123.14 .81 123.14 .81 123.67 .18 123.67 .18 121.98 .81 121.98 .81 122.51 2.92 122.51 2.92 121.67"/>
    <polygon class="cls-3" points="2.92 119.36 3.55 119.36 3.55 121.67 2.92 121.67 2.92 120.83 .81 120.83 .81 121.36 .18 121.36 .18 119.67 .81 119.67 .81 120.2 2.92 120.2 2.92 119.36"/>
    <polygon class="cls-3" points="2.92 117.04 3.55 117.04 3.55 119.36 2.92 119.36 2.92 118.51 .81 118.51 .81 119.04 .18 119.04 .18 117.35 .81 117.35 .81 117.88 2.92 117.88 2.92 117.04"/>
    <polygon class="cls-3" points="2.92 114.73 3.55 114.73 3.55 117.04 2.92 117.04 2.92 116.2 .81 116.2 .81 116.73 .18 116.73 .18 115.04 .81 115.04 .81 115.57 2.92 115.57 2.92 114.73"/>
    <polygon class="cls-3" points="2.92 112.41 3.55 112.41 3.55 114.73 2.92 114.73 2.92 113.88 .81 113.88 .81 114.41 .18 114.41 .18 112.72 .81 112.72 .81 113.25 2.92 113.25 2.92 112.41"/>
    <polygon class="cls-3" points="2.92 110.1 3.55 110.1 3.55 112.41 2.92 112.41 2.92 111.57 .81 111.57 .81 112.1 .18 112.1 .18 110.41 .81 110.41 .81 110.93 2.92 110.93 2.92 110.1"/>
    <polygon class="cls-3" points="2.92 107.78 3.55 107.78 3.55 110.1 2.92 110.1 2.92 109.25 .81 109.25 .81 109.78 .18 109.78 .18 108.09 .81 108.09 .81 108.62 2.92 108.62 2.92 107.78"/>
    <polygon class="cls-3" points="2.92 105.47 3.55 105.47 3.55 107.78 2.92 107.78 2.92 106.94 .81 106.94 .81 107.47 .18 107.47 .18 105.77 .81 105.77 .81 106.3 2.92 106.3 2.92 105.47"/>
    <polygon class="cls-3" points="2.92 103.15 3.55 103.15 3.55 105.47 2.92 105.47 2.92 104.62 .81 104.62 .81 105.15 .18 105.15 .18 103.46 .81 103.46 .81 103.99 2.92 103.99 2.92 103.15"/>
    <polygon class="cls-3" points="2.92 100.84 3.55 100.84 3.55 103.15 2.92 103.15 2.92 102.31 .81 102.31 .81 102.84 .18 102.84 .18 101.14 .81 101.14 .81 101.67 2.92 101.67 2.92 100.84"/>
    <polygon class="cls-3" points="2.92 98.52 3.55 98.52 3.55 100.84 2.92 100.84 2.92 99.99 .81 99.99 .81 100.52 .18 100.52 .18 98.83 .81 98.83 .81 99.36 2.92 99.36 2.92 98.52"/>
    <polygon class="cls-3" points="2.92 96.21 3.55 96.21 3.55 98.52 2.92 98.52 2.92 97.68 .81 97.68 .81 98.21 .18 98.21 .18 96.51 .81 96.51 .81 97.04 2.92 97.04 2.92 96.21"/>
    <polygon class="cls-3" points="2.92 93.89 3.55 93.89 3.55 96.21 2.92 96.21 2.92 95.36 .81 95.36 .81 95.89 .18 95.89 .18 94.2 .81 94.2 .81 94.73 2.92 94.73 2.92 93.89"/>
    <polygon class="cls-3" points="2.92 91.58 3.55 91.58 3.55 93.89 2.92 93.89 2.92 93.05 .81 93.05 .81 93.58 .18 93.58 .18 91.88 .81 91.88 .81 92.41 2.92 92.41 2.92 91.58"/>
    <polygon class="cls-3" points="2.92 89.26 3.55 89.26 3.55 91.58 2.92 91.58 2.92 90.73 .81 90.73 .81 91.26 .18 91.26 .18 89.57 .81 89.57 .81 90.1 2.92 90.1 2.92 89.26"/>
    <polygon class="cls-3" points="2.92 86.95 3.55 86.95 3.55 89.26 2.92 89.26 2.92 88.42 .81 88.42 .81 88.95 .18 88.95 .18 87.25 .81 87.25 .81 87.78 2.92 87.78 2.92 86.95"/>
    <polygon class="cls-3" points="2.92 84.63 3.55 84.63 3.55 86.95 2.92 86.95 2.92 86.1 .81 86.1 .81 86.63 .18 86.63 .18 84.94 .81 84.94 .81 85.47 2.92 85.47 2.92 84.63"/>
    <polygon class="cls-3" points="2.92 82.32 3.55 82.32 3.55 84.63 2.92 84.63 2.92 83.79 .81 83.79 .81 84.32 .18 84.32 .18 82.62 .81 82.62 .81 83.15 2.92 83.15 2.92 82.32"/>
    <polygon class="cls-3" points="2.92 80 3.55 80 3.55 82.32 2.92 82.32 2.92 81.47 .81 81.47 .81 82 .18 82 .18 80.31 .81 80.31 .81 80.84 2.92 80.84 2.92 80"/>
    <polygon class="cls-3" points="2.92 77.69 3.55 77.69 3.55 80 2.92 80 2.92 79.16 .81 79.16 .81 79.69 .18 79.69 .18 77.99 .81 77.99 .81 78.52 2.92 78.52 2.92 77.69"/>
    <polygon class="cls-3" points="2.92 75.37 3.55 75.37 3.55 77.69 2.92 77.69 2.92 76.84 .81 76.84 .81 77.37 .18 77.37 .18 75.68 .81 75.68 .81 76.21 2.92 76.21 2.92 75.37"/>
    <polygon class="cls-3" points="2.92 73.06 3.55 73.06 3.55 75.37 2.92 75.37 2.92 74.53 .81 74.53 .81 75.06 .18 75.06 .18 73.36 .81 73.36 .81 73.89 2.92 73.89 2.92 73.06"/>
    <polygon class="cls-3" points="2.92 70.74 3.55 70.74 3.55 73.06 2.92 73.06 2.92 72.21 .81 72.21 .81 72.74 .18 72.74 .18 71.05 .81 71.05 .81 71.58 2.92 71.58 2.92 70.74"/>
    <polygon class="cls-3" points="2.92 68.42 3.55 68.42 3.55 70.74 2.92 70.74 2.92 69.9 .81 69.9 .81 70.43 .18 70.43 .18 68.73 .81 68.73 .81 69.26 2.92 69.26 2.92 68.42"/>
    <polygon class="cls-3" points="2.92 66.11 3.55 66.11 3.55 68.42 2.92 68.42 2.92 67.58 .81 67.58 .81 68.11 .18 68.11 .18 66.42 .81 66.42 .81 66.95 2.92 66.95 2.92 66.11"/>
    <polygon class="cls-3" points="2.92 63.79 3.55 63.79 3.55 66.11 2.92 66.11 2.92 65.27 .81 65.27 .81 65.8 .18 65.8 .18 64.1 .81 64.1 .81 64.63 2.92 64.63 2.92 63.79"/>
    <polygon class="cls-3" points="2.92 61.48 3.55 61.48 3.55 63.79 2.92 63.79 2.92 62.95 .81 62.95 .81 63.48 .18 63.48 .18 61.79 .81 61.79 .81 62.32 2.92 62.32 2.92 61.48"/>
    <polygon class="cls-3" points="2.92 59.16 3.55 59.16 3.55 61.48 2.92 61.48 2.92 60.64 .81 60.64 .81 61.16 .18 61.16 .18 59.47 .81 59.47 .81 60 2.92 60 2.92 59.16"/>
    <polygon class="cls-3" points="2.92 56.85 3.55 56.85 3.55 59.16 2.92 59.16 2.92 58.32 .81 58.32 .81 58.85 .18 58.85 .18 57.16 .81 57.16 .81 57.69 2.92 57.69 2.92 56.85"/>
    <polygon class="cls-3" points="2.92 54.53 3.55 54.53 3.55 56.85 2.92 56.85 2.92 56 .81 56 .81 56.53 .18 56.53 .18 54.84 .81 54.84 .81 55.37 2.92 55.37 2.92 54.53"/>
    <polygon class="cls-3" points="2.92 52.22 3.55 52.22 3.55 54.53 2.92 54.53 2.92 53.69 .81 53.69 .81 54.22 .18 54.22 .18 52.53 .81 52.53 .81 53.06 2.92 53.06 2.92 52.22"/>
    <polygon class="cls-3" points="2.92 49.9 3.55 49.9 3.55 52.22 2.92 52.22 2.92 51.37 .81 51.37 .81 51.9 .18 51.9 .18 50.21 .81 50.21 .81 50.74 2.92 50.74 2.92 49.9"/>
    <polygon class="cls-3" points="2.92 47.59 3.55 47.59 3.55 49.9 2.92 49.9 2.92 49.06 .81 49.06 .81 49.59 .18 49.59 .18 47.9 .81 47.9 .81 48.43 2.92 48.43 2.92 47.59"/>
    <polygon class="cls-3" points="2.92 45.27 3.55 45.27 3.55 47.59 2.92 47.59 2.92 46.74 .81 46.74 .81 47.27 .18 47.27 .18 45.58 .81 45.58 .81 46.11 2.92 46.11 2.92 45.27"/>
    <polygon class="cls-3" points="2.92 42.96 3.55 42.96 3.55 45.27 2.92 45.27 2.92 44.43 .81 44.43 .81 44.96 .18 44.96 .18 43.27 .81 43.27 .81 43.8 2.92 43.8 2.92 42.96"/>
    <polygon class="cls-3" points="2.92 40.64 3.55 40.64 3.55 42.96 2.92 42.96 2.92 42.11 .81 42.11 .81 42.64 .18 42.64 .18 40.95 .81 40.95 .81 41.48 2.92 41.48 2.92 40.64"/>
    <polygon class="cls-3" points="2.92 38.33 3.55 38.33 3.55 40.64 2.92 40.64 2.92 39.8 .81 39.8 .81 40.33 .18 40.33 .18 38.64 .81 38.64 .81 39.16 2.92 39.16 2.92 38.33"/>
    <polygon class="cls-3" points="2.92 36.01 3.55 36.01 3.55 38.33 2.92 38.33 2.92 37.48 .81 37.48 .81 38.01 .18 38.01 .18 36.32 .81 36.32 .81 36.85 2.92 36.85 2.92 36.01"/>
    <polygon class="cls-3" points="2.92 33.7 3.55 33.7 3.55 36.01 2.92 36.01 2.92 35.17 .81 35.17 .81 35.7 .18 35.7 .18 34.01 .81 34.01 .81 34.53 2.92 34.53 2.92 33.7"/>
    <polygon class="cls-3" points="2.92 31.38 3.55 31.38 3.55 33.7 2.92 33.7 2.92 32.85 .81 32.85 .81 33.38 .18 33.38 .18 31.69 .81 31.69 .81 32.22 2.92 32.22 2.92 31.38"/>
    <polygon class="cls-3" points="2.92 29.07 3.55 29.07 3.55 31.38 2.92 31.38 2.92 30.54 .81 30.54 .81 31.07 .18 31.07 .18 29.37 .81 29.37 .81 29.9 2.92 29.9 2.92 29.07"/>
    <polygon class="cls-3" points="2.92 26.75 3.55 26.75 3.55 29.07 2.92 29.07 2.92 28.22 .81 28.22 .81 28.75 .18 28.75 .18 27.06 .81 27.06 .81 27.59 2.92 27.59 2.92 26.75"/>
    <polygon class="cls-3" points="2.92 24.44 3.55 24.44 3.55 26.75 2.92 26.75 2.92 25.91 .81 25.91 .81 26.44 .18 26.44 .18 24.74 .81 24.74 .81 25.27 2.92 25.27 2.92 24.44"/>
    <polygon class="cls-3" points="2.92 22.12 3.55 22.12 3.55 24.44 2.92 24.44 2.92 23.59 .81 23.59 .81 24.12 .18 24.12 .18 22.43 .81 22.43 .81 22.96 2.92 22.96 2.92 22.12"/>
    <polygon class="cls-3" points="2.92 19.81 3.55 19.81 3.55 22.12 2.92 22.12 2.92 21.28 .81 21.28 .81 21.81 .18 21.81 .18 20.11 .81 20.11 .81 20.64 2.92 20.64 2.92 19.81"/>
    <polygon class="cls-3" points="2.92 17.49 3.55 17.49 3.55 19.81 2.92 19.81 2.92 18.96 .81 18.96 .81 19.49 .18 19.49 .18 17.8 .81 17.8 .81 18.33 2.92 18.33 2.92 17.49"/>
    <polygon class="cls-3" points="2.92 15.18 3.55 15.18 3.55 17.49 2.92 17.49 2.92 16.65 .81 16.65 .81 17.18 .18 17.18 .18 15.48 .81 15.48 .81 16.01 2.92 16.01 2.92 15.18"/>
    <polygon class="cls-3" points="2.92 12.86 3.55 12.86 3.55 15.18 2.92 15.18 2.92 14.33 .81 14.33 .81 14.86 .18 14.86 .18 13.17 .81 13.17 .81 13.7 2.92 13.7 2.92 12.86"/>
    <polygon class="cls-3" points="2.92 10.55 3.55 10.55 3.55 12.86 2.92 12.86 2.92 12.02 .81 12.02 .81 12.55 .18 12.55 .18 10.85 .81 10.85 .81 11.38 2.92 11.38 2.92 10.55"/>
    <polygon class="cls-3" points="2.92 8.23 3.55 8.23 3.55 10.55 2.92 10.55 2.92 9.7 .81 9.7 .81 10.23 .18 10.23 .18 8.54 .81 8.54 .81 9.07 2.92 9.07 2.92 8.23"/>
    <polygon class="cls-3" points="2.92 5.92 3.55 5.92 3.55 8.23 2.92 8.23 2.92 7.39 .81 7.39 .81 7.92 .18 7.92 .18 6.22 .81 6.22 .81 6.75 2.92 6.75 2.92 5.92"/>
    <polygon class="cls-3" points="2.92 3.6 3.55 3.6 3.55 5.92 2.92 5.92 2.92 5.07 .81 5.07 .81 5.6 .18 5.6 .18 3.91 .81 3.91 .81 4.44 2.92 4.44 2.92 3.6"/>
    <polygon class="cls-3" points="5.84 2.97 5.84 3.6 3.55 3.6 3.55 2.97 4.38 2.97 4.38 .86 3.86 .86 3.86 .23 5.54 .23 5.54 .86 5.01 .86 5.01 2.97 5.84 2.97"/>
    <polygon class="cls-3" points="8.13 2.97 8.13 3.6 5.84 3.6 5.84 2.97 6.68 2.97 6.68 .86 6.15 .86 6.15 .23 7.83 .23 7.83 .86 7.3 .86 7.3 2.97 8.13 2.97"/>
    <polygon class="cls-3" points="10.43 2.97 10.43 3.6 8.13 3.6 8.13 2.97 8.97 2.97 8.97 .86 8.44 .86 8.44 .23 10.12 .23 10.12 .86 9.6 .86 9.6 2.97 10.43 2.97"/>
    <polygon class="cls-3" points="12.72 2.97 12.72 3.6 10.43 3.6 10.43 2.97 11.26 2.97 11.26 .86 10.74 .86 10.74 .23 12.41 .23 12.41 .86 11.89 .86 11.89 2.97 12.72 2.97"/>
    <polygon class="cls-3" points="15.01 2.97 15.01 3.6 12.72 3.6 12.72 2.97 13.55 2.97 13.55 .86 13.03 .86 13.03 .23 14.71 .23 14.71 .86 14.18 .86 14.18 2.97 15.01 2.97"/>
    <polygon class="cls-3" points="17.3 2.97 17.3 3.6 15.01 3.6 15.01 2.97 15.85 2.97 15.85 .86 15.32 .86 15.32 .23 17 .23 17 .86 16.47 .86 16.47 2.97 17.3 2.97"/>
    <polygon class="cls-3" points="19.6 2.97 19.6 3.6 17.3 3.6 17.3 2.97 18.14 2.97 18.14 .86 17.61 .86 17.61 .23 19.29 .23 19.29 .86 18.77 .86 18.77 2.97 19.6 2.97"/>
    <polygon class="cls-3" points="21.89 2.97 21.89 3.6 19.6 3.6 19.6 2.97 20.43 2.97 20.43 .86 19.91 .86 19.91 .23 21.58 .23 21.58 .86 21.06 .86 21.06 2.97 21.89 2.97"/>
    <polygon class="cls-3" points="24.18 2.97 24.18 3.6 21.89 3.6 21.89 2.97 22.72 2.97 22.72 .86 22.2 .86 22.2 .23 23.88 .23 23.88 .86 23.35 .86 23.35 2.97 24.18 2.97"/>
    <polygon class="cls-3" points="26.47 2.97 26.47 3.6 24.18 3.6 24.18 2.97 25.02 2.97 25.02 .86 24.49 .86 24.49 .23 26.17 .23 26.17 .86 25.64 .86 25.64 2.97 26.47 2.97"/>
    <polygon class="cls-3" points="28.77 2.97 28.77 3.6 26.47 3.6 26.47 2.97 27.31 2.97 27.31 .86 26.79 .86 26.79 .23 28.46 .23 28.46 .86 27.94 .86 27.94 2.97 28.77 2.97"/>
    <polygon class="cls-3" points="31.06 2.97 31.06 3.6 28.77 3.6 28.77 2.97 29.6 2.97 29.6 .86 29.08 .86 29.08 .23 30.75 .23 30.75 .86 30.23 .86 30.23 2.97 31.06 2.97"/>
    <polygon class="cls-3" points="33.35 2.97 33.35 3.6 31.06 3.6 31.06 2.97 31.9 2.97 31.9 .86 31.37 .86 31.37 .23 33.05 .23 33.05 .86 32.52 .86 32.52 2.97 33.35 2.97"/>
    <polygon class="cls-3" points="35.64 2.97 35.64 3.6 33.35 3.6 33.35 2.97 34.19 2.97 34.19 .86 33.66 .86 33.66 .23 35.34 .23 35.34 .86 34.82 .86 34.82 2.97 35.64 2.97"/>
    <polygon class="cls-3" points="37.94 2.97 37.94 3.6 35.64 3.6 35.64 2.97 36.48 2.97 36.48 .86 35.96 .86 35.96 .23 37.63 .23 37.63 .86 37.11 .86 37.11 2.97 37.94 2.97"/>
    <polygon class="cls-3" points="40.23 2.97 40.23 3.6 37.94 3.6 37.94 2.97 38.77 2.97 38.77 .86 38.25 .86 38.25 .23 39.92 .23 39.92 .86 39.4 .86 39.4 2.97 40.23 2.97"/>
    <polygon class="cls-3" points="42.52 2.97 42.52 3.6 40.23 3.6 40.23 2.97 41.07 2.97 41.07 .86 40.54 .86 40.54 .23 42.22 .23 42.22 .86 41.69 .86 41.69 2.97 42.52 2.97"/>
    <polygon class="cls-3" points="44.81 2.97 44.81 3.6 42.52 3.6 42.52 2.97 43.36 2.97 43.36 .86 42.83 .86 42.83 .23 44.51 .23 44.51 .86 43.99 .86 43.99 2.97 44.81 2.97"/>
    <polygon class="cls-3" points="47.11 2.97 47.11 3.6 44.81 3.6 44.81 2.97 45.65 2.97 45.65 .86 45.13 .86 45.13 .23 46.8 .23 46.8 .86 46.28 .86 46.28 2.97 47.11 2.97"/>
    <polygon class="cls-3" points="49.4 2.97 49.4 3.6 47.11 3.6 47.11 2.97 47.94 2.97 47.94 .86 47.42 .86 47.42 .23 49.1 .23 49.1 .86 48.57 .86 48.57 2.97 49.4 2.97"/>
    <polygon class="cls-3" points="51.69 2.97 51.69 3.6 49.4 3.6 49.4 2.97 50.24 2.97 50.24 .86 49.71 .86 49.71 .23 51.39 .23 51.39 .86 50.86 .86 50.86 2.97 51.69 2.97"/>
    <polygon class="cls-3" points="53.99 2.97 53.99 3.6 51.69 3.6 51.69 2.97 52.53 2.97 52.53 .86 52 .86 52 .23 53.68 .23 53.68 .86 53.16 .86 53.16 2.97 53.99 2.97"/>
    <polygon class="cls-3" points="56.28 2.97 56.28 3.6 53.99 3.6 53.99 2.97 54.82 2.97 54.82 .86 54.3 .86 54.3 .23 55.97 .23 55.97 .86 55.45 .86 55.45 2.97 56.28 2.97"/>
    <polygon class="cls-3" points="58.57 2.97 58.57 3.6 56.28 3.6 56.28 2.97 57.11 2.97 57.11 .86 56.59 .86 56.59 .23 58.27 .23 58.27 .86 57.74 .86 57.74 2.97 58.57 2.97"/>
    <polygon class="cls-3" points="60.86 2.97 60.86 3.6 58.57 3.6 58.57 2.97 59.41 2.97 59.41 .86 58.88 .86 58.88 .23 60.56 .23 60.56 .86 60.03 .86 60.03 2.97 60.86 2.97"/>
    <polygon class="cls-3" points="63.16 2.97 63.16 3.6 60.86 3.6 60.86 2.97 61.7 2.97 61.7 .86 61.17 .86 61.17 .23 62.85 .23 62.85 .86 62.33 .86 62.33 2.97 63.16 2.97"/>
    <polygon class="cls-3" points="65.45 2.97 65.45 3.6 63.16 3.6 63.16 2.97 63.99 2.97 63.99 .86 63.47 .86 63.47 .23 65.14 .23 65.14 .86 64.62 .86 64.62 2.97 65.45 2.97"/>
    <polygon class="cls-3" points="67.74 2.97 67.74 3.6 65.45 3.6 65.45 2.97 66.28 2.97 66.28 .86 65.76 .86 65.76 .23 67.44 .23 67.44 .86 66.91 .86 66.91 2.97 67.74 2.97"/>
    <polygon class="cls-3" points="70.03 2.97 70.03 3.6 67.74 3.6 67.74 2.97 68.58 2.97 68.58 .86 68.05 .86 68.05 .23 69.73 .23 69.73 .86 69.2 .86 69.2 2.97 70.03 2.97"/>
    <polygon class="cls-3" points="72.33 2.97 72.33 3.6 70.03 3.6 70.03 2.97 70.87 2.97 70.87 .86 70.35 .86 70.35 .23 72.02 .23 72.02 .86 71.5 .86 71.5 2.97 72.33 2.97"/>
    <polygon class="cls-3" points="74.62 2.97 74.62 3.6 72.33 3.6 72.33 2.97 73.16 2.97 73.16 .86 72.64 .86 72.64 .23 74.31 .23 74.31 .86 73.79 .86 73.79 2.97 74.62 2.97"/>
    <polygon class="cls-3" points="76.91 2.97 76.91 3.6 74.62 3.6 74.62 2.97 75.46 2.97 75.46 .86 74.93 .86 74.93 .23 76.61 .23 76.61 .86 76.08 .86 76.08 2.97 76.91 2.97"/>
    <polygon class="cls-3" points="79.2 2.97 79.2 3.6 76.91 3.6 76.91 2.97 77.75 2.97 77.75 .86 77.22 .86 77.22 .23 78.9 .23 78.9 .86 78.38 .86 78.38 2.97 79.2 2.97"/>
    <polygon class="cls-3" points="81.5 2.97 81.5 3.6 79.2 3.6 79.2 2.97 80.04 2.97 80.04 .86 79.52 .86 79.52 .23 81.19 .23 81.19 .86 80.67 .86 80.67 2.97 81.5 2.97"/>
    <polygon class="cls-3" points="83.79 2.97 83.79 3.6 81.5 3.6 81.5 2.97 82.33 2.97 82.33 .86 81.81 .86 81.81 .23 83.49 .23 83.49 .86 82.96 .86 82.96 2.97 83.79 2.97"/>
    <polygon class="cls-3" points="86.08 2.97 86.08 3.6 83.79 3.6 83.79 2.97 84.63 2.97 84.63 .86 84.1 .86 84.1 .23 85.78 .23 85.78 .86 85.25 .86 85.25 2.97 86.08 2.97"/>
    <polygon class="cls-3" points="88.37 2.97 88.37 3.6 86.08 3.6 86.08 2.97 86.92 2.97 86.92 .86 86.39 .86 86.39 .23 88.07 .23 88.07 .86 87.55 .86 87.55 2.97 88.37 2.97"/>
    <polygon class="cls-3" points="90.67 2.97 90.67 3.6 88.37 3.6 88.37 2.97 89.21 2.97 89.21 .86 88.69 .86 88.69 .23 90.36 .23 90.36 .86 89.84 .86 89.84 2.97 90.67 2.97"/>
    <polygon class="cls-3" points="92.96 2.97 92.96 3.6 90.67 3.6 90.67 2.97 91.5 2.97 91.5 .86 90.98 .86 90.98 .23 92.66 .23 92.66 .86 92.13 .86 92.13 2.97 92.96 2.97"/>
    <polygon class="cls-3" points="95.25 2.97 95.25 3.6 92.96 3.6 92.96 2.97 93.8 2.97 93.8 .86 93.27 .86 93.27 .23 94.95 .23 94.95 .86 94.42 .86 94.42 2.97 95.25 2.97"/>
    <polygon class="cls-3" points="97.55 2.97 97.55 3.6 95.25 3.6 95.25 2.97 96.09 2.97 96.09 .86 95.56 .86 95.56 .23 97.24 .23 97.24 .86 96.72 .86 96.72 2.97 97.55 2.97"/>
    <polygon class="cls-3" points="99.84 2.97 99.84 3.6 97.55 3.6 97.55 2.97 98.38 2.97 98.38 .86 97.86 .86 97.86 .23 99.53 .23 99.53 .86 99.01 .86 99.01 2.97 99.84 2.97"/>
    <polygon class="cls-3" points="102.13 2.97 102.13 3.6 99.84 3.6 99.84 2.97 100.67 2.97 100.67 .86 100.15 .86 100.15 .23 101.83 .23 101.83 .86 101.3 .86 101.3 2.97 102.13 2.97"/>
    <polygon class="cls-3" points="104.42 2.97 104.42 3.6 102.13 3.6 102.13 2.97 102.97 2.97 102.97 .86 102.44 .86 102.44 .23 104.12 .23 104.12 .86 103.59 .86 103.59 2.97 104.42 2.97"/>
    <polygon class="cls-3" points="106.72 2.97 106.72 3.6 104.42 3.6 104.42 2.97 105.26 2.97 105.26 .86 104.73 .86 104.73 .23 106.41 .23 106.41 .86 105.89 .86 105.89 2.97 106.72 2.97"/>
    <polygon class="cls-3" points="109.01 2.97 109.01 3.6 106.72 3.6 106.72 2.97 107.55 2.97 107.55 .86 107.03 .86 107.03 .23 108.7 .23 108.7 .86 108.18 .86 108.18 2.97 109.01 2.97"/>
    <polygon class="cls-3" points="111.3 2.97 111.3 3.6 109.01 3.6 109.01 2.97 109.84 2.97 109.84 .86 109.32 .86 109.32 .23 111 .23 111 .86 110.47 .86 110.47 2.97 111.3 2.97"/>
    <polygon class="cls-3" points="113.59 2.97 113.59 3.6 111.3 3.6 111.3 2.97 112.14 2.97 112.14 .86 111.61 .86 111.61 .23 113.29 .23 113.29 .86 112.77 .86 112.77 2.97 113.59 2.97"/>
    <polygon class="cls-3" points="115.89 2.97 115.89 3.6 113.59 3.6 113.59 2.97 114.43 2.97 114.43 .86 113.91 .86 113.91 .23 115.58 .23 115.58 .86 115.06 .86 115.06 2.97 115.89 2.97"/>
    <polygon class="cls-3" points="118.18 2.97 118.18 3.6 115.89 3.6 115.89 2.97 116.72 2.97 116.72 .86 116.2 .86 116.2 .23 117.87 .23 117.87 .86 117.35 .86 117.35 2.97 118.18 2.97"/>
    <polygon class="cls-3" points="120.47 2.97 120.47 3.6 118.18 3.6 118.18 2.97 119.02 2.97 119.02 .86 118.49 .86 118.49 .23 120.17 .23 120.17 .86 119.64 .86 119.64 2.97 120.47 2.97"/>
    <polygon class="cls-3" points="122.76 2.97 122.76 3.6 120.47 3.6 120.47 2.97 121.31 2.97 121.31 .86 120.78 .86 120.78 .23 122.46 .23 122.46 .86 121.94 .86 121.94 2.97 122.76 2.97"/>
    <polygon class="cls-3" points="123.4 5.92 122.76 5.92 122.76 3.6 123.4 3.6 123.4 4.44 125.5 4.44 125.5 3.91 126.13 3.91 126.13 5.61 125.5 5.61 125.5 5.08 123.4 5.08 123.4 5.92"/>
    <polygon class="cls-3" points="123.4 8.23 122.76 8.23 122.76 5.92 123.4 5.92 123.4 6.76 125.5 6.76 125.5 6.23 126.13 6.23 126.13 7.92 125.5 7.92 125.5 7.39 123.4 7.39 123.4 8.23"/>
    <polygon class="cls-3" points="123.4 10.55 122.76 10.55 122.76 8.23 123.4 8.23 123.4 9.08 125.5 9.08 125.5 8.55 126.13 8.55 126.13 10.24 125.5 10.24 125.5 9.71 123.4 9.71 123.4 10.55"/>
    <polygon class="cls-3" points="123.4 12.86 122.76 12.86 122.76 10.55 123.4 10.55 123.4 11.39 125.5 11.39 125.5 10.86 126.13 10.86 126.13 12.55 125.5 12.55 125.5 12.02 123.4 12.02 123.4 12.86"/>
    <polygon class="cls-3" points="123.4 15.18 122.76 15.18 122.76 12.86 123.4 12.86 123.4 13.71 125.5 13.71 125.5 13.18 126.13 13.18 126.13 14.87 125.5 14.87 125.5 14.34 123.4 14.34 123.4 15.18"/>
    <polygon class="cls-3" points="123.4 17.49 122.76 17.49 122.76 15.18 123.4 15.18 123.4 16.02 125.5 16.02 125.5 15.49 126.13 15.49 126.13 17.18 125.5 17.18 125.5 16.65 123.4 16.65 123.4 17.49"/>
    <polygon class="cls-3" points="123.4 19.81 122.76 19.81 122.76 17.49 123.4 17.49 123.4 18.34 125.5 18.34 125.5 17.81 126.13 17.81 126.13 19.5 125.5 19.5 125.5 18.97 123.4 18.97 123.4 19.81"/>
    <polygon class="cls-3" points="123.4 22.12 122.76 22.12 122.76 19.81 123.4 19.81 123.4 20.65 125.5 20.65 125.5 20.12 126.13 20.12 126.13 21.81 125.5 21.81 125.5 21.28 123.4 21.28 123.4 22.12"/>
    <polygon class="cls-3" points="123.4 24.44 122.76 24.44 122.76 22.12 123.4 22.12 123.4 22.97 125.5 22.97 125.5 22.44 126.13 22.44 126.13 24.13 125.5 24.13 125.5 23.6 123.4 23.6 123.4 24.44"/>
    <polygon class="cls-3" points="123.4 26.75 122.76 26.75 122.76 24.44 123.4 24.44 123.4 25.28 125.5 25.28 125.5 24.75 126.13 24.75 126.13 26.44 125.5 26.44 125.5 25.91 123.4 25.91 123.4 26.75"/>
    <polygon class="cls-3" points="123.4 29.07 122.76 29.07 122.76 26.75 123.4 26.75 123.4 27.6 125.5 27.6 125.5 27.07 126.13 27.07 126.13 28.76 125.5 28.76 125.5 28.23 123.4 28.23 123.4 29.07"/>
    <polygon class="cls-3" points="123.4 31.38 122.76 31.38 122.76 29.07 123.4 29.07 123.4 29.91 125.5 29.91 125.5 29.38 126.13 29.38 126.13 31.07 125.5 31.07 125.5 30.55 123.4 30.55 123.4 31.38"/>
    <polygon class="cls-3" points="123.4 33.7 122.76 33.7 122.76 31.38 123.4 31.38 123.4 32.23 125.5 32.23 125.5 31.7 126.13 31.7 126.13 33.39 125.5 33.39 125.5 32.86 123.4 32.86 123.4 33.7"/>
    <polygon class="cls-3" points="123.4 36.01 122.76 36.01 122.76 33.7 123.4 33.7 123.4 34.54 125.5 34.54 125.5 34.01 126.13 34.01 126.13 35.7 125.5 35.7 125.5 35.18 123.4 35.18 123.4 36.01"/>
    <polygon class="cls-3" points="123.4 38.33 122.76 38.33 122.76 36.01 123.4 36.01 123.4 36.86 125.5 36.86 125.5 36.33 126.13 36.33 126.13 38.02 125.5 38.02 125.5 37.49 123.4 37.49 123.4 38.33"/>
    <polygon class="cls-3" points="123.4 40.64 122.76 40.64 122.76 38.33 123.4 38.33 123.4 39.17 125.5 39.17 125.5 38.64 126.13 38.64 126.13 40.34 125.5 40.34 125.5 39.81 123.4 39.81 123.4 40.64"/>
    <polygon class="cls-3" points="123.4 42.96 122.76 42.96 122.76 40.64 123.4 40.64 123.4 41.49 125.5 41.49 125.5 40.96 126.13 40.96 126.13 42.65 125.5 42.65 125.5 42.12 123.4 42.12 123.4 42.96"/>
    <polygon class="cls-3" points="123.4 45.27 122.76 45.27 122.76 42.96 123.4 42.96 123.4 43.8 125.5 43.8 125.5 43.27 126.13 43.27 126.13 44.97 125.5 44.97 125.5 44.44 123.4 44.44 123.4 45.27"/>
    <polygon class="cls-3" points="123.4 47.59 122.76 47.59 122.76 45.27 123.4 45.27 123.4 46.12 125.5 46.12 125.5 45.59 126.13 45.59 126.13 47.28 125.5 47.28 125.5 46.75 123.4 46.75 123.4 47.59"/>
    <polygon class="cls-3" points="123.4 49.9 122.76 49.9 122.76 47.59 123.4 47.59 123.4 48.43 125.5 48.43 125.5 47.9 126.13 47.9 126.13 49.6 125.5 49.6 125.5 49.07 123.4 49.07 123.4 49.9"/>
    <polygon class="cls-3" points="123.4 52.22 122.76 52.22 122.76 49.9 123.4 49.9 123.4 50.75 125.5 50.75 125.5 50.22 126.13 50.22 126.13 51.91 125.5 51.91 125.5 51.38 123.4 51.38 123.4 52.22"/>
    <polygon class="cls-3" points="123.4 54.53 122.76 54.53 122.76 52.22 123.4 52.22 123.4 53.06 125.5 53.06 125.5 52.53 126.13 52.53 126.13 54.23 125.5 54.23 125.5 53.7 123.4 53.7 123.4 54.53"/>
    <polygon class="cls-3" points="123.4 56.85 122.76 56.85 122.76 54.53 123.4 54.53 123.4 55.38 125.5 55.38 125.5 54.85 126.13 54.85 126.13 56.54 125.5 56.54 125.5 56.01 123.4 56.01 123.4 56.85"/>
    <polygon class="cls-3" points="123.4 59.16 122.76 59.16 122.76 56.85 123.4 56.85 123.4 57.69 125.5 57.69 125.5 57.16 126.13 57.16 126.13 58.86 125.5 58.86 125.5 58.33 123.4 58.33 123.4 59.16"/>
    <polygon class="cls-3" points="123.4 61.48 122.76 61.48 122.76 59.16 123.4 59.16 123.4 60.01 125.5 60.01 125.5 59.48 126.13 59.48 126.13 61.17 125.5 61.17 125.5 60.64 123.4 60.64 123.4 61.48"/>
    <polygon class="cls-3" points="123.4 63.79 122.76 63.79 122.76 61.48 123.4 61.48 123.4 62.32 125.5 62.32 125.5 61.79 126.13 61.79 126.13 63.49 125.5 63.49 125.5 62.96 123.4 62.96 123.4 63.79"/>
    <polygon class="cls-3" points="123.4 66.11 122.76 66.11 122.76 63.79 123.4 63.79 123.4 64.64 125.5 64.64 125.5 64.11 126.13 64.11 126.13 65.8 125.5 65.8 125.5 65.27 123.4 65.27 123.4 66.11"/>
    <polygon class="cls-3" points="123.4 68.42 122.76 68.42 122.76 66.11 123.4 66.11 123.4 66.95 125.5 66.95 125.5 66.42 126.13 66.42 126.13 68.12 125.5 68.12 125.5 67.59 123.4 67.59 123.4 68.42"/>
    <polygon class="cls-3" points="123.4 70.74 122.76 70.74 122.76 68.42 123.4 68.42 123.4 69.27 125.5 69.27 125.5 68.74 126.13 68.74 126.13 70.43 125.5 70.43 125.5 69.9 123.4 69.9 123.4 70.74"/>
    <polygon class="cls-3" points="123.4 73.06 122.76 73.06 122.76 70.74 123.4 70.74 123.4 71.58 125.5 71.58 125.5 71.05 126.13 71.05 126.13 72.75 125.5 72.75 125.5 72.22 123.4 72.22 123.4 73.06"/>
    <polygon class="cls-3" points="123.4 75.37 122.76 75.37 122.76 73.06 123.4 73.06 123.4 73.9 125.5 73.9 125.5 73.37 126.13 73.37 126.13 75.06 125.5 75.06 125.5 74.53 123.4 74.53 123.4 75.37"/>
    <polygon class="cls-3" points="123.4 77.69 122.76 77.69 122.76 75.37 123.4 75.37 123.4 76.21 125.5 76.21 125.5 75.68 126.13 75.68 126.13 77.38 125.5 77.38 125.5 76.85 123.4 76.85 123.4 77.69"/>
    <polygon class="cls-3" points="123.4 80 122.76 80 122.76 77.69 123.4 77.69 123.4 78.53 125.5 78.53 125.5 78 126.13 78 126.13 79.69 125.5 79.69 125.5 79.16 123.4 79.16 123.4 80"/>
    <polygon class="cls-3" points="123.4 82.32 122.76 82.32 122.76 80 123.4 80 123.4 80.84 125.5 80.84 125.5 80.32 126.13 80.32 126.13 82.01 125.5 82.01 125.5 81.48 123.4 81.48 123.4 82.32"/>
    <polygon class="cls-3" points="123.4 84.63 122.76 84.63 122.76 82.32 123.4 82.32 123.4 83.16 125.5 83.16 125.5 82.63 126.13 82.63 126.13 84.32 125.5 84.32 125.5 83.79 123.4 83.79 123.4 84.63"/>
    <polygon class="cls-3" points="123.4 86.95 122.76 86.95 122.76 84.63 123.4 84.63 123.4 85.48 125.5 85.48 125.5 84.95 126.13 84.95 126.13 86.64 125.5 86.64 125.5 86.11 123.4 86.11 123.4 86.95"/>
    <polygon class="cls-3" points="123.4 89.26 122.76 89.26 122.76 86.95 123.4 86.95 123.4 87.79 125.5 87.79 125.5 87.26 126.13 87.26 126.13 88.95 125.5 88.95 125.5 88.42 123.4 88.42 123.4 89.26"/>
    <polygon class="cls-3" points="123.4 91.58 122.76 91.58 122.76 89.26 123.4 89.26 123.4 90.11 125.5 90.11 125.5 89.58 126.13 89.58 126.13 91.27 125.5 91.27 125.5 90.74 123.4 90.74 123.4 91.58"/>
    <polygon class="cls-3" points="123.4 93.89 122.76 93.89 122.76 91.58 123.4 91.58 123.4 92.42 125.5 92.42 125.5 91.89 126.13 91.89 126.13 93.58 125.5 93.58 125.5 93.05 123.4 93.05 123.4 93.89"/>
    <polygon class="cls-3" points="123.4 96.21 122.76 96.21 122.76 93.89 123.4 93.89 123.4 94.74 125.5 94.74 125.5 94.21 126.13 94.21 126.13 95.9 125.5 95.9 125.5 95.37 123.4 95.37 123.4 96.21"/>
    <polygon class="cls-3" points="123.4 98.52 122.76 98.52 122.76 96.21 123.4 96.21 123.4 97.05 125.5 97.05 125.5 96.52 126.13 96.52 126.13 98.21 125.5 98.21 125.5 97.68 123.4 97.68 123.4 98.52"/>
    <polygon class="cls-3" points="123.4 100.84 122.76 100.84 122.76 98.52 123.4 98.52 123.4 99.37 125.5 99.37 125.5 98.84 126.13 98.84 126.13 100.53 125.5 100.53 125.5 100 123.4 100 123.4 100.84"/>
    <polygon class="cls-3" points="123.4 103.15 122.76 103.15 122.76 100.84 123.4 100.84 123.4 101.68 125.5 101.68 125.5 101.15 126.13 101.15 126.13 102.84 125.5 102.84 125.5 102.32 123.4 102.32 123.4 103.15"/>
    <polygon class="cls-3" points="123.4 105.47 122.76 105.47 122.76 103.15 123.4 103.15 123.4 104 125.5 104 125.5 103.47 126.13 103.47 126.13 105.16 125.5 105.16 125.5 104.63 123.4 104.63 123.4 105.47"/>
    <polygon class="cls-3" points="123.4 107.78 122.76 107.78 122.76 105.47 123.4 105.47 123.4 106.31 125.5 106.31 125.5 105.78 126.13 105.78 126.13 107.47 125.5 107.47 125.5 106.95 123.4 106.95 123.4 107.78"/>
    <polygon class="cls-3" points="123.4 110.1 122.76 110.1 122.76 107.78 123.4 107.78 123.4 108.63 125.5 108.63 125.5 108.1 126.13 108.1 126.13 109.79 125.5 109.79 125.5 109.26 123.4 109.26 123.4 110.1"/>
    <polygon class="cls-3" points="123.4 112.41 122.76 112.41 122.76 110.1 123.4 110.1 123.4 110.94 125.5 110.94 125.5 110.41 126.13 110.41 126.13 112.11 125.5 112.11 125.5 111.58 123.4 111.58 123.4 112.41"/>
    <polygon class="cls-3" points="123.4 114.73 122.76 114.73 122.76 112.41 123.4 112.41 123.4 113.26 125.5 113.26 125.5 112.73 126.13 112.73 126.13 114.42 125.5 114.42 125.5 113.89 123.4 113.89 123.4 114.73"/>
    <polygon class="cls-3" points="123.4 117.04 122.76 117.04 122.76 114.73 123.4 114.73 123.4 115.57 125.5 115.57 125.5 115.04 126.13 115.04 126.13 116.74 125.5 116.74 125.5 116.21 123.4 116.21 123.4 117.04"/>
    <polygon class="cls-3" points="123.4 119.36 122.76 119.36 122.76 117.04 123.4 117.04 123.4 117.89 125.5 117.89 125.5 117.36 126.13 117.36 126.13 119.05 125.5 119.05 125.5 118.52 123.4 118.52 123.4 119.36"/>
    <polygon class="cls-3" points="123.4 121.67 122.76 121.67 122.76 119.36 123.4 119.36 123.4 120.2 125.5 120.2 125.5 119.67 126.13 119.67 126.13 121.37 125.5 121.37 125.5 120.84 123.4 120.84 123.4 121.67"/>
    <polygon class="cls-3" points="123.4 123.99 122.76 123.99 122.76 121.67 123.4 121.67 123.4 122.52 125.5 122.52 125.5 121.99 126.13 121.99 126.13 123.68 125.5 123.68 125.5 123.15 123.4 123.15 123.4 123.99"/>
    <polygon class="cls-3" points="123.4 126.3 122.76 126.3 122.76 123.99 123.4 123.99 123.4 124.83 125.5 124.83 125.5 124.3 126.13 124.3 126.13 126 125.5 126 125.5 125.47 123.4 125.47 123.4 126.3"/>
    <polygon class="cls-3" points="123.4 128.62 122.76 128.62 122.76 126.3 123.4 126.3 123.4 127.15 125.5 127.15 125.5 126.62 126.13 126.62 126.13 128.31 125.5 128.31 125.5 127.78 123.4 127.78 123.4 128.62"/>
    <polygon class="cls-3" points="123.4 130.93 122.76 130.93 122.76 128.62 123.4 128.62 123.4 129.46 125.5 129.46 125.5 128.93 126.13 128.93 126.13 130.63 125.5 130.63 125.5 130.1 123.4 130.1 123.4 130.93"/>
    <polygon class="cls-3" points="123.4 133.25 122.76 133.25 122.76 130.93 123.4 130.93 123.4 131.78 125.5 131.78 125.5 131.25 126.13 131.25 126.13 132.94 125.5 132.94 125.5 132.41 123.4 132.41 123.4 133.25"/>
    <polygon class="cls-3" points="123.4 135.56 122.76 135.56 122.76 133.25 123.4 133.25 123.4 134.09 125.5 134.09 125.5 133.56 126.13 133.56 126.13 135.26 125.5 135.26 125.5 134.73 123.4 134.73 123.4 135.56"/>
    <polygon class="cls-3" points="123.4 137.88 122.76 137.88 122.76 135.56 123.4 135.56 123.4 136.41 125.5 136.41 125.5 135.88 126.13 135.88 126.13 137.57 125.5 137.57 125.5 137.04 123.4 137.04 123.4 137.88"/>
    <polygon class="cls-3" points="123.4 140.19 122.76 140.19 122.76 137.88 123.4 137.88 123.4 138.72 125.5 138.72 125.5 138.19 126.13 138.19 126.13 139.89 125.5 139.89 125.5 139.36 123.4 139.36 123.4 140.19"/>
    <polygon class="cls-3" points="123.4 142.51 122.76 142.51 122.76 140.19 123.4 140.19 123.4 141.04 125.5 141.04 125.5 140.51 126.13 140.51 126.13 142.2 125.5 142.2 125.5 141.67 123.4 141.67 123.4 142.51"/>
    <polygon class="cls-3" points="123.4 144.82 122.76 144.82 122.76 142.51 123.4 142.51 123.4 143.35 125.5 143.35 125.5 142.82 126.13 142.82 126.13 144.52 125.5 144.52 125.5 143.99 123.4 143.99 123.4 144.82"/>
    <polygon class="cls-3" points="123.4 147.14 122.76 147.14 122.76 144.82 123.4 144.82 123.4 145.67 125.5 145.67 125.5 145.14 126.13 145.14 126.13 146.83 125.5 146.83 125.5 146.3 123.4 146.3 123.4 147.14"/>
    <polygon class="cls-3" points="123.4 149.46 122.76 149.46 122.76 147.14 123.4 147.14 123.4 147.98 125.5 147.98 125.5 147.45 126.13 147.45 126.13 149.15 125.5 149.15 125.5 148.62 123.4 148.62 123.4 149.46"/>
    <polygon class="cls-3" points="123.4 151.77 122.76 151.77 122.76 149.46 123.4 149.46 123.4 150.3 125.5 150.3 125.5 149.77 126.13 149.77 126.13 151.46 125.5 151.46 125.5 150.93 123.4 150.93 123.4 151.77"/>
    <polygon class="cls-3" points="123.4 154.09 122.76 154.09 122.76 151.77 123.4 151.77 123.4 152.61 125.5 152.61 125.5 152.08 126.13 152.08 126.13 153.78 125.5 153.78 125.5 153.25 123.4 153.25 123.4 154.09"/>
    <polygon class="cls-3" points="123.4 156.4 122.76 156.4 122.76 154.09 123.4 154.09 123.4 154.93 125.5 154.93 125.5 154.4 126.13 154.4 126.13 156.09 125.5 156.09 125.5 155.56 123.4 155.56 123.4 156.4"/>
    <polygon class="cls-3" points="123.4 158.72 122.76 158.72 122.76 156.4 123.4 156.4 123.4 157.25 125.5 157.25 125.5 156.72 126.13 156.72 126.13 158.41 125.5 158.41 125.5 157.88 123.4 157.88 123.4 158.72"/>
    <polygon class="cls-3" points="123.4 161.03 122.76 161.03 122.76 158.72 123.4 158.72 123.4 159.56 125.5 159.56 125.5 159.03 126.13 159.03 126.13 160.72 125.5 160.72 125.5 160.19 123.4 160.19 123.4 161.03"/>
    <polygon class="cls-3" points="123.4 163.35 122.76 163.35 122.76 161.03 123.4 161.03 123.4 161.88 125.5 161.88 125.5 161.35 126.13 161.35 126.13 163.04 125.5 163.04 125.5 162.51 123.4 162.51 123.4 163.35"/>
    <polygon class="cls-3" points="123.4 165.66 122.76 165.66 122.76 163.35 123.4 163.35 123.4 164.19 125.5 164.19 125.5 163.66 126.13 163.66 126.13 165.35 125.5 165.35 125.5 164.82 123.4 164.82 123.4 165.66"/>
    <polygon class="cls-3" points="123.4 167.98 122.76 167.98 122.76 165.66 123.4 165.66 123.4 166.51 125.5 166.51 125.5 165.98 126.13 165.98 126.13 167.67 125.5 167.67 125.5 167.14 123.4 167.14 123.4 167.98"/>
    <polygon class="cls-3" points="123.4 170.29 122.76 170.29 122.76 167.98 123.4 167.98 123.4 168.82 125.5 168.82 125.5 168.29 126.13 168.29 126.13 169.98 125.5 169.98 125.5 169.45 123.4 169.45 123.4 170.29"/>
    <polygon class="cls-3" points="123.4 172.61 122.76 172.61 122.76 170.29 123.4 170.29 123.4 171.14 125.5 171.14 125.5 170.61 126.13 170.61 126.13 172.3 125.5 172.3 125.5 171.77 123.4 171.77 123.4 172.61"/>
    <polygon class="cls-3" points="123.4 174.92 122.76 174.92 122.76 172.61 123.4 172.61 123.4 173.45 125.5 173.45 125.5 172.92 126.13 172.92 126.13 174.61 125.5 174.61 125.5 174.08 123.4 174.08 123.4 174.92"/>
    <polygon class="cls-3" points="123.4 177.24 122.76 177.24 122.76 174.92 123.4 174.92 123.4 175.77 125.5 175.77 125.5 175.24 126.13 175.24 126.13 176.93 125.5 176.93 125.5 176.4 123.4 176.4 123.4 177.24"/>
    <polygon class="cls-3" points="123.4 179.55 122.76 179.55 122.76 177.24 123.4 177.24 123.4 178.08 125.5 178.08 125.5 177.55 126.13 177.55 126.13 179.24 125.5 179.24 125.5 178.72 123.4 178.72 123.4 179.55"/>
    <polygon class="cls-3" points="123.4 181.87 122.76 181.87 122.76 179.55 123.4 179.55 123.4 180.4 125.5 180.4 125.5 179.87 126.13 179.87 126.13 181.56 125.5 181.56 125.5 181.03 123.4 181.03 123.4 181.87"/>
    <polygon class="cls-3" points="123.4 184.18 122.76 184.18 122.76 181.87 123.4 181.87 123.4 182.71 125.5 182.71 125.5 182.18 126.13 182.18 126.13 183.87 125.5 183.87 125.5 183.35 123.4 183.35 123.4 184.18"/>
    <polygon class="cls-3" points="123.4 186.5 122.76 186.5 122.76 184.18 123.4 184.18 123.4 185.03 125.5 185.03 125.5 184.5 126.13 184.5 126.13 186.19 125.5 186.19 125.5 185.66 123.4 185.66 123.4 186.5"/>
    <polygon class="cls-3" points="123.4 188.81 122.76 188.81 122.76 186.5 123.4 186.5 123.4 187.34 125.5 187.34 125.5 186.81 126.13 186.81 126.13 188.51 125.5 188.51 125.5 187.98 123.4 187.98 123.4 188.81"/>
    <polygon class="cls-3" points="123.4 191.13 122.76 191.13 122.76 188.81 123.4 188.81 123.4 189.66 125.5 189.66 125.5 189.13 126.13 189.13 126.13 190.82 125.5 190.82 125.5 190.29 123.4 190.29 123.4 191.13"/>
    <polygon class="cls-3" points="123.4 193.44 122.76 193.44 122.76 191.13 123.4 191.13 123.4 191.97 125.5 191.97 125.5 191.44 126.13 191.44 126.13 193.14 125.5 193.14 125.5 192.61 123.4 192.61 123.4 193.44"/>
    <polygon class="cls-3" points="123.4 195.76 122.76 195.76 122.76 193.44 123.4 193.44 123.4 194.29 125.5 194.29 125.5 193.76 126.13 193.76 126.13 195.45 125.5 195.45 125.5 194.92 123.4 194.92 123.4 195.76"/>
    <polygon class="cls-3" points="123.4 198.07 122.76 198.07 122.76 195.76 123.4 195.76 123.4 196.6 125.5 196.6 125.5 196.07 126.13 196.07 126.13 197.77 125.5 197.77 125.5 197.24 123.4 197.24 123.4 198.07"/>
    <polygon class="cls-3" points="123.4 200.39 122.76 200.39 122.76 198.07 123.4 198.07 123.4 198.92 125.5 198.92 125.5 198.39 126.13 198.39 126.13 200.08 125.5 200.08 125.5 199.55 123.4 199.55 123.4 200.39"/>
    <polygon class="cls-3" points="123.4 202.7 122.76 202.7 122.76 200.39 123.4 200.39 123.4 201.23 125.5 201.23 125.5 200.7 126.13 200.7 126.13 202.4 125.5 202.4 125.5 201.87 123.4 201.87 123.4 202.7"/>
    <polygon class="cls-3" points="123.4 205.02 122.76 205.02 122.76 202.7 123.4 202.7 123.4 203.55 125.5 203.55 125.5 203.02 126.13 203.02 126.13 204.71 125.5 204.71 125.5 204.18 123.4 204.18 123.4 205.02"/>
    <polygon class="cls-3" points="123.4 207.33 122.76 207.33 122.76 205.02 123.4 205.02 123.4 205.86 125.5 205.86 125.5 205.33 126.13 205.33 126.13 207.03 125.5 207.03 125.5 206.5 123.4 206.5 123.4 207.33"/>
    <polygon class="cls-3" points="123.4 209.65 122.76 209.65 122.76 207.33 123.4 207.33 123.4 208.18 125.5 208.18 125.5 207.65 126.13 207.65 126.13 209.34 125.5 209.34 125.5 208.81 123.4 208.81 123.4 209.65"/>
    <polygon class="cls-3" points="123.4 211.96 122.76 211.96 122.76 209.65 123.4 209.65 123.4 210.49 125.5 210.49 125.5 209.96 126.13 209.96 126.13 211.66 125.5 211.66 125.5 211.13 123.4 211.13 123.4 211.96"/>
    <polygon class="cls-3" points="123.4 214.28 122.76 214.28 122.76 211.96 123.4 211.96 123.4 212.81 125.5 212.81 125.5 212.28 126.13 212.28 126.13 213.97 125.5 213.97 125.5 213.44 123.4 213.44 123.4 214.28"/>
    <polygon class="cls-3" points="123.4 216.59 122.76 216.59 122.76 214.28 123.4 214.28 123.4 215.12 125.5 215.12 125.5 214.59 126.13 214.59 126.13 216.29 125.5 216.29 125.5 215.76 123.4 215.76 123.4 216.59"/>
    <polygon class="cls-3" points="123.4 218.91 122.76 218.91 122.76 216.59 123.4 216.59 123.4 217.44 125.5 217.44 125.5 216.91 126.13 216.91 126.13 218.6 125.5 218.6 125.5 218.07 123.4 218.07 123.4 218.91"/>
    <polygon class="cls-3" points="123.4 221.23 122.76 221.23 122.76 218.91 123.4 218.91 123.4 219.75 125.5 219.75 125.5 219.22 126.13 219.22 126.13 220.92 125.5 220.92 125.5 220.39 123.4 220.39 123.4 221.23"/>
    <polygon class="cls-3" points="123.4 223.54 122.76 223.54 122.76 221.23 123.4 221.23 123.4 222.07 125.5 222.07 125.5 221.54 126.13 221.54 126.13 223.23 125.5 223.23 125.5 222.7 123.4 222.7 123.4 223.54"/>
    <polygon class="cls-3" points="123.4 225.86 122.76 225.86 122.76 223.54 123.4 223.54 123.4 224.38 125.5 224.38 125.5 223.85 126.13 223.85 126.13 225.55 125.5 225.55 125.5 225.02 123.4 225.02 123.4 225.86"/>
    <polygon class="cls-3" points="123.4 228.17 122.76 228.17 122.76 225.86 123.4 225.86 123.4 226.7 125.5 226.7 125.5 226.17 126.13 226.17 126.13 227.86 125.5 227.86 125.5 227.33 123.4 227.33 123.4 228.17"/>
    <polygon class="cls-3" points="123.4 230.49 122.76 230.49 122.76 228.17 123.4 228.17 123.4 229.01 125.5 229.01 125.5 228.49 126.13 228.49 126.13 230.18 125.5 230.18 125.5 229.65 123.4 229.65 123.4 230.49"/>
    <polygon class="cls-3" points="123.4 232.8 122.76 232.8 122.76 230.49 123.4 230.49 123.4 231.33 125.5 231.33 125.5 230.8 126.13 230.8 126.13 232.49 125.5 232.49 125.5 231.96 123.4 231.96 123.4 232.8"/>
    <polygon class="cls-3" points="123.4 235.12 122.76 235.12 122.76 232.8 123.4 232.8 123.4 233.65 125.5 233.65 125.5 233.12 126.13 233.12 126.13 234.81 125.5 234.81 125.5 234.28 123.4 234.28 123.4 235.12"/>
    <polygon class="cls-3" points="123.4 237.43 122.76 237.43 122.76 235.12 123.4 235.12 123.4 235.96 125.5 235.96 125.5 235.43 126.13 235.43 126.13 237.12 125.5 237.12 125.5 236.59 123.4 236.59 123.4 237.43"/>
    <polygon class="cls-3" points="123.4 239.75 122.76 239.75 122.76 237.43 123.4 237.43 123.4 238.28 125.5 238.28 125.5 237.75 126.13 237.75 126.13 239.44 125.5 239.44 125.5 238.91 123.4 238.91 123.4 239.75"/>
    <polygon class="cls-3" points="123.4 242.06 122.76 242.06 122.76 239.75 123.4 239.75 123.4 240.59 125.5 240.59 125.5 240.06 126.13 240.06 126.13 241.75 125.5 241.75 125.5 241.22 123.4 241.22 123.4 242.06"/>
    <polygon class="cls-3" points="123.4 244.38 122.76 244.38 122.76 242.06 123.4 242.06 123.4 242.91 125.5 242.91 125.5 242.38 126.13 242.38 126.13 244.07 125.5 244.07 125.5 243.54 123.4 243.54 123.4 244.38"/>
    <polygon class="cls-3" points="123.4 246.69 122.76 246.69 122.76 244.38 123.4 244.38 123.4 245.22 125.5 245.22 125.5 244.69 126.13 244.69 126.13 246.38 125.5 246.38 125.5 245.85 123.4 245.85 123.4 246.69"/>
    <polygon class="cls-3" points="123.4 249.01 122.76 249.01 122.76 246.69 123.4 246.69 123.4 247.54 125.5 247.54 125.5 247.01 126.13 247.01 126.13 248.7 125.5 248.7 125.5 248.17 123.4 248.17 123.4 249.01"/>
    <polygon class="cls-3" points="123.4 251.32 122.76 251.32 122.76 249.01 123.4 249.01 123.4 249.85 125.5 249.85 125.5 249.32 126.13 249.32 126.13 251.01 125.5 251.01 125.5 250.49 123.4 250.49 123.4 251.32"/>
    <polygon class="cls-3" points="123.4 253.64 122.76 253.64 122.76 251.32 123.4 251.32 123.4 252.17 125.5 252.17 125.5 251.64 126.13 251.64 126.13 253.33 125.5 253.33 125.5 252.8 123.4 252.8 123.4 253.64"/>
    <polygon class="cls-3" points="123.4 255.95 122.76 255.95 122.76 253.64 123.4 253.64 123.4 254.48 125.5 254.48 125.5 253.95 126.13 253.95 126.13 255.64 125.5 255.64 125.5 255.12 123.4 255.12 123.4 255.95"/>
    <polygon class="cls-3" points="123.4 258.27 122.76 258.27 122.76 255.95 123.4 255.95 123.4 256.8 125.5 256.8 125.5 256.27 126.13 256.27 126.13 257.96 125.5 257.96 125.5 257.43 123.4 257.43 123.4 258.27"/>
    <polygon class="cls-3" points="123.4 260.58 122.76 260.58 122.76 258.27 123.4 258.27 123.4 259.11 125.5 259.11 125.5 258.58 126.13 258.58 126.13 260.28 125.5 260.28 125.5 259.75 123.4 259.75 123.4 260.58"/>
    <polygon class="cls-3" points="123.4 262.9 122.76 262.9 122.76 260.58 123.4 260.58 123.4 261.43 125.5 261.43 125.5 260.9 126.13 260.9 126.13 262.59 125.5 262.59 125.5 262.06 123.4 262.06 123.4 262.9"/>
    <polygon class="cls-3" points="123.4 265.21 122.76 265.21 122.76 262.9 123.4 262.9 123.4 263.74 125.5 263.74 125.5 263.21 126.13 263.21 126.13 264.91 125.5 264.91 125.5 264.38 123.4 264.38 123.4 265.21"/>
    <polygon class="cls-3" points="123.4 267.53 122.76 267.53 122.76 265.21 123.4 265.21 123.4 266.06 125.5 266.06 125.5 265.53 126.13 265.53 126.13 267.22 125.5 267.22 125.5 266.69 123.4 266.69 123.4 267.53"/>
    <polygon class="cls-3" points="123.4 269.84 122.76 269.84 122.76 267.53 123.4 267.53 123.4 268.37 125.5 268.37 125.5 267.84 126.13 267.84 126.13 269.54 125.5 269.54 125.5 269.01 123.4 269.01 123.4 269.84"/>
    <polygon class="cls-3" points="123.4 272.16 122.76 272.16 122.76 269.84 123.4 269.84 123.4 270.69 125.5 270.69 125.5 270.16 126.13 270.16 126.13 271.85 125.5 271.85 125.5 271.32 123.4 271.32 123.4 272.16"/>
    <polygon class="cls-3" points="123.4 274.47 122.76 274.47 122.76 272.16 123.4 272.16 123.4 273 125.5 273 125.5 272.47 126.13 272.47 126.13 274.17 125.5 274.17 125.5 273.64 123.4 273.64 123.4 274.47"/>
    <polygon class="cls-3" points="123.4 276.79 122.76 276.79 122.76 274.47 123.4 274.47 123.4 275.32 125.5 275.32 125.5 274.79 126.13 274.79 126.13 276.48 125.5 276.48 125.5 275.95 123.4 275.95 123.4 276.79"/>
    <polygon class="cls-3" points="123.4 279.1 122.76 279.1 122.76 276.79 123.4 276.79 123.4 277.63 125.5 277.63 125.5 277.1 126.13 277.1 126.13 278.8 125.5 278.8 125.5 278.27 123.4 278.27 123.4 279.1"/>
    <polygon class="cls-3" points="123.4 281.42 122.76 281.42 122.76 279.1 123.4 279.1 123.4 279.95 125.5 279.95 125.5 279.42 126.13 279.42 126.13 281.11 125.5 281.11 125.5 280.58 123.4 280.58 123.4 281.42"/>
    <polygon class="cls-3" points="123.4 283.73 122.76 283.73 122.76 281.42 123.4 281.42 123.4 282.26 125.5 282.26 125.5 281.73 126.13 281.73 126.13 283.43 125.5 283.43 125.5 282.9 123.4 282.9 123.4 283.73"/>
    <polygon class="cls-3" points="123.4 286.05 122.76 286.05 122.76 283.73 123.4 283.73 123.4 284.58 125.5 284.58 125.5 284.05 126.13 284.05 126.13 285.74 125.5 285.74 125.5 285.21 123.4 285.21 123.4 286.05"/>
    <polygon class="cls-3" points="123.4 288.36 122.76 288.36 122.76 286.05 123.4 286.05 123.4 286.89 125.5 286.89 125.5 286.36 126.13 286.36 126.13 288.06 125.5 288.06 125.5 287.53 123.4 287.53 123.4 288.36"/>
    <polygon class="cls-3" points="123.4 290.68 122.76 290.68 122.76 288.36 123.4 288.36 123.4 289.21 125.5 289.21 125.5 288.68 126.13 288.68 126.13 290.37 125.5 290.37 125.5 289.84 123.4 289.84 123.4 290.68"/>
    <polygon class="cls-3" points="123.4 292.99 122.76 292.99 122.76 290.68 123.4 290.68 123.4 291.52 125.5 291.52 125.5 290.99 126.13 290.99 126.13 292.69 125.5 292.69 125.5 292.16 123.4 292.16 123.4 292.99"/>
    <polygon class="cls-3" points="123.4 295.31 122.76 295.31 122.76 292.99 123.4 292.99 123.4 293.84 125.5 293.84 125.5 293.31 126.13 293.31 126.13 295 125.5 295 125.5 294.47 123.4 294.47 123.4 295.31"/>
    <polygon class="cls-3" points="123.4 297.63 122.76 297.63 122.76 295.31 123.4 295.31 123.4 296.15 125.5 296.15 125.5 295.62 126.13 295.62 126.13 297.32 125.5 297.32 125.5 296.79 123.4 296.79 123.4 297.63"/>
    <polygon class="cls-3" points="123.4 299.94 122.76 299.94 122.76 297.63 123.4 297.63 123.4 298.47 125.5 298.47 125.5 297.94 126.13 297.94 126.13 299.63 125.5 299.63 125.5 299.1 123.4 299.1 123.4 299.94"/>
    <polygon class="cls-3" points="123.4 302.26 122.76 302.26 122.76 299.94 123.4 299.94 123.4 300.78 125.5 300.78 125.5 300.25 126.13 300.25 126.13 301.95 125.5 301.95 125.5 301.42 123.4 301.42 123.4 302.26"/>
    <polygon class="cls-3" points="123.4 304.57 122.76 304.57 122.76 302.26 123.4 302.26 123.4 303.1 125.5 303.1 125.5 302.57 126.13 302.57 126.13 304.26 125.5 304.26 125.5 303.73 123.4 303.73 123.4 304.57"/>
    <polygon class="cls-3" points="123.4 306.89 122.76 306.89 122.76 304.57 123.4 304.57 123.4 305.42 125.5 305.42 125.5 304.89 126.13 304.89 126.13 306.58 125.5 306.58 125.5 306.05 123.4 306.05 123.4 306.89"/>
    <polygon class="cls-3" points="123.4 309.2 122.76 309.2 122.76 306.89 123.4 306.89 123.4 307.73 125.5 307.73 125.5 307.2 126.13 307.2 126.13 308.89 125.5 308.89 125.5 308.36 123.4 308.36 123.4 309.2"/>
    <polygon class="cls-3" points="123.4 311.52 122.76 311.52 122.76 309.2 123.4 309.2 123.4 310.05 125.5 310.05 125.5 309.52 126.13 309.52 126.13 311.21 125.5 311.21 125.5 310.68 123.4 310.68 123.4 311.52"/>
    <polygon class="cls-3" points="123.4 313.83 122.76 313.83 122.76 311.52 123.4 311.52 123.4 312.36 125.5 312.36 125.5 311.83 126.13 311.83 126.13 313.52 125.5 313.52 125.5 312.99 123.4 312.99 123.4 313.83"/>
    <polygon class="cls-3" points="123.4 316.15 122.76 316.15 122.76 313.83 123.4 313.83 123.4 314.68 125.5 314.68 125.5 314.15 126.13 314.15 126.13 315.84 125.5 315.84 125.5 315.31 123.4 315.31 123.4 316.15"/>
    <polygon class="cls-3" points="120.47 316.78 120.47 316.15 122.76 316.15 122.76 316.78 121.93 316.78 121.93 318.88 122.45 318.88 122.45 319.52 120.78 319.52 120.78 318.88 121.3 318.88 121.3 316.78 120.47 316.78"/>
    <polygon class="cls-3" points="118.18 316.78 118.18 316.15 120.47 316.15 120.47 316.78 119.64 316.78 119.64 318.88 120.16 318.88 120.16 319.52 118.48 319.52 118.48 318.88 119.01 318.88 119.01 316.78 118.18 316.78"/>
    <polygon class="cls-3" points="115.89 316.78 115.89 316.15 118.18 316.15 118.18 316.78 117.34 316.78 117.34 318.88 117.87 318.88 117.87 319.52 116.19 319.52 116.19 318.88 116.72 318.88 116.72 316.78 115.89 316.78"/>
    <polygon class="cls-3" points="113.59 316.78 113.59 316.15 115.89 316.15 115.89 316.78 115.05 316.78 115.05 318.88 115.58 318.88 115.58 319.52 113.9 319.52 113.9 318.88 114.42 318.88 114.42 316.78 113.59 316.78"/>
    <polygon class="cls-3" points="111.3 316.78 111.3 316.15 113.59 316.15 113.59 316.78 112.76 316.78 112.76 318.88 113.28 318.88 113.28 319.52 111.61 319.52 111.61 318.88 112.13 318.88 112.13 316.78 111.3 316.78"/>
    <polygon class="cls-3" points="109.01 316.78 109.01 316.15 111.3 316.15 111.3 316.78 110.47 316.78 110.47 318.88 110.99 318.88 110.99 319.52 109.31 319.52 109.31 318.88 109.84 318.88 109.84 316.78 109.01 316.78"/>
    <polygon class="cls-3" points="106.72 316.78 106.72 316.15 109.01 316.15 109.01 316.78 108.17 316.78 108.17 318.88 108.7 318.88 108.7 319.52 107.02 319.52 107.02 318.88 107.55 318.88 107.55 316.78 106.72 316.78"/>
    <polygon class="cls-3" points="104.42 316.78 104.42 316.15 106.72 316.15 106.72 316.78 105.88 316.78 105.88 318.88 106.4 318.88 106.4 319.52 104.73 319.52 104.73 318.88 105.25 318.88 105.25 316.78 104.42 316.78"/>
    <polygon class="cls-3" points="102.13 316.78 102.13 316.15 104.42 316.15 104.42 316.78 103.59 316.78 103.59 318.88 104.11 318.88 104.11 319.52 102.44 319.52 102.44 318.88 102.96 318.88 102.96 316.78 102.13 316.78"/>
    <polygon class="cls-3" points="99.84 316.78 99.84 316.15 102.13 316.15 102.13 316.78 101.29 316.78 101.29 318.88 101.82 318.88 101.82 319.52 100.14 319.52 100.14 318.88 100.67 318.88 100.67 316.78 99.84 316.78"/>
    <polygon class="cls-3" points="97.55 316.78 97.55 316.15 99.84 316.15 99.84 316.78 99 316.78 99 318.88 99.53 318.88 99.53 319.52 97.85 319.52 97.85 318.88 98.37 318.88 98.37 316.78 97.55 316.78"/>
    <polygon class="cls-3" points="95.25 316.78 95.25 316.15 97.55 316.15 97.55 316.78 96.71 316.78 96.71 318.88 97.23 318.88 97.23 319.52 95.56 319.52 95.56 318.88 96.08 318.88 96.08 316.78 95.25 316.78"/>
    <polygon class="cls-3" points="92.96 316.78 92.96 316.15 95.25 316.15 95.25 316.78 94.42 316.78 94.42 318.88 94.94 318.88 94.94 319.52 93.26 319.52 93.26 318.88 93.79 318.88 93.79 316.78 92.96 316.78"/>
    <polygon class="cls-3" points="90.67 316.78 90.67 316.15 92.96 316.15 92.96 316.78 92.12 316.78 92.12 318.88 92.65 318.88 92.65 319.52 90.97 319.52 90.97 318.88 91.5 318.88 91.5 316.78 90.67 316.78"/>
    <polygon class="cls-3" points="88.37 316.78 88.37 316.15 90.67 316.15 90.67 316.78 89.83 316.78 89.83 318.88 90.36 318.88 90.36 319.52 88.68 319.52 88.68 318.88 89.2 318.88 89.2 316.78 88.37 316.78"/>
    <polygon class="cls-3" points="86.08 316.78 86.08 316.15 88.37 316.15 88.37 316.78 87.54 316.78 87.54 318.88 88.06 318.88 88.06 319.52 86.39 319.52 86.39 318.88 86.91 318.88 86.91 316.78 86.08 316.78"/>
    <polygon class="cls-3" points="83.79 316.78 83.79 316.15 86.08 316.15 86.08 316.78 85.25 316.78 85.25 318.88 85.77 318.88 85.77 319.52 84.09 319.52 84.09 318.88 84.62 318.88 84.62 316.78 83.79 316.78"/>
    <polygon class="cls-3" points="81.5 316.78 81.5 316.15 83.79 316.15 83.79 316.78 82.95 316.78 82.95 318.88 83.48 318.88 83.48 319.52 81.8 319.52 81.8 318.88 82.33 318.88 82.33 316.78 81.5 316.78"/>
    <polygon class="cls-3" points="79.2 316.78 79.2 316.15 81.5 316.15 81.5 316.78 80.66 316.78 80.66 318.88 81.19 318.88 81.19 319.52 79.51 319.52 79.51 318.88 80.03 318.88 80.03 316.78 79.2 316.78"/>
    <polygon class="cls-3" points="76.91 316.78 76.91 316.15 79.2 316.15 79.2 316.78 78.37 316.78 78.37 318.88 78.89 318.88 78.89 319.52 77.22 319.52 77.22 318.88 77.74 318.88 77.74 316.78 76.91 316.78"/>
    <polygon class="cls-3" points="74.62 316.78 74.62 316.15 76.91 316.15 76.91 316.78 76.08 316.78 76.08 318.88 76.6 318.88 76.6 319.52 74.92 319.52 74.92 318.88 75.45 318.88 75.45 316.78 74.62 316.78"/>
    <polygon class="cls-3" points="72.33 316.78 72.33 316.15 74.62 316.15 74.62 316.78 73.78 316.78 73.78 318.88 74.31 318.88 74.31 319.52 72.63 319.52 72.63 318.88 73.16 318.88 73.16 316.78 72.33 316.78"/>
    <polygon class="cls-3" points="70.03 316.78 70.03 316.15 72.33 316.15 72.33 316.78 71.49 316.78 71.49 318.88 72.02 318.88 72.02 319.52 70.34 319.52 70.34 318.88 70.86 318.88 70.86 316.78 70.03 316.78"/>
    <polygon class="cls-3" points="67.74 316.78 67.74 316.15 70.03 316.15 70.03 316.78 69.2 316.78 69.2 318.88 69.72 318.88 69.72 319.52 68.05 319.52 68.05 318.88 68.57 318.88 68.57 316.78 67.74 316.78"/>
    <polygon class="cls-3" points="65.45 316.78 65.45 316.15 67.74 316.15 67.74 316.78 66.91 316.78 66.91 318.88 67.43 318.88 67.43 319.52 65.75 319.52 65.75 318.88 66.28 318.88 66.28 316.78 65.45 316.78"/>
    <polygon class="cls-3" points="63.16 316.78 63.16 316.15 65.45 316.15 65.45 316.78 64.61 316.78 64.61 318.88 65.14 318.88 65.14 319.52 63.46 319.52 63.46 318.88 63.98 318.88 63.98 316.78 63.16 316.78"/>
    <polygon class="cls-3" points="60.86 316.78 60.86 316.15 63.16 316.15 63.16 316.78 62.32 316.78 62.32 318.88 62.84 318.88 62.84 319.52 61.17 319.52 61.17 318.88 61.69 318.88 61.69 316.78 60.86 316.78"/>
    <polygon class="cls-3" points="58.57 316.78 58.57 316.15 60.86 316.15 60.86 316.78 60.03 316.78 60.03 318.88 60.55 318.88 60.55 319.52 58.88 319.52 58.88 318.88 59.4 318.88 59.4 316.78 58.57 316.78"/>
    <polygon class="cls-3" points="56.28 316.78 56.28 316.15 58.57 316.15 58.57 316.78 57.73 316.78 57.73 318.88 58.26 318.88 58.26 319.52 56.58 319.52 56.58 318.88 57.11 318.88 57.11 316.78 56.28 316.78"/>
    <polygon class="cls-3" points="53.99 316.78 53.99 316.15 56.28 316.15 56.28 316.78 55.44 316.78 55.44 318.88 55.97 318.88 55.97 319.52 54.29 319.52 54.29 318.88 54.81 318.88 54.81 316.78 53.99 316.78"/>
    <polygon class="cls-3" points="51.69 316.78 51.69 316.15 53.99 316.15 53.99 316.78 53.15 316.78 53.15 318.88 53.67 318.88 53.67 319.52 52 319.52 52 318.88 52.52 318.88 52.52 316.78 51.69 316.78"/>
    <polygon class="cls-3" points="49.4 316.78 49.4 316.15 51.69 316.15 51.69 316.78 50.86 316.78 50.86 318.88 51.38 318.88 51.38 319.52 49.7 319.52 49.7 318.88 50.23 318.88 50.23 316.78 49.4 316.78"/>
    <polygon class="cls-3" points="47.11 316.78 47.11 316.15 49.4 316.15 49.4 316.78 48.56 316.78 48.56 318.88 49.09 318.88 49.09 319.52 47.41 319.52 47.41 318.88 47.94 318.88 47.94 316.78 47.11 316.78"/>
    <polygon class="cls-3" points="44.81 316.78 44.81 316.15 47.11 316.15 47.11 316.78 46.27 316.78 46.27 318.88 46.8 318.88 46.8 319.52 45.12 319.52 45.12 318.88 45.64 318.88 45.64 316.78 44.81 316.78"/>
    <polygon class="cls-3" points="42.52 316.78 42.52 316.15 44.81 316.15 44.81 316.78 43.98 316.78 43.98 318.88 44.5 318.88 44.5 319.52 42.83 319.52 42.83 318.88 43.35 318.88 43.35 316.78 42.52 316.78"/>
    <polygon class="cls-3" points="40.23 316.78 40.23 316.15 42.52 316.15 42.52 316.78 41.69 316.78 41.69 318.88 42.21 318.88 42.21 319.52 40.53 319.52 40.53 318.88 41.06 318.88 41.06 316.78 40.23 316.78"/>
    <polygon class="cls-3" points="37.94 316.78 37.94 316.15 40.23 316.15 40.23 316.78 39.39 316.78 39.39 318.88 39.92 318.88 39.92 319.52 38.24 319.52 38.24 318.88 38.77 318.88 38.77 316.78 37.94 316.78"/>
    <polygon class="cls-3" points="35.64 316.78 35.64 316.15 37.94 316.15 37.94 316.78 37.1 316.78 37.1 318.88 37.63 318.88 37.63 319.52 35.95 319.52 35.95 318.88 36.47 318.88 36.47 316.78 35.64 316.78"/>
    <polygon class="cls-3" points="33.35 316.78 33.35 316.15 35.64 316.15 35.64 316.78 34.81 316.78 34.81 318.88 35.33 318.88 35.33 319.52 33.66 319.52 33.66 318.88 34.18 318.88 34.18 316.78 33.35 316.78"/>
    <polygon class="cls-3" points="31.06 316.78 31.06 316.15 33.35 316.15 33.35 316.78 32.52 316.78 32.52 318.88 33.04 318.88 33.04 319.52 31.36 319.52 31.36 318.88 31.89 318.88 31.89 316.78 31.06 316.78"/>
    <polygon class="cls-3" points="28.77 316.78 28.77 316.15 31.06 316.15 31.06 316.78 30.22 316.78 30.22 318.88 30.75 318.88 30.75 319.52 29.07 319.52 29.07 318.88 29.6 318.88 29.6 316.78 28.77 316.78"/>
    <polygon class="cls-3" points="26.47 316.78 26.47 316.15 28.77 316.15 28.77 316.78 27.93 316.78 27.93 318.88 28.45 318.88 28.45 319.52 26.78 319.52 26.78 318.88 27.3 318.88 27.3 316.78 26.47 316.78"/>
    <polygon class="cls-3" points="24.18 316.78 24.18 316.15 26.47 316.15 26.47 316.78 25.64 316.78 25.64 318.88 26.16 318.88 26.16 319.52 24.49 319.52 24.49 318.88 25.01 318.88 25.01 316.78 24.18 316.78"/>
    <polygon class="cls-3" points="21.89 316.78 21.89 316.15 24.18 316.15 24.18 316.78 23.34 316.78 23.34 318.88 23.87 318.88 23.87 319.52 22.19 319.52 22.19 318.88 22.72 318.88 22.72 316.78 21.89 316.78"/>
    <polygon class="cls-3" points="19.6 316.78 19.6 316.15 21.89 316.15 21.89 316.78 21.05 316.78 21.05 318.88 21.58 318.88 21.58 319.52 19.9 319.52 19.9 318.88 20.42 318.88 20.42 316.78 19.6 316.78"/>
    <polygon class="cls-3" points="17.3 316.78 17.3 316.15 19.6 316.15 19.6 316.78 18.76 316.78 18.76 318.88 19.28 318.88 19.28 319.52 17.61 319.52 17.61 318.88 18.13 318.88 18.13 316.78 17.3 316.78"/>
    <polygon class="cls-3" points="15.01 316.78 15.01 316.15 17.3 316.15 17.3 316.78 16.47 316.78 16.47 318.88 16.99 318.88 16.99 319.52 15.32 319.52 15.32 318.88 15.84 318.88 15.84 316.78 15.01 316.78"/>
    <polygon class="cls-3" points="12.72 316.78 12.72 316.15 15.01 316.15 15.01 316.78 14.17 316.78 14.17 318.88 14.7 318.88 14.7 319.52 13.02 319.52 13.02 318.88 13.55 318.88 13.55 316.78 12.72 316.78"/>
    <polygon class="cls-3" points="10.43 316.78 10.43 316.15 12.72 316.15 12.72 316.78 11.88 316.78 11.88 318.88 12.41 318.88 12.41 319.52 10.73 319.52 10.73 318.88 11.25 318.88 11.25 316.78 10.43 316.78"/>
    <polygon class="cls-3" points="8.13 316.78 8.13 316.15 10.43 316.15 10.43 316.78 9.59 316.78 9.59 318.88 10.11 318.88 10.11 319.52 8.44 319.52 8.44 318.88 8.96 318.88 8.96 316.78 8.13 316.78"/>
    <polygon class="cls-3" points="5.84 316.78 5.84 316.15 8.13 316.15 8.13 316.78 7.3 316.78 7.3 318.88 7.82 318.88 7.82 319.52 6.14 319.52 6.14 318.88 6.67 318.88 6.67 316.78 5.84 316.78"/>
    <polygon class="cls-3" points="3.55 316.78 3.55 316.15 5.84 316.15 5.84 316.78 5 316.78 5 318.88 5.53 318.88 5.53 319.52 3.85 319.52 3.85 318.88 4.38 318.88 4.38 316.78 3.55 316.78"/>
    <g class="cls-8">
      <polygon class="cls-3" points="2.92 .23 3.55 .23 3.55 3.6 2.92 3.6 2.92 2.37 .81 2.37 .81 3.14 .18 3.14 .18 .68 .81 .68 .81 1.45 2.92 1.45 2.92 .23"/>
    </g>
    <g class="cls-6">
      <polygon class="cls-3" points="3.55 2.97 3.55 3.6 .18 3.6 .18 2.97 1.41 2.97 1.41 .86 .64 .86 .64 .23 3.1 .23 3.1 .86 2.33 .86 2.33 2.97 3.55 2.97"/>
    </g>
    <g class="cls-1">
      <polygon class="cls-3" points="126.13 2.97 126.13 3.6 122.76 3.6 122.76 2.97 123.99 2.97 123.99 .86 123.22 .86 123.22 .23 125.69 .23 125.69 .86 124.92 .86 124.92 2.97 126.13 2.97"/>
    </g>
    <g class="cls-9">
      <polygon class="cls-3" points="123.4 3.6 122.76 3.6 122.76 .23 123.4 .23 123.4 1.46 125.5 1.46 125.5 .69 126.13 .69 126.13 3.15 125.5 3.15 125.5 2.38 123.4 2.38 123.4 3.6"/>
    </g>
    <g class="cls-7">
      <polygon class="cls-3" points="123.4 319.52 122.76 319.52 122.76 316.15 123.4 316.15 123.4 317.38 125.5 317.38 125.5 316.6 126.13 316.6 126.13 319.07 125.5 319.07 125.5 318.3 123.4 318.3 123.4 319.52"/>
    </g>
    <g class="cls-10">
      <polygon class="cls-3" points="122.76 316.78 122.76 316.15 126.13 316.15 126.13 316.78 124.9 316.78 124.9 318.88 125.68 318.88 125.68 319.52 123.21 319.52 123.21 318.88 123.98 318.88 123.98 316.78 122.76 316.78"/>
    </g>
    <g class="cls-2">
      <polygon class="cls-3" points=".18 316.78 .18 316.15 3.55 316.15 3.55 316.78 2.32 316.78 2.32 318.88 3.09 318.88 3.09 319.52 .63 319.52 .63 318.88 1.4 318.88 1.4 316.78 .18 316.78"/>
    </g>
    <g class="cls-5">
      <polygon class="cls-3" points="2.92 316.15 3.55 316.15 3.55 319.52 2.92 319.52 2.92 318.29 .81 318.29 .81 319.06 .18 319.06 .18 316.59 .81 316.59 .81 317.36 2.92 317.36 2.92 316.15"/>
    </g>
  </g>
</svg>